<?xml version="1.0" encoding="UTF-8" standalone="no"?>
<!-- Created with Inkscape (http://www.inkscape.org/) -->

<svg
   xmlns:dc="http://purl.org/dc/elements/1.1/"
   xmlns:cc="http://creativecommons.org/ns#"
   xmlns:rdf="http://www.w3.org/1999/02/22-rdf-syntax-ns#"
   xmlns:svg="http://www.w3.org/2000/svg"
   xmlns="http://www.w3.org/2000/svg"
   xmlns:sodipodi="http://sodipodi.sourceforge.net/DTD/sodipodi-0.dtd"
   xmlns:inkscape="http://www.inkscape.org/namespaces/inkscape"
   id="svg3402"
   version="1.1"
   inkscape:version="0.91 r13725"
   width="153"
   height="154"
   viewBox="0 0 153 154"
   sodipodi:docname="boom1.svg">
  <metadata
     id="metadata3408">
    <rdf:RDF>
      <cc:Work
         rdf:about="">
        <dc:format>image/svg+xml</dc:format>
        <dc:type
           rdf:resource="http://purl.org/dc/dcmitype/StillImage" />
        <dc:title></dc:title>
      </cc:Work>
    </rdf:RDF>
  </metadata>
  <defs
     id="defs3406" />
  <sodipodi:namedview
     pagecolor="#ffffff"
     bordercolor="#666666"
     borderopacity="1"
     objecttolerance="10"
     gridtolerance="10"
     guidetolerance="10"
     inkscape:pageopacity="0"
     inkscape:pageshadow="2"
     inkscape:window-width="1538"
     inkscape:window-height="877"
     id="namedview3404"
     showgrid="false"
     inkscape:zoom="4.3344727"
     inkscape:cx="97.924132"
     inkscape:cy="112.80994"
     inkscape:window-x="54"
     inkscape:window-y="-8"
     inkscape:window-maximized="1"
     inkscape:current-layer="svg3402" />
  <path
     style="fill:#373334"
     d="m 43.48934,152.14352 c -1.73922,-1.06049 -3.60923,-2.72696 -4.1556,-3.70326 -0.75681,-1.35235 -2.03084,-1.7113 -5.34957,-1.50721 -5.84662,0.35953 -10.81939,-2.94643 -12.74563,-8.47347 -1.17075,-3.35927 -2.10814,-4.29666 -5.4674,-5.4674 -5.49263,-1.91425 -8.8327101,-6.90387 -8.4784001,-12.66554 0.21234,-3.45287 -0.16207,-4.57379 -1.94483,-5.82248 -6.29366003,-4.40825 -6.78589,-15.371139 -0.90915,-20.248398 1.00232,-0.831852 1.28268,-2.597372 0.95462,-6.011564 -0.82781,-8.615208 4.0726703,-14.165031 12.5077001,-14.165031 3.74698,0 3.83965,-0.08603 3.50109,-3.25 -0.81932,-7.656796 6.56024,-14.281593 14.8979,-13.374179 3.72093,0.40496 4.99222,0.126133 6.37092,-1.397309 4.68201,-5.17356 14.47338,-4.61237 18.67479,1.070341 1.86393,2.5211 2.66897,2.879835 5.33868,2.378994 6.20973,-1.164953 14.45079,4.990538 14.46334,10.803101 0.002,1.055889 1.07623,1.995067 2.75374,2.408188 6.75661,1.663943 10.25,6.359072 10.25,13.77602 0,3.483192 0.45452,4.757725 1.98965,5.579305 2.796837,1.496824 5.01101,6.231494 5.00661,10.705882 -0.004,3.74587 -3.10585,10.29966 -4.87523,10.29966 -0.52873,0 -0.48973,1.64931 0.0933,3.94631 1.882,7.41447 -4.36501,15.40864 -12.11652,15.50526 l -3.88526,0.0484 -0.47755,4.93797 c -0.3987,4.12266 -1.09493,5.50377 -4.21672,8.36468 -3.48941,3.1978 -4.10023,3.39675 -9.14441,2.97845 -3.85633,-0.3198 -5.73807,-0.0472 -6.56672,0.95126 -3.62419,4.36688 -11.34033,5.45945 -16.46936,2.33199 z m 13.41071,-3.3685 c 2.0071,-1.82248 2.08897,-2.21796 0.76249,-3.68369 -0.8173,-0.90312 -1.98565,-3.07531 -2.59633,-4.82709 -0.68712,-1.97109 -1.78866,-3.18507 -2.89005,-3.18507 -1.97432,0 -4.36017,-2.33112 -3.38446,-3.30683 0.34255,-0.34254 1.51487,-0.14538 2.60518,0.43813 1.79123,0.95864 5.99696,0.86199 9.62966,-0.22128 0.75625,-0.22551 1.58242,0.156 1.83594,0.84779 0.28266,0.77132 -0.73264,1.49653 -2.625,1.875 -3.80982,0.76197 -3.89783,2.43502 -0.33594,6.38614 5.48514,6.08452 14.69776,4.21444 17.24387,-3.50037 1.71862,-5.20745 0.35315,-7.72271 -9.52967,-17.55419 l -8.44425,-8.40039 -4.25997,4.10121 c -2.34299,2.25566 -5.24289,4.60376 -6.44424,5.218 -2.84588,1.45508 -8.54399,1.42555 -11.80702,-0.0612 -2.41002,-1.09808 -2.95585,-0.81212 -8.04705,4.21584 -6.39632,6.31686 -6.9674,9.26103 -2.71167,13.97978 2.89716,3.21236 6.40721,3.98923 11.5,2.54526 2.07584,-0.58857 2.75,-0.43128 2.75,0.6416 0,1.84015 4.91885,6.46851 7.5,7.05708 3.0878,0.70409 6.77351,-0.3184 9.24851,-2.56573 z M 27.16668,125.56384 c 4.83775,-4.8986 5.30917,-5.73573 4.21584,-7.48643 -1.456,-2.33142 -1.61519,-4.99824 -0.29837,-4.99824 0.51294,0 1.21199,0.88024 1.55345,1.95608 0.34146,1.07584 2.0373,3.14795 3.76853,4.60469 4.76815,4.01213 9.64454,3.01629 15.9099,-3.24907 L 57.15035,111.55655 39.64022,94.067857 C 22.19111,76.64012 22.11452,76.579167 17.66354,76.579167 c -6.32287,0 -10.0120001,3.723306 -10.0120001,10.104756 0,3.886013 0.48227,4.99021 3.2657801,7.477273 4.11557,3.677261 5.08027,3.658046 6.39991,-0.127473 0.58391,-1.674995 1.573,-2.856245 2.19798,-2.625 0.62498,0.231244 0.9115,1.039194 0.6367,1.795444 -0.2748,0.75625 -0.43657,3.976715 -0.35948,7.156593 0.11716,4.83284 -0.088,5.59221 -1.25036,4.62755 -0.76479,-0.63471 -1.39053,-1.94161 -1.39053,-2.9042 0,-1.10687 -1.86386,-2.672593 -5.07084,-4.259709 -5.0293601,-2.489001 -5.0857901,-2.49348 -6.8986801,-0.547577 -4.92691004,5.288416 -2.31365,13.223816 5.7024201,17.315916 0.1281,0.0654 -0.19324,1.60474 -0.71407,3.42078 -1.7451401,6.08496 3.05686,13.06565 8.98784,13.06565 1.78084,0 4.22188,-1.68111 8.00847,-5.51533 z m 62.04025,3.48569 c 2.54346,-1.36122 4.94461,-6.14156 4.94461,-9.84397 0,-3.3279 -3.88882,-8.60255 -6.9284,-9.39742 -1.47417,-0.3855 -2.19884,0.19727 -2.95984,2.38027 -1.66679,4.78137 -2.61176,3.29459 -2.61176,-4.10924 0,-7.35422 0.92377,-8.857884 2.61097,-4.25 0.6701,1.83009 2.57513,3.49438 5.69494,4.97527 4.54145,2.1557 4.74517,2.1681 6.51652,0.39674 1.00569,-1.00568 2.07712,-3.68198 2.380967,-5.94734 0.50762,-3.784593 0.23807,-4.425394 -3.321747,-7.896749 -3.52131,-3.433813 -3.87453,-4.254014 -3.87792,-9.004814 -0.003,-4.304466 -0.46664,-5.689867 -2.62679,-7.850338 -1.44269,-1.442897 -4.12953,-2.931554 -5.97077,-3.308127 -2.83561,-0.579945 -3.48185,-1.251936 -4.22471,-4.393038 -0.51632,-2.183237 -2.15448,-4.783282 -3.98319,-6.322047 -2.62109,-2.205498 -3.79925,-2.535568 -7.54394,-2.113487 -4.13315,0.465865 -4.69196,0.232977 -8.1412,-3.392937 -3.08365,-3.241583 -4.35697,-3.889415 -7.60829,-3.8709 -2.22791,0.01269 -4.93262,0.812479 -6.29811,1.862371 l -2.39327,1.840136 2.39327,4.989597 c 1.628,3.394116 3.30184,5.339948 5.23466,6.085258 3.86982,1.492234 2.58387,3.418909 -1.36349,2.042852 -2.09897,-0.731705 -3.9185,-0.710204 -6.16477,0.07285 -2.12459,0.740634 -3.52021,0.777617 -4.18688,0.110951 -0.66666,-0.666667 0.0623,-1.370317 2.18688,-2.110951 3.95534,-1.378838 4.09619,-3.681298 0.43687,-7.141426 -4.38094,-4.142474 -10.09475,-4.082969 -14.32692,0.149203 -2.30537,2.30537 -2.92308,3.813081 -2.92308,7.134702 0,3.96382 0.54129,4.763587 9.19967,13.59267 l 9.19966,9.381046 4.70465,-4.633904 c 2.85467,-2.811752 5.1732,-4.344319 5.89623,-3.897461 0.80461,0.497276 -0.37968,2.331707 -3.64669,5.648586 l -4.83828,4.912144 17.54948,17.469573 c 16.48989,16.4148 17.77642,17.46957 21.30812,17.46957 2.06726,0 4.6244,-0.46334 5.68255,-1.02964 z m -24.33685,-40.751004 -9.74799,-9.784704 4.03529,-3.940354 4.03529,-3.940355 9.71888,9.718879 9.71888,9.718879 -4.00618,4.00618 -4.00618,4.006179 -9.74799,-9.784704 z m 10.33724,-2.115895 c -2.1368,-2.531905 -5.71202,-6.371089 -7.94494,-8.531521 -3.97526,-3.846205 -4.10206,-3.88986 -6.08535,-2.095012 -1.11402,1.008174 -2.02549,2.315844 -2.02549,2.905933 0,0.590089 3.46804,4.561384 7.70675,8.8251 l 7.70674,7.752212 2.26369,-2.126624 2.26369,-2.126624 -3.88509,-4.603464 z m -8.54423,-0.09183 c -5.46703,-5.509248 -6.67591,-7.247274 -5.71155,-8.211634 0.96436,-0.96436 2.70239,0.244513 8.21164,5.711546 6.7262,6.67466 8.41995,9.488454 5.71154,9.488454 -0.70225,0 -4.39748,-3.144764 -8.21163,-6.988365 z M 91.65547,61.08312 83.70632,53.087074 89.61435,47.116747 C 95.46775,41.20163 95.505,41.127209 93.64221,39.068853 91.77263,37.002988 91.85468,36.89799 108.20679,20.430409 125.11526,3.4025378 129.61255,0.14166681 136.24426,0.10112781 c 12.12025,-0.07409 20.60268,13.95307419 14.97748,24.76787619 -1.06139,2.040589 -9.36661,11.110301 -18.45606,20.154915 -16.43342,16.35237 -16.53793,16.434191 -18.60383,14.564581 -2.0579,-1.862375 -2.13195,-1.826353 -7.82293,3.805246 -3.15996,3.126982 -5.96788,5.685421 -6.23984,5.685421 -0.271953,0 -4.07157,-3.598221 -8.44361,-7.996046 z m 14.41108,0.355257 c 2.24675,-2.552434 4.08499,-4.927934 4.08499,-5.278888 0,-0.350954 -2.92884,-3.540903 -6.50853,-7.088776 l -6.50853,-6.450677 -5.22103,5.221036 -5.22104,5.221036 6.45068,6.508529 c 3.54787,3.579692 6.98793,6.50853 7.64457,6.50853 0.65665,0 3.03215,-2.088355 5.27889,-4.64079 z m -6.314973,-3.197345 c -0.31791,-0.514388 0.052,-1.458091 0.821943,-2.097116 0.82791,-0.687106 1.63615,-0.779704 1.97798,-0.226614 0.31791,0.514388 -0.052,1.458091 -0.82194,2.097116 -0.82791,0.687106 -1.63615,0.779704 -1.977983,0.226614 z M 95.15154,52.579167 c 0,-0.825 0.7301,-1.5 1.62245,-1.5 1.32879,0 1.39712,0.271492 0.37755,1.5 -0.68469,0.825 -1.41479,1.5 -1.62244,1.5 -0.20766,0 -0.37756,-0.675 -0.37756,-1.5 z m 55.53118,-31.75 c 1.06857,-5.795675 -0.24777,-10.399928 -4.06451,-14.2166672 -3.81548,-3.815474 -8.43433,-5.1371849 -14.18338,-4.058656 -3.08242,0.578265 -6.5809,3.530335 -20.5,17.2981792 -9.23081,9.130507 -16.78329,17.071638 -16.78329,17.646958 0,0.57532 4.612497,5.67516 10.25,11.332977 l 10.25,10.286941 17.16989,-17.269866 C 147.22872,27.357852 150.10256,23.9758 150.68272,20.829167 Z M 108.87024,44.30017 c -3.14529,-3.178449 -5.7187,-6.236701 -5.7187,-6.796115 0,-0.559415 6.22355,-7.183866 13.83012,-14.721003 13.07433,-12.9550052 14.04582,-13.7038852 17.77749,-13.7038852 2.17106,0 4.93986,0.6951645 6.1529,1.5448102 2.73443,1.915265 4.23863,7.095942 3.03565,10.45519 -0.97958,2.735442 -26.62246,29 -28.31357,29 -0.57486,0 -3.61861,-2.600549 -6.76389,-5.778997 z m 33.2813,-26.128369 c 0,-4.597732 -2.42418,-7.092634 -6.89158,-7.092634 -3.26025,0 -4.77086,1.186809 -16.83628,13.227394 l -13.25468,13.227395 5.21741,5.283036 5.21741,5.283037 13.27386,-13.246538 c 11.88495,-11.860485 13.27386,-13.605974 13.27386,-16.68169 z m -13.0232,6.383435 c -1.83705,-1.89536 -3.01835,-3.767849 -2.62511,-4.161089 0.39324,-0.393239 2.32346,0.8935 4.28938,2.85942 1.96592,1.96592 3.14722,3.83841 2.62512,4.161088 -0.52211,0.322679 -2.45233,-0.96406 -4.28939,-2.859419 z m 3.07778,-2.91976 c -1.87983,-1.939491 -3.09671,-3.847512 -2.70418,-4.240046 0.96469,-0.964688 6.99036,5.16145 6.50602,6.614488 -0.21316,0.639459 -1.90448,-0.416856 -3.80184,-2.374442 z m 3,-3 c -1.87983,-1.939491 -3.09671,-3.847512 -2.70418,-4.240046 0.96469,-0.964688 6.99036,5.16145 6.50602,6.614488 -0.21316,0.639459 -1.90448,-0.416856 -3.80184,-2.374442 z"
     id="path3412"
     inkscape:connector-curvature="0" />
</svg>
