<?xml version="1.0" encoding="UTF-8" standalone="no"?>
<!-- Created with Inkscape (http://www.inkscape.org/) -->

<svg
   xmlns:dc="http://purl.org/dc/elements/1.1/"
   xmlns:cc="http://creativecommons.org/ns#"
   xmlns:rdf="http://www.w3.org/1999/02/22-rdf-syntax-ns#"
   xmlns:svg="http://www.w3.org/2000/svg"
   xmlns="http://www.w3.org/2000/svg"
   xmlns:sodipodi="http://sodipodi.sourceforge.net/DTD/sodipodi-0.dtd"
   xmlns:inkscape="http://www.inkscape.org/namespaces/inkscape"
   id="svg3390"
   version="1.1"
   inkscape:version="0.91 r13725"
   width="159"
   height="152"
   viewBox="0 0 159 152"
   sodipodi:docname="booms.svg">
  <metadata
     id="metadata3396">
    <rdf:RDF>
      <cc:Work
         rdf:about="">
        <dc:format>image/svg+xml</dc:format>
        <dc:type
           rdf:resource="http://purl.org/dc/dcmitype/StillImage" />
        <dc:title></dc:title>
      </cc:Work>
    </rdf:RDF>
  </metadata>
  <defs
     id="defs3394" />
  <sodipodi:namedview
     pagecolor="#ffffff"
     bordercolor="#666666"
     borderopacity="1"
     objecttolerance="10"
     gridtolerance="10"
     guidetolerance="10"
     inkscape:pageopacity="0"
     inkscape:pageshadow="2"
     inkscape:window-width="1538"
     inkscape:window-height="877"
     id="namedview3392"
     showgrid="false"
     inkscape:zoom="6.2105263"
     inkscape:cx="108.11302"
     inkscape:cy="27.652117"
     inkscape:window-x="54"
     inkscape:window-y="-8"
     inkscape:window-maximized="1"
     inkscape:current-layer="svg3390" />
  <path
     style="fill:#686868"
     d="m 72.32203,141.66102 c 0,-8.66667 0.26191,-10.5 1.5,-10.5 1.2381,0 1.5,1.83333 1.5,10.5 0,8.66667 -0.2619,10.5 -1.5,10.5 -1.23809,0 -1.5,-1.83333 -1.5,-10.5 z m 29.19231,-2.19231 c -1.9002,-5.97746 -2.7525,-10.1475 -2.18914,-10.71085 1.01732,-1.01733 1.50319,0.0527 5.06527,11.15556 1.61886,5.04587 2.00864,7.57052 1.28115,8.29801 -0.72749,0.72749 -1.99233,-1.93245 -4.15728,-8.74272 z m 22.92959,-16.68497 c -4.92451,-4.95759 -6.93247,-7.62176 -6.12198,-8.12267 1.36587,-0.84416 16.2262,13.32506 15.39148,14.67567 -0.94698,1.53225 -1.925,0.84085 -9.2695,-6.553 z m -50.7841,2.44163 c -1.73921,-1.06049 -3.60923,-2.72696 -4.1556,-3.70326 -0.75681,-1.35235 -2.03084,-1.7113 -5.34957,-1.50721 -5.92073,0.36409 -10.81707,-2.93913 -12.80179,-8.63648 -0.86246,-2.47577 -2.10134,-4.21894 -3,-4.22114 -5.59143,-0.0137 -11.72152,-8.352671 -10.71221,-14.572269 0.42892,-2.643171 0.0357,-3.525279 -2.36197,-5.297917 -3.2465,-2.400245 -5.54564,-8.64326 -4.58809,-12.458412 0.34697,-1.382436 1.71196,-3.798347 3.03332,-5.36869 2.00321,-2.380686 2.31712,-3.612333 1.88891,-7.411358 -0.93306,-8.27812 4.09928,-13.887617 12.45874,-13.887617 3.74698,0 3.83966,-0.08603 3.50109,-3.25 -0.82069,-7.669579 6.59712,-14.318044 14.83317,-13.294735 3.77133,0.468578 4.9057,0.213827 6.39991,-1.437258 4.39169,-4.852769 12.48839,-4.375863 18.10329,1.066308 4.91019,4.759151 7.14992,3.727918 19.96616,-9.192989 6.02076,-6.069925 12.61641,-11.903625 14.657,-12.963777 9.9308,-5.1593727 22.2802,1.065417 24.31728,12.257272 1.2229,6.718718 -0.93261,10.432511 -13.53229,23.315179 -9.60252,9.818196 -11.83616,12.661852 -12.28509,15.640212 -0.46592,3.091131 -0.11183,4.058745 2.34751,6.414945 5.5702,5.33659 5.97932,13.386516 0.91335,17.971157 -1.62002,1.466103 -1.85984,2.639843 -1.40388,6.870919 0.44007,4.083664 0.13442,5.763861 -1.53047,8.412939 -2.2338,3.554331 -7.24582,6.189831 -11.77138,6.189831 -2.57896,0 -2.80726,0.31288 -2.90339,3.97906 -0.20608,7.85959 -6.05763,12.59289 -14.5582,11.77609 -3.33683,-0.32063 -5.09129,-0.0635 -5.5849,0.81854 -1.12536,2.01092 -6.41299,4.41374 -9.7187,4.41641 -1.65,10e-4 -4.42299,-0.86525 -6.1622,-1.92575 z m 10.5347,-1.49841 c 3.67673,-1.90131 5.55806,-4.18181 4.16177,-5.04476 -0.58456,-0.36128 -1.93836,-2.37303 -3.00844,-4.47055 -1.2218,-2.39493 -2.89055,-4.05085 -4.48571,-4.4512 -4.62883,-1.16177 -2.63692,-2.09943 4.45988,-2.09943 7.25633,0 8.80807,0.86208 4.5,2.5 -3.94401,1.49951 -2.6818,5.82039 2.47999,8.48965 5.29818,2.73979 11.10089,1.18842 13.59501,-3.63468 3.28043,-6.34365 1.0787,-11.05685 -10.39956,-22.262142 l -6.05108,-5.907168 -5.51036,5.036156 c -6.47911,5.921545 -10.63069,7.133699 -16.30807,4.761539 l -3.79943,-1.587503 -5.65336,5.849178 c -4.69739,4.86008 -5.56678,6.30209 -5.14135,8.52761 1.10557,5.78339 8.20225,9.85114 13.60373,7.7975 2.40355,-0.91383 2.81643,-0.71568 4.23843,2.03419 1.44999,2.80396 6.12049,5.76241 9.24571,5.85653 0.71482,0.0215 2.54759,-0.60619 4.07284,-1.39492 z M 56.65761,99.327178 c 5.46468,-5.522307 5.70799,-5.97644 4.55625,-8.504226 -0.66919,-1.468713 -0.857,-3.005985 -0.41736,-3.416161 0.43964,-0.410176 1.03629,-0.0751 1.3259,0.744611 0.28961,0.819711 1.76838,2.732211 3.28617,4.25 2.12337,2.123364 3.71339,2.759615 6.8964,2.759615 3.61276,0 4.83192,-0.657434 9.62439,-5.189943 L 87.41696,84.78113 73.1195,70.366198 C 65.25589,62.437985 57.06702,54.648459 54.922,53.056141 49.95667,49.370219 45.54543,49.260719 41.43276,52.721298 c -5.7408,4.830568 -4.74729,13.507817 1.94269,16.967342 2.99382,1.548165 3.02861,1.535523 4.0809,-1.483073 1.66783,-4.784344 2.36568,-3.617524 2.36568,3.95545 0,7.135866 -0.93878,9.084254 -2.11636,4.392393 -0.40096,-1.597558 -1.86089,-3.152724 -3.76905,-4.014917 -1.71302,-0.77402 -3.89364,-1.955469 -4.84582,-2.625442 -2.1569,-1.517635 -4.38525,0.384995 -5.61635,4.795387 -1.30147,4.662522 0.44422,9.282042 4.38665,11.608132 2.97213,1.753595 3.35688,2.404361 2.77306,4.690273 -1.48382,5.809743 0.29429,10.214357 5.07574,12.573277 1.71168,0.84445 3.57622,1.54561 4.14344,1.55813 0.56721,0.0125 3.62914,-2.60246 6.80427,-5.811072 z m 62.36917,2.626222 c 3.07133,-1.50715 5.58744,-7.185586 4.79089,-10.812224 -0.64571,-2.939891 -5.60574,-7.980159 -7.85313,-7.980159 -0.66222,0 -1.72912,1.391123 -2.3709,3.091384 -0.65439,1.733671 -1.63025,2.804998 -2.22194,2.439311 -0.71745,-0.443403 -0.73421,-1.25163 -0.0524,-2.525642 0.55151,-1.030464 1.00273,-3.057737 1.00273,-4.505053 0,-1.447316 -0.45122,-3.474589 -1.0027,-4.505053 -0.67452,-1.260348 -0.66843,-2.080167 0.0186,-2.504784 0.56172,-0.347167 1.59976,0.744491 2.30674,2.425906 0.84989,2.021286 2.88488,3.866866 6.00599,5.446973 l 4.72056,2.389853 1.9754,-2.511306 c 3.87236,-4.922915 1.50978,-13.985041 -4.11114,-15.769051 -1.6896,-0.536259 -1.92155,-1.181775 -1.36872,-3.809109 l 0.66566,-3.163429 -4.01387,3.863774 c -2.20763,2.125076 -4.61747,3.642821 -5.3552,3.372768 -0.73773,-0.270054 -2.81162,0.899588 -4.60866,2.599203 l -3.26735,3.09021 -9.48265,-9.443227 c -5.21546,-5.193775 -9.48266,-9.936174 -9.48266,-10.538664 0,-0.60249 1.13794,-2.164473 2.52876,-3.471074 1.39081,-1.306602 2.40331,-3.157654 2.25,-4.11345 -0.15332,-0.955796 1.29624,-3.372993 3.22124,-5.371549 3.4536,-3.58556 3.46479,-3.625019 0.84429,-2.976121 -2.12679,0.526642 -2.78585,0.247601 -3.30911,-1.40104 -1.81797,-5.727915 -10.84542,-8.014432 -15.91084,-4.029975 -2.6405,2.077024 -2.64192,2.085771 -0.76605,4.75 1.03363,1.46803 2.16224,3.582564 2.50802,4.698966 0.34579,1.116401 2.02095,2.555334 3.72258,3.197629 4.11798,1.554362 2.95809,3.533489 -1.21771,2.077797 -2.16078,-0.753252 -4.1006,-0.763488 -6.47691,-0.03418 -4.40495,1.351918 -5.71326,-0.446932 -1.48565,-2.042678 1.70026,-0.641774 3.09138,-1.64308 3.09138,-2.22512 0,-2.147736 -3.35829,-5.755026 -6.63069,-7.122322 -6.51013,-2.720108 -13.36931,2.395207 -13.36931,9.970328 0,3.560418 0.76858,4.691684 8.68097,12.777494 4.77453,4.879177 9.145,8.871231 9.71215,8.871231 0.56715,0 2.95128,-1.884434 5.29807,-4.187632 2.34679,-2.303198 4.58669,-3.867828 4.97756,-3.476956 0.39087,0.390872 -1.39448,2.847974 -3.96746,5.460227 l -4.67813,4.74955 16.73842,16.685121 c 9.20613,9.176817 17.86342,17.121433 19.23842,17.654703 2.6206,1.01635 5.02103,0.71505 8.70475,-1.09263 z m -17.7042,-45.291825 c -3.54352,-3.575307 -6.96317,-6.500558 -7.59921,-6.500558 -0.63605,0 -1.73729,0.699876 -2.44721,1.555281 -1.10454,1.330884 -0.29654,2.557195 5.60025,8.499519 6.88983,6.943035 6.89137,6.943892 8.88999,4.945277 1.99861,-1.998615 1.99784,-2.000087 -4.44382,-8.499519 z m 45.60166,-27.218439 c 2.85092,-6.563162 0.60396,-13.796197 -5.6017,-18.032119 -3.63458,-2.4809192 -10.58212,-3.0355591 -14.31625,-1.142902 -1.20134,0.608903 -9.48857,8.358105 -18.41605,17.220447 l -16.23178,16.113351 10.23178,10.56703 10.23179,10.56703 16.35221,-16.037478 c 8.99372,-8.820613 16.98122,-17.485525 17.75,-19.255359 z m -39.38996,19.432037 -6.22997,-6.285844 14.33635,-14.214156 c 15.33643,-15.205709 16.54712,-15.886302 22.64774,-12.731548 3.15043,1.629152 5.50555,7.009819 4.42723,10.114769 -0.63142,1.818142 -27.2838,29.402623 -28.40909,29.402623 -0.29826,0 -3.34577,-2.82863 -6.77226,-6.285844 z m 20.03099,-8.464156 c 14.40161,-14.441957 15.86867,-17.229 11.41396,-21.683712 -4.90719,-4.90719 -6.80405,-3.950076 -21.64527,10.921761 l -13.46029,13.488048 4.93659,5.011952 c 2.71512,2.756573 5.185,5.011951 5.48861,5.011951 0.30361,0 6.27349,-5.7375 13.2664,-12.75 z m -0.66539,-10.16874 c -4.08985,-4.268886 -2.24815,-6.123274 1.99597,-2.009714 1.84159,1.784947 3.11431,3.624055 2.82825,4.086906 -0.87296,1.412484 -1.90777,0.966919 -4.82422,-2.077192 z m 3,-3 c -4.08985,-4.268886 -2.24815,-6.123274 1.99597,-2.009714 1.84159,1.784947 3.11431,3.624055 2.82825,4.086906 -0.87296,1.412484 -1.90777,0.966919 -4.82422,-2.077192 z m 3,-3 c -4.08985,-4.268886 -2.24815,-6.123274 1.99597,-2.009714 1.84159,1.784947 3.11431,3.624055 2.82825,4.086906 -0.87296,1.412484 -1.90777,0.966919 -4.82422,-2.077192 z m 11.54816,70.74248 c -6.40029,-2.031763 -9.04891,-3.300839 -8.34924,-4.000513 1.21001,-1.210003 19.39495,4.092822 19.38159,5.651773 -0.014,1.63142 -1.29596,1.439542 -11.03235,-1.65126 z M 0.32202983,87.161017 c 0,-0.603175 4.16666997,-1 10.50000017,-1 6.33334,0 10.5,0.396825 10.5,1 0,0.603175 -4.16666,1 -10.5,1 -6.3333302,0 -10.50000017,-0.396825 -10.50000017,-1 z m 138.00000017,-22 c 0,-0.603175 4.16667,-1 10.5,-1 6.33333,0 10.5,0.396825 10.5,1 0,0.603175 -4.16667,1 -10.5,1 -6.33333,0 -10.5,-0.396825 -10.5,-1 z M 13.68695,59.730797 C 3.3646798,56.450268 2.8661098,56.216941 3.9220898,55.160958 5.1187498,53.964297 24.60054,59.901362 23.78852,61.215242 22.99131,62.505157 21.9222,62.348048 13.68695,59.730797 Z M 32.44393,30.783736 c -4.9245,-4.957593 -6.93246,-7.621762 -6.12198,-8.122669 1.36588,-0.844156 16.2262,13.325063 15.39148,14.67567 -0.94698,1.532248 -1.92499,0.840848 -9.2695,-6.553001 z m 26.04443,-8.70988 C 54.9018,12.543277 53.02104,5.062015 53.97245,4.1106064 c 0.72749,-0.7274934 1.99233,1.9324515 4.15728,8.7427186 1.9002,5.977466 2.7525,10.147499 2.18914,10.710854 -0.56335,0.563356 -1.27602,-0.01687 -1.83051,-1.490323 z M 84.32203,10.661017 c 0,-8.6666667 0.26191,-10.50000006 1.5,-10.50000006 1.2381,0 1.5,1.83333336 1.5,10.50000006 0,8.666667 -0.2619,10.5 -1.5,10.5 -1.23809,0 -1.5,-1.833333 -1.5,-10.5 z"
     id="path3400"
     inkscape:connector-curvature="0" />
</svg>
