<?xml version="1.0" encoding="utf-8"?>
<!-- Generator: Adobe Illustrator 21.0.0, SVG Export Plug-In . SVG Version: 6.00 Build 0)  -->
<svg version="1.1" id="Layer_1" xmlns="http://www.w3.org/2000/svg" xmlns:xlink="http://www.w3.org/1999/xlink" x="0px" y="0px"
	 viewBox="0 0 1920 1080" style="enable-background:new 0 0 1920 1080;" xml:space="preserve">
<style type="text/css">
	.st0{fill:#38BB4B;}
</style>
<g>
	<path class="st0" d="M935.6,408.9H0.3V365h868.2C897,368.7,921.3,385.4,935.6,408.9z"/>
	<path class="st0" d="M1920.2,408.9v43.9H949c-0.7-16-5.5-31-13.3-43.9H1920.2z"/>
	<path class="st0" d="M949.1,457c0,14.2-3.2,27.7-8.9,39.7H0.3v-43.9H949C949,454.2,949.1,455.6,949.1,457z"/>
	<path class="st0" d="M1920.2,496.7v43.9H896.6c19.1-9.2,34.5-24.8,43.6-43.9H1920.2z"/>
	<path class="st0" d="M940.1,584.6H0.3v-43.9h896.3C915.7,549.9,931.1,565.4,940.1,584.6z"/>
	<path class="st0" d="M1920.2,584.6v43.9H949c0.1-1.4,0.1-2.8,0.1-4.2c0-14.2-3.2-27.7-8.9-39.7H1920.2z"/>
	<path class="st0" d="M949,628.5c-0.7,16-5.5,31-13.3,43.9H0.3v-43.9H949z"/>
	<path class="st0" d="M1920.2,672.4v43.9H868.5c28.5-3.7,52.9-20.4,67.2-43.9H1920.2z"/>
</g>
</svg>
