<?xml version="1.0" encoding="utf-8"?>
<!-- Generator: Adobe Illustrator 21.0.0, SVG Export Plug-In . SVG Version: 6.00 Build 0)  -->
<svg version="1.1" id="Layer_1" xmlns="http://www.w3.org/2000/svg" xmlns:xlink="http://www.w3.org/1999/xlink" x="0px" y="0px"
	 viewBox="0 0 560 136.7" style="enable-background:new 0 0 560 136.7;" xml:space="preserve">
<style type="text/css">
	.st0{fill:#EEEEEE;}
</style>
<g>
	<path class="st0" d="M204.1,17.3H0V0.3h178C189.1,1.7,198.6,8.2,204.1,17.3z"/>
	<path class="st0" d="M560,17.3v17.1H209.3c-0.3-6.2-2.1-12-5.2-17.1H560z"/>
	<path class="st0" d="M209.3,36c0,5.5-1.2,10.7-3.5,15.4H0V34.4h209.3C209.3,34.9,209.3,35.5,209.3,36z"/>
	<path class="st0" d="M560,51.4v17.1H188.9c7.4-3.6,13.4-9.6,16.9-17.1H560z"/>
	<path class="st0" d="M205.9,85.6H0V68.5h188.9C196.3,72.1,202.3,78.1,205.9,85.6z"/>
	<path class="st0" d="M560,85.6v17.1H209.3c0-0.5,0-1.1,0-1.6c0-5.5-1.2-10.7-3.5-15.4H560z"/>
	<path class="st0" d="M209.3,102.6c-0.3,6.2-2.1,12-5.2,17.1H0v-17.1H209.3z"/>
	<path class="st0" d="M560,119.7v17.1H178c11.1-1.5,20.5-7.9,26.1-17.1H560z"/>
</g>
</svg>
