<?xml version="1.0" encoding="utf-8"?>
<!-- Generator: Adobe Illustrator 21.0.0, SVG Export Plug-In . SVG Version: 6.00 Build 0)  -->
<svg version="1.1" id="Layer_1" xmlns="http://www.w3.org/2000/svg" xmlns:xlink="http://www.w3.org/1999/xlink" x="0px" y="0px"
	 viewBox="0 0 120 120" style="enable-background:new 0 0 120 120;" xml:space="preserve">
<style type="text/css">
	.st0{fill:#24744B;}
</style>
<g>
	<path class="st0" d="M47.4,2.7l3.8,15.2l-2.2,0.5L45.7,5.1l-3.4,0.9l-0.5-1.9L47.4,2.7z"/>
	<path class="st0" d="M59.3,16.1c-0.9-0.7-1.6-1.7-2.1-2.9c-0.5-1.2-0.7-2.7-0.6-4.3c0.1-1.7,0.5-3.1,1.1-4.2
		c0.6-1.2,1.4-2.1,2.4-2.6c1-0.6,2.1-0.8,3.4-0.8c1.2,0.1,2.3,0.5,3.2,1.1s1.6,1.7,2.1,2.9s0.7,2.7,0.6,4.3
		c-0.1,1.7-0.5,3.1-1.1,4.2s-1.4,2.1-2.4,2.6c-1,0.6-2.1,0.8-3.3,0.8C61.3,17.2,60.2,16.8,59.3,16.1z M65.7,13.9
		c0.8-1,1.3-2.5,1.4-4.4c0.1-2-0.2-3.5-0.9-4.5c-0.7-1.1-1.7-1.6-2.9-1.7c-1.3-0.1-2.3,0.4-3.1,1.4c-0.8,1-1.3,2.5-1.4,4.4
		c-0.1,2,0.2,3.5,0.9,4.5s1.7,1.6,2.9,1.7C63.9,15.3,64.9,14.9,65.7,13.9z"/>
	<path class="st0" d="M75.5,18.9c-0.6-1-0.9-2.1-0.9-3.5c0-1.3,0.4-2.7,1.1-4.2c0.7-1.5,1.6-2.7,2.6-3.5c1-0.9,2.1-1.4,3.2-1.5
		s2.3,0,3.4,0.5c1.1,0.5,2,1.3,2.6,2.2c0.6,1,0.9,2.1,0.9,3.5s-0.4,2.7-1.1,4.2c-0.7,1.5-1.6,2.7-2.6,3.5s-2.1,1.4-3.2,1.5
		c-1.1,0.2-2.3,0-3.4-0.5C76.9,20.6,76.1,19.9,75.5,18.9z M82.3,19.2c1.1-0.6,2.1-1.8,2.9-3.6c0.8-1.8,1.1-3.3,0.9-4.5
		C85.8,9.8,85.1,9,84,8.4c-1.2-0.5-2.3-0.5-3.4,0.1c-1.1,0.6-2.1,1.8-2.9,3.6c-0.8,1.8-1.1,3.3-0.9,4.5s0.9,2.1,2.1,2.7
		C80,19.9,81.2,19.8,82.3,19.2z"/>
	<path class="st0" d="M107.2,24.8l1.1,1.3l-18.9,2.2l-1.1-1.3L107.2,24.8z M93.8,20.5c0.2-1,0.7-2,1.7-2.8s2-1.3,3-1.3
		s1.9,0.4,2.6,1.2s1,1.7,0.8,2.8c-0.2,1-0.7,1.9-1.7,2.8s-2,1.3-3,1.3c-1,0-1.9-0.4-2.6-1.2S93.6,21.5,93.8,20.5z M94.7,32.8
		c0.2-1,0.7-1.9,1.7-2.8c1-0.8,2-1.3,3-1.3c1,0,1.9,0.4,2.6,1.2s1,1.7,0.8,2.8c-0.2,1-0.7,2-1.7,2.8s-2,1.3-3,1.3s-1.9-0.4-2.6-1.2
		C94.9,34.7,94.6,33.8,94.7,32.8z M97.2,23.1c0.7-0.1,1.3-0.4,2-1c0.7-0.6,1.1-1.2,1.3-1.9c0.1-0.6,0-1.2-0.5-1.7
		c-0.4-0.5-1-0.7-1.7-0.7c-0.7,0.1-1.3,0.4-2,1c-0.7,0.6-1.1,1.2-1.3,1.9c-0.1,0.7,0,1.2,0.4,1.7C96,22.9,96.6,23.1,97.2,23.1z
		 M98.2,35.4c0.7-0.1,1.3-0.4,2-1c0.7-0.6,1.1-1.2,1.3-1.9c0.1-0.7,0-1.2-0.4-1.7c-0.5-0.5-1-0.7-1.7-0.7c-0.7,0.1-1.3,0.4-2,1
		c-0.7,0.6-1.1,1.2-1.3,1.9c-0.1,0.6,0,1.2,0.5,1.7C97,35.2,97.5,35.5,98.2,35.4z"/>
	<path class="st0" d="M119,62.2l-15.6,1.2l-0.1-1.8l10.9-10.3l-11.7,0.9l-0.2-2.2l15.6-1.2l0.1,1.8l-10.9,10.3l11.7-0.9L119,62.2z"
		/>
	<path class="st0" d="M110,80c-1,0.6-2.3,0.6-3.8,0.1l-6.8-2.2L100,76l1.5,0.5c-0.4-0.5-0.7-1.1-0.7-1.9c-0.1-0.7,0-1.5,0.3-2.4
		c0.4-1.3,1.1-2.2,1.9-2.7c0.9-0.6,1.8-0.7,2.8-0.3s1.7,0.9,2,1.9c0.4,0.9,0.3,2.2-0.2,3.7l-1.1,3.2l0.4,0.1
		c0.9,0.3,1.6,0.3,2.3-0.1c0.6-0.4,1.1-1,1.4-2c0.2-0.7,0.3-1.4,0.3-2.1c0-0.7-0.1-1.3-0.4-1.9l1.8-0.3c0.3,0.7,0.4,1.5,0.4,2.4
		c0,0.9-0.2,1.8-0.5,2.7C111.8,78.4,111.1,79.5,110,80z M102.4,75.3c0.2,0.7,0.5,1.3,1.1,1.7l1.6,0.5l1-3.1c0.6-1.7,0.3-2.8-0.9-3.2
		c-0.6-0.2-1.1-0.1-1.6,0.2c-0.5,0.3-0.8,0.9-1.1,1.7S102.3,74.6,102.4,75.3z"/>
	<path class="st0" d="M93.3,88.6c0-0.4,0-0.8,0.2-1.3c0.2-0.5,0.4-0.9,0.7-1.3c0.7-1,1.5-1.5,2.4-1.7c0.9-0.2,1.8,0.1,2.8,0.8
		l5.3,3.8l1.2-1.6l1.4,1l-1.2,1.6l2.1,1.5l-1.2,1.8l-2.1-1.5l-2,2.8l-1.4-1l2-2.8l-5.2-3.7c-0.5-0.4-1-0.5-1.5-0.5
		c-0.5,0.1-0.9,0.3-1.2,0.8c-0.4,0.5-0.6,1.1-0.5,1.7L93.3,88.6z"/>
	<path class="st0" d="M88.1,107.4l-7.1-9.5l1.6-1.2l1.1,1.4c0-0.7,0.2-1.5,0.5-2.2c0.4-0.7,0.9-1.3,1.6-1.8c1.3-0.9,2.5-1.3,3.8-1.2
		c1.3,0.2,2.4,0.9,3.4,2.3l4.1,5.5l-1.7,1.3l-3.9-5.3c-0.7-0.9-1.4-1.5-2.2-1.6s-1.6,0.1-2.4,0.7c-0.9,0.7-1.4,1.5-1.5,2.4
		c-0.1,0.9,0.2,1.9,0.9,2.9l3.6,4.9L88.1,107.4z"/>
	<path class="st0" d="M75.9,112.1c-0.6,0.6-1.4,1-2.4,1.3l-0.7-2c0.1,0,0.3-0.1,0.5-0.1c1.1-0.4,1.9-1,2.3-1.8s0.4-1.9,0-3.1
		l-1.8-5.6l2-0.7l3.7,11.3l-2,0.6l-0.6-1.9C76.9,110.9,76.5,111.5,75.9,112.1z"/>
	<path class="st0" d="M57.8,113.8c-0.9-0.8-1.4-2-1.4-3.6l-0.2-7.2l2,0l0,1.6c0.3-0.6,0.8-1,1.5-1.3c0.7-0.3,1.4-0.5,2.4-0.5
		c1.3,0,2.4,0.3,3.2,0.9c0.8,0.6,1.2,1.5,1.3,2.5c0,1-0.3,1.9-1.1,2.5c-0.7,0.7-1.9,1-3.6,1l-3.4,0.1l0,0.4c0,0.9,0.3,1.6,0.9,2.1
		s1.3,0.7,2.4,0.7c0.7,0,1.4-0.1,2.1-0.4c0.7-0.2,1.2-0.6,1.7-1l0.9,1.6c-0.6,0.5-1.3,0.9-2.2,1.2c-0.8,0.3-1.7,0.4-2.7,0.5
		C60,115,58.7,114.6,57.8,113.8z M59.8,105.1c-0.6,0.4-1,0.9-1.3,1.6l0,1.7l3.3-0.1c1.8,0,2.7-0.7,2.7-1.9c0-0.6-0.3-1.1-0.7-1.4
		s-1.1-0.5-1.9-0.5C61,104.5,60.3,104.7,59.8,105.1z"/>
	<path class="st0" d="M46.7,118.1l-2.1-0.5l4-16.1l2.1,0.5L46.7,118.1z"/>
	<path class="st0" d="M21.5,98.4c-0.4-1-0.4-2-0.2-3c0.2-1,0.7-2,1.5-2.9c0.8-0.9,1.7-1.5,2.7-1.9c1-0.4,2-0.4,3-0.2
		c1,0.2,2,0.7,2.8,1.5c0.6,0.6,1.1,1.2,1.4,1.9c0.3,0.7,0.5,1.5,0.4,2.3l4-4.6l1.6,1.4L28.2,105l-1.6-1.4l1.2-1.4
		c-0.8,0.2-1.6,0.2-2.3-0.1c-0.8-0.2-1.5-0.6-2.2-1.2C22.5,100.2,21.9,99.4,21.5,98.4z M28.3,92.4c-0.7-0.1-1.4-0.1-2.1,0.2
		c-0.7,0.2-1.3,0.7-1.8,1.3c-0.5,0.6-0.9,1.3-1,2c-0.2,0.7-0.1,1.4,0.1,2c0.2,0.7,0.6,1.2,1.2,1.7c0.6,0.5,1.2,0.8,1.9,0.9
		c0.7,0.1,1.4,0.1,2-0.2c0.7-0.2,1.3-0.7,1.8-1.3c0.5-0.6,0.9-1.3,1-2c0.2-0.7,0.1-1.4-0.1-2.1c-0.2-0.7-0.6-1.2-1.2-1.7
		C29.6,92.9,29,92.6,28.3,92.4z"/>
	<path class="st0" d="M12.6,86.8c-0.7-0.4-1.3-1.1-1.8-2l1.8-1.1c0,0.1,0.1,0.3,0.2,0.4c0.6,1,1.4,1.6,2.3,1.8s2,0,3.1-0.7l5.1-3
		l1.1,1.8l-10.2,6.1L13,88.4l1.7-1C14,87.4,13.2,87.2,12.6,86.8z"/>
	<path class="st0" d="M18.3,73.2c-0.3,1-0.8,1.9-1.6,2.6c-0.8,0.7-1.7,1.2-2.9,1.5c-1.1,0.3-2.2,0.2-3.2-0.1c-1-0.3-1.9-0.9-2.6-1.7
		s-1.2-1.8-1.5-2.9c-0.3-1.1-0.3-2.2,0-3.3c0.3-1,0.8-1.9,1.6-2.6s1.7-1.2,2.9-1.5s2.2-0.2,3.2,0.1s1.9,0.9,2.6,1.6
		c0.7,0.8,1.2,1.8,1.5,2.9C18.6,71,18.5,72.1,18.3,73.2z M15.5,68.5c-0.5-0.5-1.1-0.9-1.8-1c-0.7-0.2-1.4-0.2-2.2,0
		c-0.8,0.2-1.5,0.5-2,1c-0.5,0.5-0.9,1.1-1.1,1.7c-0.2,0.7-0.2,1.4,0,2.1c0.2,0.7,0.5,1.4,1,1.9c0.5,0.5,1.1,0.9,1.8,1.1
		c0.7,0.2,1.4,0.2,2.2,0c0.8-0.2,1.5-0.5,2-1c0.5-0.5,0.9-1.1,1.1-1.7s0.2-1.4,0-2.1C16.3,69.6,15.9,69,15.5,68.5z"/>
	<path class="st0" d="M1.7,46.2l16.5,2.3l-0.3,2L16,50.3c0.6,0.6,1,1.2,1.2,2c0.2,0.8,0.3,1.6,0.2,2.5c-0.2,1.1-0.6,2.1-1.2,3
		c-0.6,0.8-1.4,1.4-2.4,1.8s-2.1,0.5-3.2,0.3s-2.2-0.6-3-1.2c-0.8-0.6-1.4-1.4-1.8-2.4c-0.4-1-0.5-2-0.3-3.2
		c0.1-0.8,0.4-1.6,0.8-2.3c0.4-0.7,1-1.2,1.7-1.6l-6.5-0.9L1.7,46.2z M15.4,52.2c-0.3-0.7-0.7-1.2-1.3-1.6c-0.6-0.4-1.3-0.7-2.1-0.8
		c-0.8-0.1-1.6,0-2.2,0.2c-0.7,0.3-1.2,0.7-1.7,1.2c-0.4,0.6-0.7,1.2-0.8,1.9c-0.1,0.8,0,1.5,0.2,2.1c0.3,0.6,0.7,1.2,1.3,1.6
		c0.6,0.4,1.3,0.7,2.1,0.8c0.8,0.1,1.6,0,2.2-0.2c0.7-0.3,1.2-0.7,1.7-1.2c0.4-0.6,0.7-1.2,0.8-2C15.7,53.5,15.6,52.9,15.4,52.2z"/>
	<path class="st0" d="M20.5,41.3c-0.9,0.6-1.9,0.9-3,0.9s-2.1-0.2-3.1-0.8c-1-0.6-1.8-1.3-2.4-2.2c-0.6-0.9-0.8-1.9-0.8-3
		c0-1.1,0.3-2.1,0.9-3.2c0.5-0.9,1.2-1.7,1.9-2.2s1.6-0.8,2.6-0.8l0.1,1.9c-0.7,0.1-1.3,0.3-1.8,0.6C14.4,33,14,33.4,13.7,34
		c-0.4,0.7-0.6,1.4-0.5,2.1c0,0.7,0.2,1.4,0.6,2c0.4,0.6,0.9,1.1,1.7,1.5c0.7,0.4,1.5,0.6,2.2,0.6s1.4-0.2,2-0.6s1.1-0.9,1.5-1.6
		c0.3-0.6,0.5-1.2,0.5-1.8c0-0.6-0.1-1.2-0.5-1.8l1.7-0.9c0.5,0.8,0.7,1.7,0.7,2.6c0,1-0.3,1.9-0.8,2.8
		C22.1,39.9,21.4,40.8,20.5,41.3z"/>
	<path class="st0" d="M32.2,26c0,0.4-0.2,0.8-0.4,1.3c-0.2,0.4-0.5,0.8-0.9,1.2c-0.9,0.8-1.7,1.3-2.7,1.3s-1.8-0.4-2.6-1.3l-4.6-4.6
		l-1.4,1.4l-1.2-1.3l1.4-1.4L18,20.7l1.5-1.5l1.8,1.9l2.4-2.4l1.2,1.3l-2.4,2.4l4.5,4.6c0.5,0.5,0.9,0.7,1.4,0.7
		c0.5,0,0.9-0.2,1.3-0.6c0.5-0.5,0.7-1,0.8-1.6L32.2,26z"/>
</g>
</svg>
