<?xml version="1.0" encoding="utf-8"?>
<!-- Generator: Adobe Illustrator 21.0.0, SVG Export Plug-In . SVG Version: 6.00 Build 0)  -->
<svg version="1.1" id="Layer_1" xmlns="http://www.w3.org/2000/svg" xmlns:xlink="http://www.w3.org/1999/xlink" x="0px" y="0px"
	 viewBox="0 0 120 120" style="enable-background:new 0 0 120 120;" xml:space="preserve">
<style type="text/css">
	.st0{fill:#24744B;}
</style>
<g>
	<path class="st0" d="M55.3,10.6c0.6,0.5,1,1.2,1.2,2c0.2,0.9,0,1.7-0.4,2.4c-0.4,0.7-1,1.4-1.9,1.9s-1.8,0.9-2.8,1.1
		c-1,0.2-1.9,0.2-2.9,0.1c-1-0.1-2-0.4-2.8-0.8l0.4-1.7c0.7,0.4,1.5,0.6,2.3,0.7c0.8,0.1,1.6,0.1,2.4-0.1c1.2-0.2,2.1-0.7,2.8-1.3
		c0.7-0.6,1-1.4,0.8-2.2c-0.1-0.7-0.5-1.2-1.2-1.5c-0.7-0.3-1.5-0.3-2.6-0.1l-3.2,0.6L47,10.1L50,9.5c0.9-0.2,1.6-0.5,2-1
		c0.4-0.5,0.6-1.1,0.5-1.7c-0.1-0.8-0.6-1.3-1.4-1.6c-0.8-0.3-1.7-0.4-2.7-0.2c-0.7,0.1-1.3,0.4-2,0.7S45.3,6.5,44.7,7l-1-1.6
		c0.6-0.6,1.4-1,2.1-1.4c0.8-0.4,1.6-0.6,2.4-0.8c1-0.2,2-0.2,2.9-0.1c0.9,0.2,1.7,0.5,2.3,1s1,1.2,1.2,2c0.1,0.7,0.1,1.4-0.2,2
		c-0.3,0.6-0.8,1.1-1.4,1.6C53.9,9.8,54.7,10.1,55.3,10.6z"/>
	<path class="st0" d="M67.8,7.4c0.8,0.8,1.1,2,0.9,3.5l-0.6,6.7l-1.9-0.2l0.1-1.5c-0.4,0.5-0.9,0.8-1.5,1.1
		c-0.6,0.2-1.4,0.3-2.2,0.2c-1.2-0.1-2.2-0.5-2.9-1.2s-1-1.5-0.9-2.5c0.1-1,0.5-1.7,1.3-2.3c0.8-0.5,1.9-0.7,3.5-0.6l3.2,0.3l0-0.4
		c0.1-0.9-0.1-1.5-0.6-2.1C65.7,8,65,7.7,64,7.7c-0.7-0.1-1.3,0-2,0.2c-0.6,0.2-1.2,0.4-1.7,0.7L59.7,7c0.6-0.4,1.3-0.7,2.1-0.9
		c0.8-0.2,1.7-0.2,2.6-0.1C65.9,6.1,67.1,6.6,67.8,7.4z M65.1,15.3c0.6-0.3,1-0.7,1.3-1.4l0.1-1.5l-3.1-0.3
		c-1.7-0.1-2.6,0.4-2.7,1.5c0,0.6,0.1,1,0.5,1.4c0.4,0.4,1,0.6,1.8,0.6C63.9,15.7,64.6,15.6,65.1,15.3z"/>
	<path class="st0" d="M76.5,15.2l-2.2-0.8l-1.6,4.4l-1.9-0.7l3.9-10.4l1.9,0.7L75,12.8l2.2,0.8l5-3.2l2,0.8l-5.8,3.6l2.2,7L78.4,21
		L76.5,15.2z"/>
	<path class="st0" d="M93.4,18.6c0.2,1.1-0.1,2.2-1,3.5l-3.9,5.5L87,26.4l0.9-1.2c-0.6,0.2-1.2,0.3-1.9,0.1c-0.7-0.1-1.3-0.5-2-0.9
		c-1-0.7-1.7-1.5-1.9-2.5c-0.3-0.9-0.1-1.8,0.5-2.6c0.6-0.8,1.3-1.2,2.2-1.3s2,0.3,3.3,1.2l2.6,1.8l0.2-0.3c0.5-0.7,0.7-1.4,0.5-2.1
		c-0.1-0.7-0.6-1.3-1.4-1.9c-0.5-0.4-1.1-0.7-1.8-0.9c-0.6-0.2-1.2-0.3-1.8-0.2l0.2-1.7c0.7,0,1.5,0.1,2.3,0.3
		c0.8,0.3,1.6,0.7,2.3,1.2C92.4,16.5,93.2,17.5,93.4,18.6z M87,24.1c0.7,0,1.3-0.1,1.8-0.5l0.9-1.3l-2.5-1.8c-1.4-1-2.4-1-3.1-0.1
		c-0.3,0.5-0.4,0.9-0.2,1.5c0.2,0.5,0.6,1,1.2,1.4S86.4,24,87,24.1z"/>
	<path class="st0" d="M100.4,34.4l-1.3-1.7l-3.8,2.8l-1.2-1.6l3.8-2.8l-1.3-1.7l-5.6,0.3l-1.4-1.9l6.9-0.3l2.3-6l1.3,1.7l-2,5.2
		l1.3,1.8l3.8-2.8l1.2,1.6l-3.8,2.8l1.3,1.8l5.6-0.3l1.3,1.7l-6.4,0.3l-2.4,6.5l-1.4-1.9L100.4,34.4z"/>
	<path class="st0" d="M110.5,39.8l0.6,1.9l-7.8,2.3l9.7,4.3l0.5,1.8l-10.7,3.1l-0.6-1.9l7.8-2.3l-9.7-4.3l-0.5-1.8L110.5,39.8z"/>
	<path class="st0" d="M112.4,64.2l-0.1-4.1l-9.4,0.2l0-2l9.4-0.2l-0.1-4.1l1.8,0l0.2,10.2L112.4,64.2z"/>
	<path class="st0" d="M105.5,76l2-8.8c-1-0.1-1.8,0.1-2.6,0.7c-0.7,0.6-1.2,1.4-1.5,2.5c-0.3,1.3-0.1,2.4,0.6,3.4l-1.5,0.8
		c-0.5-0.6-0.8-1.3-0.9-2.1s-0.1-1.6,0.1-2.5c0.3-1.1,0.7-2.1,1.4-2.9c0.7-0.8,1.5-1.3,2.4-1.6c1-0.3,2-0.3,3-0.1
		c1.1,0.2,1.9,0.7,2.7,1.4c0.7,0.7,1.2,1.5,1.5,2.4c0.3,0.9,0.3,1.9,0.1,3c-0.2,1-0.7,1.9-1.3,2.6s-1.5,1.2-2.4,1.4
		c-1,0.3-2,0.3-3.1,0C105.9,76.2,105.7,76.1,105.5,76z M110.9,69.2c-0.4-0.8-1.1-1.3-2-1.6l-1.6,7c0.9,0.1,1.8-0.1,2.5-0.6
		c0.7-0.5,1.2-1.2,1.4-2.2S111.3,69.9,110.9,69.2z"/>
	<path class="st0" d="M98.7,87.9l1.4-1.9l-3.8-2.8l1.2-1.6l9,6.5l-1.2,1.6l-3.8-2.8l-1.4,1.9l1.7,5.7l-1.3,1.8l-1.9-6.6l-7.3,0.3
		l1.4-1.9L98.7,87.9z"/>
	<path class="st0" d="M89.6,92.2c1-0.2,2-0.1,2.9,0.3c0.9,0.4,1.7,1,2.4,1.8c0.7,0.9,1.1,1.8,1.3,2.8c0.2,1,0,1.9-0.4,2.9
		c-0.4,0.9-1,1.7-1.9,2.4c-0.9,0.7-1.8,1.1-2.8,1.3c-1,0.2-1.9,0.1-2.9-0.3c-0.9-0.4-1.7-1-2.4-1.8c-0.7-0.9-1.1-1.8-1.3-2.8
		c-0.2-1,0-1.9,0.3-2.9s1-1.7,1.9-2.4C87.7,92.8,88.6,92.3,89.6,92.2z M86.7,96.4c-0.2,0.6-0.3,1.2-0.2,1.9c0.1,0.7,0.4,1.3,0.9,1.9
		c0.5,0.6,1,1,1.7,1.3c0.6,0.3,1.3,0.3,1.9,0.2c0.6-0.1,1.2-0.4,1.8-0.8c0.6-0.4,1-1,1.2-1.6c0.2-0.6,0.3-1.2,0.2-1.9
		c-0.1-0.7-0.4-1.3-0.9-1.9c-0.5-0.6-1-1-1.7-1.3C91,94,90.4,93.9,89.7,94c-0.6,0.1-1.2,0.4-1.8,0.8C87.4,95.3,87,95.8,86.7,96.4z"
		/>
	<path class="st0" d="M84.8,108.4l-1.9,0.7l-1.7-4.4l-5.9,2.3l1.7,4.4l-1.9,0.7L71,101.9l1.9-0.7l1.7,4.3l5.9-2.3l-1.7-4.3l1.9-0.7
		L84.8,108.4z"/>
	<path class="st0" d="M66.4,103.2c0.9,0.4,1.7,1,2.3,1.8c0.6,0.8,0.9,1.8,1,2.8c0.1,1.1-0.1,2.1-0.5,3c-0.4,0.9-1.1,1.6-1.9,2.2
		s-1.8,0.9-3,1c-1,0.1-1.9,0-2.7-0.4c-0.8-0.3-1.5-0.9-2-1.6L61,111c0.4,0.5,0.9,0.9,1.4,1.1c0.5,0.2,1.1,0.3,1.8,0.2
		c0.7-0.1,1.4-0.3,1.9-0.7c0.5-0.4,1-0.9,1.2-1.5c0.3-0.6,0.4-1.3,0.3-2.1c-0.1-0.8-0.3-1.5-0.7-2c-0.4-0.6-0.9-1-1.5-1.2
		c-0.6-0.3-1.3-0.4-2-0.3c-0.6,0.1-1.2,0.2-1.7,0.6c-0.5,0.3-0.9,0.8-1.2,1.3l-1.6-0.8c0.4-0.8,0.9-1.5,1.7-1.9
		c0.7-0.5,1.6-0.8,2.6-0.9C64.4,102.7,65.4,102.8,66.4,103.2z"/>
	<path class="st0" d="M45.6,112.5l7.3-11.2c0.6-1,1.3-1.7,2-2.1c0.7-0.4,1.5-0.5,2.4-0.3c0.5,0.1,1,0.3,1.5,0.5
		c0.5,0.3,0.9,0.6,1.1,1l-1.1,1.4c-0.5-0.6-1.1-1-1.8-1.1c-0.5-0.1-0.9,0-1.3,0.2c-0.4,0.2-0.7,0.6-1.1,1.2l-0.5,0.7l3.1,11.7
		l-2.1-0.3l-2.4-9.4l-5.2,8.2L45.6,112.5z"/>
	<path class="st0" d="M33.6,107.5l4.5-10.2l1.8,0.8l-3.8,8.6l4.4,2l1.1-2.2c0.7-1.3,1.3-2.4,1.9-3.3c0.6-0.8,1.2-1.4,1.9-1.8
		c0.7-0.4,1.3-0.4,2.1-0.1c0.3,0.1,0.7,0.4,1.1,0.7l-0.8,1.5c-0.1-0.1-0.3-0.2-0.4-0.3c-0.5-0.2-1-0.2-1.5,0.2
		c-0.5,0.3-0.9,0.8-1.2,1.4c-0.4,0.6-0.8,1.4-1.4,2.5l-1.9,3.7L33.6,107.5z"/>
	<path class="st0" d="M25.1,95.2c-0.2-1,0.1-1.9,0.8-2.8c0.8-0.9,1.7-1.4,2.7-1.4c1,0,2.1,0.5,3.3,1.5l3.7,3.1l-7.1,8.6L27,103
		l2.4-2.9l-2.4-2C25.9,97.1,25.3,96.2,25.1,95.2z M29.2,93c-0.6,0-1.1,0.3-1.6,0.8c-0.5,0.6-0.6,1.1-0.5,1.7
		c0.1,0.5,0.6,1.1,1.3,1.7l2,1.7l2.8-3.4l-2-1.7C30.4,93.3,29.8,93,29.2,93z"/>
	<path class="st0" d="M15.5,88.1l2.5,3.2l7.4-5.7l1.2,1.6l-7.4,5.7l2.5,3.2l-1.4,1.1l-6.2-8L15.5,88.1z"/>
	<path class="st0" d="M10.1,78.5c0.4-1.1,1.2-1.9,2.6-2.5l6.1-2.7l0.8,1.7l-1.3,0.6c0.6,0.1,1.2,0.4,1.7,0.8
		c0.5,0.5,0.9,1.1,1.3,1.9c0.5,1.1,0.6,2.2,0.4,3.1c-0.2,0.9-0.8,1.6-1.7,2c-0.9,0.4-1.8,0.4-2.6,0c-0.8-0.4-1.6-1.3-2.2-2.7
		l-1.3-2.9l-0.4,0.2c-0.8,0.4-1.3,0.9-1.5,1.5c-0.2,0.6-0.1,1.4,0.3,2.3c0.3,0.6,0.6,1.1,1.1,1.6s0.9,0.9,1.4,1.1l-1,1.4
		c-0.7-0.3-1.3-0.8-1.8-1.5c-0.5-0.6-1-1.4-1.4-2.2C9.9,80.8,9.7,79.5,10.1,78.5z M18.4,77c-0.5-0.4-1.1-0.5-1.8-0.5l-1.4,0.6
		l1.3,2.8c0.7,1.6,1.6,2.1,2.6,1.6c0.5-0.2,0.8-0.6,0.9-1.1c0.1-0.5,0-1.1-0.3-1.8C19.3,77.9,18.9,77.4,18.4,77z"/>
	<path class="st0" d="M14.8,59.2l4.4-0.6l0.2,1.9l-2.6,0.3l1.3,9.9L7,72.2l-0.3-2L16,69l-0.8-6L6,64.1l-0.3-2l9.3-1.2L14.8,59.2z"/>
	<path class="st0" d="M5.8,55.4l0.4-2l8,1.5l-6.7-8.2l0.3-1.8l10.9,2l-0.4,2l-8-1.5l6.7,8.2l-0.3,1.8L5.8,55.4z"/>
	<path class="st0" d="M16.8,27.9c0.9-0.5,1.8-0.7,2.8-0.7c1,0,2,0.3,2.9,0.9c0.9,0.6,1.7,1.3,2.1,2.1c0.5,0.9,0.7,1.8,0.7,2.8
		c0,1-0.3,1.9-0.9,2.9c-0.5,0.8-1.1,1.5-1.9,2c-0.8,0.5-1.6,0.7-2.5,0.8c-0.9,0.1-1.8-0.1-2.6-0.5l-1.2,1.9l4,2.4l-1,1.7l-9.6-5.7
		l1-1.7l3.9,2.3l1.2-1.9c-0.7-0.6-1.3-1.3-1.6-2.1c-0.3-0.8-0.5-1.6-0.4-2.5c0.1-0.9,0.4-1.7,0.9-2.6C15.3,29.1,16,28.4,16.8,27.9z
		 M23.5,33.1c0-0.6-0.2-1.2-0.5-1.8c-0.3-0.6-0.9-1.1-1.5-1.5c-0.7-0.4-1.3-0.6-2-0.6c-0.7,0-1.3,0.1-1.9,0.4
		c-0.6,0.3-1,0.8-1.4,1.3c-0.4,0.6-0.5,1.2-0.5,1.9c0,0.6,0.2,1.3,0.5,1.8s0.9,1.1,1.5,1.5c0.7,0.4,1.3,0.6,2,0.7s1.3-0.1,1.9-0.4
		c0.6-0.3,1-0.8,1.4-1.4C23.3,34.3,23.5,33.7,23.5,33.1z"/>
</g>
</svg>
