<svg xmlns="http://www.w3.org/2000/svg" width="159" height="152" viewBox="0 0 159 152"><path d="M72.322 141.661c0-8.667.262-10.5 1.5-10.5s1.5 1.833 1.5 10.5-.262 10.5-1.5 10.5-1.5-1.833-1.5-10.5zm29.192-2.192c-1.9-5.978-2.752-10.148-2.189-10.711 1.018-1.017 1.503.053 5.065 11.155 1.62 5.046 2.01 7.57 1.282 8.298-.728.728-1.993-1.932-4.158-8.742zm22.93-16.685c-4.925-4.958-6.933-7.622-6.122-8.123 1.366-.844 16.226 13.325 15.391 14.676-.947 1.532-1.925.84-9.27-6.553zm-50.784 2.441c-1.74-1.06-3.61-2.727-4.156-3.703-.757-1.352-2.03-1.711-5.35-1.507-5.92.364-10.816-2.94-12.801-8.637-.863-2.475-2.101-4.219-3-4.22-5.592-.014-11.722-8.353-10.712-14.573.429-2.643.035-3.525-2.362-5.298-3.247-2.4-5.546-8.643-4.588-12.458.347-1.383 1.712-3.799 3.033-5.369 2.003-2.38 2.317-3.612 1.889-7.411-.933-8.278 4.1-13.888 12.459-13.888 3.747 0 3.84-.086 3.5-3.25-.82-7.67 6.598-14.318 14.834-13.295 3.771.469 4.906.214 6.4-1.437 4.391-4.853 12.488-4.376 18.103 1.066 4.91 4.76 7.15 3.728 19.966-9.193 6.021-6.07 12.617-11.903 14.657-12.963 9.931-5.16 22.28 1.065 24.317 12.257 1.223 6.719-.932 10.432-13.532 23.315-9.602 9.818-11.836 12.662-12.285 15.64-.466 3.091-.112 4.059 2.348 6.415 5.57 5.337 5.979 13.387.913 17.971-1.62 1.466-1.86 2.64-1.404 6.871.44 4.084.134 5.764-1.53 8.413-2.234 3.555-7.246 6.19-11.772 6.19-2.579 0-2.807.313-2.903 3.98-.206 7.859-6.058 12.592-14.558 11.775-3.337-.32-5.092-.063-5.585.819-1.126 2.01-6.413 4.413-9.719 4.416-1.65.001-4.423-.865-6.162-1.926zm10.535-1.498c3.676-1.901 5.558-4.182 4.161-5.045-.584-.361-1.938-2.373-3.008-4.47-1.222-2.395-2.89-4.051-4.486-4.452-4.629-1.161-2.637-2.099 4.46-2.099 7.256 0 8.808.862 4.5 2.5-3.944 1.5-2.682 5.82 2.48 8.49 5.298 2.74 11.1 1.188 13.595-3.635 3.28-6.344 1.079-11.057-10.4-22.262l-6.05-5.907-5.511 5.036c-6.48 5.921-10.63 7.134-16.308 4.761l-3.8-1.587-5.653 5.85c-4.697 4.86-5.567 6.301-5.141 8.527 1.105 5.783 8.202 9.85 13.604 7.797 2.403-.914 2.816-.716 4.238 2.034 1.45 2.804 6.12 5.763 9.246 5.857.715.021 2.547-.606 4.073-1.395zm-27.537-24.4c5.464-5.522 5.708-5.976 4.556-8.504-.67-1.469-.857-3.006-.418-3.416.44-.41 1.037-.075 1.326.744.29.82 1.769 2.733 3.287 4.25 2.123 2.124 3.713 2.76 6.896 2.76 3.613 0 4.832-.657 9.624-5.19l5.488-5.19L73.12 70.366c-7.864-7.928-16.053-15.718-18.198-17.31-4.965-3.686-9.377-3.795-13.49-.335-5.74 4.83-4.747 13.508 1.943 16.968 2.994 1.548 3.03 1.535 4.081-1.483 1.668-4.785 2.366-3.618 2.366 3.955 0 7.136-.939 9.084-2.116 4.392-.401-1.597-1.861-3.152-3.77-4.015-1.712-.774-3.893-1.955-4.845-2.625-2.157-1.518-4.385.385-5.617 4.795-1.301 4.663.445 9.282 4.387 11.609 2.972 1.753 3.357 2.404 2.773 4.69-1.484 5.81.294 10.214 5.076 12.573 1.712.845 3.576 1.546 4.143 1.558.568.013 3.63-2.602 6.805-5.81zm62.369 2.626c3.071-1.507 5.587-7.185 4.79-10.812-.645-2.94-5.605-7.98-7.852-7.98-.663 0-1.73 1.391-2.371 3.091-.655 1.734-1.63 2.805-2.222 2.44-.718-.444-.735-1.252-.053-2.526.552-1.03 1.003-3.058 1.003-4.505s-.451-3.475-1.003-4.505c-.674-1.26-.668-2.08.019-2.505.562-.347 1.6.745 2.307 2.426.85 2.021 2.885 3.867 6.006 5.447l4.72 2.39 1.976-2.511c3.872-4.923 1.51-13.985-4.112-15.77-1.69-.536-1.921-1.181-1.368-3.809l.665-3.163-4.013 3.864c-2.208 2.125-4.618 3.643-5.356 3.373-.737-.27-2.811.9-4.608 2.599l-3.268 3.09-9.482-9.443c-5.216-5.194-9.483-9.936-9.483-10.539 0-.602 1.138-2.164 2.529-3.471 1.39-1.307 2.403-3.158 2.25-4.113-.154-.956 1.296-3.373 3.221-5.372 3.454-3.586 3.465-3.625.844-2.976-2.126.527-2.786.247-3.309-1.401-1.818-5.728-10.845-8.015-15.91-4.03-2.641 2.077-2.643 2.086-.767 4.75 1.034 1.468 2.163 3.582 2.508 4.699.346 1.116 2.021 2.555 3.723 3.197 4.118 1.555 2.958 3.534-1.218 2.078-2.16-.753-4.1-.763-6.477-.034-4.405 1.352-5.713-.447-1.485-2.043 1.7-.641 3.091-1.643 3.091-2.225 0-2.147-3.358-5.755-6.63-7.122-6.51-2.72-13.37 2.395-13.37 9.97 0 3.56.769 4.692 8.681 12.778 4.775 4.879 9.145 8.871 9.712 8.871.567 0 2.951-1.884 5.298-4.188 2.347-2.303 4.587-3.867 4.978-3.477.39.391-1.395 2.848-3.968 5.46l-4.678 4.75 16.739 16.685c9.206 9.177 17.863 17.122 19.238 17.655 2.62 1.016 5.021.715 8.705-1.093zm-17.704-45.291c-3.544-3.576-6.964-6.501-7.6-6.501-.636 0-1.737.7-2.447 1.555-1.104 1.331-.296 2.557 5.6 8.5 6.89 6.943 6.892 6.944 8.89 4.945 1.999-1.999 1.998-2-4.443-8.5zm45.601-27.219c2.851-6.563.604-13.796-5.601-18.032-3.635-2.48-10.583-3.036-14.317-1.143-1.201.609-9.488 8.358-18.416 17.22L92.358 43.603 102.59 54.17l10.232 10.567 16.352-16.038c8.994-8.82 16.981-17.485 17.75-19.255zm-39.39 19.432l-6.23-6.286 14.337-14.214c15.336-15.206 16.547-15.886 22.647-12.731 3.15 1.629 5.506 7.01 4.428 10.114-.632 1.819-27.284 29.403-28.41 29.403-.298 0-3.345-2.829-6.772-6.286zm20.031-8.464c14.402-14.442 15.869-17.229 11.414-21.684-4.907-4.907-6.804-3.95-21.645 10.922l-13.46 13.488 4.936 5.012c2.715 2.757 5.185 5.012 5.489 5.012.303 0 6.273-5.737 13.266-12.75zm-.665-10.169c-4.09-4.269-2.248-6.123 1.996-2.01 1.841 1.786 3.114 3.625 2.828 4.087-.873 1.413-1.908.967-4.824-2.077zm3-3c-4.09-4.269-2.248-6.123 1.996-2.01 1.841 1.786 3.114 3.625 2.828 4.087-.873 1.413-1.908.967-4.824-2.077zm3-3c-4.09-4.269-2.248-6.123 1.996-2.01 1.841 1.786 3.114 3.625 2.828 4.087-.873 1.413-1.908.967-4.824-2.077zm11.548 70.743c-6.4-2.032-9.049-3.301-8.35-4 1.21-1.21 19.396 4.092 19.382 5.651-.014 1.631-1.296 1.44-11.032-1.651zM.322 87.16c0-.603 4.167-1 10.5-1s10.5.397 10.5 1-4.167 1-10.5 1-10.5-.397-10.5-1zm138-22c0-.603 4.167-1 10.5-1s10.5.397 10.5 1-4.167 1-10.5 1-10.5-.397-10.5-1zM13.687 59.73c-10.322-3.28-10.82-3.514-9.765-4.57 1.197-1.197 20.679 4.74 19.867 6.054-.798 1.29-1.867 1.133-10.102-1.484zm18.757-28.947c-4.925-4.958-6.933-7.622-6.122-8.123 1.366-.844 16.226 13.325 15.391 14.676-.947 1.532-1.925.84-9.27-6.553zm26.044-8.71c-3.586-9.53-5.467-17.012-4.516-17.963.728-.728 1.993 1.932 4.158 8.742 1.9 5.978 2.752 10.148 2.189 10.711-.563.564-1.276-.017-1.83-1.49zM84.322 10.66c0-8.667.262-10.5 1.5-10.5s1.5 1.833 1.5 10.5-.262 10.5-1.5 10.5-1.5-1.833-1.5-10.5z" fill="#686868"/></svg>