<svg xmlns="http://www.w3.org/2000/svg" width="153" height="154" viewBox="0 0 153 154"><path d="M43.49 152.144c-1.74-1.061-3.61-2.727-4.156-3.704-.757-1.352-2.031-1.711-5.35-1.507-5.846.36-10.82-2.946-12.745-8.473-1.171-3.36-2.109-4.297-5.468-5.468-5.492-1.914-8.833-6.904-8.478-12.665.212-3.453-.162-4.574-1.945-5.823-6.294-4.408-6.786-15.371-.91-20.248 1.003-.832 1.283-2.598.955-6.012C4.566 79.63 9.466 74.08 17.901 74.08c3.747 0 3.84-.086 3.501-3.25-.82-7.657 6.56-14.281 14.898-13.374 3.721.405 4.992.126 6.371-1.397 4.682-5.174 14.473-4.613 18.675 1.07 1.864 2.521 2.669 2.88 5.338 2.379 6.21-1.165 14.451 4.99 14.464 10.803.002 1.056 1.076 1.995 2.754 2.408 6.756 1.664 10.25 6.36 10.25 13.776 0 3.484.454 4.758 1.99 5.58 2.796 1.496 5.01 6.231 5.006 10.706-.004 3.745-3.106 10.3-4.875 10.3-.53 0-.49 1.648.093 3.945 1.882 7.415-4.365 15.41-12.117 15.506l-3.885.048-.477 4.938c-.4 4.123-1.095 5.504-4.217 8.365-3.49 3.198-4.1 3.397-9.145 2.978-3.856-.32-5.738-.047-6.566.952-3.625 4.366-11.34 5.459-16.47 2.331zm13.41-3.369c2.007-1.822 2.089-2.218.763-3.684-.818-.903-1.986-3.075-2.597-4.827-.687-1.97-1.788-3.185-2.89-3.185-1.974 0-4.36-2.331-3.384-3.307.342-.342 1.515-.145 2.605.438 1.791.96 5.997.862 9.63-.22.756-.226 1.582.155 1.835.847.283.771-.732 1.497-2.625 1.875-3.81.762-3.897 2.435-.335 6.386 5.485 6.085 14.697 4.215 17.243-3.5 1.719-5.208.354-7.723-9.53-17.554l-8.444-8.4-4.26 4.1c-2.342 2.256-5.242 4.604-6.444 5.218-2.846 1.455-8.544 1.426-11.807-.06-2.41-1.099-2.956-.813-8.047 4.215-6.396 6.317-6.967 9.261-2.711 13.98 2.897 3.212 6.407 3.989 11.5 2.545 2.075-.589 2.75-.431 2.75.642 0 1.84 4.918 6.468 7.5 7.057 3.087.704 6.773-.319 9.248-2.566zm-29.733-23.211c4.837-4.899 5.309-5.736 4.216-7.487-1.456-2.331-1.616-4.998-.299-4.998.513 0 1.212.88 1.554 1.956.341 1.076 2.037 3.148 3.768 4.605 4.768 4.012 9.645 3.016 15.91-3.25l4.834-4.833-17.51-17.49C22.191 76.64 22.115 76.58 17.664 76.58c-6.323 0-10.012 3.723-10.012 10.105 0 3.886.482 4.99 3.265 7.477 4.116 3.677 5.08 3.658 6.4-.127.584-1.675 1.573-2.857 2.198-2.625.625.231.912 1.039.637 1.795s-.437 3.977-.36 7.157c.118 4.833-.088 5.592-1.25 4.627-.765-.634-1.39-1.941-1.39-2.904 0-1.107-1.864-2.672-5.071-4.26-5.03-2.489-5.086-2.493-6.899-.547-4.927 5.288-2.314 13.224 5.702 17.316.129.065-.193 1.604-.714 3.42-1.745 6.085 3.057 13.066 8.988 13.066 1.781 0 4.222-1.68 8.009-5.515zm62.04 3.486c2.543-1.362 4.945-6.142 4.945-9.844 0-3.328-3.89-8.603-6.929-9.398-1.474-.385-2.199.197-2.96 2.38-1.666 4.782-2.611 3.295-2.611-4.109 0-7.354.923-8.858 2.61-4.25.67 1.83 2.576 3.495 5.695 4.975 4.542 2.156 4.746 2.169 6.517.397 1.006-1.005 2.077-3.682 2.38-5.947.509-3.785.239-4.426-3.32-7.897-3.522-3.434-3.875-4.254-3.879-9.005-.003-4.304-.466-5.69-2.627-7.85-1.442-1.443-4.13-2.932-5.97-3.308-2.836-.58-3.482-1.252-4.225-4.393-.516-2.183-2.154-4.784-3.983-6.322-2.621-2.206-3.8-2.536-7.544-2.114-4.133.466-4.692.233-8.141-3.393-3.084-3.241-4.357-3.89-7.609-3.87-2.228.012-4.932.812-6.298 1.862l-2.393 1.84 2.393 4.99c1.628 3.394 3.302 5.34 5.235 6.085 3.87 1.492 2.584 3.419-1.364 2.043-2.099-.732-3.918-.71-6.164.072-2.125.741-3.52.778-4.187.111-.667-.666.062-1.37 2.187-2.11 3.955-1.38 4.096-3.682.437-7.142-4.381-4.142-10.095-4.083-14.327.15-2.306 2.305-2.923 3.812-2.923 7.134 0 3.964.54 4.764 9.2 13.593l9.199 9.38 4.705-4.633c2.854-2.812 5.173-4.345 5.896-3.898.804.498-.38 2.332-3.647 5.649l-4.838 4.912 17.55 17.47c16.49 16.414 17.776 17.47 21.307 17.47 2.068 0 4.625-.464 5.683-1.03zM64.87 88.299l-9.748-9.785 4.035-3.94 4.036-3.94 9.719 9.718 9.718 9.719-4.006 4.006-4.006 4.006L64.87 88.3zm10.337-2.116c-2.136-2.532-5.712-6.371-7.945-8.532-3.975-3.846-4.102-3.89-6.085-2.095-1.114 1.008-2.025 2.316-2.025 2.906 0 .59 3.468 4.561 7.706 8.825l7.707 7.752 2.264-2.126 2.263-2.127-3.885-4.603zm-8.544-.092c-5.467-5.51-6.676-7.247-5.711-8.212.964-.964 2.702.245 8.211 5.712 6.726 6.674 8.42 9.488 5.712 9.488-.703 0-4.398-3.145-8.212-6.988zm24.992-25.008l-7.949-7.996 5.908-5.97c5.854-5.915 5.891-5.99 4.028-8.048-1.87-2.066-1.787-2.171 14.565-18.639C125.115 3.403 129.613.142 136.244.101c12.12-.074 20.603 13.953 14.978 24.768-1.062 2.04-9.367 11.11-18.456 20.155-16.434 16.352-16.538 16.434-18.604 14.564-2.058-1.862-2.132-1.826-7.823 3.806-3.16 3.127-5.968 5.685-6.24 5.685-.272 0-4.071-3.598-8.444-7.996zm14.412.355c2.246-2.552 4.085-4.928 4.085-5.279 0-.35-2.93-3.54-6.509-7.088l-6.509-6.451-5.22 5.221-5.222 5.221 6.451 6.509c3.548 3.58 6.988 6.508 7.645 6.508.656 0 3.032-2.088 5.279-4.64zm-6.315-3.197c-.318-.514.052-1.458.822-2.097.827-.687 1.636-.78 1.978-.227.317.515-.053 1.458-.822 2.097-.828.688-1.637.78-1.978.227zm-4.6-5.662c0-.825.73-1.5 1.622-1.5 1.329 0 1.397.272.378 1.5-.685.825-1.415 1.5-1.623 1.5-.208 0-.377-.675-.377-1.5zm55.53-31.75c1.07-5.796-.247-10.4-4.064-14.217-3.815-3.815-8.434-5.137-14.183-4.058-3.083.578-6.581 3.53-20.5 17.298-9.231 9.13-16.783 17.072-16.783 17.647 0 .575 4.612 5.675 10.25 11.333l10.25 10.287 17.17-17.27c14.407-14.491 17.28-17.873 17.86-21.02zM108.87 44.3c-3.145-3.178-5.718-6.237-5.718-6.796 0-.56 6.223-7.184 13.83-14.72 13.074-12.956 14.045-13.705 17.777-13.705 2.171 0 4.94.695 6.153 1.545 2.734 1.915 4.239 7.096 3.036 10.455-.98 2.736-26.623 29-28.314 29-.575 0-3.618-2.6-6.764-5.779zm33.282-26.128c0-4.598-2.425-7.093-6.892-7.093-3.26 0-4.77 1.187-16.836 13.228l-13.255 13.227 5.217 5.283 5.218 5.283 13.274-13.247c11.885-11.86 13.274-13.605 13.274-16.681zm-13.024 6.383c-1.837-1.895-3.018-3.768-2.625-4.16.393-.394 2.324.893 4.29 2.859 1.966 1.965 3.147 3.838 2.625 4.16-.522.323-2.453-.963-4.29-2.859zm3.078-2.92c-1.88-1.939-3.097-3.847-2.704-4.24.965-.964 6.99 5.162 6.506 6.615-.213.64-1.905-.417-3.802-2.375zm3-3c-1.88-1.939-3.097-3.847-2.704-4.24.965-.964 6.99 5.162 6.506 6.615-.213.64-1.905-.417-3.802-2.375z" fill="#373334"/></svg>