<svg xmlns="http://www.w3.org/2000/svg" width="151" height="155" viewBox="0 0 151 155"><path d="M.464 152.762c0-1.643 1.167-3.906 2.977-5.773 2.77-2.858 2.899-3.321 1.867-6.683-2.204-7.181 1.758-15.524 8.761-18.45 1.759-.735 4.162-2.896 5.34-4.802 1.193-1.93 3.885-4.27 6.073-5.278l3.93-1.812.027-10.445.025-10.445L19.11 78.519 8.755 67.964 4.637 55.575C2.372 48.761.73 42.844.988 42.425c.79-1.276 10.575-3.264 11.472-2.33.459.478 2.271 5.01 4.028 10.072 3.19 9.193 3.202 9.21 11.695 16.25l8.5 7.047h9.114c7.92 0 10.194-.425 17.375-3.25l8.262-3.25.265-32.5.265-32.5 37.75-.262 37.75-.262v91.048l-37.75-.262-37.75-.262-.307-3.706-.308-3.706-3.442 1.641-3.443 1.642v22.245l4.012 1.77c2.207.973 4.794 2.827 5.75 4.119l1.738 2.35 3.711-3.592c3.108-3.009 4.583-3.664 9.086-4.037 6.399-.53 10.343 1.176 14.365 6.217l2.737 3.43 1.753-2.882c3.919-6.444 11.609-8.517 19.175-5.17 2.795 1.236 5.389 3.308 6.567 5.245 1.071 1.761 3.624 4.154 5.673 5.318 6.254 3.553 9.44 12.998 6.339 18.793-.932 1.742-.56 2.592 2.5 5.727 3.69 3.778 4.807 8.096 2.094 8.096-.903 0-1.5-.925-1.5-2.325 0-2.134-3.643-6.675-5.355-6.675-.399 0-1.945.875-3.435 1.943s-4.06 2.036-5.71 2.15c-6.867.478-8.753-.11-12.56-3.917l-3.824-3.825-3.392 3.393c-6.244 6.243-16.033 6.085-21.683-.35-2.917-3.323-2.967-3.337-4.404-1.285-5.36 7.652-16.422 8.306-23.348 1.38-3.227-3.227-3.337-3.258-4.705-1.305-5.315 7.589-16.403 8.197-23.32 1.28-3.216-3.216-3.372-3.262-4.547-1.34-3.635 5.946-13.607 7.908-20.254 3.987l-3.735-2.204-2.364 2.221c-1.3 1.222-2.364 3.268-2.364 4.547 0 1.4-.596 2.325-1.5 2.325-.963 0-1.5-.967-1.5-2.702zm25.702-6.257c7.374-4.496 8.268-13.931 1.875-19.79-2.785-2.552-4.42-3.25-7.612-3.25-5.208 0-9.526 2.25-11.448 5.967-5.968 11.541 6.287 23.718 17.185 17.073zm28 0c7.374-4.496 8.268-13.931 1.875-19.79-2.785-2.552-4.42-3.25-7.612-3.25-5.208 0-9.526 2.25-11.448 5.967-5.968 11.541 6.287 23.718 17.185 17.073zm28.4-.323c3.998-2.686 6.577-8.878 5.495-13.19-.393-1.565-2.218-4.349-4.056-6.187-2.714-2.714-4.119-3.34-7.49-3.34-7.99 0-13.05 4.677-13.05 12.06 0 10.44 10.611 16.36 19.102 10.657zm27.709.257c6.98-4.257 7.792-13.572 1.71-19.653-2.91-2.91-3.964-3.322-8.52-3.322-4.581 0-5.606.406-8.6 3.4-2.892 2.892-3.4 4.096-3.4 8.05 0 5.937 2.027 9.822 6.198 11.878 4.45 2.193 8.627 2.076 12.612-.353zm27.77.14c7.127-4.347 8.043-13.69 1.94-19.793-2.91-2.91-3.964-3.322-8.52-3.322-4.581 0-5.606.406-8.6 3.4-3.029 3.029-3.398 3.985-3.378 8.75.024 5.971 1.654 8.812 6.477 11.294 4.02 2.068 8.342 1.95 12.08-.33zm-95.97-24.732c3.164-.794 3.013-1.997-.682-5.45-5.59-5.222-12.908-5.107-18.302.287l-3.117 3.117 4.278 1.426c2.489.83 5.37 2.795 6.89 4.7l2.614 3.275 2.965-3.377c1.632-1.858 4.041-3.648 5.355-3.978zm27.14.497c2.337-1.132 4.25-2.428 4.25-2.88 0-.452-1.385-1.987-3.077-3.41-5.365-4.515-15.974-3.101-18.987 2.529-.824 1.539-.43 2.067 2.443 3.266 1.883.788 4.46 2.832 5.725 4.543l2.3 3.112 1.548-2.551c.851-1.403 3.46-3.477 5.797-4.61zm22.3 4.026c.616-1.152 3.382-3.092 6.146-4.312l5.025-2.218-3.097-3.098c-5.651-5.65-15.788-4.94-19.865 1.393-1.309 2.032-1.166 2.28 2.233 3.893 1.996.947 4.39 2.769 5.319 4.048 2.1 2.892 2.822 2.942 4.239.294zm27.948.098c1.138-2.127 7.894-6.004 10.462-6.004 2.383 0 1.834-1.573-1.537-4.41-5.23-4.4-14.957-3.24-18.527 2.209-1.53 2.335-1.516 2.555.236 3.533 1.027.574 2.992 2.255 4.367 3.737 3.096 3.336 3.657 3.44 4.999.935zM52.51 114.08c1.778-1.497 4.52-2.979 6.094-3.294l2.86-.572V86.552l10.25-5.227c8.083-4.122 11.995-6.918 18.5-13.221 4.538-4.397 8.25-8.511 8.25-9.143 0-.631-1.12-2.2-2.49-3.487-2.229-2.095-2.672-2.185-4.25-.863-.967.811-4.685 3.989-8.26 7.061-4.698 4.038-9.235 6.724-16.366 9.69-9.558 3.974-10.214 4.102-21 4.083l-11.134-.019-8.5-7.079C18.026 61.32 17.94 61.2 14.467 51.775l-3.497-9.492-3.376.548c-1.858.301-3.541.711-3.741.911-.2.2 1.258 5.282 3.24 11.293l3.604 10.93L21.58 76.98l10.883 11.016V99.23c0 10.983.05 11.234 2.25 11.238 3.08.005 8.131 3.24 10.89 6.973 2.051 2.773 2.362 2.9 2.98 1.228.38-1.027 2.147-3.092 3.926-4.59zm-8.046-14.328V90.04l-4.116-4.194c-5.628-5.735-4.183-8.074 1.526-2.47l4.176 4.098 3.908-4.003c2.613-2.676 4.242-3.671 4.912-3.001.67.67-.391 2.423-3.201 5.286l-4.205 4.284v9.712c0 7.967-.27 9.712-1.5 9.712s-1.5-1.745-1.5-9.712zm100.5-52.788v-43l-35.25-.262-35.25-.263v31.135c0 29.5.092 31.064 1.75 29.786.963-.743 4.675-3.87 8.25-6.95 3.575-3.081 7.104-5.955 7.84-6.388 1.517-.89 9.16 5.948 9.16 8.194 0 2.054-17.634 18.445-22.61 21.018-4.075 2.106-4.39 2.555-4.39 6.262v3.994l35.25-.263 35.25-.263v-43zm-38.072 31.173c-.292-.76-.395-4.26-.23-7.778l.302-6.395 6.75-.295c6.623-.29 6.75-.348 6.75-3.042 0-1.934-1.33-4.053-4.5-7.163-2.475-2.429-4.5-5.129-4.5-6 0-.87 2.025-3.57 4.5-6 3.205-3.144 4.5-5.22 4.5-7.208 0-2.735-.118-2.792-5.8-2.792-3.19 0-6.34-.54-7-1.2-1.698-1.698-1.553-12.262.189-13.707.935-.776 5.75-1.06 14.75-.872l13.361.28v15l-6.75.295c-6.576.288-6.75.365-6.75 2.969 0 1.88 1.547 4.238 5.216 7.954l5.216 5.281-5.216 5.282c-3.667 3.714-5.216 6.074-5.216 7.952 0 2.578.218 2.681 6.25 2.969l6.25.297v15l-13.77.279c-10.995.222-13.878 0-14.302-1.106zm26.572-6.703v-5.031l-12.25.28-12.25.281-.304 4.75-.305 4.75h25.109v-5.03zm-7.981-20.488l3.41-3.52-3.714-3.714-3.715-3.714-3.714 3.714-3.715 3.715 3.411 3.519c1.876 1.935 3.684 3.518 4.018 3.518.335 0 2.143-1.583 4.019-3.518zm7.981-27.482v-5h-24v10h24v-5zM84.574 40.07c-4.515-2.503-6.264-8.44-4.135-14.039 1.825-4.8 10.065-8.09 14.012-5.595 1.197.757 1.273 1.504.39 3.845l-1.098 2.905 2.906-1.096c2.34-.884 3.088-.808 3.845.39 2.504 3.96-.177 11.82-4.742 13.9-3.192 1.454-8.247 1.314-11.178-.31zm9.374-1.598c1.575-.6 3.217-2.44 4.133-4.632 1.978-4.734.698-6.106-3.617-3.875-4.24 2.193-5.728.809-3.585-3.335 2.09-4.04 2.053-4.165-1.24-4.165-2.871 0-6.303 2.88-7.516 6.306-.928 2.625 1.876 8.575 4.547 9.647 3.05 1.224 4.177 1.233 7.278.054zM41.464 64.344C30.166 59.852 28.583 43.88 38.808 37.56c4.49-2.775 11.981-2.805 16.474-.066 4.308 2.626 7.626 9.847 6.817 14.835-1.538 9.476-11.877 15.496-20.635 12.014zm12.033-3.397c5.295-2.738 7.576-10.745 4.688-16.453-1.704-3.368-7.39-7.03-10.918-7.03-9.376 0-15.656 10.582-11.29 19.025 2.865 5.54 11.284 7.683 17.52 4.458zm-33.56-25.554c-2.735-2.8-6.678-5.972-8.763-7.05-4.635-2.397-5.71-5.007-5.71-13.867 0-5.92.355-7.28 2.59-9.935l2.588-3.077H29.6c18.793 0 18.977.022 21.41 2.455 2.221 2.22 2.455 3.264 2.455 10.944 0 7.531-.272 8.807-2.412 11.296-2.274 2.645-2.949 2.825-11.788 3.145l-9.376.339-1.462 5.082c-.804 2.795-1.924 5.234-2.49 5.42-.565.186-3.265-1.952-6-4.752zm6.848-3.679l1.381-4.75 10.104-.5c6.272-.31 10.588-.986 11.381-1.782.723-.725 1.44-4.497 1.652-8.689.349-6.907.196-7.584-2.251-10.032l-2.625-2.625-17.564.314c-20.897.374-20.399.088-20.399 11.677 0 7.454 1.47 11.137 4.443 11.137.623 0 3.349 2.25 6.057 5 2.71 2.75 5.266 5 5.683 5 .416 0 1.378-2.137 2.138-4.75zm-10.32-12.25c0-.615 5-1 13-1s13 .385 13 1c0 .616-5 1-13 1s-13-.384-13-1zm0-8c0-.615 5-1 13-1s13 .385 13 1c0 .616-5 1-13 1s-13-.384-13-1z" fill="#686868"/></svg>