<svg xmlns="http://www.w3.org/2000/svg" width="59" height="47" viewBox="0 0 59 47"><g fill="#fff"><path d="M6.08 45.824c.216-.647 2.914-2.96 5.996-5.139 4.19-2.963 6.865-4.083 10.61-4.443 6.381-.613 15.17 1.4 15.17 3.474 0 1.103-.615 1.336-2.25.854-1.238-.365-4.823-.929-7.966-1.252-6.47-.667-10.3.502-15.929 4.86-3.791 2.936-6.305 3.67-5.63 1.646zM3.41 40.25c1.91-4.349 1.598-9.052-.963-14.463C-.423 19.719-.593 19 .838 19c1.25 0 5.548 8.47 6.475 12.759 1 4.622 2.542 3.009 2.542-2.66 0-4.251-1.356-10.222-3.487-15.349-.491-1.183-.27-1.75.683-1.75 1.72 0 4.78 8.17 5.723 15.287l.692 5.213 1.141-5.051c1.06-4.692.486-10.389-1.848-18.324-.222-.756.067-1.55.643-1.766 2.005-.748 4.647 9.171 4.29 16.106-.393 7.626.918 8.115 3.081 1.149 1.227-3.95 1.275-6.085.288-12.854-.65-4.464-.955-8.344-.678-8.622 1.197-1.197 2.452 1.847 3.472 8.425 1.035 6.671.59 11.645-1.491 16.687-1.139 2.757 1.053 2.06 3.805-1.212 2.842-3.377 5.08-14.106 4.526-21.698-.237-3.25.066-4.8 1.002-5.115 1.08-.365 1.275 1.658 1 10.411-.27 8.599-.785 11.75-2.466 15.114L28.106 30h2.302c4.656 0 8.757-8.809 10.071-21.634.614-5.987 1.478-7.628 2.85-5.407.327.528-.072 5.097-.887 10.154-1.082 6.726-2.289 10.497-4.492 14.041-3.268 5.257-2.327 6.39 2.29 2.758 3.432-2.7 5.343-6.486 7.438-14.736 1.81-7.126 3.814-9.274 3.467-3.716-.308 4.947-3.821 14.237-6.92 18.299l-2.707 3.55 4.246-.57c6.206-.832 8.718-3.692 10.529-11.989.975-4.466 2.906-3.347 2.28 1.322-1.359 10.126-8.447 14.869-19.428 12.998a9767.04 9767.04 0 0 1-11.75-2.01c-7.685-1.32-11.855-.194-18.309 4.945-5.496 4.376-6.847 4.91-5.676 2.245z"/><path d="M5.855 46.25c0-1.036 5.786-5.557 10.007-7.82 5.755-3.083 21.993-1.864 21.993 1.652 0 .688-.687.847-1.75.406-.962-.399-4.987-.955-8.944-1.235-6.435-.455-7.656-.238-11.58 2.061-2.412 1.414-4.967 3.272-5.678 4.128-1.33 1.602-4.048 2.144-4.048.808zM3.42 41.103c-.328-.53-.14-1.247.42-1.593 1.91-1.18 1.085-9.035-1.48-14.09C-.416 19.95-.63 19 .91 19c1.44 0 5.96 10.099 6.229 13.91.274 3.915 1.226 3.935 2.578.056 1.203-3.45-.109-12.609-2.455-17.146C5.526 12.463 5.514 12 7.158 12c1.833 0 4.991 9.373 5.103 15.148.116 5.975 1.148 6.207 2.674.602 1.104-4.058.545-9.963-1.656-17.5-.382-1.309-.224-2.25.38-2.25 1.983 0 4.443 9.91 3.995 16.098-.489 6.763.6 7.579 2.874 2.152 1.56-3.723 1.424-15.31-.246-21-.396-1.349-.229-2.25.416-2.25 2.85 0 4.238 19.924 1.758 25.25-1.226 2.633 1.099 2.177 3.808-.746 2.773-2.993 4.591-11.177 4.591-20.67 0-4.343.405-6.834 1.11-6.834.771 0 .986 3.29.701 10.75-.328 8.625-.849 11.59-2.63 15L27.814 30h2.347c5.032 0 8.99-7.967 10.323-20.778 1.011-9.719 2.815-9.139 2.06.662-.666 8.627-3.197 15.9-6.912 19.854C33.861 31.623 33.778 32 35.134 32c5.424 0 10.294-6.476 12.785-17 1.328-5.615 2.454-7.815 3.476-6.794.834.835-2.366 12.532-4.658 17.026-1.08 2.118-2.846 4.732-3.923 5.81C40.869 32.985 40.884 33 44.955 33c5.436 0 10.325-4.636 11.362-10.774.778-4.605 2.538-5.774 2.538-1.686 0 3.488-3.392 9.836-6.607 12.365-3.242 2.55-11.742 2.785-20.893.575-3.3-.797-7.48-1.456-9.29-1.464-3.904-.019-9.825 2.83-14.602 7.024-1.897 1.665-3.717 2.593-4.044 2.063z"/><path d="M6.855 46.089c0-2.445 9.255-8.377 14.675-9.406 3.873-.735 14.274.846 15.751 2.395.794.832-.36.91-4.426.295-9.05-1.367-12.637-.837-18.54 2.74-3.003 1.82-5.46 3.664-5.46 4.098 0 .434-.45.789-1 .789s-1-.41-1-.911zm-3.27-4.693c-.284-.284.099-1.75.851-3.258 1.549-3.104.66-7.762-2.769-14.497C.29 20.935.1 19.905 1.03 20.191c2.017.622 5.826 8.809 5.826 12.52 0 4.143 1.37 4.224 3.045.181 1.087-2.625 1.02-4.137-.435-9.75-2.953-11.39-2.969-11.482-1.831-10.779 1.637 1.012 4.476 10.44 4.606 15.294.145 5.436 1.177 5.538 2.754.274 1.182-3.945.532-10.915-1.647-17.681-.451-1.4-.314-2.25.364-2.25 1.855 0 4.407 10.822 3.924 16.642-.51 6.139.662 6.938 2.771 1.89 1.64-3.923 1.854-12.08.474-18.031-1.292-5.576.53-6.866 1.999-1.414 1.204 4.471.905 18.06-.465 21.163-1.121 2.539 1.077 2.205 3.869-.587 2.892-2.892 4.572-10.34 4.572-20.271 0-5.353.327-7.308 1.136-6.808 1.985 1.227.486 20.277-1.976 25.102-1.14 2.236-1.83 4.31-1.532 4.609 1.175 1.174 6.066-1.507 7.656-4.198 2.06-3.492 4.68-14.269 4.7-19.347.008-2.063.465-3.75 1.015-3.75 2.274 0 .09 16.107-2.992 22.068-.692 1.338-2.18 3.445-3.307 4.682L33.506 32l2.425-.022c5.013-.046 9.348-6.183 12.27-17.368 1.517-5.81 2.253-7.344 3.114-6.484.718.719-2.278 12.612-4.074 16.174-.888 1.76-2.772 4.437-4.187 5.95L40.48 33h4.11c5.545 0 9.902-3.676 11.397-9.614 1.239-4.918 2.88-6.76 2.845-3.195-.034 3.602-3.444 10.244-6.487 12.638-3.343 2.63-10.884 2.89-19.99.691-11.438-2.762-16.037-1.886-23.628 4.5-2.545 2.14-4.86 3.66-5.144 3.376z"/><path d="M7.032 45.944c.26-.794 2.915-3.171 5.898-5.282l5.425-3.838 8.759.396c4.916.223 9.28.92 9.95 1.588 1.55 1.55-.345 1.57-7.306.078-6.547-1.404-11.476-.08-18.3 4.916-2.695 1.972-4.686 2.936-4.426 2.142zM4.42 38.54c1.93-2.946 1.325-6.815-2.172-13.875-1.317-2.658-1.861-4.655-1.21-4.438 1.8.6 4.939 7.261 5.543 11.765.64 4.773 1.59 5.071 3.267 1.024 1.34-3.235.883-7.498-1.644-15.332-1.901-5.896-1.077-7.353 1.157-2.043 2.115 5.03 3.666 13.24 2.936 15.542-1.02 3.21.61 1.934 2.11-1.652 1.853-4.437 1.84-9.924-.041-16.123C12.6 7.586 12.651 8 13.696 8c1.677 0 3.658 8.67 3.597 15.75-.034 3.988.086 7.25.265 7.25.18 0 1.218-1.462 2.308-3.25 2.168-3.555 2.678-13.08 1.07-20-.478-2.063-.489-3.75-.023-3.75 2.787 0 3.976 18.494 1.495 23.25C21.1 29.759 21.13 30 22.76 30c4.698 0 8.096-9.115 8.096-21.718 0-5.345.364-8.175 1-7.782 1.294.8 1.287 11.7-.011 18.614-.557 2.962-1.903 6.6-2.991 8.083-1.101 1.5-1.56 2.956-1.034 3.28 1.953 1.208 6.072-.799 7.981-3.889 2.522-4.08 5.055-13.75 5.055-19.298C40.855 4.735 41.318 3 42 3c.801 0 .964 1.872.541 6.25-.823 8.532-3.228 16.052-6.3 19.703C33.724 31.946 33.716 32 35.833 32c5.333 0 9.542-5.786 12.55-17.25C49.354 11.038 50.582 8 51.11 8c.527 0 .711.643.41 1.429-.302.786-.868 3.148-1.258 5.25-1.047 5.635-4.178 12.445-7.16 15.571L40.482 33h4.55c5.618 0 9.372-3.282 11.087-9.691.633-2.37 1.509-4.309 1.945-4.309 2.424 0-1.426 10.166-5.082 13.419-2.964 2.638-11.075 3.127-19.438 1.173-10.336-2.415-15.485-2.108-20.742 1.237-2.445 1.556-5.063 3.581-5.818 4.5C6.228 40.25 4.98 41 4.21 41c-1.144 0-1.105-.451.21-2.46z"/><path d="M6.855 46c0-1.104 5.377-5.196 9.7-7.382 4.002-2.023 14.667-2.072 18.8-.086 2.97 1.427 2.954 1.434-1.5.705-10.407-1.704-14.382-1.046-20.915 3.462C9.593 45.01 6.855 46.495 6.855 46zm-2.4-7.512c1.983-3.026 1.438-6.63-2.052-13.58C1.047 22.209.39 20 .943 20c1.44 0 5.89 9.989 5.902 13.25.012 3.293 1.498 3.576 3.095.59 1.384-2.584.715-9.429-1.582-16.185-.905-2.664-1.416-5.076-1.133-5.358 1.14-1.14 3.876 7.629 4.376 14.028.481 6.153.685 6.672 2.078 5.28 2.213-2.214 2.637-12.04.78-18.058-.842-2.725-1.322-5.162-1.067-5.417.863-.863 1.455.515 3.118 7.253 1.293 5.24 1.434 7.702.64 11.17-1.125 4.918-.557 5.499 2.297 2.345 2.267-2.504 3.223-15.289 1.586-21.215C20.474 5.657 20.382 4 20.83 4c1.347 0 2.09 3.018 2.697 10.954.432 5.654.183 8.486-.996 11.296-1.478 3.524-1.465 3.75.221 3.75 4.835 0 8-8.172 8.06-20.809C30.84 3.25 31.217.106 31.855.5c2.583 1.596.268 22.294-2.986 26.695-1.107 1.498-2.014 2.967-2.014 3.265 0 .92 4.03.595 6.056-.49 3.834-2.052 7.91-13.47 7.932-22.22.007-2.613.462-4.75 1.012-4.75 1.421 0 1.24 4.733-.5 13-1.647 7.828-2.717 10.366-5.8 13.75L33.508 32h2.75c5.263 0 8.903-5.482 12.947-19.5 1.125-3.898 1.466-4.387 1.547-2.218.16 4.28-3.706 14.802-6.933 18.868l-2.896 3.65 2.505.629c4.064 1.02 9.396-2.148 11.533-6.853 1.018-2.242 1.861-4.863 1.873-5.826.012-.962.508-1.75 1.102-1.75.694 0 .83 1.158.38 3.25-2.48 11.512-9.205 14.606-24.46 11.25-10.46-2.3-15.889-1.958-21.054 1.33-2.445 1.555-5.063 3.58-5.818 4.5C6.228 40.247 4.98 41 4.21 41c-1.136 0-1.09-.475.245-2.512z"/><path d="M6.855 46.164c0-1.156 5.375-5.288 9.932-7.636 2.658-1.369 5.037-1.665 10.547-1.311 3.914.251 7.994 1.007 9.068 1.68 1.74 1.092 1.627 1.164-1.047.67-12.71-2.35-16.376-1.732-23.925 4.032-2.516 1.92-4.575 3.075-4.575 2.565zM4.362 39.5c1.606-3.537.973-9.045-1.647-14.34C1.31 22.323.563 20 1.055 20c1.355 0 5.78 10.123 5.79 13.25.012 3.196 1.485 3.6 2.975.816 1.44-2.69 1.276-6.632-.544-13.066-.855-3.025-1.811-6.4-2.124-7.5-.38-1.336-.236-1.668.434-1 1.86 1.855 4.27 10.82 4.27 15.892 0 4.697.111 4.924 1.663 3.373 2.931-2.931 2.848-14.742-.155-22.015-.399-.966-.285-1.75.254-1.75.923 0 2.446 4.714 3.741 11.583.32 1.695.16 4.957-.355 7.25-1.01 4.493-.387 5.192 2.14 2.4 2.67-2.95 3.771-10.17 2.63-17.255-.56-3.482-1.248-6.702-1.528-7.155-.28-.453-.08-.823.443-.823 2.681 0 4.036 15.612 1.888 21.75-1.377 3.934-1.36 4.25.24 4.25 4.706 0 7.923-8.22 8.025-20.5.058-7.078.31-8.594 1.18-7.096 2.367 4.077-.806 24.02-4.152 26.087C26.08 29.598 26.785 31 29.133 31c5.61 0 9.828-7.237 11.57-19.848C41.73 3.724 42.855.584 42.855 5.15c0 3.57-1.895 13.836-3.203 17.35-.614 1.65-2.192 4.463-3.508 6.25L33.754 32h2.328c5.284 0 9.083-5.263 12.763-17.679 1.952-6.586 2-6.65 1.423-1.858-.783 6.484-3.004 12.16-6.55 16.728C40.223 33.7 40.202 34 43.389 34c6.65 0 12.068-4.763 13.174-11.58.305-1.881.995-3.42 1.532-3.42.538 0 .717 1.039.399 2.308-2.283 9.094-6.954 13.681-13.94 13.688-2.092.002-6.99-.72-10.884-1.607-10.102-2.297-17.62-1.568-22.328 2.168C9.3 37.176 6.69 39.175 5.542 40c-1.952 1.403-2.029 1.37-1.18-.5z"/><path d="M6.855 45.478c0-.287 2.77-2.312 6.155-4.5 5.313-3.434 6.921-3.977 11.75-3.972 5.543.005 13.735 1.688 12.795 2.628-.269.268-3.135-.059-6.369-.727-7.534-1.556-11.986-.677-18.385 3.63-5.226 3.516-5.946 3.872-5.946 2.941zm-3-5.387c0-.535.503-1.284 1.118-1.664 1.703-1.053.251-9.072-2.55-14.084C1.088 21.954.435 20 .972 20c1.566 0 5.86 10.176 5.907 14l.043 3.5 1.966-2.36c2.561-3.075 2.533-8.522-.083-16.288-1.127-3.347-1.859-6.277-1.625-6.51.987-.987 3.946 8.644 4.427 14.408.579 6.931 1.5 7.837 3.15 3.1 1.498-4.294 1.307-12.517-.4-17.312-1.824-5.119-1.007-5.99 1.035-1.104 1.686 4.034 2.283 13.667 1.074 17.316-1.179 3.557 2.036 2.834 3.962-.892 1.826-3.53 2.281-10.66 1.205-18.858-.495-3.777-.425-4.79.224-3.234 2.494 5.978 2.278 16.702-.472 23.411-.972 2.371 2.678 1.316 5.261-1.521 3.036-3.334 4.305-8.684 4.35-18.323.03-6.914.256-8.29 1.039-6.333 2.135 5.342-.14 17.842-4.962 27.25-.71 1.386 4.314.766 6.565-.81 3.394-2.378 5.038-6.397 6.796-16.616 1.693-9.837 2.432-12.064 2.404-7.24-.049 8.182-5.152 23.64-8.133 24.633-2.209.736.222 2.894 2.484 2.205C42.16 30.91 45.877 25.116 49.011 14c1.467-5.204 1.732-5.655 1.328-2.26-.692 5.823-4.143 14.701-7.062 18.17-3.04 3.613-3.027 4.09.11 4.09 6.65 0 12.069-4.763 13.175-11.58.305-1.881.955-3.42 1.443-3.42 1.262 0-.021 4.802-2.538 9.5-1.615 3.014-3.162 4.354-6.28 5.435-3.686 1.28-5.217 1.237-14.09-.39-13.882-2.548-18.744-1.916-25.701 3.337-3.048 2.3-5.54 3.745-5.54 3.21z"/><path d="M49.126 17.193c.007-.169.041-.203.087-.088.042.105.037.23-.011.278-.048.048-.082-.037-.076-.19z"/></g></svg>