<svg xmlns="http://www.w3.org/2000/svg" width="59" height="47" viewBox="0 0 59 47"><g fill="#fff"><path d="M2.706 46.577c.097-.234 1.309-1.071 2.693-1.86 1.882-1.073 3.083-1.479 4.764-1.609 2.866-.222 6.813.507 6.813 1.258 0 .4-.276.484-1.01.309-.556-.132-2.166-.336-3.578-.454-2.905-.24-4.625.182-7.153 1.76-1.703 1.063-2.832 1.33-2.529.596zM1.507 44.56c.858-1.574.717-3.277-.432-5.237-1.29-2.196-1.366-2.457-.723-2.457.561 0 2.491 3.067 2.908 4.62.449 1.673 1.141 1.09 1.141-.963 0-1.54-.609-3.701-1.565-5.558-.221-.428-.122-.633.306-.633.773 0 2.146 2.958 2.57 5.535l.31 1.887.514-1.829c.476-1.699.218-3.761-.83-6.634-.1-.274.03-.562.288-.64.9-.27 2.087 3.32 1.927 5.832-.176 2.76.412 2.938 1.384.416.55-1.43.572-2.203.13-4.654-.293-1.617-.43-3.021-.305-3.122.537-.433 1.1.669 1.559 3.05.465 2.416.265 4.217-.67 6.042-.511.998.473.746 1.709-.438 1.276-1.223 2.281-5.108 2.033-7.857-.107-1.177.03-1.738.45-1.852.485-.132.572.6.448 3.77-.121 3.113-.352 4.254-1.107 5.472l-.954 1.539h1.034c2.09 0 3.932-3.19 4.522-7.833.276-2.168.664-2.762 1.28-1.958.147.191-.032 1.846-.398 3.677-.486 2.435-1.028 3.8-2.017 5.084-1.468 1.903-1.046 2.313 1.028.998 1.541-.978 2.4-2.348 3.34-5.335.813-2.58 1.713-3.358 1.557-1.346-.138 1.791-1.716 5.155-3.107 6.626l-1.216 1.285 1.907-.206c2.787-.302 3.915-1.337 4.728-4.341.438-1.617 1.305-1.212 1.024.478-.61 3.667-3.793 5.384-8.725 4.707l-5.277-.728c-3.451-.478-5.323-.07-8.222 1.79-2.468 1.585-3.075 1.778-2.549.813z"/><path d="M2.605 46.732c0-.376 2.598-2.013 4.494-2.832 2.584-1.116 9.877-.675 9.877.598 0 .25-.308.307-.786.147-.432-.144-2.24-.345-4.017-.447-2.89-.165-3.438-.086-5.2.747-1.083.511-2.23 1.184-2.55 1.494-.597.58-1.818.776-1.818.293zm-1.094-1.864c-.147-.192-.062-.452.189-.577.857-.427.487-3.271-.665-5.102-1.246-1.98-1.342-2.324-.65-2.324.646 0 2.676 3.657 2.797 5.037.123 1.417.55 1.424 1.157.02.54-1.25-.048-4.566-1.102-6.208-.78-1.216-.785-1.383-.047-1.383.823 0 2.242 3.393 2.292 5.484.052 2.164.516 2.248 1.2.218.497-1.469.246-3.607-.743-6.336-.172-.474-.1-.815.17-.815.891 0 1.996 3.589 1.795 5.83-.22 2.448.27 2.743 1.29.778.701-1.348.64-5.543-.11-7.603-.178-.489-.103-.815.187-.815 1.28 0 1.903 7.214.79 9.142-.551.954.493.789 1.71-.27 1.245-1.083 2.061-4.047 2.061-7.484 0-1.572.182-2.474.5-2.474.345 0 .442 1.191.314 3.892-.148 3.123-.382 4.197-1.182 5.431l-.997 1.539h1.053c2.26 0 4.038-2.885 4.637-7.523.454-3.52 1.264-3.31.924.24-.298 3.123-1.435 5.756-3.103 7.188-.796.683-.833.819-.224.819 2.436 0 4.623-2.345 5.741-6.155.597-2.033 1.103-2.83 1.561-2.46.375.302-1.062 4.537-2.091 6.164-.486.767-1.278 1.714-1.762 2.104-.874.704-.867.71.961.71 2.442 0 4.637-1.68 5.103-3.902.35-1.667 1.14-2.09 1.14-.61 0 1.263-1.523 3.561-2.967 4.477-1.456.923-5.274 1.008-9.383.208-1.482-.289-3.36-.527-4.172-.53-1.753-.007-4.413 1.024-6.558 2.543-.852.603-1.669.939-1.816.747z"/><path d="M3.054 46.673c0-.885 4.156-3.033 6.59-3.405 1.74-.267 6.41.306 7.074.867.357.301-.161.329-1.987.106-4.064-.494-5.676-.302-8.327.993-1.348.659-2.452 1.326-2.452 1.484 0 .157-.202.285-.449.285s-.449-.148-.449-.33zm-1.469-1.699c-.127-.103.045-.634.383-1.18.695-1.123.296-2.81-1.244-5.248-.618-.98-.704-1.353-.286-1.25.905.225 2.616 3.19 2.616 4.534 0 1.5.616 1.529 1.367.065.489-.95.459-1.498-.195-3.53-1.326-4.124-1.333-4.157-.822-3.903.735.366 2.01 3.78 2.068 5.537.065 1.969.529 2.006 1.237.1.531-1.428.24-3.952-.74-6.402-.202-.507-.14-.815.164-.815.833 0 1.98 3.918 1.762 6.026-.228 2.223.298 2.512 1.245.684.736-1.42.832-4.374.213-6.528-.58-2.02.238-2.486.897-.512.54 1.619.407 6.538-.209 7.662-.503.92.484.799 1.738-.212 1.299-1.047 2.053-3.744 2.053-7.34 0-1.938.147-2.646.51-2.465.892.444.219 7.342-.887 9.089-.512.81-.822 1.56-.688 1.669.528.425 2.724-.546 3.438-1.52.926-1.265 2.103-5.167 2.112-7.005.003-.747.208-1.358.455-1.358 1.022 0 .04 5.832-1.344 7.99-.31.484-.978 1.247-1.485 1.695l-.92.815 1.089-.008c2.251-.017 4.198-2.238 5.51-6.288.681-2.104 1.012-2.66 1.399-2.348.322.26-1.023 4.567-1.83 5.856-.399.637-1.245 1.607-1.88 2.154l-1.156.996h1.846c2.49 0 4.447-1.33 5.118-3.481.556-1.78 1.293-2.448 1.278-1.157-.015 1.304-1.547 3.71-2.913 4.576-1.502.952-4.888 1.047-8.978.25-5.136-1-7.201-.682-10.61 1.63-1.144.775-2.183 1.325-2.31 1.222z"/><path d="M2.271 46.655c.082-.189.908-.754 1.838-1.256l1.69-.912 2.728.094c1.532.053 2.892.219 3.1.378.483.368-.107.373-2.276.018-2.04-.334-3.575-.019-5.701 1.169-.84.469-1.46.698-1.379.51zm-.813-1.76c.601-.7.412-1.62-.677-3.299-.41-.632-.58-1.107-.377-1.055.56.143 1.539 1.726 1.727 2.797.2 1.135.495 1.206 1.018.244.417-.77.275-1.783-.513-3.646-.592-1.401-.335-1.748.36-.485.66 1.196 1.143 3.148.915 3.695-.317.763.19.46.658-.393.577-1.055.573-2.36-.013-3.833-.55-1.385-.534-1.286-.209-1.286.523 0 1.14 2.061 1.121 3.744-.01.949.027 1.724.083 1.724.055 0 .379-.348.719-.773.675-.845.834-3.11.333-4.755-.15-.49-.152-.891-.007-.891.868 0 1.239 4.397.466 5.528-.408.596-.399.653.109.653 1.464 0 2.522-2.167 2.522-5.163 0-1.271.113-1.944.312-1.85.403.19.4 2.781-.004 4.425-.173.704-.593 1.57-.932 1.922-.343.357-.486.703-.322.78.609.287 1.892-.19 2.487-.925.785-.97 1.574-3.27 1.574-4.588 0-.608.145-1.02.357-1.02.25 0 .3.445.169 1.486-.257 2.029-1.006 3.816-1.963 4.684-.785.712-.787.725-.127.725 1.66 0 2.972-1.376 3.91-4.101.303-.883.685-1.605.85-1.605.164 0 .221.153.127.34-.094.186-.27.748-.392 1.248-.326 1.34-1.301 2.959-2.23 3.702l-.817.654h1.418c1.75 0 2.92-.78 3.453-2.305.198-.563.47-1.024.606-1.024.755 0-.444 2.417-1.583 3.19-.923.628-3.45.744-6.056.28-3.22-.575-4.824-.502-6.461.294-.762.37-1.578.851-1.813 1.07-.235.218-.624.397-.864.397-.356 0-.344-.107.066-.585z"/><path d="M3.054 46.641c0-.4 2.415-1.881 4.357-2.673 1.797-.732 6.586-.75 8.442-.031 1.334.517 1.327.52-.673.255-4.674-.617-6.46-.378-9.393 1.254-1.503.836-2.733 1.374-2.733 1.195zm-1.078-2.72c.89-1.096.646-2.4-.921-4.917-.61-.977-.904-1.777-.656-1.777.647 0 2.646 3.617 2.65 4.798.006 1.192.673 1.294 1.39.213.622-.935.322-3.414-.71-5.86-.407-.965-.636-1.838-.509-1.94.512-.413 1.74 2.762 1.966 5.08.216 2.227.307 2.415.933 1.91.994-.8 1.184-4.358.35-6.537-.378-.987-.594-1.87-.48-1.962.388-.312.654.187 1.401 2.627.58 1.897.644 2.788.288 4.043-.506 1.782-.25 1.992 1.031.85 1.018-.907 1.447-5.536.712-7.681-.25-.734-.292-1.334-.091-1.334.605 0 .939 1.093 1.21 3.966.195 2.047.083 3.073-.446 4.09-.664 1.276-.658 1.358.099 1.358 2.171 0 3.593-2.96 3.62-7.534.012-2.152.182-3.29.468-3.147 1.16.578.12 8.072-1.34 9.665-.498.543-.905 1.075-.905 1.182 0 .334 1.81.216 2.72-.177 1.722-.743 3.552-4.877 3.562-8.045.003-.946.207-1.72.454-1.72.638 0 .557 1.714-.224 4.707-.74 2.834-1.22 3.753-2.605 4.978l-.92.815h1.236c2.363 0 3.998-1.985 5.814-7.06.505-1.412.658-1.589.694-.804.072 1.55-1.664 5.36-3.113 6.832l-1.3 1.322 1.124.227c1.825.37 4.22-.777 5.18-2.48.457-.813.835-1.762.84-2.11.006-.349.229-.634.495-.634.312 0 .373.42.17 1.177-1.113 4.168-4.133 5.288-10.983 4.073-4.698-.833-7.136-.709-9.456.481-1.098.564-2.273 1.297-2.612 1.63-.34.332-.9.605-1.246.605-.51 0-.49-.172.11-.91z"/><path d="M3.054 46.7c0-.418 2.414-1.914 4.46-2.764 1.194-.496 2.262-.603 4.737-.475 1.758.09 3.59.365 4.072.608.782.395.731.422-.47.243-5.708-.851-7.354-.627-10.744 1.46-1.13.695-2.055 1.113-2.055.929zm-1.12-2.412c.722-1.281.438-3.275-.74-5.192-.63-1.028-.966-1.869-.745-1.869.609 0 2.596 3.666 2.6 4.798.006 1.157.668 1.303 1.337.295.646-.974.573-2.401-.245-4.73-.384-1.096-.813-2.318-.954-2.716-.17-.484-.105-.604.196-.362.835.671 1.917 3.917 1.917 5.754 0 1.7.05 1.783.747 1.22 1.316-1.06 1.279-5.337-.07-7.97-.179-.35-.128-.634.114-.634.415 0 1.099 1.707 1.68 4.194.144.614.072 1.795-.159 2.625-.453 1.627-.174 1.88.96.87 1.2-1.07 1.695-3.683 1.182-6.248-.252-1.261-.56-2.427-.686-2.591-.126-.164-.036-.298.199-.298 1.204 0 1.812 5.653.848 7.875-.619 1.425-.61 1.539.108 1.539 2.113 0 3.558-2.976 3.603-7.423.027-2.562.14-3.111.53-2.569 1.063 1.476-.362 8.697-1.864 9.445-.805.401-.488.909.567.909 2.519 0 4.414-2.62 5.196-7.187.46-2.689.966-3.826.966-2.173 0 1.293-.85 5.01-1.438 6.282-.276.598-.985 1.616-1.575 2.263l-1.074 1.177h1.046c2.372 0 4.079-1.906 5.731-6.401.877-2.385.899-2.408.64-.673-.352 2.348-1.35 4.403-2.942 6.057-1.57 1.632-1.58 1.741-.149 1.741 2.987 0 5.42-1.724 5.917-4.193.137-.68.447-1.238.688-1.238.242 0 .322.376.179.836-1.025 3.293-3.123 4.953-6.26 4.956-.94 0-3.139-.261-4.888-.582-4.537-.832-7.913-.568-10.027.785a90.801 90.801 0 0 1-2.604 1.609c-.877.508-.912.496-.53-.181z"/><path d="M3.054 46.452c0-.104 1.244-.837 2.764-1.63 2.386-1.242 3.108-1.44 5.277-1.438 2.49.002 6.168.612 5.746.952-.12.097-1.408-.021-2.86-.263-3.383-.563-5.383-.245-8.257 1.314-2.346 1.273-2.67 1.402-2.67 1.065zm-1.347-1.95c0-.194.226-.465.502-.603.765-.381.113-3.285-1.145-5.1-.6-.864-.893-1.572-.652-1.572.704 0 2.632 3.684 2.653 5.07l.02 1.266.882-.854c1.15-1.113 1.138-3.086-.037-5.898-.506-1.211-.835-2.272-.73-2.357.443-.357 1.772 3.13 1.988 5.217.26 2.51.674 2.838 1.415 1.123.672-1.555.587-4.532-.18-6.269-.819-1.853-.452-2.169.465-.4.757 1.461 1.025 4.95.482 6.27-.529 1.288.915 1.026 1.78-.323.82-1.278 1.024-3.86.541-6.828-.223-1.367-.191-1.734.1-1.17 1.12 2.164 1.023 6.047-.212 8.476-.436.858 1.203.476 2.363-.55 1.363-1.208 1.934-3.145 1.953-6.635.014-2.504.116-3.002.467-2.293.96 1.934-.063 6.46-2.228 9.866-.32.502 1.937.278 2.948-.293 1.524-.86 2.262-2.316 3.052-6.016.76-3.562 1.092-4.368 1.08-2.622-.022 2.963-2.314 8.56-3.653 8.92-.992.266.1 1.047 1.116.798 2.232-.548 3.902-2.645 5.309-6.67.659-1.885.778-2.048.596-.819-.31 2.109-1.86 5.323-3.171 6.58-1.365 1.308-1.36 1.48.05 1.48 2.986 0 5.42-1.724 5.916-4.193.137-.68.429-1.238.648-1.238.567 0-.01 1.739-1.14 3.44-.725 1.091-1.42 1.576-2.82 1.968-1.656.463-2.343.448-6.328-.142-6.234-.922-8.417-.693-11.542 1.209-1.368.833-2.488 1.356-2.488 1.162z"/><path d="M22.038 36.21c.003-.06.018-.073.039-.03.019.037.016.082-.005.1-.022.017-.037-.014-.034-.07z"/></g></svg>