<?xml version="1.0" encoding="UTF-8" standalone="no"?>
<!-- Created with Inkscape (http://www.inkscape.org/) -->

<svg
   xmlns:dc="http://purl.org/dc/elements/1.1/"
   xmlns:cc="http://creativecommons.org/ns#"
   xmlns:rdf="http://www.w3.org/1999/02/22-rdf-syntax-ns#"
   xmlns:svg="http://www.w3.org/2000/svg"
   xmlns="http://www.w3.org/2000/svg"
   xmlns:sodipodi="http://sodipodi.sourceforge.net/DTD/sodipodi-0.dtd"
   xmlns:inkscape="http://www.inkscape.org/namespaces/inkscape"
   id="svg3426"
   version="1.1"
   inkscape:version="0.91 r13725"
   width="151"
   height="155"
   viewBox="0 0 151 155"
   sodipodi:docname="lecture.svg">
  <metadata
     id="metadata3432">
    <rdf:RDF>
      <cc:Work
         rdf:about="">
        <dc:format>image/svg+xml</dc:format>
        <dc:type
           rdf:resource="http://purl.org/dc/dcmitype/StillImage" />
        <dc:title></dc:title>
      </cc:Work>
    </rdf:RDF>
  </metadata>
  <defs
     id="defs3430" />
  <sodipodi:namedview
     pagecolor="#ffffff"
     bordercolor="#666666"
     borderopacity="1"
     objecttolerance="10"
     gridtolerance="10"
     guidetolerance="10"
     inkscape:pageopacity="0"
     inkscape:pageshadow="2"
     inkscape:window-width="1538"
     inkscape:window-height="877"
     id="namedview3428"
     showgrid="false"
     inkscape:zoom="2.1532542"
     inkscape:cx="34.520424"
     inkscape:cy="77.490215"
     inkscape:window-x="54"
     inkscape:window-y="-8"
     inkscape:window-maximized="1"
     inkscape:current-layer="svg3426" />
  <path
     style="fill:#686868"
     d="m 0.46441292,152.76202 c 0,-1.64334 1.16630998,-3.90572 2.97609008,-5.77294 2.76975,-2.85765 2.89921,-3.32103 1.86728,-6.68337 -2.20382,-7.18069 1.75785,-15.52325 8.76117,-18.44943 1.75885,-0.73489 4.16194,-2.896 5.34019,-4.80245 1.19267,-1.92978 3.88464,-4.26929 6.07298,-5.27785 l 3.93069,-1.81157 0.0258,-10.44523 0.0258,-10.445234 L 19.109883,78.51918 8.755343,67.964413 4.637013,55.575018 C 2.3719329,48.760851 0.73008292,42.843568 0.98846292,42.425499 1.7776229,41.148616 11.563473,39.160843 12.460213,40.095274 c 0.45875,0.478026 2.27128,5.010183 4.02785,10.07146 3.19051,9.192942 3.20243,9.209504 11.69461,16.25 l 8.50085,7.047679 9.11312,0 c 7.92005,0 10.194765,-0.425485 17.375071,-3.25 l 8.261947,-3.25 0.265376,-32.5 0.265376,-32.4999996 37.749997,-0.2620252 37.75,-0.2620252 0,45.52405 0,45.52405 -37.75,-0.262025 -37.749997,-0.262025 -0.307759,-3.706278 -0.307758,-3.706278 -3.442242,1.64149 -3.442241,1.641491 0,11.122339 0,11.122333 4.011821,1.77002 c 2.206502,0.9735 4.794002,2.82723 5.75,4.11938 l 1.738179,2.34938 3.710584,-3.5914 c 3.108381,-3.00854 4.583045,-3.66375 9.086429,-4.0372 6.39833,-0.5306 10.342515,1.17655 14.364754,6.21747 l 2.73717,3.43038 1.75279,-2.88223 c 3.91873,-6.44384 11.60852,-8.51758 19.17437,-5.17085 2.79574,1.23669 5.38951,3.30834 6.56761,5.24557 1.07089,1.76093 3.62354,4.15404 5.67258,5.31803 6.2546,3.55305 9.44052,12.99807 6.33913,18.79307 -0.93199,1.74144 -0.56063,2.59205 2.5,5.72642 3.68966,3.77856 4.80676,8.09686 2.09458,8.09686 -0.90335,0 -1.5,-0.92508 -1.5,-2.32569 0,-2.13322 -3.64342,-6.67431 -5.35494,-6.67431 -0.39933,0 -1.94532,0.87413 -3.43555,1.94251 -1.49023,1.06838 -4.05951,2.03624 -5.70951,2.1508 -6.86743,0.4768 -8.75351,-0.11153 -12.5598,-3.91782 l -3.82451,-3.82451 -3.39254,3.39254 c -6.2431,6.2431 -16.032279,6.08524 -21.682176,-0.34964 -2.917534,-3.32289 -2.967146,-3.33737 -4.404219,-1.28566 -5.359695,7.65204 -16.42222,8.30631 -23.347672,1.38086 -3.227821,-3.22782 -3.337378,-3.25821 -4.705271,-1.30527 -5.315084,7.58834 -16.403109,8.19689 -23.320109,1.27989 -3.21633,-3.21633 -3.37174,-3.26214 -4.54693,-1.34013 -3.63533,5.94556 -13.60755,7.90846 -20.25429,3.9868 l -3.73452,-2.20343 -2.36398,2.22085 c -1.30019,1.22146 -2.36398,3.2674 -2.36398,4.54652 0,1.40061 -0.59665,2.32569 -1.5000001,2.32569 -0.96329,0 -1.49999998,-0.96693 -1.49999998,-2.70239 z M 26.165863,146.50489 c 7.37425,-4.49634 8.26811,-13.93098 1.87494,-19.78988 -2.78522,-2.55247 -4.41992,-3.2506 -7.61136,-3.2506 -5.20863,0 -9.52606,2.25044 -11.4481,5.96727 -5.9685,11.54179 6.28694,23.71786 17.18452,17.07321 z m 28,0 c 7.37425,-4.49634 8.26811,-13.93098 1.87494,-19.78988 -2.78522,-2.55247 -4.41992,-3.2506 -7.61136,-3.2506 -5.20863,0 -9.52606,2.25044 -11.4481,5.96727 -5.9685,11.54179 6.28694,23.71786 17.18452,17.07321 z m 28.400667,-0.32308 c 3.997435,-2.68536 6.576519,-8.87736 5.494026,-13.19036 -0.392717,-1.56471 -2.217507,-4.3484 -4.055088,-6.18598 -2.714554,-2.71456 -4.119182,-3.34106 -7.490715,-3.34106 -7.989017,0 -13.05034,4.67744 -13.05034,12.06052 0,10.44003 10.611948,16.36033 19.102117,10.65688 z m 27.70806,0.25697 c 6.98132,-4.2564 7.7923,-13.57189 1.71095,-19.65324 -2.90993,-2.90993 -3.96495,-3.32113 -8.52113,-3.32113 -4.580389,0 -5.605125,0.40513 -8.599997,3.4 -2.891685,2.89168 -3.4,4.09514 -3.4,8.04966 0,5.9373 2.027149,9.82197 6.198089,11.87753 4.450198,2.19318 8.627828,2.07631 12.612088,-0.35282 z m 27.76986,0.13995 c 7.1275,-4.34634 8.04387,-13.69041 1.94109,-19.79319 -2.90993,-2.90993 -3.96495,-3.32113 -8.52113,-3.32113 -4.58039,0 -5.60513,0.40513 -8.6,3.4 -3.02834,3.02834 -3.39757,3.98482 -3.37776,8.75 0.0248,5.9708 1.65416,8.81153 6.47776,11.29383 4.01868,2.06808 8.34165,1.95016 12.08004,-0.32951 z M 42.075833,121.84709 c 3.16333,-0.79395 3.01248,-1.99745 -0.68305,-5.4496 -5.59032,-5.22213 -12.90767,-5.10762 -18.3017,0.2864 l -3.11705,3.11706 4.2777,1.4259 c 2.48885,0.82962 5.37042,2.79537 6.89075,4.70074 l 2.61306,3.27484 2.96585,-3.37792 c 1.63122,-1.85786 4.04072,-3.6477 5.35444,-3.97742 z m 27.13858,0.49668 c 2.3375,-1.13178 4.25,-2.42763 4.25,-2.87967 0,-0.45205 -1.384526,-1.9869 -3.076725,-3.4108 -5.364613,-4.51402 -15.973541,-3.10052 -18.986765,2.52975 -0.82365,1.539 -0.42919,2.06649 2.4427,3.26644 1.883735,0.78708 4.460245,2.83133 5.725577,4.54278 l 2.300602,3.11173 1.547306,-2.55123 c 0.851018,-1.40318 3.459805,-3.47723 5.797305,-4.609 z m 22.300536,4.02621 c 0.616498,-1.15193 3.382234,-3.09241 6.146082,-4.31218 l 5.025179,-2.21775 -3.097693,-3.09769 c -5.651002,-5.651 -15.787913,-4.94049 -19.864986,1.39236 -1.308206,2.03202 -1.16592,2.28008 2.23297,3.89296 1.996615,0.94746 4.390193,2.76917 5.319061,4.04826 2.100321,2.89223 2.822087,2.94229 4.239387,0.29404 z m 27.947711,0.0977 c 1.13806,-2.12648 7.89415,-6.00327 10.46191,-6.00327 2.3833,0 1.83493,-1.57391 -1.53689,-4.41111 -5.22878,-4.39973 -14.95647,-3.23955 -18.52691,2.20963 -1.53019,2.33536 -1.51551,2.55515 0.23597,3.53305 1.02722,0.57353 2.99267,2.25515 4.36767,3.73693 3.09539,3.33578 3.65705,3.44082 4.99825,0.93477 z M 52.509503,114.07992 c 1.778785,-1.49675 4.521325,-2.97879 6.094532,-3.29343 l 2.860378,-0.57208 0,-11.831086 0,-11.83109 10.25,-5.227189 c 8.082209,-4.121681 11.994807,-6.917876 18.5,-13.221292 4.5375,-4.396757 8.25,-8.510841 8.25,-9.142408 0,-0.631567 -1.120285,-2.200757 -2.489522,-3.487088 -2.229917,-2.094899 -2.673102,-2.184947 -4.25,-0.863532 -0.968263,0.811389 -4.685478,3.989186 -8.260478,7.061771 -4.69813,4.037875 -9.235037,6.72383 -16.366275,9.689217 -9.557859,3.974451 -10.214311,4.102105 -20.999995,4.083671 l -11.13373,-0.01903 -8.5,-7.07926 c -8.43882,-7.028304 -8.52517,-7.147588 -11.99701,-16.571729 l -3.49701,-9.492469 -3.37689,0.547994 c -1.85729,0.301397 -3.54051,0.711605 -3.74048,0.911574 -0.19996,0.19997 1.25808,5.281713 3.24011,11.292764 l 3.60368,10.929184 10.8838,11.015647 10.8838,11.015647 0,11.234353 c 0,10.982661 0.0504,11.234431 2.25,11.238091 3.07867,0.005 8.13067,3.23956 10.89049,6.97242 2.05052,2.77346 2.36069,2.90132 2.97961,1.22822 0.37996,-1.02713 2.1462,-3.09212 3.92499,-4.58887 z m -8.04509,-14.327655 0,-9.712149 -4.11666,-4.194576 c -5.62797,-5.734476 -4.18309,-8.073154 1.52604,-2.470062 l 4.17572,4.098157 3.90894,-4.00312 c 2.61285,-2.675802 4.241393,-3.670669 4.911594,-3.000468 0.670201,0.670201 -0.391319,2.423003 -3.201494,5.28636 l -4.20414,4.283709 0,9.712149 c 0,7.966355 -0.26963,9.712145 -1.5,9.712145 -1.23037,0 -1.5,-1.74579 -1.5,-9.712145 z m 100.499997,-52.787852 0,-42.9999996 -35.25,-0.2627926 -35.249997,-0.2627926 0,31.1352368 c 0,29.500109 0.0919,31.064356 1.75,29.785545 0.9625,-0.74233 4.675,-3.869967 8.25,-6.950303 3.575,-3.080337 7.10312,-5.954738 7.840267,-6.387558 1.516117,-0.890198 9.15973,5.94803 9.15973,8.194596 0,2.05319 -17.63393,18.444445 -22.610621,21.017235 -4.074306,2.106286 -4.389376,2.555829 -4.389376,6.262792 l 0,3.993626 35.249997,-0.262792 35.25,-0.262793 0,-43 z m -38.07198,31.173026 c -0.29203,-0.761024 -0.3953,-4.261283 -0.22949,-7.778353 l 0.30147,-6.394673 6.75,-0.29569 c 6.62286,-0.29012 6.75,-0.347413 6.75,-3.041792 0,-1.933689 -1.33129,-4.052665 -4.5,-7.162518 -2.475,-2.429029 -4.5,-5.129029 -4.5,-6 0,-0.870971 2.025,-3.570971 4.5,-6 3.20414,-3.144621 4.5,-5.220368 4.5,-7.208208 0,-2.734827 -0.11835,-2.791792 -5.8,-2.791792 -3.19,0 -6.34,-0.54 -7,-1.2 -1.69841,-1.698406 -1.55324,-12.26195 0.18837,-13.707358 0.93508,-0.776045 5.75087,-1.060893 14.75,-0.872445 l 13.36163,0.279803 0,7.5 0,7.5 -6.75,0.29569 c -6.576,0.288067 -6.75,0.364592 -6.75,2.968555 0,1.880466 1.54629,4.238603 5.21584,7.95431 l 5.21584,5.281445 -5.21584,5.281445 c -3.66756,3.713695 -5.21584,6.07426 -5.21584,7.952283 0,2.577804 0.21771,2.681208 6.25,2.968555 l 6.25,0.297717 0,7.5 0,7.5 -13.7705,0.278353 c -10.99471,0.222244 -13.87754,-5.63e-4 -14.30148,-1.105327 z m 26.57198,-6.703805 0,-5.030779 -12.25,0.280779 -12.25,0.280779 -0.30479,4.75 -0.30479,4.75 12.55479,0 12.55479,0 0,-5.030779 z m -7.98171,-20.488095 3.41063,-3.518873 -3.71446,-3.71446 -3.71446,-3.71446 -3.71446,3.71446 -3.71446,3.71446 3.41063,3.518873 c 1.87584,1.935381 3.68407,3.518874 4.01829,3.518874 0.33422,0 2.14245,-1.583493 4.01829,-3.518874 z m 7.98171,-27.481126 0,-5 -12,0 -12,0 0,5 0,5 12,0 12,0 0,-5 z M 84.574484,40.068906 c -4.515446,-2.50272 -6.263985,-8.439271 -4.134997,-14.038934 1.824906,-4.799865 10.064803,-8.090402 14.011146,-5.595237 1.197178,0.756943 1.272934,1.504753 0.389531,3.845156 l -1.096688,2.905459 2.905459,-1.096688 c 2.340403,-0.883403 3.088213,-0.807647 3.845155,0.389531 2.50429,3.960785 -0.17706,11.821081 -4.742001,13.901008 -3.191677,1.454225 -8.247243,1.31388 -11.177605,-0.310295 z m 9.373198,-1.598132 c 1.575042,-0.59883 3.217434,-2.439132 4.133504,-4.631596 1.978244,-4.734604 0.698095,-6.10607 -3.616773,-3.874765 -4.240098,2.19264 -5.727956,0.808393 -3.585098,-3.335438 2.089589,-4.04082 2.052727,-4.164562 -1.240588,-4.164562 -2.871065,0 -6.302808,2.879462 -7.515366,6.305897 -0.928696,2.624296 1.875839,8.574638 4.546622,9.646505 3.050953,1.224441 4.177135,1.232791 7.277699,0.05396 z M 41.464413,64.343685 c -11.29794,-4.491861 -12.88189,-20.46291 -2.65621,-26.782729 4.49062,-2.775353 11.98124,-2.805423 16.474239,-0.06613 4.307905,2.626442 7.625758,9.847426 6.816362,14.835149 -1.537753,9.476062 -11.876731,15.495602 -20.634391,12.013713 z m 12.03273,-3.396199 c 5.294856,-2.738075 7.576266,-10.745009 4.687959,-16.453058 -1.704582,-3.3687 -7.390929,-7.030015 -10.918229,-7.030015 -9.37616,0 -15.65577,10.58162 -11.28989,19.024309 2.8652,5.54069 11.28451,7.683347 17.52016,4.458764 z M 19.936113,35.393072 c -2.73443,-2.799614 -6.67733,-5.972255 -8.76199,-7.050313 -4.63509,-2.396979 -5.70971,-5.006833 -5.70971,-13.86672 0,-5.919228 0.35444,-7.2794069 2.58889,-9.9349003 l 2.5889,-3.0767253 18.95656,0 c 18.79338,0 18.97769,0.021128 21.41111,2.4545455 2.22056,2.2205663 2.45454,3.2638238 2.45454,10.9442361 0,7.531221 -0.27234,8.806456 -2.41224,11.295454 -2.27413,2.645115 -2.9491,2.825192 -11.78839,3.145082 l -9.37614,0.339319 -1.46162,5.081695 c -0.80388,2.794933 -1.92434,5.233985 -2.48991,5.420115 -0.56556,0.186131 -3.26556,-1.952174 -6,-4.751788 z m 6.84901,-3.678659 1.38122,-4.75 10.10368,-0.5 c 6.27237,-0.3104 10.58812,-0.986206 11.38123,-1.782193 0.72299,-0.725617 1.43991,-4.497443 1.65158,-8.689223 0.34877,-6.9065151 0.19666,-7.5844114 -2.25097,-10.0320452 L 46.426843,3.3359376 28.863073,3.6501755 C 7.965523,4.0240586 8.464413,3.7384845 8.464413,15.326802 c 0,7.453748 1.46942,11.137611 4.44258,11.137611 0.62293,0 3.34877,2.25 6.05742,5 2.70865,2.75 5.26562,5 5.68215,5 0.41653,0 1.37888,-2.1375 2.13856,-4.75 z m -10.32071,-12.25 c 0,-0.615385 5,-1 13,-1 8,0 13,0.384615 13,1 0,0.615385 -5,1 -13,1 -8,0 -13,-0.384615 -13,-1 z m 0,-8 c 0,-0.615385 5,-1 13,-1 8,0 13,0.384615 13,1 0,0.615385 -5,1 -13,1 -8,0 -13,-0.384615 -13,-1 z"
     id="path3450"
     inkscape:connector-curvature="0" />
</svg>
