<?xml version="1.0" standalone="no"?>
<!DOCTYPE svg PUBLIC "-//W3C//DTD SVG 1.1//EN" "http://www.w3.org/Graphics/SVG/1.1/DTD/svg11.dtd" >
<svg xmlns="http://www.w3.org/2000/svg" xmlns:xlink="http://www.w3.org/1999/xlink" version="1.1">
<metadata>
Created by FontForge 20150824 at Mon May 16 04:39:45 2016
 By Everything Fonts
Copyright (c) 2014 by Glenjan. All rights reserved.
</metadata>
<defs>
<font id="CertaSans-Medium" horiz-adv-x="600" >
  <font-face 
    font-family="Certa Sans"
    font-weight="500"
    font-stretch="normal"
    units-per-em="1000"
    panose-1="2 0 5 4 0 0 0 2 0 4"
    ascent="760"
    descent="-240"
    x-height="430"
    cap-height="630"
    bbox="-209 -329 1090 957"
    underline-thickness="73"
    underline-position="-151"
    unicode-range="U+0020-2265"
  />
<missing-glyph horiz-adv-x="644" 
d="M556 649v-669h-469v550l-10 119h479zM171 53l301 5v513l-301 5v-523zM218 391q43 34 102 34q48 0 75 -23t27 -65q0 -35 -18 -60t-51 -34v-41l-57 -2q-14 17 -14 41q0 25 16.5 42t45.5 22q6 9 6 25t-9.5 24t-24.5 8q-9 0 -19 -2q-10 -5 -19 -12.5t-18 -16.5zM412 530
l2 -73h-74v70zM291 527l2 -70h-71v67zM355 167l2 -67h-69v64z" />
    <glyph glyph-name="cyr.ii.l" unicode="&#x456;&#x457;" horiz-adv-x="481" 
d="M175 435v-435h-110v332l-9 94zM95 653v-116l-118 4l4 103zM416 435v-435h-111v332l-8 94zM300 653v-116l-118 4l4 103zM501 653v-116l-118 4l5 103z" />
    <glyph glyph-name=".notdef" horiz-adv-x="644" 
d="M556 649v-669h-469v550l-10 119h479zM171 53l301 5v513l-301 5v-523zM218 391q43 34 102 34q48 0 75 -23t27 -65q0 -35 -18 -60t-51 -34v-41l-57 -2q-14 17 -14 41q0 25 16.5 42t45.5 22q6 9 6 25t-9.5 24t-24.5 8q-9 0 -19 -2q-10 -5 -19 -12.5t-18 -16.5zM412 530
l2 -73h-74v70zM291 527l2 -70h-71v67zM355 167l2 -67h-69v64z" />
    <glyph glyph-name="space" unicode=" " horiz-adv-x="250" 
 />
    <glyph glyph-name="exclam" unicode="!" horiz-adv-x="255" 
d="M186 694l-12 -495h-94l-7 359l-11 124zM184 120l5 -120h-123l1 114z" />
    <glyph glyph-name="quotedbl" unicode="&#x22;" horiz-adv-x="334" 
d="M316 680l-55 -221l-91 6l23 115l12 114zM157 679l-43 -200l-88 5l18 111l7 100z" />
    <glyph glyph-name="numbersign" unicode="#" horiz-adv-x="587" 
d="M436 462l99 4l-12 -95h-99l-11 -88l107 4l-11 -95h-106l-1 -99h-103l13 99h-88l-1 -99h-104l13 99h-80v80l92 7l12 92h-90v80l99 8l3 105h102l-13 -103h87l3 103h103zM234 282h90l12 89h-91z" />
    <glyph glyph-name="dollar" unicode="$" horiz-adv-x="546" 
d="M403 464q-18 19 -38.5 34t-47.5 29q-8 2 -19 3t-20 1q-26 0 -45.5 -4.5t-36.5 -14.5q-18 -24 -18 -57q0 -39 27 -61.5t90 -32.5q101 -15 148.5 -62t47.5 -128q0 -71 -45.5 -117.5t-122.5 -59.5l4 -117l-109 -11l6 125q-50 4 -91.5 19t-81.5 45l62 98q29 -25 57 -41
t57 -27q21 -3 42 -3q29 0 51 4t38 15q26 29 26 68q0 42 -25 63t-90 29q-97 12 -147.5 59.5t-50.5 125.5q0 68 41.5 113.5t111.5 58.5l-4 112l110 11l-6 -122q89 -12 151 -64z" />
    <glyph glyph-name="percent" unicode="%" horiz-adv-x="774" 
d="M197 620q36 0 64 -11.5t47 -32t29 -48t10 -60.5q0 -31 -11 -58.5t-30.5 -48.5t-47.5 -33t-61 -12q-36 0 -64 11.5t-47 32t-29 48.5t-10 60q0 31 11 59t30.5 48.5t47.5 32.5t61 12zM197 536q-25 0 -44 -14q-7 -10 -10 -24t-3 -30q0 -67 57 -67q24 0 44 13q13 19 13 54
q0 32 -14.5 50t-42.5 18zM649 565l-231 -288l-219 -306l-91 46l237 298l220 309zM576 291q36 0 64 -11.5t47 -32t29 -48t10 -60.5q0 -31 -11 -58.5t-30.5 -48t-47.5 -32.5t-61 -12q-36 0 -64 11.5t-47 31.5t-29 48t-10 60q0 31 11 59t30.5 48.5t47.5 32.5t61 12zM576 207
q-25 0 -44 -14q-7 -10 -10 -24t-3 -30q0 -32 14.5 -49.5t42.5 -17.5q25 0 44 14q13 19 13 53q0 32 -14.5 50t-42.5 18z" />
    <glyph glyph-name="ampersand" unicode="&#x26;" horiz-adv-x="601" 
d="M535 382q15 -54 15 -118q0 -56 -16.5 -102.5t-46.5 -82.5l63 -93v-15l-116 -25l-34 67q-57 -26 -123 -26q-56 0 -99 16.5t-72.5 46t-45 70.5t-15.5 90q0 57 25 105t67 80q-15 37 -15 84q0 32 12 62t35.5 52.5t58 36t79.5 13.5q60 0 107 -16t86 -49l-77 -92
q-15 16 -34.5 31.5t-42.5 28.5q-9 2 -20 3t-23 1q-14 0 -30 -3.5t-27 -11.5q-16 -25 -16 -62q0 -49 27 -85l174 -231q6 20 9.5 42.5t3.5 47.5q-6 25 -14.5 52t-18.5 53zM286 81q18 0 35 1.5t33 5.5l-166 226q-17 -20 -24.5 -45.5t-7.5 -55.5q0 -28 8 -52t24.5 -42t40.5 -28
t57 -10z" />
    <glyph glyph-name="quotesingle" unicode="'" horiz-adv-x="199" 
d="M176 679l-58 -215l-87 7l23 126l9 98z" />
    <glyph glyph-name="parenleft" unicode="(" horiz-adv-x="294" 
d="M287 566q-68 -68 -99.5 -147.5t-31.5 -184.5q0 -96 32.5 -177t98.5 -155l-89 -51q-77 75 -112.5 171t-35.5 212q0 115 41 210t119 166z" />
    <glyph glyph-name="parenright" unicode=")" horiz-adv-x="294" 
d="M7 -105q68 68 99.5 147.5t31.5 184.5q0 96 -32.5 177t-98.5 155l89 51q77 -75 112.5 -171t35.5 -212q0 -115 -41 -210t-119 -166z" />
    <glyph glyph-name="asterisk" unicode="*" horiz-adv-x="395" 
d="M288 653l-31 -68l-24 -33l39 9l84 5l-8 -95l-76 7l-39 10l23 -37l35 -77l-99 -14l-15 65l-1 41l-28 -30l-68 -52l-43 81l64 36l37 15l-35 15l-65 41l48 83l65 -56l23 -28l4 39l22 84z" />
    <glyph glyph-name="plus" unicode="+" horiz-adv-x="497" 
d="M296 368l146 3l-12 -99h-136l-3 -147l-93 -12v159h-143l12 92l131 2v141l102 12z" />
    <glyph glyph-name="comma" unicode="," horiz-adv-x="238" 
d="M176 120l6 -19l-58 -203l-79 17l16 114v86z" />
    <glyph glyph-name="hyphen" unicode="-" horiz-adv-x="441" 
d="M369 272l-12 -97h-285l12 90z" />
    <glyph glyph-name="period" unicode="." horiz-adv-x="238" 
d="M181 120v-120h-123l5 115z" />
    <glyph glyph-name="slash" unicode="/" horiz-adv-x="390" 
d="M400 632l-323 -761l-89 39l318 768z" />
    <glyph glyph-name="zero" unicode="0" horiz-adv-x="616" 
d="M308 643q118 0 182 -86t64 -242q0 -73 -17 -133.5t-49 -103.5t-77.5 -67t-102.5 -24q-118 0 -182.5 86t-64.5 242q0 73 17 133t49.5 103.5t78 67.5t102.5 24zM215 511q-21 -37 -31 -87.5t-10 -108.5q0 -119 35 -175.5t101 -56.5q27 0 50 9t40 26q21 37 31 88t10 109
q0 118 -34.5 175t-101.5 57q-54 0 -90 -36z" />
    <glyph glyph-name="one" unicode="1" horiz-adv-x="354" 
d="M273 625l-8 -129v-496h-110v447l-84 -62l-50 70l103 91l66 89z" />
    <glyph glyph-name="two" unicode="2" horiz-adv-x="528" 
d="M61 80l204 174q25 21 43.5 40t32.5 38q9 23 13 49.5t4 56.5q0 54 -27.5 83t-78.5 29q-22 0 -44 -8q-21 -14 -40.5 -31t-39.5 -40l-73 88q42 42 91.5 63t114.5 21q48 0 86.5 -14t65.5 -40t42 -63t15 -84q0 -81 -34.5 -141.5t-105.5 -114.5l-123 -94h56l200 16l10 -11
l-10 -102l-187 5h-203z" />
    <glyph glyph-name="three" unicode="3" horiz-adv-x="542" 
d="M260 376h18q22 0 42 6q28 29 28 78q0 45 -21.5 67.5t-69.5 22.5q-22 0 -37 -4q-44 -20 -85 -59l-69 86q86 70 195 70q96 0 147.5 -47.5t51.5 -127.5q0 -38 -14.5 -70.5t-41.5 -52.5v-7q41 -18 63 -55t22 -88q0 -50 -17 -89t-48 -65.5t-75 -40t-97 -13.5q-63 0 -116 22
t-96 70l70 84q26 -26 51 -45t50 -33q10 -2 21 -3t21 -1q54 0 94 20q14 16 21.5 39.5t7.5 49.5q0 94 -93 94h-20l-67 -9l-17 96l10 10z" />
    <glyph glyph-name="four" unicode="4" horiz-adv-x="577" 
d="M374 625l8 -13q-17 -82 -51.5 -156t-80.5 -141l-79 -115h183v78l14 89l95 10v-180l79 7l-11 -97h-68v-107h-109v107h-291l-11 82l113 177q38 59 62 125.5t34 142.5z" />
    <glyph glyph-name="five" unicode="5" horiz-adv-x="538" 
d="M110 161q27 -29 51 -46.5t48 -30.5q8 -2 16.5 -2.5t16.5 -0.5q29 0 53 5.5t42 15.5q16 19 24 45t8 56q0 118 -107 118q-66 0 -103 -41l-66 22l22 328h143l195 9l10 -11l-15 -104l-160 11h-78l-14 -141q40 17 86 17q95 0 148 -55.5t53 -150.5q0 -50 -18 -90t-49.5 -68.5
t-73.5 -44t-91 -15.5q-67 0 -117 19t-97 65z" />
    <glyph glyph-name="six" unicode="6" horiz-adv-x="545" 
d="M448 534q-48 -4 -94.5 -13t-90.5 -23q-35 -27 -55.5 -62t-27.5 -83q20 13 41 22.5t44 15.5q8 2 17 2h19q45 0 80.5 -14.5t60 -40.5t37.5 -62.5t13 -81.5q0 -41 -15 -78.5t-43 -66t-68.5 -45.5t-91.5 -17q-105 0 -159.5 69.5t-54.5 197.5q0 79 24 146.5t70 118.5
t113.5 83.5t155.5 40.5zM175 264q-3 -26 -3 -51q0 -64 27.5 -99t73.5 -35q25 0 47 6t37 17q12 19 18 43t6 50q0 57 -25 83t-72 26q-33 0 -59.5 -10.5t-49.5 -29.5z" />
    <glyph glyph-name="seven" unicode="7" horiz-adv-x="496" 
d="M201 630h244l6 -79l-80 -139q-38 -66 -63 -138.5t-36 -144.5v-129h-122q0 121 37 231t95 213l52 93h-77l-203 -11l-9 12l15 96z" />
    <glyph glyph-name="eight" unicode="8" horiz-adv-x="566" 
d="M284 643q43 0 78 -12t60.5 -34.5t39.5 -54.5t14 -71q0 -79 -56 -132q42 -26 65.5 -65.5t23.5 -90.5q0 -44 -16.5 -80t-46.5 -61.5t-71.5 -40t-90.5 -14.5q-53 0 -95 14.5t-71 40t-45 61.5t-16 78q0 51 20.5 94t58.5 75q-23 23 -35 52.5t-12 65.5t14 68t39.5 55.5
t61.5 37.5t80 14zM276 286q-17 2 -32.5 6.5t-29.5 9.5q-25 -23 -36 -51.5t-11 -62.5q0 -48 31 -77.5t86 -29.5q52 0 86 20q14 16 21 37t7 44q0 42 -28 67.5t-94 36.5zM302 381q9 -2 17.5 -3.5t16.5 -3.5q18 19 25 41.5t7 54.5q0 42 -23 62t-61 20q-19 0 -38 -4.5t-32 -13.5
q-8 -12 -12 -28t-4 -33q0 -38 22.5 -60.5t81.5 -31.5z" />
    <glyph glyph-name="nine" unicode="9" horiz-adv-x="545" 
d="M100 95q107 9 181 34q35 28 55.5 63.5t28.5 83.5q-20 -12 -41.5 -21t-44.5 -17q-8 -1 -17 -1.5t-19 -0.5q-91 0 -141 54.5t-50 145.5q0 41 15 78.5t43 66t68 45.5t91 17q103 0 159.5 -70.5t56.5 -197.5q0 -168 -88 -268.5t-271 -119.5zM369 365q2 13 2.5 26.5t0.5 24.5
q0 63 -28 99.5t-75 36.5q-50 0 -82 -24q-24 -38 -24 -93q0 -56 25 -82.5t73 -26.5q64 0 108 39z" />
    <glyph glyph-name="colon" unicode=":" horiz-adv-x="238" 
d="M181 120v-120h-123l5 115zM181 434v-120h-123l5 115z" />
    <glyph glyph-name="semicolon" unicode=";" horiz-adv-x="238" 
d="M176 120l6 -19l-58 -203l-79 17l16 114v86zM181 434v-120h-123l5 115z" />
    <glyph glyph-name="less" unicode="&#x3c;" horiz-adv-x="345" 
d="M299 487l-140 -156l139 -159l-82 -59l-176 199v28l188 204z" />
    <glyph glyph-name="equal" unicode="=" horiz-adv-x="468" 
d="M412 465l-7 -105l-339 3l6 90zM401 276l-5 -104l-339 11l6 90z" />
    <glyph glyph-name="greater" unicode="&#x3e;" horiz-adv-x="345" 
d="M128 544l177 -199v-29l-188 -203l-71 56l139 158l-139 158z" />
    <glyph glyph-name="question" unicode="?" horiz-adv-x="470" 
d="M277 120l5 -120h-123l1 114zM11 618q46 42 99 62t113 20q45 0 83 -11.5t65 -35t42 -58t15 -79.5q0 -52 -17.5 -84t-43 -55t-54.5 -43.5t-53 -50.5v-94l-81 -5q-33 31 -33 86q0 42 22 69.5t58 47.5q40 21 76 56q5 12 7.5 28t2.5 34q0 50 -23 74.5t-74 24.5
q-7 0 -13.5 -0.5t-12.5 -1.5q-46 -24 -87 -74z" />
    <glyph glyph-name="at" unicode="@" horiz-adv-x="832" 
d="M569 384v-235q11 -14 21.5 -18.5t21.5 -4.5q21 0 37 11q20 42 20 124q0 51 -15.5 92t-45.5 70.5t-73.5 45.5t-99.5 16q-57 0 -107.5 -15.5t-89.5 -44.5q-37 -38 -57 -93t-20 -125q0 -131 70.5 -198t195.5 -67q57 0 108 9.5t98 27.5l28 -89q-47 -20 -108 -32.5t-126 -12.5
q-86 0 -155 24.5t-117 71t-74 113.5t-26 153q0 82 29 151t80 119t120.5 77.5t150.5 27.5q78 0 141 -24t107.5 -66.5t69 -101t24.5 -128.5q0 -55 -12.5 -98t-35 -72t-53.5 -44.5t-68 -15.5q-34 0 -58 13t-44 38q-23 -28 -52.5 -43t-66.5 -15q-31 0 -58 11.5t-47.5 35t-32 58
t-11.5 79.5q0 43 13 78t35.5 60.5t53.5 39.5t67 14q31 0 56.5 -7.5t41.5 -20.5l55 19zM471 289q-21 21 -55 21q-35 0 -58 -20q-10 -16 -14.5 -37.5t-4.5 -43.5q0 -48 18 -70.5t47 -22.5q42 0 67 49v124z" />
    <glyph glyph-name="bracketleft" unicode="[" horiz-adv-x="264" 
d="M251 621v-85l-97 -6v-599l97 -5v-86h-201v781h201z" />
    <glyph glyph-name="backslash" unicode="\" horiz-adv-x="389" 
d="M81 678l319 -765l-90 -42l-322 764z" />
    <glyph glyph-name="bracketright" unicode="]" horiz-adv-x="264" 
d="M214 621v-781h-202v86l98 5v599l-98 6v85h202z" />
    <glyph glyph-name="asciicircum" unicode="^" horiz-adv-x="382" 
d="M219 673l159 -184l-74 -58l-106 113l-98 -113l-67 58l159 184h27z" />
    <glyph glyph-name="underscore" unicode="_" horiz-adv-x="403" 
d="M402 -77l-12 -99h-382l12 92z" />
    <glyph glyph-name="grave" unicode="`" horiz-adv-x="243" 
d="M111 733l51 -89l62 -89l-68 -34l-136 144l77 68h14z" />
    <glyph glyph-name="braceleft" unicode="{" horiz-adv-x="311" 
d="M267 552q-35 -5 -52 -27t-17 -57q0 -21 2 -37.5t4.5 -32.5t4.5 -32t2 -35q0 -32 -12 -55.5t-32 -37.5q20 -14 32 -40t12 -59q0 -39 -6.5 -71t-6.5 -67q0 -30 20.5 -51t48.5 -29l-32 -83q-68 8 -105 47.5t-37 100.5q0 37 7 68t7 70q0 26 -14 47t-43 29l-5 67q62 9 62 65
q0 39 -7 74t-7 78q0 31 11.5 57t31.5 45t47.5 30.5t60.5 14.5z" />
    <glyph glyph-name="bar" unicode="|" horiz-adv-x="274" 
d="M189 605v-757h-104v643l-11 105z" />
    <glyph glyph-name="braceright" unicode="}" horiz-adv-x="311" 
d="M75 631q69 -7 105.5 -47t36.5 -101q0 -38 -6.5 -69.5t-6.5 -68.5q0 -26 13.5 -47t42.5 -29l6 -67q-62 -9 -62 -65q0 -39 6.5 -73.5t6.5 -77.5q0 -32 -11 -58t-31 -45t-47.5 -30.5t-60.5 -14.5l-24 79q35 5 52.5 27t17.5 57q0 21 -2 37.5t-4.5 32.5t-4.5 32t-2 35
q0 32 12 55.5t32 37.5q-20 15 -32 40.5t-12 58.5q0 39 6.5 71t6.5 67q0 30 -20.5 51t-49.5 29z" />
    <glyph glyph-name="asciitilde" unicode="~" horiz-adv-x="462" 
d="M45 333q22 17 47 33.5t48 26.5q5 1 11.5 2t14.5 1q30 0 48.5 -11t32.5 -23.5t28 -23.5t35 -11q32 11 61 34l46 -70q-20 -18 -45 -34t-50 -27q-5 -1 -12 -1.5t-14 -0.5q-29 0 -47.5 11t-33 23.5t-28.5 23.5t-35 11q-29 -10 -61 -34z" />
    <glyph glyph-name="exclamdown" unicode="&#xa1;" horiz-adv-x="255" 
d="M69.0117 -183.958l11.999 494.97h93.9941l7 -358.978l10.999 -123.992zM71.0117 390.008l-5 119.992h122.992l-1 -113.993z" />
    <glyph glyph-name="currency" unicode="&#xa4;" horiz-adv-x="453" 
d="M156 452q31 16 71 16t71 -14l50 48l65 -65l-47 -48q21 -30 21 -77q0 -45 -20 -76l46 -50l-64 -65l-51 50q-31 -16 -72 -16t-70 14l-51 -48l-65 65l47 48q-20 31 -20 78q0 45 19 74l-46 50l65 67zM227 383q-34 0 -56 -16q-14 -21 -14 -55q0 -33 18.5 -52.5t50.5 -19.5
q36 0 56 16q8 11 11.5 25t3.5 31q0 33 -18.5 52t-51.5 19z" />
    <glyph glyph-name="yen" unicode="&#xa5;" horiz-adv-x="557" 
d="M179 327l-148 264v14l133 9l34 -109l89 -176h10l70 154l32 127h127v-15l-49 -119l-82 -147l91 6l-12 -94h-381l12 89zM483 185l-12 -94l-127 7v-98h-111v99l-139 -4l8 90h381z" />
    <glyph glyph-name="brokenbar" unicode="&#xa6;" horiz-adv-x="274" 
d="M189 190v-342h-104v221l-11 112zM85 263v228l-11 105l115 9v-342h-104z" />
    <glyph glyph-name="section" unicode="&#xa7;" horiz-adv-x="494" 
d="M114 99q23 -21 42 -35.5t39 -23.5q8 -2 17 -3t19 -1q44 0 70 14q7 6 10 18t3 26q0 28 -18 44t-70 24q-87 14 -132.5 58t-45.5 108q0 38 16 70.5t45 58.5q-28 36 -28 83q0 33 12 61t34.5 48.5t54.5 31.5t73 11q51 0 93.5 -14t75.5 -40l-64 -85q-15 15 -32 27t-36 20
q-15 3 -35 3q-18 0 -34 -3t-29 -11q-10 -17 -10 -40q0 -28 19.5 -45t65.5 -25q83 -14 131 -57t48 -109q0 -40 -16 -72.5t-43 -55.5q29 -37 29 -88q0 -32 -13 -59t-37 -47.5t-58 -32t-76 -11.5q-107 0 -186 65zM245 387q-19 3 -35.5 8t-31.5 11q-24 -21 -24 -64
q0 -32 21.5 -56t74.5 -32q39 -6 69 -18q23 23 23 63q0 35 -22 57t-75 31z" />
    <glyph glyph-name="dieresis" unicode="&#xa8;" horiz-adv-x="338" 
d="M323 652v-116l-117 4l4 105zM132 653v-117l-117 5l4 102z" />
    <glyph glyph-name="copyright" unicode="&#xa9;" horiz-adv-x="823" 
d="M411 682q78 0 144 -25t114 -71.5t74.5 -114.5t26.5 -153q0 -80 -27.5 -147t-75.5 -115.5t-113.5 -75.5t-141.5 -27q-78 0 -144 24.5t-114 71.5t-75 115t-27 154q0 80 27.5 147t76 115t114 75t141.5 27zM411 590q-57 0 -106 -18t-87 -49q-30 -40 -46.5 -90.5t-16.5 -114.5
q0 -65 18.5 -115.5t52.5 -85.5t81.5 -53t104.5 -18t106 18t87 49q30 39 46 89.5t16 115.5q0 64 -18.5 115t-52 85.5t-80.5 53t-105 18.5zM498 370q-14 14 -27 25.5t-28 21.5q-14 3 -32 3q-19 0 -35 -3.5t-28 -12.5q-10 -17 -14.5 -40t-4.5 -46q0 -47 22 -73.5t62 -26.5
q57 0 97 42l47 -67q-60 -60 -147 -60q-79 0 -126.5 48.5t-47.5 136.5q0 40 13 74t36.5 59t55.5 39t71 14q45 0 80.5 -13.5t61.5 -39.5z" />
    <glyph glyph-name="guillemotleft" unicode="&#xab;" horiz-adv-x="477" 
d="M250 352l-88 -118l86 -116l-72 -56l-125 146v32l119 148zM427 358l-82 -124l82 -117l-73 -56l-118 150v31l108 148z" />
    <glyph glyph-name="logicalnot" unicode="&#xac;" horiz-adv-x="454" 
d="M300 444l107 8l-11 -248h-93v148h-256l13 92h240z" />
    <glyph glyph-name="uni00AD" unicode="&#xad;" horiz-adv-x="441" 
d="M369 272l-12 -97h-285l12 90z" />
    <glyph glyph-name="registered" unicode="&#xae;" horiz-adv-x="592" 
d="M295 740q57 0 103 -19.5t78.5 -53t50.5 -79.5t18 -100q0 -53 -18.5 -99t-52 -80t-79 -53.5t-99.5 -19.5q-56 0 -102 19.5t-78.5 53t-50.5 79.5t-18 100q0 53 18.5 99t51.5 80t78.5 53.5t99.5 19.5zM272 374h-69v176l-5 57h105q46 0 71 -22t25 -59q0 -23 -12.5 -40.5
t-30.5 -25.5l53 -56l-50 -44l-73 88h-14v-74zM302 498q16 0 24 5q5 7 5 22q0 24 -29 24h-30v-51h30zM295 666q-35 0 -65 -10t-56 -28q-20 -26 -30.5 -63t-10.5 -77q0 -83 44 -130.5t119 -47.5q69 0 122 36q20 25 30.5 62.5t10.5 79.5q0 81 -44 129.5t-120 48.5z" />
    <glyph glyph-name="macron" unicode="&#xaf;" horiz-adv-x="330" 
d="M179 637l125 14l8 -8l-11 -94l-275 -8l-9 8l17 81z" />
    <glyph glyph-name="degree" unicode="&#xb0;" horiz-adv-x="385" 
d="M192 682q71 0 112.5 -43t41.5 -114q0 -35 -12 -63.5t-32.5 -49t-48.5 -32t-60 -11.5q-71 0 -113 43t-42 113q0 35 12 64t33 49.5t49 32t60 11.5zM192 598q-15 0 -27 -4t-22 -10q-13 -22 -13 -59q0 -32 16.5 -52t46.5 -20q13 0 26 3.5t22 10.5q14 21 14 58q0 34 -17 53.5
t-46 19.5z" />
    <glyph glyph-name="plusminus" unicode="&#xb1;" horiz-adv-x="497" 
d="M296 458l147 3l-12 -98h-137l-3 -138l-93 -12v150h-143l11 91l132 2v142l101 12zM420 160l-11 -100h-343l13 94z" />
    <glyph glyph-name="acute" unicode="&#xb4;" horiz-adv-x="237" 
d="M61 609l70 124h13l73 -68l-128 -144l-69 34z" />
    <glyph glyph-name="paragraph" unicode="&#xb6;" horiz-adv-x="402" 
d="M200 359q-32 0 -51 -11q-9 -17 -9 -39t13.5 -36t41.5 -14q16 0 31 4.5t29 12.5l39 -6l11 -252q-3 -98 -44 -156t-116 -58q-32 0 -61.5 7.5t-52.5 23.5l38 96l10 4l77 -38q25 0 39 14q6 14 9.5 36t3.5 56l-12 175q-8 -2 -17.5 -3.5t-18.5 -1.5q-55 0 -87 35t-32 91
q0 29 11 55t31.5 45t48.5 30t63 11h159l8 -13l-40 -91z" />
    <glyph glyph-name="periodcentered" unicode="&#xb7;" horiz-adv-x="238" 
d="M181 299v-120h-123l5 115z" />
    <glyph glyph-name="cedilla" unicode="&#xb8;" horiz-adv-x="228" 
d="M138 -43q35 -11 53.5 -37.5t18.5 -68.5q0 -56 -45 -98.5t-140 -54.5l-8 8l14 87q29 2 50 6.5t38 12.5q8 14 8 34t-10.5 31t-32.5 11q-8 0 -17 -2t-16 -4l-11 15l25 103h73v-43z" />
    <glyph glyph-name="guillemotright" unicode="&#xbb;" horiz-adv-x="477" 
d="M300 389l125 -146v-32l-119 -148l-79 36l87 117l-86 117zM122 389l118 -149v-31l-108 -148l-82 32l81 123l-81 118z" />
    <glyph glyph-name="questiondown" unicode="&#xbf;" horiz-adv-x="470" 
d="M193.017 390.008l-4.99902 119.992h122.992l-1 -113.993zM459.001 -107.962q-45.9971 -41.998 -98.9941 -61.9971q-52.9971 -19.998 -112.993 -19.998q-44.9971 0 -82.9951 11.499q-37.9971 11.499 -64.9961 34.998q-26.998 23.498 -41.9971 57.9961t-14.999 79.4951
q0 51.9971 17.499 83.9951t42.9971 54.9971q25.498 22.998 54.4971 43.4971q28.998 20.499 52.9961 50.4971v93.9941l80.9951 5q32.998 -30.999 32.998 -85.9951q0 -41.9971 -21.999 -69.4961q-21.998 -27.498 -57.9961 -47.4971q-39.9971 -20.998 -75.9951 -55.9961
q-5 -12 -7.5 -27.999q-2.49902 -15.999 -2.49902 -33.9971q0 -49.9971 22.998 -74.4961q22.999 -24.498 73.9951 -24.498q7 0 13.5 0.5q6.49902 0.5 12.499 1.5q45.9971 23.998 86.9941 73.9951z" />
    <glyph glyph-name="multiply" unicode="&#xd7;" horiz-adv-x="496" 
d="M150 489l102 -111l107 112l67 -68l-111 -113l115 -125l-67 -63l-115 119l-116 -118l-66 62l118 123l-113 117z" />
    <glyph glyph-name="eth" unicode="&#xf0;" horiz-adv-x="530" 
d="M160 559q-17 5 -36 8.5t-39 7.5l-6 12l47 88q42 -11 78 -24l29 60l96 -28l4 -11l-43 -61q91 -54 136 -142.5t45 -225.5q0 -59 -15.5 -106t-43.5 -80t-67 -50.5t-87 -17.5q-50 0 -88.5 16t-65 45.5t-40 70t-13.5 89.5q0 48 14.5 87t39 66.5t58 42.5t72.5 15q8 0 16.5 -0.5
t16.5 -1.5q49 -13 82 -35h9q-11 42 -38.5 78.5t-79.5 64.5l-36 -68l-84 19zM259 79q21 0 37.5 5.5t33.5 18.5q33 47 33 115q0 18 -2 34.5t-7 35.5q-17 20 -42.5 31.5t-52.5 11.5q-42 0 -72 -21q-26 -42 -26 -100q0 -35 8 -60t21.5 -40.5t31 -23t37.5 -7.5z" />
    <glyph glyph-name="divide" unicode="&#xf7;" horiz-adv-x="484" 
d="M429 371l-12 -98h-362l12 92zM302 185v-123h-123l5 118zM302 581v-123h-123l5 118z" />
    <glyph glyph-name="circumflex" unicode="&#x2c6;" horiz-adv-x="347" 
d="M191 705l71 -63l73 -51v-14l-73 -64l-88 87l-93 -83l-64 52v14l76 57l72 65h26z" />
    <glyph glyph-name="caron" unicode="&#x2c7;" horiz-adv-x="352" 
d="M181 620l89 83l65 -52v-14l-76 -58l-69 -64h-25l-67 58l-81 55v15l72 63z" />
    <glyph glyph-name="breve" unicode="&#x2d8;" horiz-adv-x="327" 
d="M111 680q7 -77 56 -77q23 0 39 11q11 24 11 59l93 12q0 -42 -11 -72.5t-30.5 -50.5t-47 -29.5t-59.5 -9.5q-59 0 -98 37t-47 103z" />
    <glyph glyph-name="dotaccent" unicode="&#x2d9;" horiz-adv-x="175" 
d="M149 655v-119l-123 5l4 104z" />
    <glyph glyph-name="ring" unicode="&#x2da;" horiz-adv-x="278" 
d="M139 745q30 0 52.5 -10t38 -26.5t23.5 -38t8 -44.5t-8.5 -44t-24.5 -37.5t-38.5 -26.5t-50.5 -10q-33 0 -56 10t-38 26.5t-22 37.5t-7 44t8.5 44.5t24.5 38t38.5 26.5t51.5 10zM139 668q-22 0 -35 -9q-4 -6 -5.5 -15t-1.5 -18q0 -19 11 -31t31 -12q18 0 32 8q8 14 8 35
q0 19 -11 30.5t-29 11.5z" />
    <glyph glyph-name="ogonek" unicode="&#x2db;" horiz-adv-x="245" 
d="M196 3q-18 -4 -33 -10.5t-29 -15.5q-11 -18 -11 -46t17.5 -43.5t55.5 -15.5l5 -9l-32 -79q-63 0 -98.5 34t-35.5 84q0 88 103 137l30 -12z" />
    <glyph glyph-name="tilde" unicode="&#x2dc;" horiz-adv-x="353" 
d="M16 612q17 17 34.5 30.5t36.5 23.5q10 3 22 3q21 0 37.5 -6t31.5 -14.5t30.5 -17t35.5 -12.5q27 9 53 30l40 -68q-32 -34 -73 -54q-5 -1 -10.5 -2t-11.5 -1q-21 0 -37.5 6.5t-31.5 14.5t-30.5 16.5t-35.5 12.5q-28 -10 -51 -30z" />
    <glyph glyph-name="hungarumlaut" unicode="&#x2dd;" horiz-adv-x="380" 
d="M52 630l26 95h13l84 -58l-90 -143l-68 25zM270 709h13l71 -72l-82 -66l-54 -52l-60 34z" />
    <glyph glyph-name="endash" unicode="&#x2013;" horiz-adv-x="621" 
d="M544 272l-12 -97h-455l12 90z" />
    <glyph glyph-name="emdash" unicode="&#x2014;" horiz-adv-x="899" 
d="M769 272l-12 -97h-627l11 90z" />
    <glyph glyph-name="quoteleft" unicode="&#x2018;" horiz-adv-x="228" 
d="M54.0107 472.007l-6 18.999l47.9971 196.987l84.9951 -15.999l-11.999 -105.993v-87.9951z" />
    <glyph glyph-name="quoteright" unicode="&#x2019;" horiz-adv-x="228" 
d="M174 688l6 -19l-48 -197l-85 16l12 106v88z" />
    <glyph glyph-name="quotesinglbase" unicode="&#x201a;" horiz-adv-x="228" 
d="M174 108l6 -19l-48 -197l-85 16l12 106v88z" />
    <glyph glyph-name="quotedblleft" unicode="&#x201c;" horiz-adv-x="378" 
d="M211.01 472.007l-5.99902 18.999l43.9971 189.988l81.9951 -15.999l-11.999 -98.9941v-87.9951zM53.0195 472.007l-5.99902 18.999l51.9961 208.986l89.9951 -16.998l-20.999 -116.993v-87.9951z" />
    <glyph glyph-name="quotedblright" unicode="&#x201d;" horiz-adv-x="378" 
d="M167 688l6 -19l-44 -190l-82 16l12 99v88zM325 688l6 -19l-52 -209l-90 17l21 117v88z" />
    <glyph glyph-name="quotedblbase" unicode="&#x201e;" horiz-adv-x="378" 
d="M167 108l6 -19l-44 -190l-82 16l12 99v88zM325 108l6 -19l-52 -209l-90 17l21 117v88z" />
    <glyph glyph-name="dagger" unicode="&#x2020;" horiz-adv-x="420" 
d="M251 622l12 -8l-10 -152v-22h23l104 4l-9 -103l-91 8h-27v-27l9 -255v-145l-96 -142l-17 5l9 536v28h-25l-93 -7l9 101l88 -3h21v21l-11 134z" />
    <glyph glyph-name="daggerdbl" unicode="&#x2021;" horiz-adv-x="420" 
d="M251 622l12 -8l-10 -152v-22h25l102 4l-9 -103l-89 8h-29v-28l2 -90h23l84 5l-9 -102l-71 8h-24l3 -140v-80l-95 -142l-17 5l9 329v28h-25l-76 -8l10 100l70 -3h21v118h-25l-93 -7l9 101l88 -3h21v21l-11 134z" />
    <glyph glyph-name="bullet" unicode="&#x2022;" horiz-adv-x="349" 
d="M173 425l109 -100l-116 -107l-100 108z" />
    <glyph glyph-name="ellipsis" unicode="&#x2026;" horiz-adv-x="644" 
d="M181 120v-120h-123l5 115zM587 120v-120h-123l5 115zM386 120v-120h-123l5 115z" />
    <glyph glyph-name="guilsinglleft" unicode="&#x2039;" horiz-adv-x="297" 
d="M251 350l-96 -119l96 -121l-79 -52l-129 156v25l140 166z" />
    <glyph glyph-name="guilsinglright" unicode="&#x203a;" horiz-adv-x="297" 
d="M124 397l129 -156v-25l-140 -166l-67 55l95 119l-95 121z" />
    <glyph glyph-name="Euro" unicode="&#x20ac;" horiz-adv-x="590" 
d="M374 275l-10 -94l-133 10h-16q16 -54 51 -81t83 -27q40 0 75 17t63 55l63 -73q-42 -51 -94.5 -73t-112.5 -22q-103 0 -162.5 55t-80.5 149h-74l12 84h336zM102 414q24 99 88 154t159 55q58 0 105 -17.5t81 -49.5l-72 -95q-19 20 -42 36t-46 28q-8 2 -17.5 3t-19.5 1
q-23 0 -47.5 -8t-44.5 -23q-23 -38 -34 -84h19l159 10l-10 -94h-341l12 84h51z" />
    <glyph glyph-name="afii61352" unicode="&#x2116;" horiz-adv-x="962" 
d="M193 634l254 -456h9l-8 204v125l-13 118l120 9v-631l-105 -9l-254 452h-9l8 -247v-199h-107v515l-10 110zM780 531q34 0 60.5 -11t44.5 -30.5t27 -45.5t9 -55t-10.5 -55t-29 -45.5t-44 -30.5t-56.5 -11q-35 0 -61 11t-44 30.5t-27 45.5t-9 55t10.5 55t29 45.5t44 30.5
t56.5 11zM916 187l-9 -89l-262 5l12 79zM780 451q-22 0 -38 -10q-13 -19 -13 -52q0 -29 14 -45.5t38 -16.5q22 0 38 10q13 19 13 52q0 29 -14 45.5t-38 16.5z" />
    <glyph glyph-name="trademark" unicode="&#x2122;" horiz-adv-x="749" 
d="M613 321l-17 199l-74 -199h-61l-72 198l-10 -198h-85l24 228l-97 7v-235h-85v235l-99 -10l7 84h381l72 -184l62 184h106l33 -309h-85z" />
    <glyph glyph-name="minus" unicode="&#x2212;" horiz-adv-x="469" 
d="M412 371l-12 -99h-343l13 93z" />
    <glyph glyph-name="approxequal" unicode="&#x2248;" horiz-adv-x="469" 
d="M48 244q20 17 44 33t46 27q8 2 15.5 3t15.5 1q30 0 48 -11t32.5 -24t28 -24t33.5 -11q31 14 61 36l47 -70q-20 -18 -43 -34.5t-48 -27.5q-14 -3 -31 -3q-29 0 -47.5 11t-32.5 24.5t-28 24.5t-34 11q-14 -7 -30 -16.5t-31 -20.5zM56 433q20 17 43 32t45 26q8 2 15.5 3
t15.5 1q29 0 46.5 -11t31 -24t26.5 -24t33 -11q31 14 61 36l47 -70q-20 -19 -43 -34.5t-48 -26.5q-7 -2 -15 -3t-16 -1q-29 0 -46.5 11t-31 24.5t-26.5 24.5t-33 11q-14 -7 -29 -15.5t-30 -19.5z" />
    <glyph glyph-name="notequal" unicode="&#x2260;" horiz-adv-x="473" 
d="M214 457l23 104l98 -20l-20 -80l101 3l-5 -104l-120 1l-21 -86l136 2l-5 -104l-155 4l-23 -95l-87 14l18 84l-97 3l6 90l112 1l19 88l-127 1l5 90z" />
    <glyph glyph-name="lessequal" unicode="&#x2264;" horiz-adv-x="354" 
d="M315 557l-145 -150l147 -127l-79 -64l-194 166v28l201 203zM290 91l-81 -61l-171 168l46 78z" />
    <glyph glyph-name="greaterequal" unicode="&#x2265;" horiz-adv-x="354" 
d="M111 613l199 -203v-28l-209 -174l-64 68l145 125l-143 150zM270 276l46 -78l-182 -166l-70 59z" />
    <glyph glyph-name="dblgrave" horiz-adv-x="386" 
d="M287 725h13l28 -95l33 -81l-68 -25l-91 143zM95 709h13l114 -156l-62 -34l-52 51l-85 67z" />
    <glyph glyph-name="commaaccent" horiz-adv-x="163" 
d="M140 -70l6 -20l-55 -173l-75 18l16 99v70z" />
    <glyph glyph-name="sterling" unicode="&#xa3;" horiz-adv-x="531" 
d="M501 34q-32 -24 -71 -35.5t-83 -11.5q-25 0 -44 5t-36 10.5t-34.5 10.5t-38.5 5q-26 0 -49.5 -7.5t-43.5 -21.5l-44 73q20 13 35 24.5t26 24.5q7 20 11 43.5t4 48.5q0 2 -0.5 4.5t-0.5 4.5l-62 -12l-16 82l59 13q-10 26 -19 54t-9 66q0 42 16 79.5t48 66t80 45.5t111 17
l16 -105q-41 -2 -79 -7t-64 -15q-20 -35 -20 -81q0 -29 7 -50.5t16 -43.5l121 35l21 -98l-116 -24q0 -5 0.5 -9.5t0.5 -9.5q0 -32 -6.5 -57t-19.5 -46q19 0 35.5 -5t32 -10t31.5 -9.5t34 -4.5q61 21 107 59l10 -2z" />
    <glyph glyph-name="dieresisi" horiz-adv-x="313" 
d="M298 652v-116l-113 4l4 105zM128 653v-117l-113 5l4 102z" />
    <glyph glyph-name="macroni" horiz-adv-x="265" 
d="M138 637l109 16l9 -8l-11 -96l-220 -5l-9 7l17 80z" />
    <glyph glyph-name="Dieresisi" horiz-adv-x="342" 
d="M326 856v-124l-122 4l6 113zM137 858v-126l-121 4l4 110z" />
    <glyph glyph-name="Macroni" horiz-adv-x="335" 
d="M172 841l125 16l9 -8l-12 -103l-269 -7l-9 7l17 87z" />
    <glyph glyph-name="Acute" horiz-adv-x="249" 
d="M72 826l69 104h13l79 -77l-146 -136l-71 48z" />
    <glyph glyph-name="Breve" horiz-adv-x="349" 
d="M117 878q3 -37 20 -58.5t45 -21.5q26 0 40 12q10 19 10 58l100 13q0 -85 -44 -126.5t-113 -41.5q-63 0 -106.5 39.5t-51.5 106.5z" />
    <glyph glyph-name="Caron" horiz-adv-x="376" 
d="M193 809l98 79l69 -52v-15l-81 -55l-78 -66h-23l-76 61l-86 52v15l77 62z" />
    <glyph glyph-name="Cedilla" horiz-adv-x="243" 
d="M150 -55q74 -26 74 -110q0 -63 -48 -107.5t-150 -56.5l-9 8l15 93q29 1 50 6.5t39 14.5q9 15 9 37q0 44 -44 44q-17 0 -33 -7l-12 16l25 117h84v-55z" />
    <glyph glyph-name="Commaaccent" horiz-adv-x="168" 
d="M146 -70l6 -19l-56 -195l-80 18l16 108v83z" />
    <glyph glyph-name="Circumflex" horiz-adv-x="376" 
d="M200 897l76 -60l84 -52v-15l-77 -64l-99 83l-99 -80l-69 53v14l82 56l78 65h24z" />
    <glyph glyph-name="Dieresis" horiz-adv-x="377" 
d="M357 856v-124l-124 4l5 112zM140 857v-125l-124 4l4 110z" />
    <glyph glyph-name="Dotaccent" horiz-adv-x="161" 
d="M145 860v-131l-129 4l4 116z" />
    <glyph glyph-name="Hungarumlaut" horiz-adv-x="407" 
d="M56 829l34 98h14l87 -60l-106 -152l-69 36zM294 904h14l75 -78l-86 -64l-64 -57l-62 47z" />
    <glyph glyph-name="Grave" horiz-adv-x="249" 
d="M94 930h14l69 -104l56 -61l-71 -48l-146 136z" />
    <glyph glyph-name="Dblgrave" horiz-adv-x="407" 
d="M303 927h13l35 -98l40 -78l-70 -36l-105 152zM99 904h13l123 -152l-62 -47l-64 58l-86 63z" />
    <glyph glyph-name="Macron" horiz-adv-x="387" 
d="M229 840l133 17l9 -8l-12 -102l-334 -8l-9 7l17 87z" />
    <glyph glyph-name="Ogonek" horiz-adv-x="263" 
d="M217 0q-35 0 -68 -14q-14 -22 -14 -50q0 -24 18 -42t69 -18l6 -9l-34 -87q-76 0 -118 38.5t-42 98.5q0 45 25.5 85t80.5 62l52 -18z" />
    <glyph glyph-name="Ring" horiz-adv-x="300" 
d="M150 957q31 0 56 -10t42 -27.5t26 -40.5t9 -50q0 -25 -9.5 -47.5t-27 -40t-42 -28t-54.5 -10.5q-63 0 -98 36t-35 90q0 25 9.5 48t27 41t42 28.5t54.5 10.5zM150 876q-23 0 -36 -9q-9 -15 -9 -37q0 -21 12.5 -34t32.5 -13q10 0 19.5 2.5t16.5 6.5q9 13 9 38
q0 21 -12.5 33.5t-32.5 12.5z" />
    <glyph glyph-name="Tilde" horiz-adv-x="373" 
d="M16 817q20 17 40.5 32t41.5 25q5 1 11.5 1.5t11.5 0.5q26 0 44 -8.5t33 -19t29.5 -19t32.5 -8.5q26 10 56 30l41 -68q-35 -35 -84 -57q-5 -1 -11 -1.5t-12 -0.5q-26 0 -44 8.5t-33 19t-29 19t-32 8.5q-29 -11 -54 -28z" />
    <glyph glyph-name="tildei" horiz-adv-x="330" 
d="M16 610q17 17 36 30.5t40 21.5q9 3 21 3q21 0 34 -6t24 -14.5t21 -17t25 -12.5q24 9 50 29l37 -65q-36 -34 -77 -52q-5 -1 -10.5 -2t-11.5 -1q-20 0 -33.5 6.5t-24 14.5t-20.5 16.5t-25 12.5q-24 -6 -48 -27z" />
    <glyph glyph-name="Tildei" horiz-adv-x="343" 
d="M16 817q20 17 40.5 32t40.5 25q5 1 10.5 1.5t11.5 0.5q22 0 36 -6.5t25 -15.5t22.5 -17.5t28.5 -12.5q25 7 55 26l41 -67q-18 -18 -39 -32t-44 -25q-5 -1 -10.5 -1.5t-11.5 -0.5q-23 0 -37 6.5t-25.5 15.5t-23 17.5t-27.5 12.5q-25 -7 -51 -25z" />
    <glyph glyph-name="gjlogo" horiz-adv-x="1150" 
d="M223 124q0 -9 -1.5 -20t-5.5 -20l2 -1q14 19 19 41.5t6 46.5l-1 35v287q0 6 3 9l19 22q2 2 4 2q4 0 4 -5v-69q0 -9 8 -9l70 5q5 -2 8.5 -7.5t3.5 -10.5q0 -2 -1 -3q-6 -6 -13 -6h-2l-65 2q-8 0 -8 -9v-222q0 -40 -12 -80.5t-48 -65.5l-43 -30q-17 -12 -34 -16.5t-37 -4.5
q-11 1 -25.5 7t-15.5 22q6 17 22 24q1 0 2.5 0.5t3.5 0.5q14 0 27.5 -10t30.5 -10q20 0 33 18q9 14 12.5 35.5t4.5 43.5v9q0 15 -1 27.5t-1 23.5v224q0 5 -3 7t-5 3q-12 4 -28 4q-30 0 -45 -18q-17 -16 -17 -47q0 -36 18 -57q11 -11 26 -18.5t35 -8.5l1 -5
q-14 -6 -25.5 -8.5t-26.5 -2.5q-29 8 -48 32t-19 55q0 21 10.5 38.5t26.5 31.5q13 11 30.5 19.5t34.5 8.5q8 0 15 -0.5t15 -0.5q9 0 15 8l16 20q3 0 5 -3v-344zM453 301q-13 7 -28 7q-17 0 -26 -9.5t-9 -24.5q0 -14 9 -23t26 -9q10 0 19 3v21l-22 2v14h40v-49
q-9 -5 -19 -6.5t-20 -1.5q-23 0 -37.5 13t-14.5 36t15 36.5t39 13.5q21 0 36 -9zM515 243h42v-17h-61v97h19v-80zM650 306h-41v-22h40v-17h-40v-24h45v-17h-64v97h60v-17zM759 256v67h18v-97h-16l-59 68v-68h-18v97h15zM841 231q0 -14 -9 -24t-27 -12l-3 16q20 2 20 21v91
h19v-92zM971 226h-21l-30 72l-30 -72h-20l43 98h15zM1072 256v67h18v-97h-16l-59 68v-68h-18v97h15z" />
    <glyph glyph-name="zero.os" horiz-adv-x="535" 
d="M267 461q51 0 91 -17.5t67.5 -48.5t42 -74.5t14.5 -95.5q0 -53 -16 -96t-44.5 -74.5t-68 -48.5t-86.5 -17q-51 0 -91 17t-67.5 48.5t-42 74.5t-14.5 96q0 52 16 95t45 74.5t68 49t86 17.5zM267 370q-23 0 -42 -6.5t-35 -17.5q-29 -46 -29 -121q0 -77 30.5 -111.5
t75.5 -34.5t77 24q29 45 29 122q0 76 -30 110.5t-76 34.5z" />
    <glyph glyph-name="zero.slash.os" horiz-adv-x="537" 
d="M267 461q51 0 91 -17.5t67.5 -48.5t42 -74.5t14.5 -95.5q0 -53 -16 -96t-44.5 -74.5t-68 -48.5t-86.5 -17q-51 0 -91 17t-67.5 48.5t-42 74.5t-14.5 96q0 52 16 95t45 74.5t68 49t86 17.5zM267 370q-23 0 -42 -6.5t-35 -17.5q-29 -46 -29 -121v-18.5t2 -16.5l173 153
q-27 27 -69 27zM373 225q0 8 -0.5 15.5t-1.5 14.5l-171 -151q26 -25 67 -25q45 0 77 24q29 45 29 122z" />
    <glyph glyph-name="one.os" horiz-adv-x="326" 
d="M259 447l-7 -133v-314h-109v290l-79 -44l-44 72l91 64l70 74z" />
    <glyph glyph-name="two.os" horiz-adv-x="476" 
d="M58 77l190 126q14 9 27.5 20t22.5 22q5 12 7.5 26.5t2.5 28.5q0 33 -19.5 51.5t-54.5 18.5q-29 0 -49 -7q-33 -20 -67 -58l-72 80q38 36 85 56t108 20q86 0 131 -40.5t45 -110.5q0 -111 -117 -172l-96 -51h30l177 11l10 -11l-10 -96l-147 9h-193z" />
    <glyph glyph-name="three.os" horiz-adv-x="517" 
d="M242 218h18q22 0 37 6q20 23 20 66q0 79 -77 79q-10 0 -20 -1t-18 -4q-17 -10 -36.5 -24.5t-39.5 -34.5l-70 85q80 71 188 71q87 0 133 -43t46 -118q0 -73 -53 -109v-7q38 -17 60.5 -50.5t22.5 -85.5q0 -42 -15 -77.5t-43.5 -61t-68.5 -40t-89 -14.5q-65 0 -115 20
t-94 64l75 85q21 -23 43 -41.5t45 -29.5q11 -3 24 -4t26 -1q21 0 41.5 4t38.5 13q25 29 25 81q0 45 -20 64.5t-56 19.5h-17l-68 -9l-18 93l10 10z" />
    <glyph glyph-name="four.os" horiz-adv-x="568" 
d="M372 459l8 -13q-34 -155 -133 -272l-74 -87h165v42l17 85l90 10v-137l81 6l-12 -93h-69v-134h-107v134h-275l-11 81l109 139q40 51 65 111.5t36 135.5z" />
    <glyph glyph-name="five.os" horiz-adv-x="499" 
d="M244 159q-57 0 -97 -30l-66 20l21 301h184l137 9l9 -11l-14 -103l-150 10h-75l-11 -122q35 13 79 13q88 0 136 -51t48 -136q0 -46 -15 -83.5t-42.5 -64.5t-67.5 -41.5t-89 -14.5q-63 0 -114.5 20t-93.5 65l76 85q44 -51 87 -73q23 -5 46 -5q45 0 79 20q13 17 19.5 41
t6.5 52q0 48 -24 73.5t-69 25.5z" />
    <glyph glyph-name="six.os" horiz-adv-x="525" 
d="M426 491q-57 -1 -103.5 -10t-84.5 -24q-57 -44 -69 -127q20 14 42 24t45 17q16 3 36 3q44 0 77 -13.5t55.5 -38.5t33.5 -59t11 -76q0 -41 -14.5 -77.5t-41.5 -63.5t-65 -42.5t-85 -15.5q-97 0 -152 65t-55 190q0 77 23.5 140t68.5 109t109.5 72.5t147.5 31.5zM168 247
q-2 -10 -3 -20.5t-1 -21.5q0 -56 26.5 -90.5t71.5 -34.5q23 0 43 5t35 16q23 34 23 85q0 100 -94 100q-32 0 -56 -10t-45 -29z" />
    <glyph glyph-name="seven.os" horiz-adv-x="471" 
d="M180 449h237l6 -69l-77 -131q-31 -52 -54 -122.5t-31 -142.5l-3 -118h-117q0 108 28.5 208.5t82.5 194.5l52 92h-71l-178 -12l-9 12l17 95z" />
    <glyph glyph-name="eight.os" horiz-adv-x="536" 
d="M268 593q43 0 78 -12t59.5 -33.5t37.5 -51.5t13 -66q0 -73 -49 -119q38 -23 59.5 -57t21.5 -82q0 -88 -59 -136t-161 -48q-53 0 -94 13.5t-69 38t-42.5 59t-14.5 75.5q0 47 19 85t54 63q-40 45 -40 108q0 34 13.5 64t38 52t59 34.5t76.5 12.5zM257 260q-36 5 -65 16
q-20 -18 -28 -42t-8 -53q0 -45 29 -73.5t83 -28.5q27 0 48.5 5t38.5 13q24 30 24 72t-27 62.5t-95 28.5zM279 352q11 -2 21 -3.5t20 -3.5q30 30 30 82q0 38 -22 57.5t-60 19.5q-19 0 -36 -4t-30 -13q-8 -11 -11 -25t-3 -28q0 -33 19.5 -54.5t71.5 -27.5z" />
    <glyph glyph-name="nine.os" horiz-adv-x="525" 
d="M102 -42q60 2 105 9.5t84 23.5q27 26 42 58t21 70q-20 -14 -41.5 -24t-43.5 -17q-18 -3 -36 -3q-43 0 -76 14t-55.5 38.5t-34 59t-11.5 76.5q0 41 14.5 77t41 63t64.5 42.5t86 15.5q97 0 152 -66.5t55 -191.5q0 -77 -23 -141t-68 -110.5t-111 -72.5t-151 -27zM357 202
q2 10 2.5 21t0.5 22q0 55 -26 89.5t-72 34.5t-76 -21q-24 -35 -24 -84t23 -75.5t70 -26.5q32 0 56 10.5t46 29.5z" />
    <glyph glyph-name="dollar.os" horiz-adv-x="462" 
d="M95 127q43 -36 93 -51q13 -3 33 -3q49 0 79 14q12 13 12 35q0 10 -3 18t-13 14.5t-27.5 11t-45.5 7.5q-163 18 -163 133q0 50 32 85t95 46l-3 119l102 12l-7 -130q71 -8 128 -42l-53 -84q-19 14 -39 24t-42 18q-17 3 -36 3q-41 0 -66 -13q-5 -6 -7.5 -13.5t-2.5 -15.5
q0 -23 17 -35t62 -17q83 -10 127.5 -42t44.5 -94q0 -55 -35.5 -90.5t-102.5 -44.5l4 -112l-101 -12l6 123q-41 4 -74.5 15t-65.5 31z" />
    <glyph glyph-name="Euro.os" horiz-adv-x="489" 
d="M297 196l-11 -77l-89 5q27 -47 88 -47q62 0 119 45l48 -78q-37 -29 -81 -42t-92 -13q-79 0 -128.5 36.5t-69.5 101.5h-56l11 69h261zM81 299q21 68 75.5 105t130.5 37q97 0 160 -52l-75 -82q-29 26 -68 44q-14 3 -29 3q-40 0 -71 -25q-5 -7 -8 -14t-6 -15l115 7l-10 -77
h-267l11 69h42z" />
    <glyph glyph-name="sterling.os" horiz-adv-x="469" 
d="M430 26q-23 -20 -52.5 -28.5t-62.5 -8.5q-21 0 -40.5 3.5t-38 8t-36 8t-35.5 3.5q-25 0 -44.5 -6t-34.5 -17l-31 64q5 3 9 5.5t9 5.5q9 6 17 11.5t14 11.5q5 11 8.5 24t3.5 30v7l-54 -8l-13 72l49 10q-6 16 -10 34t-4 41q0 30 13.5 56.5t39.5 46t65 30.5t89 11l7 -90
q-29 -1 -55 -5.5t-45 -10.5q-5 -11 -7.5 -24t-2.5 -25t2 -22.5t5 -20.5l100 23l15 -86l-92 -15q0 -4 0.5 -7t0.5 -7q0 -32 -14 -57q28 -3 53.5 -10t55.5 -7q23 9 43 21.5t35 25.5l8 -1z" />
    <glyph glyph-name="yen.os" horiz-adv-x="471" 
d="M136 253l-105 157v17l118 6l29 -80l62 -110h7l57 103l23 84h113v-16l-40 -83l-54 -74l68 4l-11 -83h-331l12 75h52zM390 140l-10 -81l-86 4v-63h-107v67h-98l12 73h289z" />
    <glyph glyph-name="numbersign.os" horiz-adv-x="587" 
d="M436 367l99 4l-12 -95h-99l-11 -88l107 4l-11 -95h-106l-1 -99h-103l13 99h-88l-1 -99h-104l13 99h-80v80l92 7l12 92h-90v80l99 8l3 105h102l-13 -103h87l3 103h103zM234 187h90l12 89h-91z" />
    <glyph glyph-name="rur" unicode="&#x20bd;" horiz-adv-x="576" 
d="M305 610q49 0 90.5 -11.5t71.5 -35t47 -60.5t17 -88q0 -48 -16 -83.5t-46 -59t-72 -35.5t-93 -12q-21 0 -43 1.5t-43 5.5v-65h156l-12 -95l-144 7v-79h-113v79l-72 -3l9 91h63v69h-65l7 96l58 -3v163l-11 118h211zM218 321q17 -2 36.5 -3.5t40.5 -1.5q66 0 98 19
q23 30 23 79q0 56 -29 79t-86 23h-83v-195z" />
    <glyph glyph-name="rur.os" horiz-adv-x="470" 
d="M90 119v47h-52l7 75h45v85l-9 104h180q38 0 70 -9t55 -26.5t36 -44t13 -60.5q0 -33 -13 -59t-35.5 -44t-54 -27t-68.5 -9q-33 0 -68 8v-40h136l-11 -81l-125 8v-46h-106v44l-53 -2l9 77h44zM196 235q14 -4 28.5 -5.5t28.5 -1.5q18 0 34.5 3.5t27.5 9.5q14 19 14 49
q0 28 -18.5 42t-53.5 14h-61v-111z" />
    <glyph glyph-name="a.sc" horiz-adv-x="550" 
d="M342 519l175 -505v-14h-121l-14 82l-12 38l-193 2l-11 -37l-9 -85h-125v14l155 412l7 85zM204 205l137 6l-62 199h-10z" />
    <glyph glyph-name="aacute.sc" horiz-adv-x="550" 
d="M342 519l175 -505v-14h-121l-14 82l-12 38l-193 2l-11 -37l-9 -85h-125v14l155 412l7 85zM204 205l137 6l-62 199h-10zM260 689l70 124h13l73 -68l-128 -144l-69 34z" />
    <glyph glyph-name="abreve.sc" horiz-adv-x="550" 
d="M342 519l175 -505v-14h-121l-14 82l-12 38l-193 2l-11 -37l-9 -85h-125v14l155 412l7 85zM204 205l137 6l-62 199h-10zM221 760q7 -77 56 -77q23 0 39 11q11 24 11 59l93 12q0 -42 -11 -72.5t-30.5 -50.5t-47 -29.5t-59.5 -9.5q-59 0 -98 37t-47 103z" />
    <glyph glyph-name="acircumflex.sc" horiz-adv-x="550" 
d="M342 519l175 -505v-14h-121l-14 82l-12 38l-193 2l-11 -37l-9 -85h-125v14l155 412l7 85zM204 205l137 6l-62 199h-10zM290 785l71 -63l73 -51v-14l-73 -64l-88 87l-93 -83l-64 52v14l76 57l72 65h26z" />
    <glyph glyph-name="adieresis.sc" horiz-adv-x="550" 
d="M342 519l175 -505v-14h-121l-14 82l-12 38l-193 2l-11 -37l-9 -85h-125v14l155 412l7 85zM204 205l137 6l-62 199h-10zM428 732v-116l-117 4l4 105zM237 733v-117l-117 5l4 102z" />
    <glyph glyph-name="agrave.sc" horiz-adv-x="550" 
d="M342 519l175 -505v-14h-121l-14 82l-12 38l-193 2l-11 -37l-9 -85h-125v14l155 412l7 85zM204 205l137 6l-62 199h-10zM223 813l51 -89l62 -89l-68 -34l-136 144l77 68h14z" />
    <glyph glyph-name="amacron.sc" horiz-adv-x="550" 
d="M342 519l175 -505v-14h-121l-14 82l-12 38l-193 2l-11 -37l-9 -85h-125v14l155 412l7 85zM204 205l137 6l-62 199h-10zM289 717l125 14l8 -8l-11 -94l-275 -8l-9 8l17 81z" />
    <glyph glyph-name="aogonek.sc" horiz-adv-x="550" 
d="M342 519l175 -505v-14h-2q-17 -2 -31.5 -6.5t-27.5 -13.5q-11 -18 -11 -46t18 -43.5t56 -15.5l5 -9l-32 -79q-61 0 -99.5 33.5t-38.5 94.5q0 62 39 100l-11 67l-12 38l-193 2l-11 -37l-9 -85h-125v14l155 412l7 85zM204 205l137 6l-62 199h-10z" />
    <glyph glyph-name="aring.sc" horiz-adv-x="550" 
d="M342 519l175 -505v-14h-121l-14 82l-12 38l-193 2l-11 -37l-9 -85h-125v14l155 412l7 85zM204 205l137 6l-62 199h-10zM274 825q30 0 52.5 -10t38 -26.5t23.5 -38t8 -44.5t-8.5 -44t-24.5 -37.5t-38.5 -26.5t-50.5 -10q-33 0 -56 10t-38 26.5t-22 37.5t-7 44t8.5 44.5
t24.5 38t38.5 26.5t51.5 10zM274 748q-22 0 -35 -9q-4 -6 -5.5 -15t-1.5 -18q0 -19 11 -31t31 -12q18 0 32 8q8 14 8 35q0 19 -11 30.5t-29 11.5z" />
    <glyph glyph-name="atilde.sc" horiz-adv-x="550" 
d="M342 519l175 -505v-14h-121l-14 82l-12 38l-193 2l-11 -37l-9 -85h-125v14l155 412l7 85zM204 205l137 6l-62 199h-10zM114 692q17 17 34.5 30.5t36.5 23.5q10 3 22 3q21 0 37.5 -6t31.5 -14.5t30.5 -17t35.5 -12.5q27 9 53 30l40 -68q-32 -34 -73 -54q-5 -1 -10.5 -2
t-11.5 -1q-21 0 -37.5 6.5t-31.5 14.5t-30.5 16.5t-35.5 12.5q-28 -10 -51 -30z" />
    <glyph glyph-name="ae.sc" horiz-adv-x="777" 
d="M715 514l-11 -98l-149 8h-79v-120h46l146 7l-7 -98l-185 7v-131h83l163 8l-5 -97h-351v127l-167 3l-21 -43l-22 -87h-131v14l227 416l18 88l124 -4h321zM365 421h-20l-103 -205l124 4v187z" />
    <glyph glyph-name="b.sc" horiz-adv-x="522" 
d="M273 514q89 0 133.5 -38.5t44.5 -101.5q0 -31 -13.5 -57t-36.5 -40v-6q36 -14 55 -43t19 -71q0 -78 -52.5 -117.5t-143.5 -39.5h-199v416l-10 98h203zM188 88h90q20 0 37 3.5t31 8.5q19 19 19 56q0 33 -20.5 48t-62.5 15h-94v-131zM188 305h83q34 0 54 8q17 19 17 53
q0 29 -17.5 44.5t-58.5 15.5h-78v-121z" />
    <glyph glyph-name="c.sc" horiz-adv-x="530" 
d="M393 375q-17 17 -37 31.5t-43 25.5q-12 3 -28 3q-20 0 -40.5 -6t-37.5 -18q-20 -28 -29.5 -67t-9.5 -87q0 -84 35 -130.5t88 -46.5q75 0 123 57l63 -66q-36 -45 -83.5 -64t-107.5 -19q-56 0 -98.5 20t-72 55.5t-44.5 85t-15 108.5q0 61 17 111t48 85t74 54t94 19
q109 0 178 -64z" />
    <glyph glyph-name="cacute.sc" horiz-adv-x="530" 
d="M393 375q-17 17 -37 31.5t-43 25.5q-12 3 -28 3q-20 0 -40.5 -6t-37.5 -18q-20 -28 -29.5 -67t-9.5 -87q0 -84 35 -130.5t88 -46.5q75 0 123 57l63 -66q-36 -45 -83.5 -64t-107.5 -19q-56 0 -98.5 20t-72 55.5t-44.5 85t-15 108.5q0 61 17 111t48 85t74 54t94 19
q109 0 178 -64zM280 689l70 124h13l73 -68l-128 -144l-69 34z" />
    <glyph glyph-name="ccaron.sc" horiz-adv-x="530" 
d="M393 375q-17 17 -37 31.5t-43 25.5q-12 3 -28 3q-20 0 -40.5 -6t-37.5 -18q-20 -28 -29.5 -67t-9.5 -87q0 -84 35 -130.5t88 -46.5q75 0 123 57l63 -66q-36 -45 -83.5 -64t-107.5 -19q-56 0 -98.5 20t-72 55.5t-44.5 85t-15 108.5q0 61 17 111t48 85t74 54t94 19
q109 0 178 -64zM290 700l89 83l65 -52v-14l-76 -58l-69 -64h-25l-67 58l-81 55v15l72 63z" />
    <glyph glyph-name="ccedilla.sc" horiz-adv-x="530" 
d="M393 375q-17 17 -37 31.5t-43 25.5q-12 3 -28 3q-20 0 -40.5 -6t-37.5 -18q-20 -28 -29.5 -67t-9.5 -87q0 -84 35 -130.5t88 -46.5q75 0 123 57l63 -66q-33 -41 -75 -60t-94 -22v-32q35 -11 54.5 -38.5t19.5 -69.5q0 -56 -46 -98.5t-142 -54.5l-7 8l14 87q19 1 36.5 2.5
t30.5 7t20.5 15.5t7.5 28q0 19 -11 30.5t-31 11.5q-8 0 -17 -2t-16 -4l-12 15l24 98q-43 9 -76 31.5t-55.5 57t-34 79t-11.5 96.5q0 61 17 111t48 85t74 54t94 19q109 0 178 -64z" />
    <glyph glyph-name="ccircumflex.sc" horiz-adv-x="530" 
d="M393 375q-17 17 -37 31.5t-43 25.5q-12 3 -28 3q-20 0 -40.5 -6t-37.5 -18q-20 -28 -29.5 -67t-9.5 -87q0 -84 35 -130.5t88 -46.5q75 0 123 57l63 -66q-36 -45 -83.5 -64t-107.5 -19q-56 0 -98.5 20t-72 55.5t-44.5 85t-15 108.5q0 61 17 111t48 85t74 54t94 19
q109 0 178 -64zM304 785l71 -63l73 -51v-14l-73 -64l-88 87l-93 -83l-64 52v14l76 57l72 65h26z" />
    <glyph glyph-name="cdotaccent.sc" horiz-adv-x="530" 
d="M393 375q-17 17 -37 31.5t-43 25.5q-12 3 -28 3q-20 0 -40.5 -6t-37.5 -18q-20 -28 -29.5 -67t-9.5 -87q0 -84 35 -130.5t88 -46.5q75 0 123 57l63 -66q-36 -45 -83.5 -64t-107.5 -19q-56 0 -98.5 20t-72 55.5t-44.5 85t-15 108.5q0 61 17 111t48 85t74 54t94 19
q109 0 178 -64zM353 741v-131l-129 4l4 116z" />
    <glyph glyph-name="d.sc" horiz-adv-x="557" 
d="M253 514q54 0 99.5 -16t78.5 -48.5t51 -80.5t18 -112q0 -60 -16.5 -107.5t-48 -80.5t-77.5 -51t-105 -18h-173v406l-10 108h183zM190 90h57q29 0 55 6t48 19q18 26 28 62.5t10 79.5q0 86 -35.5 126t-98.5 40h-64v-333z" />
    <glyph glyph-name="dcaron.sc" horiz-adv-x="557" 
d="M253 514q54 0 99.5 -16t78.5 -48.5t51 -80.5t18 -112q0 -60 -16.5 -107.5t-48 -80.5t-77.5 -51t-105 -18h-173v406l-10 108h183zM190 90h57q29 0 55 6t48 19q18 26 28 62.5t10 79.5q0 86 -35.5 126t-98.5 40h-64v-333zM266 700l89 83l65 -52v-14l-76 -58l-69 -64h-25
l-67 58l-81 55v15l72 63z" />
    <glyph glyph-name="dcroat.sc" horiz-adv-x="572" 
d="M268 514q54 0 99.5 -16t78.5 -48.5t51 -80.5t18 -112q0 -60 -16.5 -107.5t-48 -80.5t-77.5 -51t-105 -18h-173v204l-54 -1l-9 7l16 79l47 1v116l-10 108h183zM205 296l99 12l8 -8l-9 -91l-98 -3v-116h57q29 0 55 6t48 19q18 26 28 62.5t10 79.5q0 86 -35.5 126t-98.5 40
h-64v-127z" />
    <glyph glyph-name="e.sc" horiz-adv-x="500" 
d="M439 514l-12 -98l-164 8h-74v-120h65l138 7l-7 -97l-196 6v-131h76l180 8l-5 -97h-360v410l-10 104h369z" />
    <glyph glyph-name="eacute.sc" horiz-adv-x="500" 
d="M439 514l-12 -98l-164 8h-74v-120h65l138 7l-7 -97l-196 6v-131h76l180 8l-5 -97h-360v410l-10 104h369zM251 689l70 124h13l73 -68l-128 -144l-69 34z" />
    <glyph glyph-name="ebreve.sc" horiz-adv-x="500" 
d="M439 514l-12 -98l-164 8h-74v-120h65l138 7l-7 -97l-196 6v-131h76l180 8l-5 -97h-360v410l-10 104h369zM203 760q7 -77 56 -77q23 0 39 11q11 24 11 59l93 12q0 -42 -11 -72.5t-30.5 -50.5t-47 -29.5t-59.5 -9.5q-59 0 -98 37t-47 103z" />
    <glyph glyph-name="ecaron.sc" horiz-adv-x="500" 
d="M439 514l-12 -98l-164 8h-74v-120h65l138 7l-7 -97l-196 6v-131h76l180 8l-5 -97h-360v410l-10 104h369zM264 700l89 83l65 -52v-14l-76 -58l-69 -64h-25l-67 58l-81 55v15l72 63z" />
    <glyph glyph-name="ecircumflex.sc" horiz-adv-x="500" 
d="M439 514l-12 -98l-164 8h-74v-120h65l138 7l-7 -97l-196 6v-131h76l180 8l-5 -97h-360v410l-10 104h369zM274 785l71 -63l73 -51v-14l-73 -64l-88 87l-93 -83l-64 52v14l76 57l72 65h26z" />
    <glyph glyph-name="edieresis.sc" horiz-adv-x="500" 
d="M439 514l-12 -98l-164 8h-74v-120h65l138 7l-7 -97l-196 6v-131h76l180 8l-5 -97h-360v410l-10 104h369zM415 732v-116l-117 4l4 105zM224 733v-117l-117 5l4 102z" />
    <glyph glyph-name="edotaccent.sc" horiz-adv-x="500" 
d="M439 514l-12 -98l-164 8h-74v-120h65l138 7l-7 -97l-196 6v-131h76l180 8l-5 -97h-360v410l-10 104h369zM328 741v-131l-129 4l4 116z" />
    <glyph glyph-name="egrave.sc" horiz-adv-x="500" 
d="M439 514l-12 -98l-164 8h-74v-120h65l138 7l-7 -97l-196 6v-131h76l180 8l-5 -97h-360v410l-10 104h369zM223 813l51 -89l62 -89l-68 -34l-136 144l77 68h14z" />
    <glyph glyph-name="emacron.sc" horiz-adv-x="500" 
d="M439 514l-12 -98l-164 8h-74v-120h65l138 7l-7 -97l-196 6v-131h76l180 8l-5 -97h-360v410l-10 104h369zM273 717l125 14l8 -8l-11 -94l-275 -8l-9 8l17 81z" />
    <glyph glyph-name="eogonek.sc" horiz-adv-x="501" 
d="M439 514l-12 -98l-164 8h-74v-120h65l138 7l-7 -97l-196 6v-131h76l180 8l-5 -97h-9q-30 -2 -49 -14q-5 -10 -8.5 -21.5t-3.5 -24.5q0 -26 18.5 -41t57.5 -15l6 -10l-34 -82q-64 0 -102.5 36t-38.5 91q0 46 23 81h-220v410l-10 104h369z" />
    <glyph glyph-name="f.sc" horiz-adv-x="491" 
d="M433 514l-11 -99l-159 9h-74v-129h58l138 6l-8 -98l-188 8v-211h-109v409l-10 105h363z" />
    <glyph glyph-name="g.sc" horiz-adv-x="543" 
d="M402 376q-18 16 -41 31t-49 26q-7 1 -14 1.5t-15 0.5q-20 0 -40.5 -6t-37.5 -19q-18 -27 -28 -65t-10 -88q0 -86 34 -131.5t91 -45.5q46 0 80 20v109l-101 -4l13 89h201l3 -14l-14 -81v-199l-20 -6l-51 26q-26 -15 -56 -23.5t-63 -8.5q-57 0 -100 19.5t-71.5 55t-42.5 85
t-14 109.5q0 62 17.5 111.5t49 84.5t74 54t93.5 19q54 0 100.5 -16t81.5 -46z" />
    <glyph glyph-name="gbreve.sc" horiz-adv-x="543" 
d="M402 376q-18 16 -41 31t-49 26q-7 1 -14 1.5t-15 0.5q-20 0 -40.5 -6t-37.5 -19q-18 -27 -28 -65t-10 -88q0 -86 34 -131.5t91 -45.5q46 0 80 20v109l-101 -4l13 89h201l3 -14l-14 -81v-199l-20 -6l-51 26q-26 -15 -56 -23.5t-63 -8.5q-57 0 -100 19.5t-71.5 55t-42.5 85
t-14 109.5q0 62 17.5 111.5t49 84.5t74 54t93.5 19q54 0 100.5 -16t81.5 -46zM232 760q7 -77 56 -77q23 0 39 11q11 24 11 59l93 12q0 -42 -11 -72.5t-30.5 -50.5t-47 -29.5t-59.5 -9.5q-59 0 -98 37t-47 103z" />
    <glyph glyph-name="gcircumflex.sc" horiz-adv-x="543" 
d="M402 376q-18 16 -41 31t-49 26q-7 1 -14 1.5t-15 0.5q-20 0 -40.5 -6t-37.5 -19q-18 -27 -28 -65t-10 -88q0 -86 34 -131.5t91 -45.5q46 0 80 20v109l-101 -4l13 89h201l3 -14l-14 -81v-199l-20 -6l-51 26q-26 -15 -56 -23.5t-63 -8.5q-57 0 -100 19.5t-71.5 55t-42.5 85
t-14 109.5q0 62 17.5 111.5t49 84.5t74 54t93.5 19q54 0 100.5 -16t81.5 -46zM309 785l71 -63l73 -51v-14l-73 -64l-88 87l-93 -83l-64 52v14l76 57l72 65h26z" />
    <glyph glyph-name="gcommaaccent.sc" horiz-adv-x="543" 
d="M402 376q-18 16 -41 31t-49 26q-7 1 -14 1.5t-15 0.5q-20 0 -40.5 -6t-37.5 -19q-18 -27 -28 -65t-10 -88q0 -86 34 -131.5t91 -45.5q46 0 80 20v109l-101 -4l13 89h201l3 -14l-14 -81v-199l-20 -6l-51 26q-26 -15 -56 -23.5t-63 -8.5q-57 0 -100 19.5t-71.5 55t-42.5 85
t-14 109.5q0 62 17.5 111.5t49 84.5t74 54t93.5 19q54 0 100.5 -16t81.5 -46zM346 -70l6 -20l-55 -173l-75 18l16 99v70z" />
    <glyph glyph-name="gdotaccent.sc" horiz-adv-x="543" 
d="M402 376q-18 16 -41 31t-49 26q-7 1 -14 1.5t-15 0.5q-20 0 -40.5 -6t-37.5 -19q-18 -27 -28 -65t-10 -88q0 -86 34 -131.5t91 -45.5q46 0 80 20v109l-101 -4l13 89h201l3 -14l-14 -81v-199l-20 -6l-51 26q-26 -15 -56 -23.5t-63 -8.5q-57 0 -100 19.5t-71.5 55t-42.5 85
t-14 109.5q0 62 17.5 111.5t49 84.5t74 54t93.5 19q54 0 100.5 -16t81.5 -46zM351 741v-131l-129 4l4 116z" />
    <glyph glyph-name="hbar.sc" horiz-adv-x="576" 
d="M191 517v-95l191 9l-7 79l121 7v-78l53 6l8 -8l-5 -90l-56 -2v-345h-111v188l-194 4v-192h-111v332l-54 -1l-8 7l14 76l46 2l-8 94zM385 284v58l-194 -6v-58z" />
    <glyph glyph-name="hcircumflex.sc" horiz-adv-x="576" 
d="M191 517v-214l194 6v97l-10 104l121 7v-517h-111v212l-194 4v-216h-111v406l-10 104zM301 785l71 -63l73 -51v-14l-73 -64l-88 87l-93 -83l-64 52v14l76 57l72 65h26z" />
    <glyph glyph-name="i.sc" horiz-adv-x="271" 
d="M191 517v-517h-111v407l-10 103z" />
    <glyph glyph-name="iacute.sc" horiz-adv-x="271" 
d="M191 517v-517h-111v407l-10 103zM126 689l70 124h13l73 -68l-128 -144l-69 34z" />
    <glyph glyph-name="ibreve.sc" horiz-adv-x="271" 
d="M191 517v-517h-111v407l-10 103zM84 760q7 -77 56 -77q23 0 39 11q11 24 11 59l93 12q0 -42 -11 -72.5t-30.5 -50.5t-47 -29.5t-59.5 -9.5q-59 0 -98 37t-47 103z" />
    <glyph glyph-name="icircumflex.sc" horiz-adv-x="271" 
d="M191 517v-517h-111v407l-10 103zM151 785l71 -63l73 -51v-14l-73 -64l-88 87l-93 -83l-64 52v14l76 57l72 65h26z" />
    <glyph glyph-name="idieresis.sc" horiz-adv-x="271" 
d="M191 517v-517h-111v407l-10 103zM291 737v-124l-122 4l6 113zM102 739v-126l-121 4l4 110z" />
    <glyph glyph-name="igrave.sc" horiz-adv-x="271" 
d="M191 517v-517h-111v407l-10 103zM90 813l51 -89l62 -89l-68 -34l-136 144l77 68h14z" />
    <glyph glyph-name="imacron.sc" horiz-adv-x="271" 
d="M191 517v-517h-111v407l-10 103zM150 712l125 16l9 -8l-12 -103l-269 -7l-9 7l17 87z" />
    <glyph glyph-name="iogonek.sc" horiz-adv-x="271" 
d="M191 517v-517q-29 0 -53 -11q-6 -11 -8.5 -23t-2.5 -25q0 -26 18.5 -41.5t58.5 -15.5l6 -9l-33 -84q-33 0 -59.5 10.5t-45.5 28.5t-29 42t-10 51q0 65 47 106v378l-10 103z" />
    <glyph glyph-name="itilde.sc" horiz-adv-x="271" 
d="M191 517v-517h-111v407l-10 103zM-8 690q17 17 36 30.5t40 21.5q9 3 21 3q21 0 34 -6t24 -14.5t21 -17t25 -12.5q24 9 50 29l37 -65q-36 -34 -77 -52q-5 -1 -10.5 -2t-11.5 -1q-20 0 -33.5 6.5t-24 14.5t-20.5 16.5t-25 12.5q-24 -6 -48 -27z" />
    <glyph glyph-name="dotlessi.sc" horiz-adv-x="271" 
d="M191 517v-517h-111v407l-10 103z" />
    <glyph glyph-name="j.sc" horiz-adv-x="271" 
d="M191 517v-453q0 -97 -51 -155.5t-148 -75.5l-31 97q53 8 96 25q12 14 19.5 35.5t7.5 53.5v31l-4 55v278l-10 102z" />
    <glyph glyph-name="jcircumflex.sc" horiz-adv-x="271" 
d="M191 517v-453q0 -97 -51 -155.5t-148 -75.5l-31 97q53 8 96 25q12 14 19.5 35.5t7.5 53.5v31l-4 55v278l-10 102zM151 785l71 -63l73 -51v-14l-73 -64l-88 87l-93 -83l-64 52v14l76 57l72 65h26z" />
    <glyph glyph-name="dotlessj.sc" horiz-adv-x="271" 
d="M191 517v-453q0 -97 -51 -155.5t-148 -75.5l-31 97q53 8 96 25q12 14 19.5 35.5t7.5 53.5v31l-4 55v278l-10 102z" />
    <glyph glyph-name="k.sc" horiz-adv-x="560" 
d="M191 517v-229l65 28q28 28 49 59t34 69l24 72l126 -5v-15q-20 -53 -51 -103.5t-67 -90.5l-26 -28q36 -74 78.5 -137t97.5 -122v-15l-127 -4q-41 49 -73 104.5t-58 119.5l-72 -34v-186h-111v406l-10 104z" />
    <glyph glyph-name="kcommaaccent.sc" horiz-adv-x="560" 
d="M191 517v-229l65 28q28 28 49 59t34 69l24 72l126 -5v-15q-20 -53 -51 -103.5t-67 -90.5l-26 -28q36 -74 78.5 -137t97.5 -122v-15l-127 -4q-41 49 -73 104.5t-58 119.5l-72 -34v-186h-111v406l-10 104zM337 -70l6 -20l-55 -173l-75 18l16 99v70z" />
    <glyph glyph-name="kgreenlandic.sc" horiz-adv-x="560" 
d="M191 517v-229l65 28q28 28 49 59t34 69l24 72l126 -5v-15q-20 -53 -51 -103.5t-67 -90.5l-26 -28q36 -74 78.5 -137t97.5 -122v-15l-127 -4q-41 49 -73 104.5t-58 119.5l-72 -34v-186h-111v406l-10 104z" />
    <glyph glyph-name="l.sc" horiz-adv-x="476" 
d="M191 517v-427h59l180 14l8 -8l-10 -96h-348v406l-10 104z" />
    <glyph glyph-name="lacute.sc" horiz-adv-x="476" 
d="M191 517v-427h59l180 14l8 -8l-10 -96h-348v406l-10 104zM150 689l70 124h13l73 -68l-128 -144l-69 34z" />
    <glyph glyph-name="lcaron.sc" horiz-adv-x="476" 
d="M191 517v-427h59l180 14l8 -8l-10 -96h-348v406l-10 104zM414 530l6 -20l-55 -173l-75 18l16 99v70z" />
    <glyph glyph-name="lcommaaccent.sc" horiz-adv-x="476" 
d="M191 517v-427h59l180 14l8 -8l-10 -96h-348v406l-10 104zM314 -70l6 -20l-55 -173l-75 18l16 99v70z" />
    <glyph glyph-name="ldot.sc" horiz-adv-x="476" 
d="M191 517v-427h59l180 14l8 -8l-10 -96h-348v406l-10 104zM429 367v-131l-129 4l4 116z" />
    <glyph glyph-name="lslash.sc" horiz-adv-x="472" 
d="M191 517v-220l103 35l9 -6l5 -96l-117 -26v-114h53l182 14l8 -8l-10 -96h-344v180l-45 -9l-9 7l4 79l50 12v137l-10 104z" />
    <glyph glyph-name="m.sc" horiz-adv-x="702" 
d="M239 517l113 -378h7l106 375h143l41 -514h-116v109l-14 265h-7l-24 -104l-88 -270h-98l-86 262l-27 113h-7l-15 -259v-116h-115l43 406v104z" />
    <glyph glyph-name="n.sc" horiz-adv-x="582" 
d="M180 517l163 -253l60 -104l-7 149v98l-10 103l116 7v-514l-101 -8l-149 227l-74 125l7 -147v-200h-105v389l-10 121z" />
    <glyph glyph-name="nacute.sc" horiz-adv-x="582" 
d="M180 517l163 -253l60 -104l-7 149v98l-10 103l116 7v-514l-101 -8l-149 227l-74 125l7 -147v-200h-105v389l-10 121zM283 689l70 124h13l73 -68l-128 -144l-69 34z" />
    <glyph glyph-name="ncaron.sc" horiz-adv-x="582" 
d="M180 517l163 -253l60 -104l-7 149v98l-10 103l116 7v-514l-101 -8l-149 227l-74 125l7 -147v-200h-105v389l-10 121zM295 700l89 83l65 -52v-14l-76 -58l-69 -64h-25l-67 58l-81 55v15l72 63z" />
    <glyph glyph-name="ncommaaccent.sc" horiz-adv-x="582" 
d="M180 517l163 -253l60 -104l-7 149v98l-10 103l116 7v-514l-101 -8l-149 227l-74 125l7 -147v-200h-105v389l-10 121zM350 -70l6 -20l-55 -173l-75 18l16 99v70z" />
    <glyph glyph-name="ntilde.sc" horiz-adv-x="582" 
d="M180 517l163 -253l60 -104l-7 149v98l-10 103l116 7v-514l-101 -8l-149 227l-74 125l7 -147v-200h-105v389l-10 121zM130 692q17 17 34.5 30.5t36.5 23.5q10 3 22 3q21 0 37.5 -6t31.5 -14.5t30.5 -17t35.5 -12.5q27 9 53 30l40 -68q-32 -34 -73 -54q-5 -1 -10.5 -2
t-11.5 -1q-21 0 -37.5 6.5t-31.5 14.5t-30.5 16.5t-35.5 12.5q-28 -10 -51 -30z" />
    <glyph glyph-name="o.sc" horiz-adv-x="574" 
d="M287 526q52 0 94.5 -17.5t73 -52t47 -84.5t16.5 -115q0 -60 -16.5 -109.5t-47 -85t-73 -55t-94.5 -19.5t-94.5 17.5t-73 51.5t-47 84.5t-16.5 115.5q0 60 16.5 109.5t47 85t73 55t94.5 19.5zM287 435q-23 0 -44.5 -6t-37.5 -19q-19 -29 -28 -68.5t-9 -84.5
q0 -95 33 -136.5t86 -41.5q23 0 44.5 6t38.5 19q19 28 27.5 68t8.5 85q0 48 -9 81.5t-24.5 55t-37.5 31.5t-48 10z" />
    <glyph glyph-name="oacute.sc" horiz-adv-x="574" 
d="M287 526q52 0 94.5 -17.5t73 -52t47 -84.5t16.5 -115q0 -60 -16.5 -109.5t-47 -85t-73 -55t-94.5 -19.5t-94.5 17.5t-73 51.5t-47 84.5t-16.5 115.5q0 60 16.5 109.5t47 85t73 55t94.5 19.5zM287 435q-23 0 -44.5 -6t-37.5 -19q-19 -29 -28 -68.5t-9 -84.5
q0 -95 33 -136.5t86 -41.5q23 0 44.5 6t38.5 19q19 28 27.5 68t8.5 85q0 48 -9 81.5t-24.5 55t-37.5 31.5t-48 10zM292 689l70 124h13l73 -68l-128 -144l-69 34z" />
    <glyph glyph-name="obreve.sc" horiz-adv-x="574" 
d="M287 526q52 0 94.5 -17.5t73 -52t47 -84.5t16.5 -115q0 -60 -16.5 -109.5t-47 -85t-73 -55t-94.5 -19.5t-94.5 17.5t-73 51.5t-47 84.5t-16.5 115.5q0 60 16.5 109.5t47 85t73 55t94.5 19.5zM287 435q-23 0 -44.5 -6t-37.5 -19q-19 -29 -28 -68.5t-9 -84.5
q0 -95 33 -136.5t86 -41.5q23 0 44.5 6t38.5 19q19 28 27.5 68t8.5 85q0 48 -9 81.5t-24.5 55t-37.5 31.5t-48 10zM234 760q7 -77 56 -77q23 0 39 11q11 24 11 59l93 12q0 -42 -11 -72.5t-30.5 -50.5t-47 -29.5t-59.5 -9.5q-59 0 -98 37t-47 103z" />
    <glyph glyph-name="ocircumflex.sc" horiz-adv-x="574" 
d="M287 526q52 0 94.5 -17.5t73 -52t47 -84.5t16.5 -115q0 -60 -16.5 -109.5t-47 -85t-73 -55t-94.5 -19.5t-94.5 17.5t-73 51.5t-47 84.5t-16.5 115.5q0 60 16.5 109.5t47 85t73 55t94.5 19.5zM287 435q-23 0 -44.5 -6t-37.5 -19q-19 -29 -28 -68.5t-9 -84.5
q0 -95 33 -136.5t86 -41.5q23 0 44.5 6t38.5 19q19 28 27.5 68t8.5 85q0 48 -9 81.5t-24.5 55t-37.5 31.5t-48 10zM302 785l71 -63l73 -51v-14l-73 -64l-88 87l-93 -83l-64 52v14l76 57l72 65h26z" />
    <glyph glyph-name="odieresis.sc" horiz-adv-x="574" 
d="M287 526q52 0 94.5 -17.5t73 -52t47 -84.5t16.5 -115q0 -60 -16.5 -109.5t-47 -85t-73 -55t-94.5 -19.5t-94.5 17.5t-73 51.5t-47 84.5t-16.5 115.5q0 60 16.5 109.5t47 85t73 55t94.5 19.5zM287 435q-23 0 -44.5 -6t-37.5 -19q-19 -29 -28 -68.5t-9 -84.5
q0 -95 33 -136.5t86 -41.5q23 0 44.5 6t38.5 19q19 28 27.5 68t8.5 85q0 48 -9 81.5t-24.5 55t-37.5 31.5t-48 10zM441 732v-116l-117 4l4 105zM250 733v-117l-117 5l4 102z" />
    <glyph glyph-name="ograve.sc" horiz-adv-x="574" 
d="M287 526q52 0 94.5 -17.5t73 -52t47 -84.5t16.5 -115q0 -60 -16.5 -109.5t-47 -85t-73 -55t-94.5 -19.5t-94.5 17.5t-73 51.5t-47 84.5t-16.5 115.5q0 60 16.5 109.5t47 85t73 55t94.5 19.5zM287 435q-23 0 -44.5 -6t-37.5 -19q-19 -29 -28 -68.5t-9 -84.5
q0 -95 33 -136.5t86 -41.5q23 0 44.5 6t38.5 19q19 28 27.5 68t8.5 85q0 48 -9 81.5t-24.5 55t-37.5 31.5t-48 10zM235 812l51 -89l62 -89l-68 -34l-136 144l77 68h14z" />
    <glyph glyph-name="ohungarumlaut.sc" horiz-adv-x="574" 
d="M287 526q52 0 94.5 -17.5t73 -52t47 -84.5t16.5 -115q0 -60 -16.5 -109.5t-47 -85t-73 -55t-94.5 -19.5t-94.5 17.5t-73 51.5t-47 84.5t-16.5 115.5q0 60 16.5 109.5t47 85t73 55t94.5 19.5zM287 435q-23 0 -44.5 -6t-37.5 -19q-19 -29 -28 -68.5t-9 -84.5
q0 -95 33 -136.5t86 -41.5q23 0 44.5 6t38.5 19q19 28 27.5 68t8.5 85q0 48 -9 81.5t-24.5 55t-37.5 31.5t-48 10zM204 710l26 95h13l84 -58l-90 -143l-68 25zM422 789h13l71 -72l-82 -66l-54 -52l-60 34z" />
    <glyph glyph-name="omacron.sc" horiz-adv-x="574" 
d="M287 526q52 0 94.5 -17.5t73 -52t47 -84.5t16.5 -115q0 -60 -16.5 -109.5t-47 -85t-73 -55t-94.5 -19.5t-94.5 17.5t-73 51.5t-47 84.5t-16.5 115.5q0 60 16.5 109.5t47 85t73 55t94.5 19.5zM287 435q-23 0 -44.5 -6t-37.5 -19q-19 -29 -28 -68.5t-9 -84.5
q0 -95 33 -136.5t86 -41.5q23 0 44.5 6t38.5 19q19 28 27.5 68t8.5 85q0 48 -9 81.5t-24.5 55t-37.5 31.5t-48 10zM301 717l125 14l8 -8l-11 -94l-275 -8l-9 8l17 81z" />
    <glyph glyph-name="oslash.sc" horiz-adv-x="574" 
d="M287 526q36 0 68 -9l28 84l118 -38l-52 -101q33 -35 51 -86t18 -119q0 -60 -16.5 -109.5t-47 -85t-73 -55t-94.5 -19.5q-41 0 -74 10l-41 -80l-92 28l49 100q-35 35 -54 87.5t-19 123.5q0 60 16.5 109.5t47 85t73 55t94.5 19.5zM287 435q-23 0 -44.5 -6t-37.5 -19
q-19 -29 -28 -68.5t-9 -84.5q0 -63 15 -102l135 276q-8 2 -15.5 3t-15.5 1zM406 257q0 29 -3.5 52.5t-9.5 42.5l-137 -269q13 -4 31 -4q23 0 44.5 6t38.5 19q19 28 27.5 68t8.5 85z" />
    <glyph glyph-name="otilde.sc" horiz-adv-x="574" 
d="M287 526q52 0 94.5 -17.5t73 -52t47 -84.5t16.5 -115q0 -60 -16.5 -109.5t-47 -85t-73 -55t-94.5 -19.5t-94.5 17.5t-73 51.5t-47 84.5t-16.5 115.5q0 60 16.5 109.5t47 85t73 55t94.5 19.5zM287 435q-23 0 -44.5 -6t-37.5 -19q-19 -29 -28 -68.5t-9 -84.5
q0 -95 33 -136.5t86 -41.5q23 0 44.5 6t38.5 19q19 28 27.5 68t8.5 85q0 48 -9 81.5t-24.5 55t-37.5 31.5t-48 10zM127 692q17 17 34.5 30.5t36.5 23.5q10 3 22 3q21 0 37.5 -6t31.5 -14.5t30.5 -17t35.5 -12.5q27 9 53 30l40 -68q-32 -34 -73 -54q-5 -1 -10.5 -2t-11.5 -1
q-21 0 -37.5 6.5t-31.5 14.5t-30.5 16.5t-35.5 12.5q-28 -10 -51 -30z" />
    <glyph glyph-name="oe.sc" horiz-adv-x="783" 
d="M268 526q39 0 68.5 -12t50.5 -35v35h336l-11 -99l-155 9h-72v-120h58l134 7l-8 -97l-184 6v-131h73l171 8l-6 -97h-336v37q-43 -49 -119 -49q-103 0 -157.5 68.5t-54.5 199.5q0 61 14.5 111t42 85t67 54.5t88.5 19.5zM200 410q-16 -29 -24.5 -67.5t-8.5 -86.5
q0 -91 27 -134t79 -43q40 0 71 20q17 29 26.5 70t9.5 88q0 99 -29 138.5t-78 39.5q-23 0 -42 -7t-31 -18z" />
    <glyph glyph-name="p.sc" horiz-adv-x="515" 
d="M264 514q45 0 83 -11t65.5 -33.5t42.5 -55.5t15 -77q0 -41 -14 -74.5t-39.5 -57t-60.5 -36.5t-77 -13q-50 0 -90 15v-171h-109v412l-10 102h194zM189 259q20 -6 40.5 -9t39.5 -3q20 0 38 4.5t32 12.5q20 26 20 72q0 42 -24.5 65t-72.5 23h-73v-165z" />
    <glyph glyph-name="q.sc" horiz-adv-x="575" 
d="M287 526q52 0 94.5 -17.5t73 -52t47 -84.5t16.5 -115q0 -101 -45 -170.5t-123 -90.5q44 -24 83 -38.5t84 -25.5v-21l-75 -73q-54 21 -100 55t-88 82q-20 22 -42.5 34.5t-48.5 12.5q-20 0 -35 -8.5t-23 -19.5l-28 6q2 22 6 45.5t11 45.5q-38 64 -38 166q0 60 16.5 109.5
t47 85t73 55t94.5 19.5zM287 435q-23 0 -44.5 -6t-37.5 -19q-19 -28 -28 -68t-9 -85q0 -95 33 -136.5t86 -41.5q23 0 44.5 6t38.5 19q19 28 27.5 68t8.5 85q0 48 -9 81.5t-24.5 55t-37.5 31.5t-48 10z" />
    <glyph glyph-name="r.sc" horiz-adv-x="541" 
d="M271 514q92 0 147.5 -45.5t55.5 -128.5q0 -59 -31 -99t-79 -58q28 -46 59.5 -87.5t67.5 -80.5v-15l-119 -5q-32 42 -58.5 86t-46.5 90q-44 3 -78 15v-186h-109v411l-10 103h201zM189 273q20 -6 41.5 -9t41.5 -3q45 0 74 18q18 25 18 61q0 40 -25.5 62t-73.5 22h-76v-151z
" />
    <glyph glyph-name="racute.sc" horiz-adv-x="541" 
d="M271 514q92 0 147.5 -45.5t55.5 -128.5q0 -59 -31 -99t-79 -58q28 -46 59.5 -87.5t67.5 -80.5v-15l-119 -5q-32 42 -58.5 86t-46.5 90q-44 3 -78 15v-186h-109v411l-10 103h201zM189 273q20 -6 41.5 -9t41.5 -3q45 0 74 18q18 25 18 61q0 40 -25.5 62t-73.5 22h-76v-151z
M248 689l70 124h13l73 -68l-128 -144l-69 34z" />
    <glyph glyph-name="rcaron.sc" horiz-adv-x="541" 
d="M271 514q92 0 147.5 -45.5t55.5 -128.5q0 -59 -31 -99t-79 -58q28 -46 59.5 -87.5t67.5 -80.5v-15l-119 -5q-32 42 -58.5 86t-46.5 90q-44 3 -78 15v-186h-109v411l-10 103h201zM189 273q20 -6 41.5 -9t41.5 -3q45 0 74 18q18 25 18 61q0 40 -25.5 62t-73.5 22h-76v-151z
M268 700l89 83l65 -52v-14l-76 -58l-69 -64h-25l-67 58l-81 55v15l72 63z" />
    <glyph glyph-name="rcommaaccent.sc" horiz-adv-x="541" 
d="M271 514q92 0 147.5 -45.5t55.5 -128.5q0 -59 -31 -99t-79 -58q28 -46 59.5 -87.5t67.5 -80.5v-15l-119 -5q-32 42 -58.5 86t-46.5 90q-44 3 -78 15v-186h-109v411l-10 103h201zM189 273q20 -6 41.5 -9t41.5 -3q45 0 74 18q18 25 18 61q0 40 -25.5 62t-73.5 22h-76v-151z
M332 -70l6 -20l-55 -173l-75 18l16 99v70z" />
    <glyph glyph-name="s.sc" horiz-adv-x="509" 
d="M381 379q-39 32 -84 52q-8 2 -19.5 3.5t-22.5 1.5q-19 0 -37 -4t-31 -11q-11 -17 -11 -39q0 -30 24 -48t75 -25q87 -12 134.5 -51t47.5 -112q0 -37 -14.5 -66t-41.5 -49.5t-65 -31.5t-84 -11q-63 0 -111 14t-95 46l62 97q26 -22 51 -37t48 -25q25 -5 46 -5q47 0 79 16
q17 17 17 52q0 28 -22 45t-75 23q-88 10 -136 49.5t-48 111.5q0 33 13 60.5t37 48t59 31.5t80 11q117 0 192 -58z" />
    <glyph glyph-name="sacute.sc" horiz-adv-x="509" 
d="M381 379q-39 32 -84 52q-8 2 -19.5 3.5t-22.5 1.5q-19 0 -37 -4t-31 -11q-11 -17 -11 -39q0 -30 24 -48t75 -25q87 -12 134.5 -51t47.5 -112q0 -37 -14.5 -66t-41.5 -49.5t-65 -31.5t-84 -11q-63 0 -111 14t-95 46l62 97q26 -22 51 -37t48 -25q25 -5 46 -5q47 0 79 16
q17 17 17 52q0 28 -22 45t-75 23q-88 10 -136 49.5t-48 111.5q0 33 13 60.5t37 48t59 31.5t80 11q117 0 192 -58zM250 689l70 124h13l73 -68l-128 -144l-69 34z" />
    <glyph glyph-name="scaron.sc" horiz-adv-x="509" 
d="M381 379q-39 32 -84 52q-8 2 -19.5 3.5t-22.5 1.5q-19 0 -37 -4t-31 -11q-11 -17 -11 -39q0 -30 24 -48t75 -25q87 -12 134.5 -51t47.5 -112q0 -37 -14.5 -66t-41.5 -49.5t-65 -31.5t-84 -11q-63 0 -111 14t-95 46l62 97q26 -22 51 -37t48 -25q25 -5 46 -5q47 0 79 16
q17 17 17 52q0 28 -22 45t-75 23q-88 10 -136 49.5t-48 111.5q0 33 13 60.5t37 48t59 31.5t80 11q117 0 192 -58zM267 700l89 83l65 -52v-14l-76 -58l-69 -64h-25l-67 58l-81 55v15l72 63z" />
    <glyph glyph-name="scedilla.sc" horiz-adv-x="509" 
d="M381 379q-39 32 -84 52q-8 2 -19.5 3.5t-22.5 1.5q-19 0 -37 -4t-31 -11q-11 -17 -11 -39q0 -30 24 -48t75 -25q87 -12 134.5 -51t47.5 -112q0 -67 -47 -108t-126 -48v-33q35 -11 54.5 -38.5t19.5 -69.5q0 -56 -46 -98.5t-142 -54.5l-7 8l14 87q56 3 86 20q9 12 9 33
q0 19 -11 30.5t-31 11.5q-8 0 -17 -2t-16 -4l-12 15l23 95q-47 4 -85.5 18t-76.5 40l62 97q26 -22 51 -37t48 -25q25 -5 46 -5q47 0 79 16q17 17 17 52q0 28 -22 45t-75 23q-88 10 -136 49.5t-48 111.5q0 33 13 60.5t37 48t59 31.5t80 11q117 0 192 -58z" />
    <glyph glyph-name="scircumflex.sc" horiz-adv-x="509" 
d="M381 379q-39 32 -84 52q-8 2 -19.5 3.5t-22.5 1.5q-19 0 -37 -4t-31 -11q-11 -17 -11 -39q0 -30 24 -48t75 -25q87 -12 134.5 -51t47.5 -112q0 -37 -14.5 -66t-41.5 -49.5t-65 -31.5t-84 -11q-63 0 -111 14t-95 46l62 97q26 -22 51 -37t48 -25q25 -5 46 -5q47 0 79 16
q17 17 17 52q0 28 -22 45t-75 23q-88 10 -136 49.5t-48 111.5q0 33 13 60.5t37 48t59 31.5t80 11q117 0 192 -58zM276 785l71 -63l73 -51v-14l-73 -64l-88 87l-93 -83l-64 52v14l76 57l72 65h26z" />
    <glyph glyph-name="scommaaccent.sc" horiz-adv-x="509" 
d="M381 379q-39 32 -84 52q-8 2 -19.5 3.5t-22.5 1.5q-19 0 -37 -4t-31 -11q-11 -17 -11 -39q0 -30 24 -48t75 -25q87 -12 134.5 -51t47.5 -112q0 -37 -14.5 -66t-41.5 -49.5t-65 -31.5t-84 -11q-63 0 -111 14t-95 46l62 97q26 -22 51 -37t48 -25q25 -5 46 -5q47 0 79 16
q17 17 17 52q0 28 -22 45t-75 23q-88 10 -136 49.5t-48 111.5q0 33 13 60.5t37 48t59 31.5t80 11q117 0 192 -58zM311 -70l6 -20l-55 -173l-75 18l16 99v70z" />
    <glyph glyph-name="t.sc" horiz-adv-x="478" 
d="M173 514h131l145 5l-6 -106l-125 8h-27v-421h-109v421h-30l-124 -8l6 105z" />
    <glyph glyph-name="tcaron.sc" horiz-adv-x="478" 
d="M173 514h131l145 5l-6 -106l-125 8h-27v-421h-109v421h-30l-124 -8l6 105zM242 700l89 83l65 -52v-14l-76 -58l-69 -64h-25l-67 58l-81 55v15l72 63z" />
    <glyph glyph-name="tcommaaccent.sc" horiz-adv-x="478" 
d="M173 514h131l145 5l-6 -106l-125 8h-27v-421h-109v421h-30l-124 -8l6 105zM290 -70l6 -20l-55 -173l-75 18l16 99v70z" />
    <glyph glyph-name="u.sc" horiz-adv-x="579" 
d="M190 517v-294q0 -71 26.5 -106.5t72.5 -35.5q22 0 41.5 6.5t35.5 17.5q13 23 18 50.5t5 60.5v191l-10 103l120 7v-295q0 -51 -13.5 -94t-40 -74t-66 -48.5t-90.5 -17.5q-47 0 -85.5 15t-66 44t-42.5 71.5t-15 98.5v190l-10 103z" />
    <glyph glyph-name="uacute.sc" horiz-adv-x="579" 
d="M190 517v-294q0 -71 26.5 -106.5t72.5 -35.5q22 0 41.5 6.5t35.5 17.5q13 23 18 50.5t5 60.5v191l-10 103l120 7v-295q0 -51 -13.5 -94t-40 -74t-66 -48.5t-90.5 -17.5q-47 0 -85.5 15t-66 44t-42.5 71.5t-15 98.5v190l-10 103zM277 689l70 124h13l73 -68l-128 -144
l-69 34z" />
    <glyph glyph-name="ubreve.sc" horiz-adv-x="579" 
d="M190 517v-294q0 -71 26.5 -106.5t72.5 -35.5q22 0 41.5 6.5t35.5 17.5q13 23 18 50.5t5 60.5v191l-10 103l120 7v-295q0 -51 -13.5 -94t-40 -74t-66 -48.5t-90.5 -17.5q-47 0 -85.5 15t-66 44t-42.5 71.5t-15 98.5v190l-10 103zM233 760q7 -77 56 -77q23 0 39 11
q11 24 11 59l93 12q0 -42 -11 -72.5t-30.5 -50.5t-47 -29.5t-59.5 -9.5q-59 0 -98 37t-47 103z" />
    <glyph glyph-name="ucircumflex.sc" horiz-adv-x="579" 
d="M190 517v-294q0 -71 26.5 -106.5t72.5 -35.5q22 0 41.5 6.5t35.5 17.5q13 23 18 50.5t5 60.5v191l-10 103l120 7v-295q0 -51 -13.5 -94t-40 -74t-66 -48.5t-90.5 -17.5q-47 0 -85.5 15t-66 44t-42.5 71.5t-15 98.5v190l-10 103zM301 785l71 -63l73 -51v-14l-73 -64
l-88 87l-93 -83l-64 52v14l76 57l72 65h26z" />
    <glyph glyph-name="udieresis.sc" horiz-adv-x="579" 
d="M190 517v-294q0 -71 26.5 -106.5t72.5 -35.5q22 0 41.5 6.5t35.5 17.5q13 23 18 50.5t5 60.5v191l-10 103l120 7v-295q0 -51 -13.5 -94t-40 -74t-66 -48.5t-90.5 -17.5q-47 0 -85.5 15t-66 44t-42.5 71.5t-15 98.5v190l-10 103zM440 732v-116l-117 4l4 105zM249 733v-117
l-117 5l4 102z" />
    <glyph glyph-name="uhungarumlaut.sc" horiz-adv-x="579" 
d="M190 517v-294q0 -71 26.5 -106.5t72.5 -35.5q22 0 41.5 6.5t35.5 17.5q13 23 18 50.5t5 60.5v191l-10 103l120 7v-295q0 -51 -13.5 -94t-40 -74t-66 -48.5t-90.5 -17.5q-47 0 -85.5 15t-66 44t-42.5 71.5t-15 98.5v190l-10 103zM202 710l26 95h13l84 -58l-90 -143l-68 25
zM420 789h13l71 -72l-82 -66l-54 -52l-60 34z" />
    <glyph glyph-name="ugrave.sc" horiz-adv-x="579" 
d="M190 517v-294q0 -71 26.5 -106.5t72.5 -35.5q22 0 41.5 6.5t35.5 17.5q13 23 18 50.5t5 60.5v191l-10 103l120 7v-295q0 -51 -13.5 -94t-40 -74t-66 -48.5t-90.5 -17.5q-47 0 -85.5 15t-66 44t-42.5 71.5t-15 98.5v190l-10 103zM240 813l51 -89l62 -89l-68 -34l-136 144
l77 68h14z" />
    <glyph glyph-name="umacron.sc" horiz-adv-x="579" 
d="M190 517v-294q0 -71 26.5 -106.5t72.5 -35.5q22 0 41.5 6.5t35.5 17.5q13 23 18 50.5t5 60.5v191l-10 103l120 7v-295q0 -51 -13.5 -94t-40 -74t-66 -48.5t-90.5 -17.5q-47 0 -85.5 15t-66 44t-42.5 71.5t-15 98.5v190l-10 103zM300 717l125 14l8 -8l-11 -94l-275 -8
l-9 8l17 81z" />
    <glyph glyph-name="uogonek.sc" horiz-adv-x="579" 
d="M190 517v-294q0 -71 26.5 -106.5t72.5 -35.5q22 0 41.5 6.5t35.5 17.5q13 23 18 50.5t5 60.5v191l-10 103l120 7v-295q0 -92 -42.5 -154t-124.5 -76q-5 -11 -7 -22.5t-2 -22.5q0 -26 17 -41.5t59 -15.5l5 -9l-33 -83q-66 0 -104.5 35.5t-38.5 91.5q0 38 16 67
q-75 12 -119.5 69t-44.5 156v190l-10 103z" />
    <glyph glyph-name="uring.sc" horiz-adv-x="579" 
d="M190 517v-294q0 -71 26.5 -106.5t72.5 -35.5q22 0 41.5 6.5t35.5 17.5q13 23 18 50.5t5 60.5v191l-10 103l120 7v-295q0 -51 -13.5 -94t-40 -74t-66 -48.5t-90.5 -17.5q-47 0 -85.5 15t-66 44t-42.5 71.5t-15 98.5v190l-10 103zM286 825q30 0 52.5 -10t38 -26.5t23.5 -38
t8 -44.5t-8.5 -44t-24.5 -37.5t-38.5 -26.5t-50.5 -10q-33 0 -56 10t-38 26.5t-22 37.5t-7 44t8.5 44.5t24.5 38t38.5 26.5t51.5 10zM286 748q-22 0 -35 -9q-4 -6 -5.5 -15t-1.5 -18q0 -19 11 -31t31 -12q18 0 32 8q8 14 8 35q0 19 -11 30.5t-29 11.5z" />
    <glyph glyph-name="utilde.sc" horiz-adv-x="579" 
d="M190 517v-294q0 -71 26.5 -106.5t72.5 -35.5q22 0 41.5 6.5t35.5 17.5q13 23 18 50.5t5 60.5v191l-10 103l120 7v-295q0 -51 -13.5 -94t-40 -74t-66 -48.5t-90.5 -17.5q-47 0 -85.5 15t-66 44t-42.5 71.5t-15 98.5v190l-10 103zM126 692q17 17 34.5 30.5t36.5 23.5
q10 3 22 3q21 0 37.5 -6t31.5 -14.5t30.5 -17t35.5 -12.5q27 9 53 30l40 -68q-32 -34 -73 -54q-5 -1 -10.5 -2t-11.5 -1q-21 0 -37.5 6.5t-31.5 14.5t-30.5 16.5t-35.5 12.5q-28 -10 -51 -30z" />
    <glyph glyph-name="v.sc" horiz-adv-x="519" 
d="M156 517l21 -114l87 -293h7l86 292l11 112h123v-14l-30 -119l-105 -284l-23 -97l-132 -6l-174 502v14z" />
    <glyph glyph-name="w.sc" horiz-adv-x="738" 
d="M155 517l10 -103l66 -292h9l60 280l12 107l120 5l88 -392h8l56 287l6 105h121v-14l-27 -141l-78 -269l-14 -89l-140 -5l-73 336h-8l-47 -225l-13 -105l-149 -6l-135 500v14z" />
    <glyph glyph-name="wcircumflex.sc" horiz-adv-x="738" 
d="M155 517l10 -103l66 -292h9l60 280l12 107l120 5l88 -392h8l56 287l6 105h121v-14l-27 -141l-78 -269l-14 -89l-140 -5l-73 336h-8l-47 -225l-13 -105l-149 -6l-135 500v14zM385 785l71 -63l73 -51v-14l-73 -64l-88 87l-93 -83l-64 52v14l76 57l72 65h26z" />
    <glyph glyph-name="x.sc" horiz-adv-x="523" 
d="M172 517l27 -77l63 -123h7l59 111l25 86h127v-13l-53 -105l-91 -134l160 -249v-13h-139l-26 76l-71 131h-7l-67 -122l-29 -85h-130v13l46 85l114 163l-144 236v14z" />
    <glyph glyph-name="y.sc" horiz-adv-x="514" 
d="M156 517l32 -105l78 -173h6l68 163l26 112h120v-12l-44 -120l-122 -238v-144h-110v144l-183 355v11z" />
    <glyph glyph-name="yacute.sc" horiz-adv-x="514" 
d="M156 517l32 -105l78 -173h6l68 163l26 112h120v-12l-44 -120l-122 -238v-144h-110v144l-183 355v11zM258 689l70 124h13l73 -68l-128 -144l-69 34z" />
    <glyph glyph-name="ycircumflex.sc" horiz-adv-x="514" 
d="M156 517l32 -105l78 -173h6l68 163l26 112h120v-12l-44 -120l-122 -238v-144h-110v144l-183 355v11zM279 785l71 -63l73 -51v-14l-73 -64l-88 87l-93 -83l-64 52v14l76 57l72 65h26z" />
    <glyph glyph-name="ydieresis.sc" horiz-adv-x="514" 
d="M156 517l32 -105l78 -173h6l68 163l26 112h120v-12l-44 -120l-122 -238v-144h-110v144l-183 355v11zM422 732v-116l-117 4l4 105zM231 733v-117l-117 5l4 102z" />
    <glyph glyph-name="z.sc" horiz-adv-x="490" 
d="M429 514l5 -73l-248 -351h64l182 14l8 -9l-10 -95h-375l-5 68l250 355h-70l-167 -15l-7 8l10 98h363z" />
    <glyph glyph-name="zacute.sc" horiz-adv-x="490" 
d="M429 514l5 -73l-248 -351h64l182 14l8 -9l-10 -95h-375l-5 68l250 355h-70l-167 -15l-7 8l10 98h363zM235 689l70 124h13l73 -68l-128 -144l-69 34z" />
    <glyph glyph-name="zcaron.sc" horiz-adv-x="490" 
d="M429 514l5 -73l-248 -351h64l182 14l8 -9l-10 -95h-375l-5 68l250 355h-70l-167 -15l-7 8l10 98h363zM250 700l89 83l65 -52v-14l-76 -58l-69 -64h-25l-67 58l-81 55v15l72 63z" />
    <glyph glyph-name="zdotaccent.sc" horiz-adv-x="490" 
d="M429 514l5 -73l-248 -351h64l182 14l8 -9l-10 -95h-375l-5 68l250 355h-70l-167 -15l-7 8l10 98h363zM311 741v-131l-129 4l4 116z" />
    <glyph glyph-name="eth.sc" horiz-adv-x="572" 
d="M268 514q54 0 99.5 -16t78.5 -48.5t51 -80.5t18 -112q0 -60 -16.5 -107.5t-48 -80.5t-77.5 -51t-105 -18h-173v204l-54 -1l-9 7l16 79l47 1v116l-10 108h183zM205 296l99 12l8 -8l-9 -91l-98 -3v-116h57q29 0 55 6t48 19q18 26 28 62.5t10 79.5q0 86 -35.5 126t-98.5 40
h-64v-127z" />
    <glyph glyph-name="thorn.sc" horiz-adv-x="504" 
d="M185 532v-85q33 10 81 10q43 0 78.5 -13.5t60.5 -38.5t39 -61t14 -80q0 -40 -14 -76t-39.5 -63t-61.5 -42.5t-79 -15.5q-21 0 -41.5 3t-37.5 9v-79h-110v420l-10 106zM185 169q17 -6 33 -8.5t33 -2.5q42 0 75 22q10 14 16 35.5t6 48.5q0 50 -25.5 76t-70.5 26
q-18 0 -35 -2t-32 -7v-188z" />
    <glyph glyph-name="germandbls.sc" horiz-adv-x="565" 
d="M257 280l82 137q-13 9 -32.5 14.5t-42.5 5.5q-43 0 -68 -23q-8 -17 -11.5 -39t-3.5 -46v-329h-109v325q0 42 13 79t37.5 64t61.5 42.5t85 15.5q45 0 81.5 -9.5t65.5 -26.5l63 -21v-15l-101 -141q30 -2 55.5 -14t44 -33t29.5 -50t11 -65t-12.5 -66t-34.5 -51.5
t-52.5 -33.5t-65.5 -12q-41 0 -74 11t-65 37l49 85q16 -14 30.5 -24t29.5 -18q13 -3 31 -3q21 0 41 10q16 30 16 66q0 39 -17 60.5t-52 21.5q-16 0 -30.5 -2.5t-28.5 -7.5z" />
    <glyph glyph-name="longs.sc" horiz-adv-x="509" 
d="M381 379q-39 32 -84 52q-8 2 -19.5 3.5t-22.5 1.5q-19 0 -37 -4t-31 -11q-11 -17 -11 -39q0 -30 24 -48t75 -25q87 -12 134.5 -51t47.5 -112q0 -37 -14.5 -66t-41.5 -49.5t-65 -31.5t-84 -11q-63 0 -111 14t-95 46l62 97q26 -22 51 -37t48 -25q25 -5 46 -5q47 0 79 16
q17 17 17 52q0 28 -22 45t-75 23q-88 10 -136 49.5t-48 111.5q0 33 13 60.5t37 48t59 31.5t80 11q117 0 192 -58z" />
    <glyph glyph-name="afii10065.sc" horiz-adv-x="550" 
d="M342 519l175 -505v-14h-121l-14 82l-12 38l-193 2l-11 -37l-9 -85h-125v14l155 412l7 85zM204 205l137 6l-62 199h-10z" />
    <glyph glyph-name="afii10066.sc" horiz-adv-x="514" 
d="M290 514l145 5l-13 -104l-147 9h-87v-114q15 7 31.5 12t33.5 10q8 1 15 1.5t15 0.5q84 0 134.5 -40t50.5 -121q0 -41 -15 -73t-41 -54.5t-62.5 -34t-79.5 -11.5h-190v409l-10 105h220zM270 88q40 0 69 15q20 25 20 69q0 35 -21.5 55t-65.5 20q-26 0 -46.5 -6t-37.5 -17
v-136h82z" />
    <glyph glyph-name="afii10067.sc" horiz-adv-x="522" 
d="M273 514q89 0 133.5 -38.5t44.5 -101.5q0 -31 -13.5 -57t-36.5 -40v-6q36 -14 55 -43t19 -71q0 -78 -52.5 -117.5t-143.5 -39.5h-199v416l-10 98h203zM188 88h90q20 0 37 3.5t31 8.5q19 19 19 56q0 33 -20.5 48t-62.5 15h-94v-131zM188 305h83q34 0 54 8q17 19 17 53
q0 29 -17.5 44.5t-58.5 15.5h-78v-121z" />
    <glyph glyph-name="afii10068.sc" horiz-adv-x="473" 
d="M279 514l147 4l-11 -105l-147 10h-77v-423h-111v410l-10 104h209z" />
    <glyph glyph-name="afii10069.sc" horiz-adv-x="605" 
d="M504 514v-423l60 5l9 -11l-10 -210h-90l-10 125h-322v-125h-93l-16 168v49h29q31 0 56 66t32 198l3 61l-11 97h363zM253 357q-3 -107 -18 -170t-38 -96h196v332h-138z" />
    <glyph glyph-name="afii10070.sc" horiz-adv-x="500" 
d="M439 514l-12 -98l-164 8h-74v-120h65l138 7l-7 -97l-196 6v-131h76l180 8l-5 -97h-360v410l-10 104h369z" />
    <glyph glyph-name="afii10071.sc" horiz-adv-x="500" 
d="M439 514l-12 -98l-164 8h-74v-120h65l138 7l-7 -97l-196 6v-131h76l180 8l-5 -97h-360v410l-10 104h369zM415 732v-116l-117 4l4 105zM224 733v-117l-117 5l4 102z" />
    <glyph glyph-name="afii10073.sc" horiz-adv-x="509" 
d="M236 307h22q25 0 44 8q16 17 16 51q0 32 -20 50.5t-65 18.5q-9 0 -19.5 -1t-19.5 -3q-19 -11 -37 -23t-36 -29l-66 84q78 63 187 63q45 0 79.5 -11.5t58 -31.5t35.5 -47t12 -58q0 -34 -12 -58.5t-32 -38.5v-7q33 -17 51 -47.5t18 -72.5q0 -38 -14.5 -68.5t-42 -52
t-67 -33.5t-88.5 -12q-63 0 -114.5 19t-95.5 64l63 74q63 -67 144 -67q49 0 85 17q20 23 20 61q0 35 -19 51t-64 16h-22l-65 -8l-13 89l7 8z" />
    <glyph glyph-name="afii10074.sc" horiz-adv-x="581" 
d="M189 517v-210l-5 -136h5l206 343h106v-514h-110v134l6 200h-5l-210 -338l-102 5v358l-10 151z" />
    <glyph glyph-name="afii10075.sc" horiz-adv-x="581" 
d="M189 517v-210l-5 -136h5l206 343h106v-514h-110v134l6 200h-5l-210 -338l-102 5v358l-10 151zM237 760q7 -77 56 -77q23 0 39 11q11 24 11 59l93 12q0 -42 -11 -72.5t-30.5 -50.5t-47 -29.5t-59.5 -9.5q-59 0 -98 37t-47 103z" />
    <glyph glyph-name="afii10076.sc" horiz-adv-x="560" 
d="M191 517v-208h28q31 0 55 8q21 24 27 71q9 65 42.5 100t90.5 35q19 0 36.5 -3.5t32.5 -9.5l-11 -90q-19 0 -35.5 -1t-31.5 -5q-10 -11 -17.5 -29.5t-11.5 -43.5q-10 -55 -49 -81q35 -69 76 -127.5t95 -116.5v-16l-124 -4q-45 55 -76.5 108.5t-57.5 113.5l-69 3v-221h-111
v407l-10 103z" />
    <glyph glyph-name="afii10077.sc" horiz-adv-x="586" 
d="M506 514v-514h-111v423h-131l-4 -91q-5 -113 -21 -180t-42 -105q-37 -55 -119 -55q-17 0 -34 3.5t-34 11.5l24 92q17 -7 38 -7q28 0 41 22q20 34 29 89.5t14 134.5l4 70l-11 106h357z" />
    <glyph glyph-name="afii10078.sc" horiz-adv-x="702" 
d="M239 517l113 -378h7l106 375h143l41 -514h-116v109l-14 265h-7l-24 -104l-88 -270h-98l-86 262l-27 113h-7l-15 -259v-116h-115l43 406v104z" />
    <glyph glyph-name="afii10079.sc" horiz-adv-x="573" 
d="M191 517v-214l194 6v97l-10 104l121 7v-517h-111v212l-194 4v-216h-111v406l-10 104z" />
    <glyph glyph-name="afii10080.sc" horiz-adv-x="574" 
d="M287 526q52 0 94.5 -17.5t73 -52t47 -84.5t16.5 -115q0 -60 -16.5 -109.5t-47 -85t-73 -55t-94.5 -19.5t-94.5 17.5t-73 51.5t-47 84.5t-16.5 115.5q0 60 16.5 109.5t47 85t73 55t94.5 19.5zM287 435q-23 0 -44.5 -6t-37.5 -19q-19 -29 -28 -68.5t-9 -84.5
q0 -95 33 -136.5t86 -41.5q23 0 44.5 6t38.5 19q19 28 27.5 68t8.5 85q0 48 -9 81.5t-24.5 55t-37.5 31.5t-48 10z" />
    <glyph glyph-name="afii10081.sc" horiz-adv-x="572" 
d="M492 514v-514h-111v422h-191v-422h-110v406l-10 108h422z" />
    <glyph glyph-name="afii10082.sc" horiz-adv-x="515" 
d="M264 514q45 0 83 -11t65.5 -33.5t42.5 -55.5t15 -77q0 -41 -14 -74.5t-39.5 -57t-60.5 -36.5t-77 -13q-50 0 -90 15v-171h-109v412l-10 102h194zM189 259q20 -6 40.5 -9t39.5 -3q20 0 38 4.5t32 12.5q20 26 20 72q0 42 -24.5 65t-72.5 23h-73v-165z" />
    <glyph glyph-name="afii10083.sc" horiz-adv-x="530" 
d="M393 375q-17 17 -37 31.5t-43 25.5q-12 3 -28 3q-20 0 -40.5 -6t-37.5 -18q-20 -28 -29.5 -67t-9.5 -87q0 -84 35 -130.5t88 -46.5q75 0 123 57l63 -66q-36 -45 -83.5 -64t-107.5 -19q-56 0 -98.5 20t-72 55.5t-44.5 85t-15 108.5q0 61 17 111t48 85t74 54t94 19
q109 0 178 -64z" />
    <glyph glyph-name="afii10084.sc" horiz-adv-x="478" 
d="M173 514h131l145 5l-6 -106l-125 8h-27v-421h-109v421h-30l-124 -8l6 105z" />
    <glyph glyph-name="afii10085.sc" horiz-adv-x="506" 
d="M158 517l39 -126l69 -153h6l64 177l21 99h122v-13l-49 -128l-101 -217l-16 -47q-20 -60 -56 -90.5t-87 -30.5q-20 0 -40.5 3t-36.5 9l16 93q24 -7 49 -7q26 0 42 11q9 16 13 38l-186 363v12z" />
    <glyph glyph-name="afii10086.sc" horiz-adv-x="675" 
d="M392 534v-96q11 5 26.5 7.5t32.5 2.5q84 0 131 -49t47 -137q0 -43 -13.5 -78t-37.5 -59.5t-56.5 -38t-69.5 -13.5q-17 0 -32 2.5t-28 7.5v-83h-110v83q-11 -5 -27.5 -7.5t-33.5 -2.5q-81 0 -128 49t-47 137q0 43 13.5 77.5t37.5 59.5t57 38.5t71 13.5q31 0 55 -9l-8 87z
M441 358q-13 0 -24.5 -2t-24.5 -7v-176q14 -6 27 -8t25 -2q31 0 55 13q22 34 22 88q0 45 -19 69.5t-61 24.5zM236 163q25 0 46 10v176q-11 4 -23.5 6.5t-25.5 2.5q-16 0 -31 -3.5t-26 -11.5q-22 -33 -22 -85q0 -43 20.5 -69t61.5 -26z" />
    <glyph glyph-name="afii10087.sc" horiz-adv-x="523" 
d="M172 517l27 -77l63 -123h7l59 111l25 86h127v-13l-53 -105l-91 -134l160 -249v-13h-139l-26 76l-71 131h-7l-67 -122l-29 -85h-130v13l46 85l114 163l-144 236v14z" />
    <glyph glyph-name="afii10088.sc" horiz-adv-x="582" 
d="M190 517v-426h178v315l-11 104l121 7v-424l63 4l9 -9l-10 -213h-91l-10 125h-359v406l-10 104z" />
    <glyph glyph-name="afii10089.sc" horiz-adv-x="550" 
d="M176 517v-167q0 -51 23 -77.5t65 -26.5q28 0 52 8t43 22v133l-10 101l121 7v-517h-111v184q-16 -9 -35.5 -16.5t-39.5 -12.5q-8 -1 -17 -1.5t-17 -0.5q-89 0 -136.5 50t-47.5 136v70l-10 101z" />
    <glyph glyph-name="afii10090.sc" horiz-adv-x="799" 
d="M190 517v-427h154v317l-10 103l120 7v-427h155v317l-10 103l120 7v-517h-639v407l-10 103z" />
    <glyph glyph-name="afii10091.sc" horiz-adv-x="822" 
d="M190 517v-427h154v317l-10 103l120 7v-427h155v317l-10 103l120 7v-424l64 4l7 -8l-9 -214h-90l-10 125h-601v407l-10 103z" />
    <glyph glyph-name="afii10092.sc" horiz-adv-x="567" 
d="M154 514h97v-192q31 14 59 23q8 1 17 1.5t17 0.5q40 0 74 -10.5t58.5 -31.5t38.5 -53t14 -74t-14.5 -75t-40.5 -56t-62 -35t-78 -12h-193v424h-20l-91 -5l7 99zM326 89q20 0 37.5 3t32.5 11q11 13 17 31.5t6 41.5q0 40 -22.5 61.5t-67.5 21.5q-20 0 -40.5 -5.5
t-37.5 -14.5v-150h75z" />
    <glyph glyph-name="afii10093.sc" horiz-adv-x="719" 
d="M639 517v-517h-110v406l-10 104zM186 517v-194q15 7 30 12.5t30 9.5q6 1 14.5 1.5t17.5 0.5q40 0 74 -10.5t59 -31.5t38.5 -53t13.5 -74t-14.5 -75t-40.5 -56t-62 -35t-78 -12h-192v407l-10 103zM260 89q39 0 70 14q11 13 17 31.5t6 41.5q0 82 -90 82q-43 0 -77 -20v-149
h74z" />
    <glyph glyph-name="afii10094.sc" horiz-adv-x="505" 
d="M186 517v-195q31 16 62 23q7 1 16 1.5t17 0.5q40 0 74 -10.5t59 -31.5t39 -53t14 -74t-14.5 -75t-40.5 -56t-62.5 -35t-80.5 -12h-193v409l-10 101zM261 89q43 0 73 14q23 26 23 73q0 82 -91 82q-46 0 -80 -20v-149h75z" />
    <glyph glyph-name="afii10095.sc" horiz-adv-x="506" 
d="M47 465q35 29 79 45t93 16q55 0 98 -18.5t72.5 -53t45 -83t15.5 -108.5q0 -63 -15 -114t-45 -86.5t-74.5 -55t-104.5 -19.5q-51 0 -94.5 17.5t-80.5 56.5l59 73q29 -30 58 -43t60 -13q26 0 48.5 7t40.5 18q28 47 34 114h-40l-120 -10l-10 92l9 10l121 -7h40
q-7 65 -37 98.5t-85 33.5q-16 0 -28 -3q-43 -23 -80 -60z" />
    <glyph glyph-name="afii10096.sc" horiz-adv-x="761" 
d="M482 526q103 0 163 -68.5t60 -201.5q0 -59 -15 -108.5t-44 -85.5t-70.5 -56t-93.5 -20q-94 0 -151.5 57t-67.5 169h-74v-212h-109v409l-10 101l119 7v-216l75 6q6 49 23.5 89t45.5 69t65.5 45t83.5 16zM482 435q-43 0 -75 -24q-37 -58 -37 -155q0 -48 8 -82t23 -55.5
t35.5 -31.5t45.5 -10q21 0 40.5 6t34.5 17q37 58 37 156q0 96 -31 137.5t-81 41.5z" />
    <glyph glyph-name="afii10097.sc" horiz-adv-x="540" 
d="M460 0h-110v186q-17 -6 -36.5 -11t-41.5 -8q-13 -42 -30 -75t-42 -58q-41 -41 -100 -41q-16 0 -33 2.5t-32 10.5l15 97q12 -5 22.5 -6.5t19.5 -1.5q8 0 15.5 1t15.5 3q30 33 51 80q-48 19 -76 58.5t-28 99.5q0 41 15.5 74t42.5 56t63.5 35t79.5 12h189v-514zM279 423
q-43 0 -75 -16q-23 -27 -23 -71q0 -38 23 -59.5t65 -21.5q23 0 44 5.5t37 15.5v147h-71z" />
    <glyph glyph-name="afii10098.sc" horiz-adv-x="470" 
d="M313 514l25 112l81 7l6 -8l-13 -210l-148 8h-76v-423h-111v416l-10 98h246z" />
    <glyph glyph-name="afii10099.sc" horiz-adv-x="625" 
d="M166 514h137l147 5l-5 -102l-128 7h-27v-116q20 8 38 15.5t37 12.5q6 1 14 1.5t16 0.5q88 0 130 -44t42 -122v-71q0 -78 -48 -129.5t-147 -70.5l-25 101q23 5 47 11t44 13q10 15 14.5 34t4.5 39v61q0 43 -19.5 65t-61.5 22q-24 0 -46.5 -8t-39.5 -19v-220h-110v424
l-29 -1l-123 -6l5 101z" />
    <glyph glyph-name="afii10100.sc" horiz-adv-x="473" 
d="M279 514l147 4l-11 -105l-147 10h-77v-423h-111v410l-10 104h209zM252 689l70 124h13l73 -68l-128 -144l-69 34z" />
    <glyph glyph-name="afii10101.sc" horiz-adv-x="528" 
d="M392 375q-17 17 -36.5 31t-42.5 26q-12 3 -28 3q-21 0 -41.5 -6t-37.5 -18q-28 -40 -36 -105h67l101 7l9 -9l-12 -93l-109 9h-57q8 -67 41.5 -103.5t81.5 -36.5q73 0 121 57l63 -66q-36 -45 -83 -64t-107 -19q-57 0 -100 20t-72 55.5t-43.5 85t-14.5 108.5q0 61 17 111
t48 85t74 54t94 19q56 0 100 -16.5t77 -48.5z" />
    <glyph glyph-name="afii10102.sc" horiz-adv-x="509" 
d="M381 379q-39 32 -84 52q-8 2 -19.5 3.5t-22.5 1.5q-19 0 -37 -4t-31 -11q-11 -17 -11 -39q0 -30 24 -48t75 -25q87 -12 134.5 -51t47.5 -112q0 -37 -14.5 -66t-41.5 -49.5t-65 -31.5t-84 -11q-63 0 -111 14t-95 46l62 97q26 -22 51 -37t48 -25q25 -5 46 -5q47 0 79 16
q17 17 17 52q0 28 -22 45t-75 23q-88 10 -136 49.5t-48 111.5q0 33 13 60.5t37 48t59 31.5t80 11q117 0 192 -58z" />
    <glyph glyph-name="afii10103.sc" horiz-adv-x="271" 
d="M191 517v-517h-111v407l-10 103z" />
    <glyph glyph-name="afii10104.sc" horiz-adv-x="271" 
d="M191 517v-517h-111v407l-10 103zM291 737v-124l-122 4l6 113zM102 739v-126l-121 4l4 110z" />
    <glyph glyph-name="afii10105.sc" horiz-adv-x="271" 
d="M191 517v-453q0 -97 -51 -155.5t-148 -75.5l-31 97q53 8 96 25q12 14 19.5 35.5t7.5 53.5v31l-4 55v278l-10 102z" />
    <glyph glyph-name="afii10106.sc" horiz-adv-x="805" 
d="M499 514v-192q16 8 30 13.5t28 9.5q7 1 15.5 1.5t16.5 0.5q81 0 130 -42t49 -127t-53 -131.5t-142 -46.5h-184v423h-125l-4 -91q-5 -113 -21 -180t-42 -105q-37 -55 -119 -55q-17 0 -34 3.5t-34 11.5l24 92q17 -7 38 -7q28 0 41 22q20 34 29 89.5t14 134.5l4 70l-11 106
h350zM566 89q38 0 68 14q24 27 24 73q0 40 -19 61t-64 21q-23 0 -41 -5t-35 -15v-149h67z" />
    <glyph glyph-name="afii10107.sc" horiz-adv-x="793" 
d="M191 517v-214l185 6v97l-10 104l121 7v-195q14 8 28 13.5t30 9.5q7 1 15.5 1.5t16.5 0.5q81 0 130 -42t49 -127t-53 -131.5t-143 -46.5h-184v212l-185 4v-216h-111v406l-10 104zM553 89q39 0 69 14q24 27 24 73q0 40 -19 61t-64 21q-23 0 -41 -5t-35 -15v-149h66z" />
    <glyph glyph-name="afii10108.sc" horiz-adv-x="625" 
d="M166 514h137l147 5l-5 -102l-128 7h-27v-116q20 8 38 15.5t37 12.5q6 1 14 1.5t16 0.5q88 0 130 -44t42 -122v-172h-110v160q0 43 -19.5 65t-61.5 22q-24 0 -46.5 -8t-39.5 -19v-220h-110v424l-29 -1l-123 -6l5 101z" />
    <glyph glyph-name="afii10109.sc" horiz-adv-x="560" 
d="M191 517v-208h28q31 0 55 8q21 24 27 71q9 65 42.5 100t90.5 35q19 0 36.5 -3.5t32.5 -9.5l-11 -90q-19 0 -35.5 -1t-31.5 -5q-10 -11 -17.5 -29.5t-11.5 -43.5q-10 -55 -49 -81q35 -69 76 -127.5t95 -116.5v-16l-124 -4q-45 55 -76.5 108.5t-57.5 113.5l-69 3v-221h-111
v407l-10 103zM277 689l70 124h13l73 -68l-128 -144l-69 34z" />
    <glyph glyph-name="afii10110.sc" horiz-adv-x="506" 
d="M158 517l39 -126l69 -153h6l64 177l21 99h122v-13l-49 -128l-101 -217l-16 -47q-20 -60 -56 -90.5t-87 -30.5q-20 0 -40.5 3t-36.5 9l16 93q24 -7 49 -7q26 0 42 11q9 16 13 38l-186 363v12zM204 760q7 -77 56 -77q23 0 39 11q11 24 11 59l93 12q0 -42 -11 -72.5
t-30.5 -50.5t-47 -29.5t-59.5 -9.5q-59 0 -98 37t-47 103z" />
    <glyph glyph-name="afii10193.sc" horiz-adv-x="572" 
d="M191 517v-426h191v321l-11 97l121 8v-517h-152l-8 -125h-90l-8 125h-154v412l-10 97z" />
    <glyph glyph-name="ampersand.sc" horiz-adv-x="541" 
d="M470 322q8 -26 11 -50.5t3 -48.5q0 -48 -14 -87t-39 -68l60 -88v-12l-104 -22l-33 64q-52 -22 -111 -22q-48 0 -85 14t-62.5 39t-39 59t-13.5 74q0 48 20 87t56 65q-5 14 -7.5 28.5t-2.5 30.5q0 28 10 53.5t29.5 45t48 31t66.5 11.5q101 0 165 -62l-69 -85q-27 32 -63 55
q-15 5 -35 5q-23 0 -41 -10q-11 -17 -11 -45q0 -22 7 -40.5t18 -32.5l142 -175q13 34 13 70l-26 88zM257 76q12 0 24 1t23 4l-138 170q-18 -30 -18 -72q0 -45 28.5 -74t80.5 -29z" />
    <glyph glyph-name="idotaccent.sc" horiz-adv-x="271" 
d="M191 517v-517h-111v407l-10 103zM200 741v-131l-129 4l4 116z" />
    <glyph glyph-name="adblgrave.sc" horiz-adv-x="550" 
d="M342 519l175 -505v-14h-121l-14 82l-12 38l-193 2l-11 -37l-9 -85h-125v14l155 412l7 85zM204 205l137 6l-62 199h-10zM304 805h13l28 -95l33 -81l-68 -25l-91 143zM112 789h13l114 -156l-62 -34l-52 51l-85 67z" />
    <glyph glyph-name="acircum.sc" horiz-adv-x="550" 
d="M342 519l175 -505v-14h-121l-14 82l-12 38l-193 2l-11 -37l-9 -85h-125v14l155 412l7 85zM204 205l137 6l-62 199h-10zM289 785l71 -63l73 -51v-14l-73 -64l-88 87l-93 -83l-64 52v14l76 57l72 65h26z" />
    <glyph glyph-name="edblgrave.sc" horiz-adv-x="500" 
d="M439 514l-12 -98l-164 8h-74v-120h65l138 7l-7 -97l-196 6v-131h76l180 8l-5 -97h-360v410l-10 104h369zM312 805h13l28 -95l33 -81l-68 -25l-91 143zM120 789h13l114 -156l-62 -34l-52 51l-85 67z" />
    <glyph glyph-name="ecircum.sc" horiz-adv-x="500" 
d="M439 514l-12 -98l-164 8h-74v-120h65l138 7l-7 -97l-196 6v-131h76l180 8l-5 -97h-360v410l-10 104h369zM275 785l71 -63l73 -51v-14l-73 -64l-88 87l-93 -83l-64 52v14l76 57l72 65h26z" />
    <glyph glyph-name="idblgrave.sc" horiz-adv-x="271" 
d="M191 517v-517h-111v407l-10 103zM181 819l14 -2l23 -104l25 -87l-68 -22l-79 168zM0 811l15 -2l99 -173l-60 -37l-38 52l-90 97z" />
    <glyph glyph-name="icircum.sc" horiz-adv-x="271" 
d="M191 517v-517h-111v407l-10 103zM151 785l71 -63l73 -51v-14l-73 -64l-88 87l-93 -83l-64 52v14l76 57l72 65h26z" />
    <glyph glyph-name="napostrophe.sc" horiz-adv-x="703" 
d="M306 517l163 -253l60 -104l-7 149v98l-10 103l116 7v-514l-101 -8l-149 227l-74 125l7 -147v-200h-105v389l-10 121zM143 645l6 -19l-56 -195l-80 18l16 108v83z" />
    <glyph glyph-name="odblgrave.sc" horiz-adv-x="574" 
d="M287 526q52 0 94.5 -17.5t73 -52t47 -84.5t16.5 -115q0 -60 -16.5 -109.5t-47 -85t-73 -55t-94.5 -19.5t-94.5 17.5t-73 51.5t-47 84.5t-16.5 115.5q0 60 16.5 109.5t47 85t73 55t94.5 19.5zM287 435q-23 0 -44.5 -6t-37.5 -19q-19 -29 -28 -68.5t-9 -84.5
q0 -95 33 -136.5t86 -41.5q23 0 44.5 6t38.5 19q19 28 27.5 68t8.5 85q0 48 -9 81.5t-24.5 55t-37.5 31.5t-48 10zM328 805h13l28 -95l33 -81l-68 -25l-91 143zM136 789h13l114 -156l-62 -34l-52 51l-85 67z" />
    <glyph glyph-name="ocircum.sc" horiz-adv-x="574" 
d="M287 526q52 0 94.5 -17.5t73 -52t47 -84.5t16.5 -115q0 -60 -16.5 -109.5t-47 -85t-73 -55t-94.5 -19.5t-94.5 17.5t-73 51.5t-47 84.5t-16.5 115.5q0 60 16.5 109.5t47 85t73 55t94.5 19.5zM287 435q-23 0 -44.5 -6t-37.5 -19q-19 -29 -28 -68.5t-9 -84.5
q0 -95 33 -136.5t86 -41.5q23 0 44.5 6t38.5 19q19 28 27.5 68t8.5 85q0 48 -9 81.5t-24.5 55t-37.5 31.5t-48 10zM302 785l71 -63l73 -51v-14l-73 -64l-88 87l-93 -83l-64 52v14l76 57l72 65h26z" />
    <glyph glyph-name="rdblgrave.sc" horiz-adv-x="541" 
d="M271 514q92 0 147.5 -45.5t55.5 -128.5q0 -59 -31 -99t-79 -58q28 -46 59.5 -87.5t67.5 -80.5v-15l-119 -5q-32 42 -58.5 86t-46.5 90q-44 3 -78 15v-186h-109v411l-10 103h201zM189 273q20 -6 41.5 -9t41.5 -3q45 0 74 18q18 25 18 61q0 40 -25.5 62t-73.5 22h-76v-151z
M314 805h13l28 -95l33 -81l-68 -25l-91 143zM122 789h13l114 -156l-62 -34l-52 51l-85 67z" />
    <glyph glyph-name="rcircum.sc" horiz-adv-x="541" 
d="M271 514q92 0 147.5 -45.5t55.5 -128.5q0 -59 -31 -99t-79 -58q28 -46 59.5 -87.5t67.5 -80.5v-15l-119 -5q-32 42 -58.5 86t-46.5 90q-44 3 -78 15v-186h-109v411l-10 103h201zM189 273q20 -6 41.5 -9t41.5 -3q45 0 74 18q18 25 18 61q0 40 -25.5 62t-73.5 22h-76v-151z
M281 785l71 -63l73 -51v-14l-73 -64l-88 87l-93 -83l-64 52v14l76 57l72 65h26z" />
    <glyph glyph-name="tcedilla.sc" horiz-adv-x="478" 
d="M173 514h131l145 5l-6 -106l-125 8h-27v-366q22 -14 34 -38t12 -57q0 -58 -45.5 -101.5t-143.5 -55.5l-8 7l15 89q27 1 48.5 6.5t38.5 14.5q5 7 6.5 16t1.5 20q0 43 -41 43q-19 0 -32 -6l-12 15l17 72v341h-30l-124 -8l6 105z" />
    <glyph glyph-name="udblgrave.sc" horiz-adv-x="579" 
d="M190 517v-294q0 -71 26.5 -106.5t72.5 -35.5q22 0 41.5 6.5t35.5 17.5q13 23 18 50.5t5 60.5v191l-10 103l120 7v-295q0 -51 -13.5 -94t-40 -74t-66 -48.5t-90.5 -17.5q-47 0 -85.5 15t-66 44t-42.5 71.5t-15 98.5v190l-10 103zM336 805h13l28 -95l33 -81l-68 -25
l-91 143zM144 789h13l114 -156l-62 -34l-52 51l-85 67z" />
    <glyph glyph-name="ucircum.sc" horiz-adv-x="579" 
d="M190 517v-294q0 -71 26.5 -106.5t72.5 -35.5q22 0 41.5 6.5t35.5 17.5q13 23 18 50.5t5 60.5v191l-10 103l120 7v-295q0 -51 -13.5 -94t-40 -74t-66 -48.5t-90.5 -17.5q-47 0 -85.5 15t-66 44t-42.5 71.5t-15 98.5v190l-10 103zM301 785l71 -63l73 -51v-14l-73 -64
l-88 87l-93 -83l-64 52v14l76 57l72 65h26z" />
    <glyph glyph-name="perthousand" unicode="&#x2030;" horiz-adv-x="1116" 
d="M197 620q36 0 64 -11.5t47 -32t29 -48t10 -60.5q0 -31 -11 -58.5t-30.5 -48.5t-47.5 -33t-61 -12q-36 0 -64 11.5t-47 32t-29 48.5t-10 60q0 31 11 59t30.5 48.5t47.5 32.5t61 12zM197 536q-25 0 -44 -14q-7 -10 -10 -24t-3 -30q0 -67 57 -67q24 0 44 13q13 19 13 54
q0 32 -14.5 50t-42.5 18zM576 291q36 0 64 -11.5t47 -32t29 -48t10 -60.5q0 -31 -11 -58.5t-30.5 -48t-47.5 -32.5t-61 -12q-36 0 -64 11.5t-47 31.5t-29 48t-10 60q0 31 11 59t30.5 48.5t47.5 32.5t61 12zM576 207q-25 0 -44 -14q-7 -10 -10 -24t-3 -30q0 -32 14.5 -49.5
t42.5 -17.5q25 0 44 14q13 19 13 53q0 32 -14.5 50t-42.5 18zM918 291q36 0 64 -11.5t47 -32t29 -48t10 -60.5q0 -31 -11 -58.5t-30.5 -48t-47.5 -32.5t-61 -12q-36 0 -64 11.5t-47 31.5t-29 48t-10 60q0 31 11 59t30.5 48.5t47.5 32.5t61 12zM918 207q-25 0 -44 -14
q-7 -10 -10 -24t-3 -30q0 -32 14.5 -49.5t42.5 -17.5q25 0 44 14q13 19 13 53q0 32 -14.5 50t-42.5 18zM648 565l-230 -288l-220 -306l-91 46l238 298l220 309z" />
    <glyph glyph-name="mu" unicode="&#xb5;" horiz-adv-x="524" 
d="M176 435v-269q0 -43 17.5 -63.5t48.5 -20.5q56 0 96 64v186l-9 94l120 9v-314l37 -88l-104 -44l-29 63q-35 -36 -78 -60q-17 -3 -38 -3q-39 0 -64 22v-111l14 -121h-122v553l-9 94z" />
    <glyph glyph-name="zero.tab" 
d="M301 643q118 0 182 -86t64 -242q0 -73 -17 -133.5t-49 -103.5t-77.5 -67t-102.5 -24q-118 0 -182.5 86t-64.5 242q0 73 17 133t49.5 103.5t78 67.5t102.5 24zM208 511q-21 -37 -31 -87.5t-10 -108.5q0 -119 35 -175.5t101 -56.5q27 0 50 9t40 26q21 37 31 88t10 109
q0 118 -34.5 175t-101.5 57q-54 0 -90 -36z" />
    <glyph glyph-name="nine.tab" 
d="M131 95q107 9 181 34q35 28 55.5 63.5t28.5 83.5q-20 -12 -41.5 -21t-44.5 -17q-8 -1 -17 -1.5t-19 -0.5q-91 0 -141 54.5t-50 145.5q0 41 15 78.5t43 66t68 45.5t91 17q103 0 159.5 -70.5t56.5 -197.5q0 -168 -88 -268.5t-271 -119.5zM400 365q2 13 2.5 26.5t0.5 24.5
q0 63 -28 99.5t-75 36.5q-50 0 -82 -24q-24 -38 -24 -93q0 -56 25 -82.5t73 -26.5q64 0 108 39z" />
    <glyph glyph-name="five.tab" 
d="M145 161q27 -29 51 -46.5t48 -30.5q8 -2 16.5 -2.5t16.5 -0.5q29 0 53 5.5t42 15.5q16 19 24 45t8 56q0 118 -107 118q-66 0 -103 -41l-66 22l22 328h143l195 9l10 -11l-15 -104l-160 11h-78l-14 -141q40 17 86 17q95 0 148 -55.5t53 -150.5q0 -50 -18 -90t-49.5 -68.5
t-73.5 -44t-91 -15.5q-67 0 -117 19t-97 65z" />
    <glyph glyph-name="space.tab" 
 />
    <glyph glyph-name="one.tab" 
d="M112 91l150 7v354l-99 -65l-50 69l114 95l71 84l82 -10l-8 -129v-399l114 -6v-91h-374v91z" />
    <glyph glyph-name="zero.slash.tab" 
d="M301 643q118 0 182 -86t64 -242q0 -73 -17 -133.5t-49 -103.5t-77.5 -67t-102.5 -24q-118 0 -182.5 86t-64.5 242q0 73 17 133t49.5 103.5t78 67.5t102.5 24zM208 511q-21 -37 -31 -87.5t-10 -108.5q0 -37 3 -68l235 232q-34 68 -107 68q-54 0 -90 -36zM434 315
q0 31 -3 60l-237 -221q34 -71 109 -71q27 0 50 9t40 26q21 37 31 88t10 109z" />
    <glyph glyph-name="two.tab" 
d="M94 80l204 174q25 21 43.5 40t32.5 38q9 23 13 49.5t4 56.5q0 54 -27.5 83t-78.5 29q-22 0 -44 -8q-21 -14 -40.5 -31t-39.5 -40l-73 88q42 42 91.5 63t114.5 21q48 0 86.5 -14t65.5 -40t42 -63t15 -84q0 -81 -34.5 -141.5t-105.5 -114.5l-123 -94h56l200 16l10 -11
l-10 -102l-187 5h-203z" />
    <glyph glyph-name="three.tab" 
d="M292 376h18q22 0 42 6q28 29 28 78q0 45 -21.5 67.5t-69.5 22.5q-22 0 -37 -4q-44 -20 -85 -59l-69 86q86 70 195 70q96 0 147.5 -47.5t51.5 -127.5q0 -38 -14.5 -70.5t-41.5 -52.5v-7q41 -18 63 -55t22 -88q0 -50 -17 -89t-48 -65.5t-75 -40t-97 -13.5q-63 0 -116 22
t-96 70l70 84q26 -26 51 -45t50 -33q10 -2 21 -3t21 -1q54 0 94 20q14 16 21.5 39.5t7.5 49.5q0 94 -93 94h-20l-67 -9l-17 96l10 10z" />
    <glyph glyph-name="four.tab" 
d="M376 625l8 -13q-17 -82 -51.5 -156t-80.5 -141l-79 -115h183v78l14 89l95 10v-180l79 7l-11 -97h-68v-107h-109v107h-291l-11 82l113 177q38 59 62 125.5t34 142.5z" />
    <glyph glyph-name="six.tab" 
d="M471 534q-48 -4 -94.5 -13t-90.5 -23q-35 -27 -55.5 -62t-27.5 -83q20 13 41 22.5t44 15.5q8 2 17 2h19q45 0 80.5 -14.5t60 -40.5t37.5 -62.5t13 -81.5q0 -41 -15 -78.5t-43 -66t-68.5 -45.5t-91.5 -17q-105 0 -159.5 69.5t-54.5 197.5q0 79 24 146.5t70 118.5
t113.5 83.5t155.5 40.5zM198 264q-3 -26 -3 -51q0 -64 27.5 -99t73.5 -35q25 0 47 6t37 17q12 19 18 43t6 50q0 57 -25 83t-72 26q-33 0 -59.5 -10.5t-49.5 -29.5z" />
    <glyph glyph-name="seven.tab" 
d="M253 630h244l6 -79l-80 -139q-38 -66 -63 -138.5t-36 -144.5v-129h-122q0 121 37 231t95 213l52 93h-77l-203 -11l-9 12l15 96z" />
    <glyph glyph-name="eight.tab" 
d="M300 643q43 0 78 -12t60.5 -34.5t39.5 -54.5t14 -71q0 -79 -56 -132q42 -26 65.5 -65.5t23.5 -90.5q0 -44 -16.5 -80t-46.5 -61.5t-71.5 -40t-90.5 -14.5q-53 0 -95 14.5t-71 40t-45 61.5t-16 78q0 51 20.5 94t58.5 75q-23 23 -35 52.5t-12 65.5t14 68t39.5 55.5
t61.5 37.5t80 14zM292 286q-17 2 -32.5 6.5t-29.5 9.5q-25 -23 -36 -51.5t-11 -62.5q0 -48 31 -77.5t86 -29.5q52 0 86 20q14 16 21 37t7 44q0 42 -28 67.5t-94 36.5zM318 381q9 -2 17.5 -3.5t16.5 -3.5q18 19 25 41.5t7 54.5q0 42 -23 62t-61 20q-19 0 -38 -4.5t-32 -13.5
q-8 -12 -12 -28t-4 -33q0 -38 22.5 -60.5t81.5 -31.5z" />
    <glyph glyph-name="dollar.tab" 
d="M431 464q-18 19 -38.5 34t-47.5 29q-8 2 -19 3t-20 1q-26 0 -45.5 -4.5t-36.5 -14.5q-18 -24 -18 -57q0 -39 27 -61.5t90 -32.5q101 -15 148.5 -62t47.5 -128q0 -71 -45.5 -117.5t-122.5 -59.5l4 -117l-109 -11l6 125q-50 4 -91.5 19t-81.5 45l62 98q29 -25 57 -41
t57 -27q21 -3 42 -3q29 0 51 4t38 15q26 29 26 68q0 42 -25 63t-90 29q-97 12 -147.5 59.5t-50.5 125.5q0 68 41.5 113.5t111.5 58.5l-4 112l110 11l-6 -122q89 -12 151 -64z" />
    <glyph glyph-name="Euro.tab" 
d="M385 275l-10 -94l-133 10h-16q16 -54 51 -81t83 -27q40 0 75 17t63 55l63 -73q-42 -51 -94.5 -73t-112.5 -22q-103 0 -162.5 55t-80.5 149h-74l12 84h336zM113 414q24 99 88 154t159 55q58 0 105 -17.5t81 -49.5l-72 -95q-19 20 -42 36t-46 28q-8 2 -17.5 3t-19.5 1
q-23 0 -47.5 -8t-44.5 -23q-23 -38 -34 -84h19l159 10l-10 -94h-341l12 84h51z" />
    <glyph glyph-name="sterling.tab" 
d="M523 34q-32 -24 -71 -35.5t-83 -11.5q-25 0 -44 5t-36 10.5t-34.5 10.5t-38.5 5q-26 0 -49.5 -7.5t-43.5 -21.5l-44 73q20 13 35 24.5t26 24.5q7 20 11 43.5t4 48.5q0 2 -0.5 4.5t-0.5 4.5l-62 -12l-16 82l59 13q-10 26 -19 54t-9 66q0 42 16 79.5t48 66t80 45.5t111 17
l16 -105q-41 -2 -79 -7t-64 -15q-20 -35 -20 -81q0 -29 7 -50.5t16 -43.5l121 35l21 -98l-116 -24q0 -5 0.5 -9.5t0.5 -9.5q0 -32 -6.5 -57t-19.5 -46q19 0 35.5 -5t32 -10t31.5 -9.5t34 -4.5q61 21 107 59l10 -2z" />
    <glyph glyph-name="yen.tab" 
d="M200 327l-148 264v14l133 9l34 -109l89 -176h10l70 154l32 127h127v-15l-49 -119l-82 -147l91 6l-12 -94h-381l12 89zM504 185l-12 -94l-127 7v-98h-111v99l-139 -4l8 90h381z" />
    <glyph glyph-name="rur.tab" 
d="M321 610q49 0 90.5 -11.5t71.5 -35t47 -60.5t17 -88q0 -48 -16 -83.5t-46 -59t-72 -35.5t-93 -12q-21 0 -43 1.5t-43 5.5v-65h156l-12 -95l-144 7v-79h-113v79l-72 -3l9 91h63v69h-65l7 96l58 -3v163l-11 118h211zM234 321q17 -2 36.5 -3.5t40.5 -1.5q66 0 98 19
q23 30 23 79q0 56 -29 79t-86 23h-83v-195z" />
    <glyph glyph-name="numbersign.tab" 
d="M442 462l99 4l-12 -95h-99l-11 -88l107 4l-11 -95h-106l-1 -99h-103l13 99h-88l-1 -99h-104l13 99h-80v80l92 7l12 92h-90v80l99 8l3 105h102l-13 -103h87l3 103h103zM240 282h90l12 89h-91z" />
    <glyph glyph-name="zero.os.tab" 
d="M299 461q51 0 91 -17.5t67.5 -48.5t42 -74.5t14.5 -95.5q0 -53 -16 -96t-44.5 -74.5t-68 -48.5t-86.5 -17q-51 0 -91 17t-67.5 48.5t-42 74.5t-14.5 96q0 52 16 95t45 74.5t68 49t86 17.5zM299 370q-23 0 -42 -6.5t-35 -17.5q-29 -46 -29 -121q0 -77 30.5 -111.5
t75.5 -34.5t77 24q29 45 29 122q0 76 -30 110.5t-76 34.5z" />
    <glyph glyph-name="zero.slash.os.tab" 
d="M298 461q51 0 91 -17.5t67.5 -48.5t42 -74.5t14.5 -95.5q0 -53 -16 -96t-44.5 -74.5t-68 -48.5t-86.5 -17q-51 0 -91 17t-67.5 48.5t-42 74.5t-14.5 96q0 52 16 95t45 74.5t68 49t86 17.5zM298 370q-23 0 -42 -6.5t-35 -17.5q-29 -46 -29 -121v-18.5t2 -16.5l173 153
q-27 27 -69 27zM404 225q0 8 -0.5 15.5t-1.5 14.5l-171 -151q26 -25 67 -25q45 0 77 24q29 45 29 122z" />
    <glyph glyph-name="one.os.tab" 
d="M368 447l-7 -133v-225l98 -6v-83h-333v83l126 7v200l-79 -44l-44 72l91 64l70 74z" />
    <glyph glyph-name="two.os.tab" 
d="M124 77l190 126q14 9 27.5 20t22.5 22q5 12 7.5 26.5t2.5 28.5q0 33 -19.5 51.5t-54.5 18.5q-29 0 -49 -7q-33 -20 -67 -58l-72 80q38 36 85 56t108 20q86 0 131 -40.5t45 -110.5q0 -111 -117 -172l-96 -51h30l177 11l10 -11l-10 -96l-147 9h-193z" />
    <glyph glyph-name="four.os.tab" 
d="M383 459l8 -13q-34 -155 -133 -272l-74 -87h165v42l17 85l90 10v-137l81 6l-12 -93h-69v-134h-107v134h-275l-11 81l109 139q40 51 65 111.5t36 135.5z" />
    <glyph glyph-name="three.os.tab" 
d="M298 218h18q22 0 37 6q20 23 20 66q0 79 -77 79q-10 0 -20 -1t-18 -4q-17 -10 -36.5 -24.5t-39.5 -34.5l-70 85q80 71 188 71q87 0 133 -43t46 -118q0 -73 -53 -109v-7q38 -17 60.5 -50.5t22.5 -85.5q0 -42 -15 -77.5t-43.5 -61t-68.5 -40t-89 -14.5q-65 0 -115 20
t-94 64l75 85q21 -23 43 -41.5t45 -29.5q11 -3 24 -4t26 -1q21 0 41.5 4t38.5 13q25 29 25 81q0 45 -20 64.5t-56 19.5h-17l-68 -9l-18 93l10 10z" />
    <glyph glyph-name="five.os.tab" 
d="M305 159q-57 0 -97 -30l-66 20l21 301h184l137 9l9 -11l-14 -103l-150 10h-75l-11 -122q35 13 79 13q88 0 136 -51t48 -136q0 -46 -15 -83.5t-42.5 -64.5t-67.5 -41.5t-89 -14.5q-63 0 -114.5 20t-93.5 65l76 85q44 -51 87 -73q23 -5 46 -5q45 0 79 20q13 17 19.5 41
t6.5 52q0 48 -24 73.5t-69 25.5z" />
    <glyph glyph-name="six.os.tab" 
d="M463 491q-57 -1 -103.5 -10t-84.5 -24q-57 -44 -69 -127q20 14 42 24t45 17q16 3 36 3q44 0 77 -13.5t55.5 -38.5t33.5 -59t11 -76q0 -41 -14.5 -77.5t-41.5 -63.5t-65 -42.5t-85 -15.5q-97 0 -152 65t-55 190q0 77 23.5 140t68.5 109t109.5 72.5t147.5 31.5zM205 247
q-2 -10 -3 -20.5t-1 -21.5q0 -56 26.5 -90.5t71.5 -34.5q23 0 43 5t35 16q23 34 23 85q0 100 -94 100q-32 0 -56 -10t-45 -29z" />
    <glyph glyph-name="seven.os.tab" 
d="M245 449h237l6 -69l-77 -131q-31 -52 -54 -122.5t-31 -142.5l-3 -118h-117q0 108 28.5 208.5t82.5 194.5l52 92h-71l-178 -12l-9 12l17 95z" />
    <glyph glyph-name="eight.os.tab" 
d="M296 593q43 0 78 -12t59.5 -33.5t37.5 -51.5t13 -66q0 -73 -49 -119q38 -23 59.5 -57t21.5 -82q0 -88 -59 -136t-161 -48q-53 0 -94 13.5t-69 38t-42.5 59t-14.5 75.5q0 47 19 85t54 63q-40 45 -40 108q0 34 13.5 64t38 52t59 34.5t76.5 12.5zM285 260q-36 5 -65 16
q-20 -18 -28 -42t-8 -53q0 -45 29 -73.5t83 -28.5q27 0 48.5 5t38.5 13q24 30 24 72t-27 62.5t-95 28.5zM307 352q11 -2 21 -3.5t20 -3.5q30 30 30 82q0 38 -22 57.5t-60 19.5q-19 0 -36 -4t-30 -13q-8 -11 -11 -25t-3 -28q0 -33 19.5 -54.5t71.5 -27.5z" />
    <glyph glyph-name="nine.os.tab" 
d="M132 -42q60 2 105 9.5t84 23.5q27 26 42 58t21 70q-20 -14 -41.5 -24t-43.5 -17q-18 -3 -36 -3q-43 0 -76 14t-55.5 38.5t-34 59t-11.5 76.5q0 41 14.5 77t41 63t64.5 42.5t86 15.5q97 0 152 -66.5t55 -191.5q0 -77 -23 -141t-68 -110.5t-111 -72.5t-151 -27zM387 202
q2 10 2.5 21t0.5 22q0 55 -26 89.5t-72 34.5t-76 -21q-24 -35 -24 -84t23 -75.5t70 -26.5q32 0 56 10.5t46 29.5z" />
    <glyph glyph-name="dollar.os.tab" 
d="M158 127q43 -36 93 -51q13 -3 33 -3q49 0 79 14q12 13 12 35q0 10 -3 18t-13 14.5t-27.5 11t-45.5 7.5q-163 18 -163 133q0 50 32 85t95 46l-3 119l102 12l-7 -130q71 -8 128 -42l-53 -84q-19 14 -39 24t-42 18q-17 3 -36 3q-41 0 -66 -13q-5 -6 -7.5 -13.5t-2.5 -15.5
q0 -23 17 -35t62 -17q83 -10 127.5 -42t44.5 -94q0 -55 -35.5 -90.5t-102.5 -44.5l4 -112l-101 -12l6 123q-41 4 -74.5 15t-65.5 31z" />
    <glyph glyph-name="Euro.os.tab" 
d="M351 196l-11 -77l-89 5q27 -47 88 -47q62 0 119 45l48 -78q-37 -29 -81 -42t-92 -13q-79 0 -128.5 36.5t-69.5 101.5h-56l11 69h261zM135 299q21 68 75.5 105t130.5 37q97 0 160 -52l-75 -82q-29 26 -68 44q-14 3 -29 3q-40 0 -71 -25q-5 -7 -8 -14t-6 -15l115 7l-10 -77
h-267l11 69h42z" />
    <glyph glyph-name="sterling.os.tab" 
d="M484 26q-23 -20 -52.5 -28.5t-62.5 -8.5q-21 0 -40.5 3.5t-38 8t-36 8t-35.5 3.5q-25 0 -44.5 -6t-34.5 -17l-31 64q5 3 9 5.5t9 5.5q9 6 17 11.5t14 11.5q5 11 8.5 24t3.5 30v7l-54 -8l-13 72l49 10q-6 16 -10 34t-4 41q0 30 13.5 56.5t39.5 46t65 30.5t89 11l7 -90
q-29 -1 -55 -5.5t-45 -10.5q-5 -11 -7.5 -24t-2.5 -25t2 -22.5t5 -20.5l100 23l15 -86l-92 -15q0 -4 0.5 -7t0.5 -7q0 -32 -14 -57q28 -3 53.5 -10t55.5 -7q23 9 43 21.5t35 25.5l8 -1z" />
    <glyph glyph-name="yen.os.tab" 
d="M192 253l-105 157v17l118 6l29 -80l62 -110h7l57 103l23 84h113v-16l-40 -83l-54 -74l68 4l-11 -83h-331l12 75h52zM446 140l-10 -81l-86 4v-63h-107v67h-98l12 73h289z" />
    <glyph glyph-name="rur.os.tab" 
d="M150 119v47h-52l7 75h45v85l-9 104h180q38 0 70 -9t55 -26.5t36 -44t13 -60.5q0 -33 -13 -59t-35.5 -44t-54 -27t-68.5 -9q-33 0 -68 8v-40h136l-11 -81l-125 8v-46h-106v44l-53 -2l9 77h44zM256 235q14 -4 28.5 -5.5t28.5 -1.5q18 0 34.5 3.5t27.5 9.5q14 19 14 49
q0 28 -18.5 42t-53.5 14h-61v-111z" />
    <glyph glyph-name="numbersign.os.tab" 
d="M442 367l99 4l-12 -95h-99l-11 -88l107 4l-11 -95h-106l-1 -99h-103l13 99h-88l-1 -99h-104l13 99h-80v80l92 7l12 92h-90v80l99 8l3 105h102l-13 -103h87l3 103h103zM240 187h90l12 89h-91z" />
    <glyph glyph-name="numbersign.sc" horiz-adv-x="587" 
d="M436 393l99 4l-12 -95h-99l-11 -88l107 4l-11 -95h-106l-1 -99h-103l13 99h-88l-1 -99h-104l13 99h-80v80l92 7l12 92h-90v80l99 8l3 105h102l-13 -103h87l3 103h103zM234 213h90l12 89h-91z" />
    <glyph glyph-name="zero.sc.tab" 
d="M300 526q51 0 92 -17.5t70 -52t45 -84.5t16 -115q0 -60 -15.5 -109.5t-44.5 -85t-70.5 -55t-92.5 -19.5q-102 0 -163 69t-61 200q0 60 15.5 109.5t45 85t71 55t92.5 19.5zM300 435q-22 0 -42 -6t-35 -19q-17 -29 -26 -68.5t-9 -84.5q0 -95 31 -136.5t81 -41.5
q20 0 39.5 5.5t36.5 18.5q17 28 26 68.5t9 85.5q0 95 -31 136.5t-80 41.5z" />
    <glyph glyph-name="zero.slash.sc.tab" 
d="M300 526q51 0 92 -17.5t70 -52t45 -84.5t16 -115q0 -60 -15.5 -109.5t-44.5 -85t-70.5 -55t-92.5 -19.5q-102 0 -163 69t-61 200q0 60 15.5 109.5t45 85t71 55t92.5 19.5zM300 435q-22 0 -42 -6t-35 -19q-17 -29 -26 -68.5t-9 -84.5v-23t2 -22l194 175q-29 48 -84 48z
M411 257q0 8 -0.5 15t-0.5 15l-193 -164q28 -44 83 -44q20 0 39.5 5.5t36.5 18.5q17 28 26 68.5t9 85.5z" />
    <glyph glyph-name="one.sc.tab" 
d="M397 510l-8 -115v-301l116 -7v-87h-354v89l127 6v250l-81 -51l-48 75l99 73l64 75z" />
    <glyph glyph-name="two.sc.tab" 
d="M109 71l184 145q40 33 61 63q12 33 12 70q0 86 -81 86q-24 0 -43 -6q-38 -24 -73 -63l-69 87q39 35 86 54t107 19q84 0 133.5 -43.5t49.5 -125.5q0 -120 -120 -203l-93 -65h58l149 12l9 -9l-10 -99l-160 7h-189z" />
    <glyph glyph-name="three.sc.tab" 
d="M290 307h16q21 0 39 7q18 21 18 58q0 61 -70 61q-11 0 -21.5 -1t-21.5 -3q-20 -9 -39.5 -22t-38.5 -29l-62 84q41 32 88 48t99 16q82 0 128 -38.5t46 -106.5q0 -33 -11.5 -58.5t-35.5 -41.5v-6q35 -17 53.5 -47.5t18.5 -74.5q0 -76 -55 -120.5t-152 -44.5
q-60 0 -108.5 17.5t-91.5 56.5l66 82q42 -41 87 -60q11 -2 23 -3t23 -1q49 0 82 18q8 12 12 28t4 34q0 31 -19 48t-52 17h-17l-66 -8l-15 87l7 9z" />
    <glyph glyph-name="four.sc.tab" 
d="M373 514l7 -11q-13 -68 -39.5 -130.5t-69.5 -116.5l-72 -89h150v38l25 98l83 8v-143l71 5l-11 -97h-60v-76h-108v76h-256l-10 78l93 131q40 56 60 113t28 123z" />
    <glyph glyph-name="five.sc.tab" 
d="M147 146q25 -24 48 -38.5t43 -24.5q8 -2 18 -3t19 -1q47 0 81 17q23 27 23 75q0 38 -21 60.5t-66 22.5q-58 0 -94 -24l-65 17l17 267h145l166 9l8 -11l-11 -96l-145 9h-69l-9 -102q17 6 36 9.5t40 3.5q82 0 130 -44.5t48 -121.5q0 -41 -15.5 -74.5t-43.5 -57t-67 -36.5
t-85 -13q-62 0 -107.5 16t-87.5 54z" />
    <glyph glyph-name="six.sc.tab" 
d="M441 421q-43 -2 -83.5 -8t-76.5 -18q-50 -40 -64 -105q17 10 34 18t37 14q8 1 16.5 1.5t17.5 0.5q81 0 126 -44t45 -119q0 -37 -13.5 -69t-39 -55t-62 -36.5t-81.5 -13.5q-91 0 -142.5 58.5t-51.5 164.5q0 63 20.5 118t61 96.5t100.5 68t138 33.5zM215 211q-3 -18 -3 -37
q0 -43 22 -71.5t63 -28.5q40 0 70 16q10 14 14.5 32.5t4.5 38.5q0 39 -19.5 60t-60.5 21q-54 0 -91 -31z" />
    <glyph glyph-name="seven.sc.tab" 
d="M254 514h226l5 -63l-72 -115q-32 -51 -54.5 -113.5t-32.5 -129.5v-93h-125q5 105 37 191.5t82 166.5l42 66h-90l-160 -11l-7 9l15 97z" />
    <glyph glyph-name="eight.sc.tab" 
d="M300 525q82 0 131 -39.5t49 -104.5q0 -35 -12 -60.5t-33 -44.5q72 -44 72 -124q0 -37 -15 -67.5t-42 -52t-65 -33.5t-85 -12q-50 0 -88.5 12.5t-65.5 35t-41 52.5t-14 66q0 82 65 130q-37 38 -37 96q0 30 11.5 56.5t34 46.5t56.5 31.5t79 11.5zM292 228q-17 2 -31 4.5
t-27 6.5q-18 -16 -26 -37t-8 -44q0 -38 26.5 -60.5t73.5 -22.5q23 0 42.5 3.5t35.5 11.5q20 23 20 60q0 32 -23 51t-83 27zM311 315q11 -2 21 -3.5t20 -3.5q27 27 27 69q0 30 -21 46.5t-58 16.5q-21 0 -37.5 -4t-29.5 -11q-12 -20 -12 -44q0 -26 19 -42.5t71 -23.5z" />
    <glyph glyph-name="nine.sc.tab" 
d="M151 92q43 2 85 8t78 18q50 40 64 105q-16 -10 -33 -18t-37 -14q-8 -1 -17 -1.5t-18 -0.5q-81 0 -126 44.5t-45 119.5q0 37 13.5 68.5t39 55t62 36.5t81.5 13q92 0 143.5 -59t51.5 -164q0 -65 -21 -120.5t-62.5 -97t-101.5 -67t-138 -31.5zM380 302q3 18 3 37
q0 43 -22 71.5t-62 28.5q-41 0 -71 -16q-10 -14 -14 -32.5t-4 -38.5q0 -39 19 -60t60 -21q54 0 91 31z" />
    <glyph glyph-name="dollar.sc.tab" 
d="M422 373q-39 32 -84 52q-8 2 -19.5 3.5t-22.5 1.5q-19 0 -37 -4t-31 -11q-6 -9 -8.5 -19.5t-2.5 -20.5q0 -30 24 -46t75 -23q87 -12 134.5 -50t47.5 -111q0 -64 -43 -104t-116 -50l4 -94l-100 -11l6 104q-47 4 -85.5 18t-76.5 40l62 97q26 -22 51 -37t48 -25q25 -5 46 -5
q47 0 79 16q17 17 17 51q0 27 -22 43.5t-75 22.5q-88 10 -136 47.5t-48 109.5q0 59 38 99t109 50l-3 95l100 9l-6 -104q83 -10 143 -55z" />
    <glyph glyph-name="Euro.sc.tab" 
d="M115 346q22 82 81 128t143 46q54 0 99.5 -16t79.5 -46l-72 -85q-35 33 -84 54q-12 3 -28 3q-45 0 -80 -23q-19 -26 -28 -61h28l132 8l-10 -83h-318l9 75h48zM372 229l-10 -81l-108 7h-22q16 -38 45 -57t64 -19q75 0 123 57l64 -65q-36 -45 -84 -64t-108 -19
q-88 0 -143.5 44.5t-77.5 122.5h-60l9 74h308z" />
    <glyph glyph-name="sterling.sc.tab" 
d="M514 35q-29 -24 -66 -35.5t-82 -11.5q-23 0 -40.5 4t-32.5 9.5t-30.5 9.5t-34.5 4q-26 0 -47 -6.5t-38 -17.5l-39 72q1 0 2 1q18 10 31 18.5t23 19.5q6 15 9 29t3 32v7l-57 -11l-15 80l51 9q-8 20 -14.5 41t-6.5 50q0 36 14.5 69t44 58t74 39.5t104.5 14.5l14 -100
q-37 -1 -68 -6t-56 -13q-20 -25 -20 -62q0 -20 4.5 -36.5t10.5 -31.5l104 29l17 -88l-95 -20q0 -5 0.5 -10t0.5 -10q0 -40 -15 -68q28 -3 51.5 -13t54.5 -11q29 10 54 23.5t45 29.5l13 -1z" />
    <glyph glyph-name="yen.sc.tab" 
d="M204 270l-131 218v15l123 8l36 -97l74 -142h10l61 124l29 111h120v-14l-45 -105l-69 -115l77 5l-10 -86h-346l11 81zM484 149l-10 -83l-112 6v-72h-108v73l-120 -3l7 79h343z" />
    <glyph glyph-name="rur.sc.tab" 
d="M328 508q39 0 73 -10.5t59.5 -31t40.5 -51t15 -70.5q0 -38 -14 -67t-39 -48.5t-59.5 -29.5t-76.5 -10q-23 0 -45.5 1.5t-42.5 5.5v-50h141l-9 -87l-132 6v-66h-108v66l-63 -2l7 83h56v54h-57l5 87l52 -2v125l-9 97h206zM239 277q14 -2 29.5 -3t32.5 -1q57 0 87 13
q21 24 21 57q0 75 -92 75h-78v-141z" />
    <glyph glyph-name="numbersign.sc.tab" 
d="M442 393l99 4l-12 -95h-99l-11 -88l107 4l-11 -95h-106l-1 -99h-103l13 99h-88l-1 -99h-104l13 99h-80v80l92 7l12 92h-90v80l99 8l3 105h102l-13 -103h87l3 103h103zM240 213h90l12 89h-91z" />
    <glyph glyph-name="one.sup" unicode="&#xb9;" horiz-adv-x="279" 
d="M206 720l-5 -79v-241h-90v189l-50 -20l-29 60l64 43l44 54z" />
    <glyph glyph-name="two.sup" unicode="&#xb2;" horiz-adv-x="335" 
d="M37 460l122 84q14 9 24 18t16 17q6 16 6 37q0 38 -44 38q-16 0 -29 -5q-12 -6 -26.5 -16t-26.5 -22l-47 73q58 45 135 45q58 0 92.5 -29.5t34.5 -77.5q0 -79 -83 -125l-49 -27h43l89 8l-8 -84l-108 6h-129z" />
    <glyph glyph-name="three.sup" unicode="&#xb3;" horiz-adv-x="347" 
d="M160 594h12q6 0 12.5 1.5t10.5 3.5q8 10 8 27q0 32 -41 32q-5 0 -10.5 -0.5t-10.5 -1.5q-29 -11 -55 -30l-42 64q55 39 125 39q60 0 91.5 -25t31.5 -67t-25 -62q42 -20 42 -71q0 -52 -39 -80.5t-107 -28.5q-37 0 -69 10t-63 36l45 63q15 -11 29.5 -19.5t29.5 -14.5
q13 -3 31 -3q23 0 42 7q10 11 10 29q0 32 -34 32h-11l-51 -5l-10 66z" />
    <glyph glyph-name="four.sup" unicode="&#x2074;" horiz-adv-x="367" 
d="M241 714q-14 -46 -32.5 -82.5t-44.5 -70.5l-32 -42h77l21 81l63 6v-86l44 4l-4 -75h-40v-49h-88v49h-165l-8 58l62 85q20 27 33 62.5t23 74.5z" />
    <glyph glyph-name="fraction" unicode="&#x2044;" horiz-adv-x="130" 
d="M326 596l-229 -310l-225 -325l-81 58l237 319l218 317z" />
    <glyph glyph-name="hyphen.c" horiz-adv-x="464" 
d="M389 373l-12 -102h-302l13 96z" />
    <glyph glyph-name="endash.c" horiz-adv-x="654" 
d="M574 373l-11 -103h-483l13 97z" />
    <glyph glyph-name="emdash.c" horiz-adv-x="944" 
d="M807 373l-12 -103h-658l13 97z" />
    <glyph glyph-name="colon.c" horiz-adv-x="238" 
d="M181 120v-120h-123l5 115zM181 595v-120h-123l5 115z" />
    <glyph glyph-name="semicolon.c" horiz-adv-x="238" 
d="M176 120l6 -19l-58 -203l-79 17l16 114v86zM181 595v-120h-123l5 115z" />
    <glyph glyph-name="periodcentered.c" horiz-adv-x="238" 
d="M181 382v-120h-123l5 115z" />
    <glyph glyph-name="uni00AD.c" horiz-adv-x="464" 
d="M389 373l-12 -102h-302l13 96z" />
    <glyph glyph-name="guillemotleft.c" horiz-adv-x="486" 
d="M254 472l-88 -138l86 -136l-76 -56l-125 166v32l119 168zM436 478l-82 -144l82 -137l-77 -56l-119 170v31l109 168z" />
    <glyph glyph-name="guillemotright.c" horiz-adv-x="486" 
d="M309 509l125 -166v-32l-119 -168l-84 37l88 141l-86 132zM126 509l119 -169v-31l-108 -168l-87 33l81 147l-81 133z" />
    <glyph glyph-name="guilsinglleft.c" horiz-adv-x="309" 
d="M263 470l-108 -139l108 -141l-83 -52l-144 176v25l155 186z" />
    <glyph glyph-name="guilsinglright.c" horiz-adv-x="309" 
d="M129 525l144 -176v-26l-155 -185l-72 55l108 140l-108 139z" />
    <glyph glyph-name="parenleft.c" horiz-adv-x="300" 
d="M291 669q-70 -74 -102 -159t-32 -193q0 -97 32.5 -184.5t101.5 -165.5l-90 -54q-78 81 -115.5 184t-37.5 220q0 119 40.5 221t121.5 180z" />
    <glyph glyph-name="parenright.c" horiz-adv-x="299" 
d="M97 718q78 -81 115.5 -184t37.5 -220q0 -119 -40.5 -221t-121.5 -180l-81 49q70 74 102 159t32 193q0 97 -32.5 184.5t-101.5 165.5z" />
    <glyph glyph-name="bracketleft.c" horiz-adv-x="268" 
d="M257 716v-89l-98 -5v-604l98 -5v-89h-207v792h207z" />
    <glyph glyph-name="bracketright.c" horiz-adv-x="268" 
d="M218 716v-792h-207v89l98 5v604l-98 5v89h207z" />
    <glyph glyph-name="braceleft.c" horiz-adv-x="314" 
d="M272 648q-35 -4 -51 -26.5t-16 -58.5q0 -22 2 -41t4 -37l4 -36t2 -37q0 -32 -11.5 -56t-31.5 -38q21 -14 32 -40t11 -60q0 -40 -6 -77.5t-6 -74.5q0 -32 19.5 -53.5t47.5 -28.5l-27 -85q-69 7 -109 48t-40 104q0 38 6.5 72.5t6.5 75.5q0 29 -14 50t-44 29l-6 70
q64 9 64 68q0 42 -6.5 80.5t-6.5 82.5q0 32 12 59t33.5 47.5t50 32.5t61.5 14z" />
    <glyph glyph-name="braceright.c" horiz-adv-x="314" 
d="M41 -17q35 4 51 26.5t16 57.5q0 22 -2 41t-4 37l-4 36t-2 38q0 32 11.5 55.5t31.5 37.5q-20 15 -31.5 41t-11.5 60q0 40 6 77.5t6 73.5q0 32 -19 54t-48 29l28 85q69 -7 108.5 -48.5t39.5 -104.5q0 -38 -6.5 -72t-6.5 -76q0 -28 14 -49.5t45 -29.5l6 -69q-65 -9 -65 -69
q0 -44 6.5 -81.5t6.5 -80.5q0 -33 -12 -60t-33.5 -47t-50 -32t-61.5 -14z" />
    <glyph glyph-name="at.c" horiz-adv-x="832" 
d="M569 484v-235q11 -14 21.5 -18.5t21.5 -4.5q21 0 37 11q20 42 20 124q0 51 -15.5 92t-45.5 70.5t-73.5 45.5t-99.5 16q-57 0 -107.5 -15.5t-89.5 -44.5q-37 -38 -57 -93t-20 -125q0 -131 70.5 -198t195.5 -67q57 0 108 9.5t98 27.5l28 -89q-47 -20 -108 -32.5t-126 -12.5
q-86 0 -155 24.5t-117 71t-74 113.5t-26 153q0 82 29 151t80 119t120.5 77.5t150.5 27.5q78 0 141 -24t107.5 -66.5t69 -101t24.5 -128.5q0 -55 -12.5 -98t-35 -72t-53.5 -44.5t-68 -15.5q-34 0 -58 13t-44 38q-23 -28 -52.5 -43t-66.5 -15q-31 0 -58 11.5t-47.5 35t-32 58
t-11.5 79.5q0 43 13 78t35.5 60.5t53.5 39.5t67 14q31 0 56.5 -7.5t41.5 -20.5l55 19zM471 389q-21 21 -55 21q-35 0 -58 -20q-10 -16 -14.5 -37.5t-4.5 -43.5q0 -48 18 -70.5t47 -22.5q42 0 67 49v124z" />
    <glyph glyph-name="section.c" horiz-adv-x="494" 
d="M114 0q23 -21 42 -35.5t39 -23.5q8 -2 17 -3t19 -1q44 0 70 14q7 6 10 18t3 26q0 28 -18 44t-70 24q-87 14 -132.5 58t-45.5 108q0 38 16 70.5t45 58.5q-28 36 -28 83q0 33 12 61t34.5 48.5t54.5 31.5t73 11q51 0 93.5 -14t75.5 -40l-64 -85q-15 15 -32 27t-36 20
q-15 3 -35 3q-18 0 -34 -3t-29 -11q-10 -17 -10 -40q0 -28 19.5 -45t65.5 -25q83 -14 131 -57t48 -109q0 -40 -16 -72.5t-43 -55.5q29 -37 29 -88q0 -32 -13 -59t-37 -47.5t-58 -32t-76 -11.5q-107 0 -186 65zM245 288q-19 3 -35.5 8t-31.5 11q-24 -21 -24 -64
q0 -32 21.5 -56t74.5 -32q39 -6 69 -18q23 23 23 63q0 35 -22 57t-75 31z" />
    <glyph glyph-name="plus.c" horiz-adv-x="491" 
d="M296 269l146 3l-12 -99h-136l-3 -147l-93 -12v159h-143l12 92l131 2v141l102 12z" />
    <glyph glyph-name="minus.c" horiz-adv-x="469" 
d="M412 272l-12 -99h-343l13 93z" />
    <glyph glyph-name="plusminus.c" horiz-adv-x="497" 
d="M296 389l147 3l-12 -98h-137l-3 -138l-93 -12v150h-143l11 91l132 2v142l101 12zM420 91l-11 -100h-343l13 94z" />
    <glyph glyph-name="multiply.c" horiz-adv-x="496" 
d="M150 393l102 -111l107 112l67 -68l-111 -113l115 -125l-67 -63l-115 119l-116 -118l-66 62l118 123l-113 117z" />
    <glyph glyph-name="divide.c" horiz-adv-x="484" 
d="M429 272l-12 -98h-362l12 92zM302 86v-123h-123l5 118zM302 482v-123h-123l5 118z" />
    <glyph glyph-name="less.c" horiz-adv-x="345" 
d="M299 388l-140 -156l139 -159l-82 -59l-176 199v28l188 204z" />
    <glyph glyph-name="lessequal.c" horiz-adv-x="354" 
d="M315 458l-145 -150l147 -127l-79 -64l-194 166v28l201 203zM290 -8l-81 -61l-171 168l46 78z" />
    <glyph glyph-name="equal.c" horiz-adv-x="468" 
d="M412 369l-7 -105l-339 3l6 90zM401 180l-5 -104l-339 11l6 90z" />
    <glyph glyph-name="approxequal.c" horiz-adv-x="469" 
d="M48 145q20 17 44 33t46 27q8 2 15.5 3t15.5 1q30 0 48 -11t32.5 -24t28 -24t33.5 -11q31 14 61 36l47 -70q-20 -18 -43 -34.5t-48 -27.5q-14 -3 -31 -3q-29 0 -47.5 11t-32.5 24.5t-28 24.5t-34 11q-14 -7 -30 -16.5t-31 -20.5zM56 334q20 17 43 32t45 26q8 2 15.5 3
t15.5 1q29 0 46.5 -11t31 -24t26.5 -24t33 -11q31 14 61 36l47 -70q-20 -19 -43 -34.5t-48 -26.5q-7 -2 -15 -3t-16 -1q-29 0 -46.5 11t-31 24.5t-26.5 24.5t-33 11q-14 -7 -29 -15.5t-30 -19.5z" />
    <glyph glyph-name="notequal.c" horiz-adv-x="473" 
d="M214 358l23 104l98 -20l-20 -80l101 3l-5 -104l-120 1l-21 -86l136 2l-5 -104l-155 4l-23 -95l-87 14l18 84l-97 3l6 90l112 1l19 88l-127 1l5 90z" />
    <glyph glyph-name="greater.c" horiz-adv-x="345" 
d="M128 465l177 -199v-29l-188 -203l-71 56l139 158l-139 158z" />
    <glyph glyph-name="greaterequal.c" horiz-adv-x="354" 
d="M111 534l199 -203v-28l-209 -174l-64 68l145 125l-143 150zM270 197l46 -78l-182 -166l-70 59z" />
    <glyph glyph-name="slash.c" horiz-adv-x="378" 
d="M388 511l-318 -609l-86 42l309 614z" />
    <glyph glyph-name="backslash.c" horiz-adv-x="378" 
d="M392 -26l-87 -46l-318 585l92 52z" />
    <glyph glyph-name="currency.c" horiz-adv-x="453" 
d="M156 353q31 16 71 16t71 -14l50 48l65 -65l-47 -48q21 -30 21 -77q0 -45 -20 -76l46 -50l-64 -65l-51 50q-31 -16 -72 -16t-70 14l-51 -48l-65 65l47 48q-20 31 -20 78q0 45 19 74l-46 50l65 67zM227 284q-34 0 -56 -16q-14 -21 -14 -55q0 -33 18.5 -52.5t50.5 -19.5
q36 0 56 16q8 11 11.5 25t3.5 31q0 33 -18.5 52t-51.5 19z" />
    <glyph glyph-name="asciitilde.c" horiz-adv-x="462" 
d="M45 234q22 17 47 33.5t48 26.5q5 1 11.5 2t14.5 1q30 0 48.5 -11t32.5 -23.5t28 -23.5t35 -11q32 11 61 34l46 -70q-20 -18 -45 -34t-50 -27q-5 -1 -12 -1.5t-14 -0.5q-29 0 -47.5 11t-33 23.5t-28.5 23.5t-35 11q-29 -10 -61 -34z" />
    <glyph glyph-name="hyphen.sc" horiz-adv-x="455" 
d="M383 312l-13 -99h-298l13 93z" />
    <glyph glyph-name="endash.sc" horiz-adv-x="645" 
d="M565 312l-12 -99h-473l12 93z" />
    <glyph glyph-name="emdash.sc" horiz-adv-x="928" 
d="M794 313l-13 -100h-648l13 94z" />
    <glyph glyph-name="colon.sc" horiz-adv-x="238" 
d="M181 120v-120h-123l5 115zM181 489v-120h-123l5 115z" />
    <glyph glyph-name="semicolon.sc" horiz-adv-x="238" 
d="M176 120l6 -19l-58 -203l-79 17l16 114v86zM181 489v-120h-123l5 115z" />
    <glyph glyph-name="periodcentered.sc" horiz-adv-x="238" 
d="M181 319v-120h-123l5 115z" />
    <glyph glyph-name="bullet.sc" horiz-adv-x="335" 
d="M168 353l101 -96l-108 -102l-95 104z" />
    <glyph glyph-name="uni00AD.sc" horiz-adv-x="455" 
d="M383 312l-13 -99h-298l13 93z" />
    <glyph glyph-name="guillemotleft.sc" horiz-adv-x="486" 
d="M254 403l-88 -138l86 -136l-76 -56l-125 166v32l119 168zM436 409l-82 -144l82 -137l-77 -56l-119 170v31l109 168z" />
    <glyph glyph-name="guillemotright.sc" horiz-adv-x="486" 
d="M309 440l125 -166v-32l-119 -168l-84 37l88 141l-86 132zM126 440l119 -169v-31l-108 -168l-87 33l81 147l-81 133z" />
    <glyph glyph-name="guilsinglleft.sc" horiz-adv-x="309" 
d="M263 401l-108 -139l108 -141l-83 -52l-144 176v25l155 186z" />
    <glyph glyph-name="guilsinglright.sc" horiz-adv-x="309" 
d="M129 456l144 -176v-26l-155 -185l-72 55l108 140l-108 139z" />
    <glyph glyph-name="parenleft.sc" horiz-adv-x="294" 
d="M287 596q-68 -68 -99.5 -147.5t-31.5 -184.5q0 -96 32.5 -177t98.5 -155l-89 -51q-77 75 -112.5 171t-35.5 212q0 115 41 210t119 166z" />
    <glyph glyph-name="parenright.sc" horiz-adv-x="294" 
d="M7 -75q68 68 99.5 147.5t31.5 184.5q0 96 -32.5 177t-98.5 155l89 51q77 -75 112.5 -171t35.5 -212q0 -115 -41 -210t-119 -166z" />
    <glyph glyph-name="bracketleft.sc" horiz-adv-x="264" 
d="M251 651v-85l-97 -6v-599l97 -5v-86h-201v781h201z" />
    <glyph glyph-name="bracketright.sc" horiz-adv-x="264" 
d="M214 651v-781h-202v86l98 5v599l-98 6v85h202z" />
    <glyph glyph-name="braceleft.sc" horiz-adv-x="311" 
d="M267 582q-35 -5 -52 -27t-17 -57q0 -21 2 -37.5t4.5 -32.5t4.5 -32t2 -35q0 -32 -12 -55.5t-32 -37.5q20 -14 32 -40t12 -59q0 -39 -6.5 -71t-6.5 -67q0 -30 20.5 -51t48.5 -29l-32 -83q-68 8 -105 47.5t-37 100.5q0 37 7 68t7 70q0 26 -14 47t-43 29l-5 67q62 9 62 65
q0 39 -7 74t-7 78q0 31 11.5 57t31.5 45t47.5 30.5t60.5 14.5z" />
    <glyph glyph-name="braceright.sc" horiz-adv-x="311" 
d="M75 661q69 -7 105.5 -47t36.5 -101q0 -38 -6.5 -69.5t-6.5 -68.5q0 -26 13.5 -47t42.5 -29l6 -67q-62 -9 -62 -65q0 -39 6.5 -73.5t6.5 -77.5q0 -32 -11 -58t-31 -45t-47.5 -30.5t-60.5 -14.5l-24 79q35 5 52.5 27t17.5 57q0 21 -2 37.5t-4.5 32.5t-4.5 32t-2 35
q0 32 12 55.5t32 37.5q-20 15 -32 40.5t-12 58.5q0 39 6.5 71t6.5 67q0 30 -20.5 51t-49.5 29z" />
    <glyph glyph-name="at.sc" horiz-adv-x="832" 
d="M569 404v-235q11 -14 21.5 -18.5t21.5 -4.5q21 0 37 11q20 42 20 124q0 51 -15.5 92t-45.5 70.5t-73.5 45.5t-99.5 16q-57 0 -107.5 -15.5t-89.5 -44.5q-37 -38 -57 -93t-20 -125q0 -131 70.5 -198t195.5 -67q57 0 108 9.5t98 27.5l28 -89q-47 -20 -108 -32.5t-126 -12.5
q-86 0 -155 24.5t-117 71t-74 113.5t-26 153q0 82 29 151t80 119t120.5 77.5t150.5 27.5q78 0 141 -24t107.5 -66.5t69 -101t24.5 -128.5q0 -55 -12.5 -98t-35 -72t-53.5 -44.5t-68 -15.5q-34 0 -58 13t-44 38q-23 -28 -52.5 -43t-66.5 -15q-31 0 -58 11.5t-47.5 35t-32 58
t-11.5 79.5q0 43 13 78t35.5 60.5t53.5 39.5t67 14q31 0 56.5 -7.5t41.5 -20.5l55 19zM471 309q-21 21 -55 21q-35 0 -58 -20q-10 -16 -14.5 -37.5t-4.5 -43.5q0 -48 18 -70.5t47 -22.5q42 0 67 49v124z" />
    <glyph glyph-name="section.sc" horiz-adv-x="494" 
d="M114 40q23 -21 42 -35.5t39 -23.5q8 -2 17 -3t19 -1q44 0 70 14q7 6 10 18t3 26q0 28 -18 44t-70 24q-87 14 -132.5 58t-45.5 108q0 38 16 70.5t45 58.5q-28 36 -28 83q0 33 12 61t34.5 48.5t54.5 31.5t73 11q51 0 93.5 -14t75.5 -40l-64 -85q-15 15 -32 27t-36 20
q-15 3 -35 3q-18 0 -34 -3t-29 -11q-10 -17 -10 -40q0 -28 19.5 -45t65.5 -25q83 -14 131 -57t48 -109q0 -40 -16 -72.5t-43 -55.5q29 -37 29 -88q0 -32 -13 -59t-37 -47.5t-58 -32t-76 -11.5q-107 0 -186 65zM245 328q-19 3 -35.5 8t-31.5 11q-24 -21 -24 -64
q0 -32 21.5 -56t74.5 -32q39 -6 69 -18q23 23 23 63q0 35 -22 57t-75 31z" />
    <glyph glyph-name="copyright.sc" horiz-adv-x="823" 
d="M411 643q78 0 144 -25t114 -71.5t74.5 -114.5t26.5 -153q0 -80 -27.5 -147t-75.5 -115.5t-113.5 -75.5t-141.5 -27q-78 0 -144 24.5t-114 71.5t-75 115t-27 154q0 80 27.5 147t76 115t114 75t141.5 27zM411 551q-57 0 -106 -18t-87 -49q-30 -40 -46.5 -90.5t-16.5 -114.5
q0 -65 18.5 -115.5t52.5 -85.5t81.5 -53t104.5 -18t106 18t87 49q30 39 46 89.5t16 115.5q0 64 -18.5 115t-52 85.5t-80.5 53t-105 18.5zM498 331q-14 14 -27 25.5t-28 21.5q-14 3 -32 3q-19 0 -35 -3.5t-28 -12.5q-10 -17 -14.5 -40t-4.5 -46q0 -47 22 -73.5t62 -26.5
q57 0 97 42l47 -67q-60 -60 -147 -60q-79 0 -126.5 48.5t-47.5 136.5q0 40 13 74t36.5 59t55.5 39t71 14q45 0 80.5 -13.5t61.5 -39.5z" />
    <glyph glyph-name="plus.sc" horiz-adv-x="497" 
d="M296 319l146 3l-12 -99h-136l-3 -147l-93 -12v159h-143l12 92l131 2v141l102 12z" />
    <glyph glyph-name="minus.sc" horiz-adv-x="469" 
d="M412 322l-12 -99h-343l13 93z" />
    <glyph glyph-name="plusminus.sc" horiz-adv-x="497" 
d="M296 409l147 3l-12 -98h-137l-3 -138l-93 -12v150h-143l11 91l132 2v142l101 12zM420 111l-11 -100h-343l13 94z" />
    <glyph glyph-name="multiply.sc" horiz-adv-x="496" 
d="M150 440l102 -111l107 112l67 -68l-111 -113l115 -125l-67 -63l-115 119l-116 -118l-66 62l118 123l-113 117z" />
    <glyph glyph-name="divide.sc" horiz-adv-x="484" 
d="M429 322l-12 -98h-362l12 92zM302 136v-123h-123l5 118zM302 532v-123h-123l5 118z" />
    <glyph glyph-name="less.sc" horiz-adv-x="345" 
d="M299 438l-140 -156l139 -159l-82 -59l-176 199v28l188 204z" />
    <glyph glyph-name="lessequal.sc" horiz-adv-x="354" 
d="M315 508l-145 -150l147 -127l-79 -64l-194 166v28l201 203zM290 42l-81 -61l-171 168l46 78z" />
    <glyph glyph-name="equal.sc" horiz-adv-x="468" 
d="M412 416l-7 -105l-339 3l6 90zM401 227l-5 -104l-339 11l6 90z" />
    <glyph glyph-name="approxequal.sc" horiz-adv-x="469" 
d="M48 195q20 17 44 33t46 27q8 2 15.5 3t15.5 1q30 0 48 -11t32.5 -24t28 -24t33.5 -11q31 14 61 36l47 -70q-20 -18 -43 -34.5t-48 -27.5q-14 -3 -31 -3q-29 0 -47.5 11t-32.5 24.5t-28 24.5t-34 11q-14 -7 -30 -16.5t-31 -20.5zM56 384q20 17 43 32t45 26q8 2 15.5 3
t15.5 1q29 0 46.5 -11t31 -24t26.5 -24t33 -11q31 14 61 36l47 -70q-20 -19 -43 -34.5t-48 -26.5q-7 -2 -15 -3t-16 -1q-29 0 -46.5 11t-31 24.5t-26.5 24.5t-33 11q-14 -7 -29 -15.5t-30 -19.5z" />
    <glyph glyph-name="notequal.sc" horiz-adv-x="473" 
d="M214 408l23 104l98 -20l-20 -80l101 3l-5 -104l-120 1l-21 -86l136 2l-5 -104l-155 4l-23 -95l-87 14l18 84l-97 3l6 90l112 1l19 88l-127 1l5 90z" />
    <glyph glyph-name="greater.sc" horiz-adv-x="345" 
d="M128 495l177 -199v-29l-188 -203l-71 56l139 158l-139 158z" />
    <glyph glyph-name="greaterequal.sc" horiz-adv-x="354" 
d="M111 564l199 -203v-28l-209 -174l-64 68l145 125l-143 150zM270 227l46 -78l-182 -166l-70 59z" />
    <glyph glyph-name="slash.sc" horiz-adv-x="390" 
d="M404 590l-316 -704l-93 39l317 706z" />
    <glyph glyph-name="backslash.sc" horiz-adv-x="408" 
d="M406 -42l-92 -42l-320 663l93 43z" />
    <glyph glyph-name="currency.sc" horiz-adv-x="453" 
d="M156 403q31 16 71 16t71 -14l50 48l65 -65l-47 -48q21 -30 21 -77q0 -45 -20 -76l46 -50l-64 -65l-51 50q-31 -16 -72 -16t-70 14l-51 -48l-65 65l47 48q-20 31 -20 78q0 45 19 74l-46 50l65 67zM227 334q-34 0 -56 -16q-14 -21 -14 -55q0 -33 18.5 -52.5t50.5 -19.5
q36 0 56 16q8 11 11.5 25t3.5 31q0 33 -18.5 52t-51.5 19z" />
    <glyph glyph-name="asciitilde.sc" horiz-adv-x="462" 
d="M45 284q22 17 47 33.5t48 26.5q5 1 11.5 2t14.5 1q30 0 48.5 -11t32.5 -23.5t28 -23.5t35 -11q32 11 61 34l46 -70q-20 -18 -45 -34t-50 -27q-5 -1 -12 -1.5t-14 -0.5q-29 0 -47.5 11t-33 23.5t-28.5 23.5t-35 11q-29 -10 -61 -34z" />
    <glyph glyph-name="percent.c" horiz-adv-x="712" 
d="M178 464q59 0 95.5 -36.5t36.5 -94.5q0 -27 -10 -51t-28 -42t-42 -28.5t-52 -10.5q-58 0 -95 37t-37 95q0 27 10 51t27.5 42t41.5 28t53 10zM178 384q-11 0 -19 -2.5t-16 -7.5q-9 -18 -9 -41t11.5 -37t32.5 -14q18 0 34 11q10 16 10 40q0 23 -12 37t-32 14zM556 422
l-163 -210l-168 -247l-88 48l177 223l159 240zM534 251q59 0 95.5 -36.5t36.5 -94.5q0 -27 -10 -51t-28 -42t-42 -28.5t-52 -10.5q-29 0 -53 10t-41.5 27.5t-27.5 41.5t-10 53q0 27 10 51t28 42t42 28t52 10zM534 171q-18 0 -35 -10q-9 -18 -9 -41t11.5 -37t32.5 -14
q19 0 35 11q5 8 7 18t2 22q0 23 -11.5 37t-32.5 14z" />
    <glyph glyph-name="perthousand.c" horiz-adv-x="1008" 
d="M178 464q59 0 95.5 -36.5t36.5 -94.5q0 -27 -10 -51t-28 -42t-42 -28.5t-52 -10.5q-58 0 -95 37t-37 95q0 27 10 51t27.5 42t41.5 28t53 10zM178 384q-11 0 -19 -2.5t-16 -7.5q-9 -18 -9 -41t11.5 -37t32.5 -14q18 0 34 11q10 16 10 40q0 23 -12 37t-32 14zM556 422
l-163 -210l-168 -247l-88 48l177 223l159 240zM534 251q59 0 95.5 -36.5t36.5 -94.5q0 -27 -10 -51t-28 -42t-42 -28.5t-52 -10.5q-29 0 -53 10t-41.5 27.5t-27.5 41.5t-10 53q0 27 10 51t28 42t42 28t52 10zM534 171q-18 0 -35 -10q-9 -18 -9 -41t11.5 -37t32.5 -14
q19 0 35 11q5 8 7 18t2 22q0 23 -11.5 37t-32.5 14zM830 251q59 0 95.5 -36.5t36.5 -94.5q0 -27 -10 -51t-28 -42t-42 -28.5t-52 -10.5q-58 0 -95 37t-37 95q0 27 10 51t27.5 42t41.5 28t53 10zM830 171q-11 0 -19 -2.5t-16 -7.5q-9 -18 -9 -41t11.5 -37t32.5 -14
q18 0 34 11q10 16 10 40q0 23 -12 37t-32 14z" />
    <glyph glyph-name="percent.sc" horiz-adv-x="705" 
d="M176 512q59 0 95.5 -37t36.5 -95q0 -27 -10 -51t-28 -41.5t-42 -28t-52 -10.5q-29 0 -53 10t-41 27t-27 41t-10 53q0 27 10 51t27 42t41 28.5t53 10.5zM176 432q-20 0 -34 -10q-9 -17 -9 -42q0 -51 43 -51q18 0 33 10q10 16 10 41q0 52 -43 52zM579 476l-191 -244
l-186 -268l-89 48l200 260l180 261zM529 251q59 0 95 -36.5t36 -94.5q0 -27 -10 -51t-27.5 -42t-41.5 -28.5t-52 -10.5q-58 0 -95 37t-37 95q0 27 10 51t27.5 42t41.5 28t53 10zM529 171q-21 0 -34 -9q-9 -18 -9 -42q0 -51 43 -51q18 0 33 9q10 17 10 42q0 51 -43 51z" />
    <glyph glyph-name="perthousand.sc" horiz-adv-x="1005" 
d="M176 512q59 0 95.5 -37t36.5 -95q0 -27 -10 -51t-28 -41.5t-42 -28t-52 -10.5q-29 0 -53 10t-41 27t-27 41t-10 53q0 27 10 51t27 42t41 28.5t53 10.5zM176 432q-20 0 -34 -10q-9 -17 -9 -42q0 -51 43 -51q18 0 33 10q10 16 10 41q0 52 -43 52zM579 476l-191 -244
l-186 -268l-89 48l200 260l180 261zM529 251q59 0 95 -36.5t36 -94.5q0 -27 -10 -51t-27.5 -42t-41.5 -28.5t-52 -10.5q-58 0 -95 37t-37 95q0 27 10 51t27.5 42t41.5 28t53 10zM529 171q-21 0 -34 -9q-9 -18 -9 -42q0 -51 43 -51q18 0 33 9q10 17 10 42q0 51 -43 51z
M828 251q59 0 95.5 -36.5t36.5 -94.5q0 -27 -10 -51t-28 -42t-42 -28.5t-52 -10.5q-29 0 -53 10t-41 27.5t-27 41.5t-10 53q0 27 10 51t27.5 42t41.5 28t52 10zM828 171q-19 0 -34 -9q-9 -18 -9 -42q0 -51 43 -51q19 0 33 9q10 17 10 42q0 51 -43 51z" />
    <glyph glyph-name="A" unicode="A" horiz-adv-x="614" 
d="M375 636l205 -621v-15h-129l-16 96l-18 58l-223 4l-17 -58l-8 -100h-136v15l181 520l8 90zM220 245l169 7l-77 260h-13z" />
    <glyph glyph-name="B" unicode="B" horiz-adv-x="586" 
d="M289 630q109 0 160.5 -46.5t51.5 -121.5q0 -37 -15.5 -65.5t-44.5 -46.5v-7q44 -22 67.5 -58.5t23.5 -89.5q0 -48 -18 -84.5t-49.5 -61t-74.5 -37t-93 -12.5h-209v518l-10 112h211zM201 91h100q52 0 85 17q32 30 32 82q0 96 -114 96h-103v-195zM201 371h90q40 0 70 9
q27 24 27 74q0 40 -24.5 62.5t-80.5 22.5h-82v-168z" />
    <glyph glyph-name="C" unicode="C" horiz-adv-x="587" 
d="M446 474q-20 20 -44.5 37.5t-51.5 31.5q-12 3 -33 3q-23 0 -48.5 -8.5t-45.5 -24.5q-23 -38 -35 -85.5t-12 -112.5q0 -60 11.5 -103.5t31.5 -72t47.5 -42t60.5 -13.5q42 0 79.5 18t66.5 52l63 -77q-42 -46 -97 -68t-118 -22q-65 0 -114 23.5t-81.5 66t-48.5 103
t-16 135.5q0 76 19 137t54 103.5t84 65t108 22.5t108.5 -18t84.5 -51z" />
    <glyph glyph-name="D" unicode="D" horiz-adv-x="619" 
d="M287 630q128 0 201 -79.5t73 -235.5q0 -73 -19 -131.5t-54.5 -99t-86 -62.5t-114.5 -22h-199v521l-10 109h209zM285 94q33 0 63 8t50 25q23 32 35 78.5t12 109.5q0 59 -12 101t-33.5 68.5t-51 39t-64.5 12.5h-82v-442h83z" />
    <glyph glyph-name="E" unicode="E" horiz-adv-x="555" 
d="M488 630l-12 -101l-191 9h-83v-170h68l165 9l-10 -101l-223 5v-189h85l209 11l-5 -103h-403v518l-10 112h410z" />
    <glyph glyph-name="F" unicode="F" horiz-adv-x="545" 
d="M481 630l-12 -101l-187 9h-80v-180h66l161 9l-9 -100l-218 5v-272h-114v520l-10 110h403z" />
    <glyph glyph-name="G" unicode="G" horiz-adv-x="597" 
d="M453 476q-22 21 -46 37.5t-50 30.5q-7 2 -15.5 3t-19.5 1q-26 0 -52.5 -8.5t-46.5 -24.5q-23 -39 -35 -87t-12 -113q0 -121 41.5 -176.5t107.5 -55.5q24 0 48 6t47 19v154l-119 -6l11 95h228l3 -16l-15 -94v-241l-21 -5l-63 26q-56 -34 -129 -34q-65 0 -112.5 23.5
t-79 66t-47 103t-15.5 135.5q0 76 19.5 136.5t55.5 103t85.5 65.5t109.5 23q117 0 194 -66z" />
    <glyph glyph-name="H" unicode="H" horiz-adv-x="646" 
d="M202 634v-269l242 8v145l-11 107l125 9v-634h-114v269l-242 5v-274h-114v518l-10 107z" />
    <glyph glyph-name="I" unicode="I" horiz-adv-x="291" 
d="M202 634v-634h-114v515l-10 110z" />
    <glyph glyph-name="J" unicode="J" horiz-adv-x="291" 
d="M202 634v-570q0 -112 -52.5 -178.5t-155.5 -94.5l-36 102q29 6 57.5 15.5t43.5 17.5q16 18 24.5 47t8.5 73v23l-4 87v362l-11 107z" />
    <glyph glyph-name="K" unicode="K" horiz-adv-x="625" 
d="M202 634v-294l77 43q36 38 62.5 79t43.5 89l27 80l126 -5v-15q-20 -59 -49 -112t-68 -98l-56 -62q43 -91 94 -168t121 -156v-15l-136 -6q-50 67 -89.5 136t-71.5 147l-81 -50v-227h-114v518l-10 107z" />
    <glyph glyph-name="L" unicode="L" horiz-adv-x="530" 
d="M202 634v-543h64l211 14l11 -11l-10 -94h-390v521l-10 104z" />
    <glyph glyph-name="M" unicode="M" horiz-adv-x="773" 
d="M252 634l129 -483h12l130 479h153l43 -630h-122v126l-15 343h-13l-30 -130l-101 -339h-114l-102 344l-26 125h-12l-11 -303v-166h-123l43 507v118z" />
    <glyph glyph-name="N" unicode="N" horiz-adv-x="643" 
d="M193 634l254 -456h9l-8 204v125l-13 118l120 9v-631l-105 -9l-254 452h-9l8 -247v-199h-107v515l-10 110z" />
    <glyph glyph-name="O" unicode="O" horiz-adv-x="646" 
d="M323 643q60 0 108.5 -21.5t82.5 -63t52.5 -103t18.5 -140.5q0 -78 -18.5 -139t-53 -103t-83 -64t-107.5 -22q-60 0 -108.5 21.5t-82.5 63t-52.5 102.5t-18.5 141q0 75 19 135.5t53.5 103t82.5 66t107 23.5zM225 513q-23 -38 -36 -87.5t-13 -110.5q0 -62 11 -106t31 -72
t47 -41t60 -13q26 0 51 8t44 24q24 38 37 87.5t13 112.5q0 62 -11 106t-31 72t-47 41t-60 13q-27 0 -51.5 -8.5t-44.5 -25.5z" />
    <glyph glyph-name="P" unicode="P" horiz-adv-x="571" 
d="M295 630q48 0 89.5 -13t72.5 -39.5t49 -65.5t18 -91q0 -49 -15.5 -89t-43.5 -68t-66.5 -43.5t-84.5 -15.5q-32 0 -60.5 5t-51.5 15v-225h-114v512l-10 118h217zM202 312q23 -6 46.5 -9.5t49.5 -3.5t48.5 6t37.5 17q25 38 25 98q0 59 -31.5 87.5t-89.5 28.5h-86v-224z" />
    <glyph glyph-name="Q" unicode="Q" horiz-adv-x="646" 
d="M323 643q60 0 108.5 -21.5t82.5 -63t52.5 -103t18.5 -140.5q0 -135 -54 -218t-147 -103q53 -38 99.5 -62.5t100.5 -44.5v-12l-86 -75q-62 32 -112.5 72t-96.5 90q-32 33 -57.5 45.5t-50.5 12.5q-22 0 -37 -7.5t-23 -18.5l-31 7q1 27 5.5 52.5t12.5 49.5q-47 80 -47 212
q0 75 19 135.5t53.5 103t82.5 66t107 23.5zM225 513q-23 -38 -36 -87.5t-13 -110.5q0 -62 11 -106t31 -72t47 -41t60 -13q26 0 51 8t44 24q24 38 37 87.5t13 112.5q0 62 -11 106t-31 72t-47 41t-60 13q-27 0 -51.5 -8.5t-44.5 -25.5z" />
    <glyph glyph-name="R" unicode="R" horiz-adv-x="584" 
d="M296 630q50 0 92 -13t72.5 -39t47.5 -64.5t17 -89.5q0 -73 -34.5 -122.5t-91.5 -70.5q29 -55 63.5 -107.5t80.5 -108.5v-15l-127 -6q-38 55 -67.5 110t-51.5 113q-27 2 -51.5 6.5t-43.5 12.5v-236h-114v515l-10 115h218zM202 323q47 -14 97 -14q27 0 48.5 6t37.5 17
q14 19 19.5 41t5.5 51q0 57 -30.5 84.5t-89.5 27.5h-88v-213z" />
    <glyph glyph-name="S" unicode="S" horiz-adv-x="557" 
d="M414 482q-18 19 -42 34t-52 29q-8 2 -18 3t-19 1q-49 0 -84 -19q-9 -11 -13.5 -27t-4.5 -33q0 -40 27 -63.5t90 -32.5q204 -30 204 -197q0 -44 -17 -79t-47.5 -60t-73.5 -38t-95 -13q-66 0 -117.5 16t-100.5 53l62 98q30 -25 58.5 -41t57.5 -27q11 -2 21.5 -3t21.5 -1
q59 0 94 20q14 14 20.5 32.5t6.5 38.5q0 41 -27 65.5t-94 32.5q-97 12 -148 61t-51 129q0 40 15 73.5t42 57.5t64.5 37.5t83.5 13.5q62 0 114.5 -17.5t94.5 -50.5z" />
    <glyph glyph-name="T" unicode="T" horiz-adv-x="530" 
d="M198 630h134l169 6l-5 -110l-141 9h-35v-535h-114v535h-34l-144 -8l8 108z" />
    <glyph glyph-name="U" unicode="U" horiz-adv-x="645" 
d="M202 634v-379q0 -91 32 -133t88 -42q54 0 89 26q32 47 32 142v269l-10 108l123 9v-380q0 -123 -59.5 -195t-174.5 -72q-112 0 -173 66.5t-61 196.5v264l-10 111z" />
    <glyph glyph-name="V" unicode="V" horiz-adv-x="582" 
d="M166 634l19 -125l108 -385h12l103 368l9 138h134v-15l-32 -133l-133 -392l-17 -90l-144 -8l-194 619v14z" />
    <glyph glyph-name="W" unicode="W" horiz-adv-x="835" 
d="M166 634l14 -138l50 -229l23 -146h12l74 369l19 134l125 6l82 -363l25 -146h11l69 369l7 140h127v-16l-30 -165l-88 -342l-17 -105l-155 -6l-87 434h-11l-55 -295l-14 -132l-169 -8l-147 615v15z" />
    <glyph glyph-name="X" unicode="X" horiz-adv-x="577" 
d="M182 634l31 -90l79 -153h7l69 138l28 101h132v-16l-60 -120l-105 -170l181 -308v-16h-143l-31 89l-85 170h-8l-77 -161l-32 -98h-136v15l48 94l134 215l-167 286v15z" />
    <glyph glyph-name="Y" unicode="Y" horiz-adv-x="575" 
d="M165 634l36 -123l95 -230h11l81 209l28 140h127v-15l-47 -133l-143 -307v-175h-113v176l-209 435v14z" />
    <glyph glyph-name="Z" unicode="Z" horiz-adv-x="517" 
d="M461 630l6 -74l-291 -465h60l228 15l11 -11l-11 -95h-416l-6 70l292 468h-60l-217 -15l-9 11l12 96h401z" />
    <glyph glyph-name="a" unicode="a" horiz-adv-x="504" 
d="M58 380q86 61 199 61q82 0 123.5 -44.5t41.5 -125.5v-157l47 -74l-86 -55l-45 63q-21 -18 -45 -32t-50 -24q-18 -3 -44 -3q-70 0 -109.5 33.5t-39.5 93.5q0 54 36.5 88.5t104.5 43.5l122 17l3 10v15q0 30 -19.5 46t-51.5 16q-14 0 -26.5 -1t-22.5 -3q-20 -10 -39.5 -22
t-37.5 -28zM313 185l-93 -6q-28 -2 -49 -13q-11 -17 -11 -39q0 -24 15 -37.5t45 -13.5q59 0 93 47v62z" />
    <glyph glyph-name="b" unicode="b" horiz-adv-x="530" 
d="M181 392q21 16 42 27.5t44 18.5q15 3 33 3q39 0 72 -14t56.5 -42t37 -70t13.5 -97q0 -53 -16 -95t-45 -72t-69.5 -46t-88.5 -16q-32 0 -57.5 4.5t-51.5 15.5l-77 -17l-15 10l12 103v448l-9 98l119 9v-268zM181 103q37 -24 77 -24q52 0 82 24q28 44 28 115q0 72 -24.5 103
t-64.5 31q-62 0 -98 -59v-190z" />
    <glyph glyph-name="c" unicode="c" horiz-adv-x="473" 
d="M352 304q-15 14 -31.5 25t-36.5 20q-6 1 -13 1.5t-14 0.5q-39 0 -69 -24q-14 -23 -20 -49.5t-6 -60.5q0 -68 30.5 -102.5t79.5 -34.5q59 0 112 44l48 -80q-37 -29 -79 -42t-90 -13q-50 0 -89.5 16t-66.5 45t-41.5 70.5t-14.5 92.5q0 54 16.5 96.5t45.5 72t69 44.5t87 15
q95 0 158 -52z" />
    <glyph glyph-name="d" unicode="d" horiz-adv-x="529" 
d="M459 660v-543l38 -83l-98 -46l-29 54q-19 -14 -41.5 -28t-46.5 -22q-21 -3 -44 -3q-89 0 -138 58.5t-49 164.5q0 55 14.5 97.5t41 71.5t63 44.5t80.5 15.5q32 0 57 -6.5t42 -17.5v136l-8 98zM349 322q-38 30 -89 30q-42 0 -73 -26q-13 -21 -19 -50.5t-6 -64.5
q0 -132 90 -132q28 0 53 13.5t44 41.5v188z" />
    <glyph glyph-name="e" unicode="e" horiz-adv-x="500" 
d="M247 180l-85 3q1 -51 30 -78t77 -27q36 0 68 10t64 32l43 -79q-77 -52 -178 -52q-103 0 -159 60t-56 166q0 51 15.5 92.5t44 71.5t67 46t85.5 16q44 0 78.5 -15t58.5 -42.5t36.5 -66t12.5 -86.5v-41zM339 267q0 39 -22.5 62.5t-60.5 23.5q-45 0 -73 -24q-21 -30 -21 -73z
" />
    <glyph glyph-name="f" unicode="f" horiz-adv-x="317" 
d="M90 431v64q0 36 13 68.5t38 58t61 40.5t83 15l15 -103q-57 0 -93 -17q-5 -9 -7.5 -19.5t-2.5 -21.5v-29l3 -57h97l-7 -95l-94 6l7 -333l-22 -189l-91 5v510l-60 15v73z" />
    <glyph glyph-name="g" unicode="g" horiz-adv-x="502" 
d="M241 441q33 0 60 -9l169 14l7 -10l-14 -80l-69 5q25 -39 25 -78q0 -33 -12.5 -61.5t-36 -50t-56.5 -34t-73 -12.5q-31 0 -56 6q-5 -8 -7 -17t-2 -17q0 -19 9.5 -30t31.5 -11h77q81 0 122 -35.5t41 -97.5q0 -37 -16.5 -69.5t-47.5 -57t-75 -38.5t-98 -14
q-88 0 -136.5 41.5t-48.5 109.5q0 22 6 45q22 41 54 73q-19 27 -19 63q0 16 3 33q14 28 39 53q-54 43 -54 121q0 33 12.5 61.5t36 50t56 34t72.5 12.5zM162 -24q-25 -24 -25 -68q0 -35 25 -54.5t68 -19.5q59 0 101 20q12 11 17.5 26t5.5 31q0 58 -70 58h-92zM183 341
q-18 -23 -18 -58q0 -32 19.5 -52t56.5 -20q34 0 59 14q18 21 18 58q0 32 -19.5 52t-57.5 20q-15 0 -30.5 -3.5t-27.5 -10.5z" />
    <glyph glyph-name="h" unicode="h" horiz-adv-x="525" 
d="M181 659v-273q17 14 36 27t39 23q22 5 42 5q43 0 74 -12t50.5 -34t28.5 -53t9 -68v-274h-111v271q0 76 -66 76q-27 0 -54.5 -16t-47.5 -47v-284h-110v554l-9 97z" />
    <glyph glyph-name="i" unicode="i" horiz-adv-x="240" 
d="M175 435v-435h-110v332l-9 94zM180 655v-119l-123 5l5 104z" />
    <glyph glyph-name="j" unicode="j" horiz-adv-x="243" 
d="M178 435v-413q0 -93 -44 -151.5t-138 -88.5l-44 99q29 5 49 12t37 15q15 17 24 39t9 45v22l-3 53v265l-9 94zM183 655v-119l-123 5l5 104z" />
    <glyph glyph-name="k" unicode="k" horiz-adv-x="509" 
d="M181 659v-398q14 5 28 13t28 19q26 31 47.5 63t38.5 77l127 -5l2 -10q-33 -54 -67 -96.5t-76 -81.5q17 -29 35 -57t39 -55.5t45.5 -56.5t53.5 -60l-3 -11l-126 -5q-38 46 -67.5 91.5t-56.5 101.5q-13 -6 -25 -11.5t-23 -9.5v-167h-110v554l-9 97z" />
    <glyph glyph-name="l" unicode="l" horiz-adv-x="280" 
d="M185 234l-3 -59v-37q0 -48 41 -48q14 0 26 4l11 -90q-30 -11 -69 -11q-61 0 -88.5 37.5t-27.5 109.5v414l-9 97l119 8v-425z" />
    <glyph glyph-name="m" unicode="m" horiz-adv-x="787" 
d="M143 441l29 -63q38 36 84 58q22 5 42 5q44 0 74.5 -15.5t53.5 -46.5q44 38 99 58q9 2 19 3t21 1q81 0 119 -44t38 -123v-274h-110v276q0 35 -13 53t-47 18q-54 0 -99 -51q2 -11 2.5 -22.5t0.5 -22.5v-251h-110v267q0 81 -61 81q-26 0 -52.5 -16.5t-46.5 -47.5v-284h-110
v309l-38 86z" />
    <glyph glyph-name="n" unicode="n" horiz-adv-x="533" 
d="M143 441l29 -63q40 36 90 59q10 2 21 3t22 1q81 0 122 -46t41 -121v-274h-112v271q0 37 -17.5 56.5t-48.5 19.5q-29 0 -56 -16t-47 -47v-284h-111v309l-38 86z" />
    <glyph glyph-name="o" unicode="o" horiz-adv-x="528" 
d="M264 441q48 0 87.5 -16t67 -45.5t43 -71t15.5 -93.5q0 -50 -16 -91.5t-44 -71.5t-67.5 -46.5t-85.5 -16.5q-48 0 -87.5 16t-67.5 45t-43 71t-15 94q0 49 16 90.5t44 71.5t67 47t86 17zM264 79q20 0 38.5 5t35.5 18q15 24 21.5 52t6.5 61q0 37 -8.5 62.5t-23 41.5
t-33 23.5t-37.5 7.5q-21 0 -39.5 -5t-35.5 -18q-15 -24 -21 -52t-6 -60q0 -37 8.5 -63t23 -42t32.5 -23.5t38 -7.5z" />
    <glyph glyph-name="p" unicode="p" horiz-adv-x="535" 
d="M172 379q24 20 48 34t52 25q21 3 41 3q79 0 125 -57.5t46 -164.5q0 -55 -15.5 -97.5t-42.5 -72t-64 -45t-79 -15.5q-52 0 -97 21v-120l10 -111h-120v530l-38 86l105 46zM186 106q20 -14 42.5 -21.5t48.5 -7.5q19 0 35.5 5.5t30.5 13.5q30 46 30 122q0 69 -22 101t-64 32
q-32 0 -57.5 -17.5t-43.5 -46.5v-181z" />
    <glyph glyph-name="q" unicode="q" horiz-adv-x="527" 
d="M455 442v-529l11 -134h-121v253q-35 -24 -78 -40q-18 -3 -40 -3q-79 0 -126.5 56.5t-47.5 166.5q0 51 16 93.5t44.5 72.5t67.5 46.5t86 16.5q29 0 53.5 -4t44.5 -12l74 26zM345 333q-16 8 -35.5 13t-41.5 5q-46 0 -80 -27q-24 -41 -24 -112q0 -134 89 -134q26 0 50 14
t42 44v197z" />
    <glyph glyph-name="r" unicode="r" horiz-adv-x="402" 
d="M144 441l28 -64q40 35 88 61q16 3 37 3q20 0 40.5 -4.5t38.5 -15.5l-37 -109q-17 11 -34.5 17.5t-38.5 6.5q-25 0 -44 -14.5t-35 -40.5v-281h-111v311l-36 86z" />
    <glyph glyph-name="s" unicode="s" horiz-adv-x="462" 
d="M95 127q22 -18 46 -30.5t47 -20.5q8 -1 16.5 -1.5t17.5 -0.5q26 0 45 3.5t33 10.5q12 13 12 34q0 10 -3 18t-13 14.5t-27.5 11t-45.5 7.5q-163 18 -163 133q0 59 44.5 97t132.5 38q50 0 92 -12t78 -33l-53 -84q-37 26 -80 41q-17 3 -37 3q-39 0 -66 -12q-5 -6 -7.5 -13.5
t-2.5 -15.5q0 -23 17 -35t62 -17q83 -10 127.5 -42t44.5 -94q0 -64 -47.5 -101t-137.5 -37q-55 0 -99 11t-85 37z" />
    <glyph glyph-name="t" unicode="t" horiz-adv-x="366" 
d="M201 430h113l-6 -93l-105 7v-194q0 -36 12 -52t35 -16q34 0 62 22l26 -81q-23 -18 -50 -26t-59 -8q-72 0 -104 43t-32 112v192l-58 14v68q17 5 31 11t27 13q11 22 20 48.5t14 52.5l80 -5z" />
    <glyph glyph-name="u" unicode="u" horiz-adv-x="524" 
d="M176 435v-277q0 -37 17.5 -56.5t48.5 -19.5q56 0 96 64v186l-9 94l120 9v-314l37 -88l-104 -44l-29 63q-38 -37 -82 -60q-21 -3 -43 -3q-81 0 -122 45.5t-41 120.5v177l-9 94z" />
    <glyph glyph-name="v" unicode="v" horiz-adv-x="476" 
d="M143 435l99 -341h5l40 115q19 54 29 108t14 113h120v-12q-11 -57 -29 -112.5t-42 -110.5l-83 -193l-113 -5l-157 418v11z" />
    <glyph glyph-name="w" unicode="w" horiz-adv-x="684" 
d="M140 435l77 -323h6l34 113q13 44 21 95t13 106l103 5l82 -319h6l34 132q14 52 19.5 98t7.5 88h115v-12q-11 -54 -26.5 -110t-34.5 -111l-67 -196l-115 -5l-65 257h-6l-69 -252l-121 -5l-128 419v11z" />
    <glyph glyph-name="x" unicode="x" horiz-adv-x="494" 
d="M249 277h6l29 45q14 22 24 50.5t15 57.5h123v-12q-13 -38 -37 -76t-54 -74l-42 -49l151 -208v-11h-129l-91 164h-6l-41 -67q-14 -22 -23 -47t-14 -50h-130v11q16 35 37 66t47 63l66 82l-138 193v11l124 9z" />
    <glyph glyph-name="y" unicode="y" horiz-adv-x="484" 
d="M144 435l107 -348h7l43 134q16 51 24.5 104.5t12.5 104.5h120v-11q-9 -52 -25.5 -105t-38.5 -106l-130 -315l-8 -133l-107 5l-7 9q4 52 17.5 102t36.5 98l-170 441v11z" />
    <glyph glyph-name="z" unicode="z" horiz-adv-x="446" 
d="M391 430l4 -60l-218 -287h38l179 13l8 -8l-12 -88h-343l-4 58l218 289h-41l-163 -12l-8 8l11 87h331z" />
    <glyph glyph-name="afii10017" unicode="&#x410;" horiz-adv-x="614" 
d="M375 636l205 -621v-15h-129l-16 96l-18 58l-223 4l-17 -58l-8 -100h-136v15l181 520l8 90zM220 245l169 7l-77 260h-13z" />
    <glyph glyph-name="afii10018" unicode="&#x411;" horiz-adv-x="577" 
d="M275 630l211 5l-14 -109l-185 9h-86v-162q20 9 42 17t42 13q18 3 36 3q45 0 83 -12t65 -36t42.5 -60.5t15.5 -85.5q0 -51 -17 -90.5t-47 -66.5t-71.5 -41t-90.5 -14h-213v520l-10 110h197zM295 94q25 0 47.5 4t40.5 14q17 17 24.5 42t7.5 56q0 52 -28.5 78t-78.5 26
q-29 0 -55.5 -6.5t-51.5 -21.5v-192h94z" />
    <glyph glyph-name="afii10019" unicode="&#x412;" horiz-adv-x="586" 
d="M289 630q109 0 160.5 -46.5t51.5 -121.5q0 -37 -15.5 -65.5t-44.5 -46.5v-7q44 -22 67.5 -58.5t23.5 -89.5q0 -48 -18 -84.5t-49.5 -61t-74.5 -37t-93 -12.5h-209v518l-10 112h211zM201 91h100q52 0 85 17q32 30 32 82q0 96 -114 96h-103v-195zM201 371h90q40 0 70 9
q27 24 27 74q0 40 -24.5 62.5t-80.5 22.5h-82v-168z" />
    <glyph glyph-name="afii10020" unicode="&#x413;" horiz-adv-x="531" 
d="M267 630l219 4l-15 -108l-182 11h-87v-537h-114v518l-10 112h189z" />
    <glyph glyph-name="afii10021" unicode="&#x414;" horiz-adv-x="669" 
d="M560 630v-536l66 6l11 -12l-10 -237h-95l-8 149h-383v-149h-96l-18 192v50h25q25 0 44 24.5t32.5 69t21.5 108t12 141.5l4 82l-11 112h405zM274 536l-5 -97q-4 -77 -10 -134.5t-13.5 -99.5t-17.5 -69.5t-22 -42.5h241v443h-173z" />
    <glyph glyph-name="afii10022" unicode="&#x415;" horiz-adv-x="555" 
d="M488 630l-12 -101l-191 9h-83v-170h68l165 9l-10 -101l-223 5v-189h85l209 11l-5 -103h-403v518l-10 112h410z" />
    <glyph glyph-name="afii10025" unicode="&#x417;" horiz-adv-x="555" 
d="M252 373h20q15 0 27.5 2t26.5 7q29 27 29 76q0 40 -23.5 65.5t-77.5 25.5q-9 0 -19.5 -0.5t-18.5 -2.5q-24 -11 -45 -24.5t-43 -31.5l-68 85q45 35 95 51.5t104 16.5q53 0 92.5 -13.5t65.5 -37.5t38.5 -56.5t12.5 -70.5q0 -35 -15 -65.5t-42 -50.5v-7q43 -21 66.5 -58.5
t23.5 -88.5q0 -50 -18 -89t-50.5 -65.5t-77 -40t-97.5 -13.5q-66 0 -120 19.5t-102 63.5l61 79q35 -33 73 -51t81 -18q32 0 58.5 5.5t46.5 15.5q15 15 22.5 37t7.5 47q0 50 -25.5 76t-82.5 26h-20l-71 -9l-17 93l7 7z" />
    <glyph glyph-name="afii10026" unicode="&#x418;" horiz-adv-x="650" 
d="M200 634v-262l-6 -181h10l244 439h113v-630h-112v265l6 169h-10l-245 -437l-112 4v514l-10 110z" />
    <glyph glyph-name="afii10027" unicode="&#x419;" horiz-adv-x="650" 
d="M200 634v-262l-6 -181h10l244 439h113v-630h-112v265l6 169h-10l-245 -437l-112 4v514l-10 110zM267 878q3 -37 20 -58.5t45 -21.5q26 0 40 12q10 19 10 58l100 13q0 -85 -44 -126.5t-113 -41.5q-63 0 -106.5 39.5t-51.5 106.5z" />
    <glyph glyph-name="afii10028" unicode="&#x41a;" horiz-adv-x="625" 
d="M202 634v-261h36q14 0 28 1.5t29 6.5q17 15 27 39.5t16 59.5q13 83 52.5 120t106.5 37q36 0 63 -9l-11 -97q-21 0 -41.5 -1.5t-37.5 -6.5q-11 -15 -20 -38.5t-15 -59.5q-7 -37 -22.5 -63.5t-38.5 -42.5q20 -42 41.5 -80.5t46 -75.5t52.5 -73.5t62 -74.5v-15l-134 -5
q-50 63 -88 133.5t-68 148.5l-84 3v-280h-114v518l-10 107z" />
    <glyph glyph-name="afii10029" unicode="&#x41b;" horiz-adv-x="658" 
d="M569 630v-630h-113v536h-166l-5 -124q-5 -131 -18.5 -215t-44.5 -136q-21 -35 -54 -52t-81 -17q-46 0 -77 15l23 95q21 -7 43 -7q19 0 34.5 7t23.5 26q10 23 17 55.5t11.5 70.5t7.5 79t6 81l6 104l-7 112h394z" />
    <glyph glyph-name="afii10030" unicode="&#x41c;" horiz-adv-x="773" 
d="M252 634l129 -483h12l130 479h153l43 -630h-122v126l-15 343h-13l-30 -130l-101 -339h-114l-102 344l-26 125h-12l-11 -303v-166h-123l43 507v118z" />
    <glyph glyph-name="afii10031" unicode="&#x41d;" horiz-adv-x="646" 
d="M202 634v-269l242 8v145l-11 107l125 9v-634h-114v269l-242 5v-274h-114v518l-10 107z" />
    <glyph glyph-name="afii10032" unicode="&#x41e;" horiz-adv-x="646" 
d="M323 643q60 0 108.5 -21.5t82.5 -63t52.5 -103t18.5 -140.5q0 -78 -18.5 -139t-53 -103t-83 -64t-107.5 -22q-60 0 -108.5 21.5t-82.5 63t-52.5 102.5t-18.5 141q0 75 19 135.5t53.5 103t82.5 66t107 23.5zM225 513q-23 -38 -36 -87.5t-13 -110.5q0 -62 11 -106t31 -72
t47 -41t60 -13q26 0 51 8t44 24q24 38 37 87.5t13 112.5q0 62 -11 106t-31 72t-47 41t-60 13q-27 0 -51.5 -8.5t-44.5 -25.5z" />
    <glyph glyph-name="afii10033" unicode="&#x41f;" horiz-adv-x="637" 
d="M548 630v-630h-113v535h-233v-535h-114v521l-10 109h470z" />
    <glyph glyph-name="afii10034" unicode="&#x420;" horiz-adv-x="571" 
d="M295 630q48 0 89.5 -13t72.5 -39.5t49 -65.5t18 -91q0 -49 -15.5 -89t-43.5 -68t-66.5 -43.5t-84.5 -15.5q-32 0 -60.5 5t-51.5 15v-225h-114v512l-10 118h217zM202 312q23 -6 46.5 -9.5t49.5 -3.5t48.5 6t37.5 17q25 38 25 98q0 59 -31.5 87.5t-89.5 28.5h-86v-224z" />
    <glyph glyph-name="afii10035" unicode="&#x421;" horiz-adv-x="587" 
d="M446 474q-20 20 -44.5 37.5t-51.5 31.5q-12 3 -33 3q-23 0 -48.5 -8.5t-45.5 -24.5q-23 -38 -35 -85.5t-12 -112.5q0 -60 11.5 -103.5t31.5 -72t47.5 -42t60.5 -13.5q42 0 79.5 18t66.5 52l63 -77q-42 -46 -97 -68t-118 -22q-65 0 -114 23.5t-81.5 66t-48.5 103
t-16 135.5q0 76 19 137t54 103.5t84 65t108 22.5t108.5 -18t84.5 -51z" />
    <glyph glyph-name="afii10036" unicode="&#x422;" horiz-adv-x="530" 
d="M198 630h134l169 6l-5 -110l-141 9h-35v-535h-114v535h-34l-144 -8l8 108z" />
    <glyph glyph-name="afii10037" unicode="&#x423;" horiz-adv-x="567" 
d="M166 634l36 -125l94 -235h10l79 224l25 132h126v-15l-47 -135l-126 -291l-23 -79q-17 -58 -54 -90.5t-97 -32.5q-20 0 -41 4t-36 11l15 94q27 -9 50 -9q24 0 46 8q14 22 24 60l-216 456v15z" />
    <glyph glyph-name="afii10038" unicode="&#x424;" horiz-adv-x="747" 
d="M431 654v-124q15 6 34 9.5t37 3.5q90 0 143 -57.5t53 -163.5q0 -54 -15.5 -96t-42.5 -70.5t-63.5 -43t-77.5 -14.5q-18 0 -36 2.5t-32 7.5v-108h-113v111q-16 -7 -34.5 -10t-36.5 -3q-91 0 -144.5 56.5t-53.5 162.5q0 54 15.5 96.5t42.5 71t63.5 43.5t78.5 15
q40 0 69 -10v16l-11 96zM262 188q30 0 56 12v242q-27 10 -57 10q-19 0 -37.5 -4.5t-33.5 -13.5q-28 -44 -28 -116q0 -63 24.5 -96.5t75.5 -33.5zM487 453q-31 0 -56 -11v-243q27 -10 56 -10q31 0 50 10.5t29.5 28.5t14 42t3.5 52q0 63 -24 97t-73 34z" />
    <glyph glyph-name="afii10039" unicode="&#x425;" horiz-adv-x="577" 
d="M182 634l31 -90l79 -153h7l69 138l28 101h132v-16l-60 -120l-105 -170l181 -308v-16h-143l-31 89l-85 170h-8l-77 -161l-32 -98h-136v15l48 94l134 215l-167 286v15z" />
    <glyph glyph-name="afii10040" unicode="&#x426;" horiz-adv-x="654" 
d="M202 634v-541h222v425l-10 107l124 9v-540l69 6l12 -12l-11 -237h-95l-9 149h-416v518l-10 107z" />
    <glyph glyph-name="afii10041" unicode="&#x427;" horiz-adv-x="613" 
d="M186 634v-210q0 -60 29 -91.5t86 -31.5q32 0 60 10t49 27v183l-10 104l124 9v-634h-114v246q-44 -24 -97 -38q-7 -1 -14.5 -1.5t-15.5 -0.5q-106 0 -158 56t-52 153v106l-11 104z" />
    <glyph glyph-name="afii10042" unicode="&#x428;" horiz-adv-x="894" 
d="M202 634v-541h188v425l-10 107l124 9v-541h188v425l-10 107l124 9v-634h-718v518l-10 107z" />
    <glyph glyph-name="afii10043" unicode="&#x429;" horiz-adv-x="921" 
d="M202 634v-541h188v425l-10 107l124 9v-541h188v425l-10 107l124 9v-540l69 6l11 -12l-10 -237h-95l-9 149h-684v518l-10 107z" />
    <glyph glyph-name="afii10044" unicode="&#x42a;" horiz-adv-x="627" 
d="M165 630h92v-244q20 11 41 19.5t44 14.5q5 1 11 1.5t12 0.5q98 0 156.5 -52t58.5 -154q0 -51 -17.5 -91.5t-47.5 -68t-71 -42t-89 -14.5h-211v536l-28 1l-98 -6l11 103zM346 92q25 0 46.5 4t40.5 14q15 19 23 46.5t8 55.5q0 57 -27.5 87t-81.5 30q-52 0 -98 -29v-208h89z
" />
    <glyph glyph-name="afii10045" unicode="&#x42b;" horiz-adv-x="812" 
d="M202 634v-248q40 21 87 34q5 1 11.5 1.5t11.5 0.5q49 0 88.5 -13t67.5 -39t43.5 -64.5t15.5 -89.5t-17.5 -91.5t-47.5 -68t-71 -42t-89 -14.5h-214v518l-10 107zM293 92q49 0 87 18q31 38 31 102q0 57 -27.5 87t-81.5 30q-56 0 -100 -29v-208h91zM723 634v-634h-114v521
l-11 104z" />
    <glyph glyph-name="afii10046" unicode="&#x42c;" horiz-adv-x="574" 
d="M202 634v-248q40 21 87 34q5 1 11.5 1.5t11.5 0.5q49 0 88.5 -13t67.5 -39t43.5 -64.5t15.5 -89.5t-17.5 -91.5t-47.5 -68t-71 -42t-89 -14.5h-214v518l-10 107zM293 92q49 0 87 18q31 39 31 102q0 57 -27.5 87t-81.5 30q-56 0 -100 -29v-208h91z" />
    <glyph glyph-name="afii10047" unicode="&#x42d;" horiz-adv-x="564" 
d="M51 580q81 63 192 63q63 0 111.5 -22.5t81.5 -64.5t50 -101.5t17 -132.5q0 -74 -17 -136t-51 -106t-85.5 -68.5t-119.5 -24.5q-60 0 -105 17t-85 55l60 81q33 -32 65 -45t69 -13q59 0 105 32q20 32 31.5 72t15.5 93h-41l-150 -10l-12 96l8 9l156 -9h39q-7 88 -45 135.5
t-104 47.5q-19 0 -34 -3q-24 -13 -47 -30t-46 -37z" />
    <glyph glyph-name="afii10048" unicode="&#x42e;" horiz-adv-x="850" 
d="M202 634v-273l92 8q6 63 25.5 113.5t50.5 86.5t73.5 55t95.5 19q118 0 184 -82t66 -246q0 -77 -17.5 -138t-49.5 -103t-78.5 -64.5t-104.5 -22.5q-112 0 -174 72.5t-72 207.5h-91v-267h-114v521l-11 104zM449 518q-44 -79 -44 -203q0 -118 35.5 -176.5t101.5 -58.5
q46 0 84 30q49 81 49 205q0 63 -9.5 107.5t-27.5 72.5t-43.5 41t-58.5 13q-52 0 -87 -31z" />
    <glyph glyph-name="afii10049" unicode="&#x42f;" horiz-adv-x="604" 
d="M515 0h-113v242q-22 -10 -46 -17t-52 -12q-15 -51 -36 -94.5t-50 -76.5q-44 -50 -112 -50q-21 0 -38 3.5t-31 10.5l17 102q11 -5 22 -6.5t22 -1.5q17 0 35 5q22 23 39.5 52.5t31.5 65.5q-59 19 -93.5 67t-34.5 125q0 51 17 91t47.5 67.5t72 42t89.5 14.5h213v-630z
M311 537q-48 0 -88 -19q-17 -20 -24.5 -44.5t-7.5 -55.5q0 -56 28 -84t81 -28q58 0 102 30v201h-91z" />
    <glyph glyph-name="afii10065" unicode="&#x430;" horiz-adv-x="499" 
d="M58 380q86 61 199 61q82 0 123.5 -44.5t41.5 -125.5v-157l47 -74l-86 -55l-45 63q-21 -18 -45 -32t-50 -24q-18 -3 -44 -3q-70 0 -109.5 33.5t-39.5 93.5q0 54 36.5 88.5t104.5 43.5l122 17l3 10v15q0 30 -19.5 46t-51.5 16q-14 0 -26.5 -1t-22.5 -3q-20 -10 -39.5 -22
t-37.5 -28zM313 185l-93 -6q-28 -2 -49 -13q-11 -17 -11 -39q0 -24 15 -37.5t45 -13.5q59 0 93 47v62z" />
    <glyph glyph-name="afii10066" unicode="&#x431;" horiz-adv-x="529" 
d="M484 636l-63 -98l-142 -28q-34 -7 -57 -19.5t-39 -30.5q-11 -25 -17 -48t-7 -47h7q18 14 38.5 24.5t43.5 18.5q15 4 35 4q92 0 143.5 -52.5t51.5 -155.5q0 -54 -17 -94.5t-46 -67.5t-67.5 -40t-81.5 -13q-215 0 -215 282q0 138 50.5 225t160.5 110l82 17l48 68zM161 211
q0 -63 27.5 -98.5t78.5 -35.5q23 0 40 5.5t34 17.5q13 20 19.5 46.5t6.5 62.5q0 53 -24.5 84t-78.5 31q-23 0 -46.5 -9t-40.5 -24q-16 -36 -16 -80z" />
    <glyph glyph-name="afii10067" unicode="&#x432;" horiz-adv-x="480" 
d="M374 228q63 -25 63 -98q0 -33 -13 -57.5t-35 -40.5t-51 -24t-62 -8h-208v330l-8 100h207q31 0 58 -8t47 -23t31.5 -36.5t11.5 -49.5q0 -54 -41 -78v-7zM176 257h76q21 0 41 5q15 14 15 38q0 26 -15.5 37t-44.5 11h-72v-91zM176 81h88q29 0 50 9q8 8 11 18t3 21
q0 51 -67 51h-85v-99z" />
    <glyph glyph-name="afii10068" unicode="&#x433;" horiz-adv-x="410" 
d="M277 430l104 4l-8 -99l-127 10h-68v-345h-110v329l-8 101h217z" />
    <glyph glyph-name="afii10069" unicode="&#x434;" horiz-adv-x="547" 
d="M456 430v-345l53 4l8 -8v-43l-8 -148h-89l-7 110h-280v-110h-92l-15 157v38h26q17 0 32 16t26 43.5t17.5 64.5t6.5 79v52l-9 90h331zM231 344v-57q0 -59 -12.5 -114.5t-34.5 -87.5h165v259h-118z" />
    <glyph glyph-name="afii10070" unicode="&#x435;" horiz-adv-x="500" 
d="M247 180l-85 3q1 -51 30 -78t77 -27q36 0 68 10t64 32l43 -79q-77 -52 -178 -52q-103 0 -159 60t-56 166q0 51 15.5 92.5t44 71.5t67 46t85.5 16q44 0 78.5 -15t58.5 -42.5t36.5 -66t12.5 -86.5v-41zM339 267q0 39 -22.5 62.5t-60.5 23.5q-45 0 -73 -24q-21 -30 -21 -73z
" />
    <glyph glyph-name="afii10073" unicode="&#x437;" horiz-adv-x="449" 
d="M227 256q22 0 39 6q12 15 12 40q0 27 -16 41t-45 14q-20 0 -42 -5q-20 -8 -39 -19t-39 -26l-50 91q77 43 179 43q34 0 63.5 -9.5t51 -26t33.5 -40t12 -51.5q0 -27 -11 -47.5t-30 -31.5v-7q62 -26 62 -99q0 -32 -14 -58t-38.5 -44t-59.5 -28t-77 -10q-57 0 -102.5 12.5
t-87.5 45.5l50 77q34 -28 69 -40t69 -12q43 0 67 11q15 16 15 46q0 52 -67 52l-74 -7l-11 81l4 6z" />
    <glyph glyph-name="afii10074" unicode="&#x438;" horiz-adv-x="527" 
d="M179 435v-134l-7 -140h7l186 270l90 -2v-429h-107v121l7 136h-7l-184 -262l-93 5v323l-8 103z" />
    <glyph glyph-name="afii10075" unicode="&#x439;" horiz-adv-x="528" 
d="M179 435v-134l-7 -140h7l186 270l90 -2v-429h-107v121l7 136h-7l-184 -262l-93 5v323l-8 103zM211 680q7 -77 56 -77q23 0 39 11q11 24 11 59l93 12q0 -42 -11 -72.5t-30.5 -50.5t-47 -29.5t-59.5 -9.5q-59 0 -98 37t-47 103z" />
    <glyph glyph-name="afii10076" unicode="&#x43a;" horiz-adv-x="495" 
d="M179 435v-170h18q15 0 29 2t25 7q19 19 27 54q12 57 45.5 83t79.5 26q31 0 55 -11l-10 -87q-18 0 -33.5 -1.5t-29.5 -6.5q-14 -22 -21 -47q-18 -47 -48 -67q29 -54 66.5 -103.5t88.5 -103.5l-2 -10l-119 -4q-69 81 -116 188h-55v-184h-110v320l-8 106z" />
    <glyph glyph-name="afii10077" unicode="&#x43b;" horiz-adv-x="552" 
d="M476 430v-430h-109v344h-114l-3 -55q-6 -107 -21.5 -168.5t-44.5 -93.5q-32 -37 -92 -37q-45 0 -73 15l23 87q20 -7 40 -7q28 0 44.5 42.5t23.5 138.5l5 66l-10 98h331z" />
    <glyph glyph-name="afii10078" unicode="&#x43c;" horiz-adv-x="635" 
d="M225 433l86 -304h8l65 235l11 66h142l51 -430h-116l-2 99l-15 203h-8l-24 -93l-64 -204l-95 -6l-64 196l-27 107h-8l-15 -186v-116h-105l9 100l34 231l-10 95z" />
    <glyph glyph-name="afii10079" unicode="&#x43d;" horiz-adv-x="529" 
d="M458 0h-109v172l-169 3v-175h-109v336l-9 90l118 9v-181l169 7v75l-9 90l118 9v-435z" />
    <glyph glyph-name="afii10080" unicode="&#x43e;" horiz-adv-x="528" 
d="M264 441q48 0 87.5 -16t67 -45.5t43 -71t15.5 -93.5q0 -50 -16 -91.5t-44 -71.5t-67.5 -46.5t-85.5 -16.5q-48 0 -87.5 16t-67.5 45t-43 71t-15 94q0 49 16 90.5t44 71.5t67 47t86 17zM264 79q20 0 38.5 5t35.5 18q15 24 21.5 52t6.5 61q0 37 -8.5 62.5t-23 41.5
t-33 23.5t-37.5 7.5q-21 0 -39.5 -5t-35.5 -18q-15 -24 -21 -52t-6 -60q0 -37 8.5 -63t23 -42t32.5 -23.5t38 -7.5z" />
    <glyph glyph-name="afii10081" unicode="&#x43f;" horiz-adv-x="524" 
d="M452 430v-430h-109v344h-163v-344h-109v330l-9 100h390z" />
    <glyph glyph-name="afii10082" unicode="&#x440;" horiz-adv-x="535" 
d="M172 379q24 20 48 34t52 25q21 3 41 3q79 0 125 -57.5t46 -164.5q0 -55 -15.5 -97.5t-42.5 -72t-64 -45t-79 -15.5q-52 0 -97 21v-120l10 -111h-120v530l-38 86l105 46zM186 106q20 -14 42.5 -21.5t48.5 -7.5q19 0 35.5 5.5t30.5 13.5q30 46 30 122q0 69 -22 101t-64 32
q-32 0 -57.5 -17.5t-43.5 -46.5v-181z" />
    <glyph glyph-name="afii10083" unicode="&#x441;" horiz-adv-x="473" 
d="M352 304q-15 14 -31.5 25t-36.5 20q-6 1 -13 1.5t-14 0.5q-39 0 -69 -24q-14 -23 -20 -49.5t-6 -60.5q0 -68 30.5 -102.5t79.5 -34.5q59 0 112 44l48 -80q-37 -29 -79 -42t-90 -13q-50 0 -89.5 16t-66.5 45t-41.5 70.5t-14.5 92.5q0 54 16.5 96.5t45.5 72t69 44.5t87 15
q95 0 158 -52z" />
    <glyph glyph-name="afii10084" unicode="&#x442;" horiz-adv-x="414" 
d="M174 428h72l147 6l-4 -98l-132 9v-345h-107v345l-129 -9l6 98z" />
    <glyph glyph-name="afii10085" unicode="&#x443;" horiz-adv-x="484" 
d="M143 435l114 -346h7l42 132q16 49 23 102.5t9 106.5h120v-12q-9 -53 -25 -107.5t-37 -108.5l-79 -202l-14 -52q-19 -76 -60.5 -119.5t-120.5 -54.5l-26 107q28 2 49 6.5t37 9.5q10 13 17 32t9 42l-182 444v11z" />
    <glyph glyph-name="afii10087" unicode="&#x445;" horiz-adv-x="494" 
d="M249 277h6l29 45q14 22 24 50.5t15 57.5h123v-12q-13 -38 -37 -76t-54 -74l-42 -49l151 -208v-11h-129l-91 164h-6l-41 -67q-14 -22 -23 -47t-14 -50h-130v11q16 35 37 66t47 63l66 82l-138 193v11l124 9z" />
    <glyph glyph-name="afii10088" unicode="&#x446;" horiz-adv-x="531" 
d="M180 435v-350h151v248l-8 93l118 9v-350l51 4l9 -8v-47l-8 -144h-88l-8 110h-326v335l-9 91z" />
    <glyph glyph-name="afii10089" unicode="&#x447;" horiz-adv-x="500" 
d="M163 435v-147q0 -83 67 -83q58 0 89 51v73l-8 97l118 9v-435h-110v156q-17 -11 -36.5 -21t-40.5 -16q-18 -3 -35 -3q-78 0 -116 44.5t-38 121.5v47l-8 97z" />
    <glyph glyph-name="afii10090" unicode="&#x448;" horiz-adv-x="721" 
d="M178 435v-350h129v245l-9 96l116 9v-350h128v245l-8 96l116 9v-435h-579v330l-9 96z" />
    <glyph glyph-name="afii10091" unicode="&#x449;" horiz-adv-x="741" 
d="M178 435v-350h129v245l-9 96l116 9v-350h128v245l-8 96l116 9v-350l52 4l9 -8v-47l-8 -144h-88l-8 110h-536v330l-9 96z" />
    <glyph glyph-name="afii10092" unicode="&#x44a;" horiz-adv-x="507" 
d="M116 346h-14l-89 -6l7 94l101 -4h103v-154q15 9 30 16t33 13q6 1 12 1.5t12 0.5q76 0 118.5 -41.5t42.5 -106.5q0 -32 -12 -61t-34.5 -51t-55 -34.5t-74.5 -12.5h-180v346zM290 85q29 0 53 8q11 10 16.5 27t5.5 37q0 30 -17.5 47t-51.5 17q-25 0 -42 -7.5t-30 -19.5v-109
h66z" />
    <glyph glyph-name="afii10093" unicode="&#x44b;" horiz-adv-x="661" 
d="M590 435v-435h-107v329l-8 97zM179 435v-159q15 9 29.5 16t31.5 13q6 1 12.5 1.5t12.5 0.5q76 0 118.5 -41.5t42.5 -106.5q0 -32 -12 -61t-34.5 -51t-55.5 -34.5t-75 -12.5h-178v326l-9 100zM244 85q29 0 53 8q11 10 16 27t5 37q0 30 -17 47t-51 17q-25 0 -42 -7.5
t-29 -19.5v-109h65z" />
    <glyph glyph-name="afii10094" unicode="&#x44c;" horiz-adv-x="468" 
d="M179 435v-159q28 17 66 29q6 1 12.5 1.5t12.5 0.5q76 0 119.5 -41t43.5 -107q0 -32 -12 -61t-34.5 -51t-55.5 -34.5t-75 -12.5h-185v326l-9 100zM249 85q30 0 54 8q11 10 16 27t5 37q0 64 -69 64q-25 0 -44 -7.5t-32 -19.5v-109h70z" />
    <glyph glyph-name="afii10095" unicode="&#x44d;" horiz-adv-x="472" 
d="M50 397q35 22 73.5 33t85.5 11q44 0 82.5 -14.5t67 -43t45 -70.5t16.5 -98q0 -50 -15.5 -91.5t-43.5 -71.5t-67.5 -46.5t-88.5 -16.5q-54 0 -94.5 13t-77.5 43l49 80q57 -48 120 -48q48 0 77 21q22 30 30 83l-137 -12l-10 85l4 6l81 -5h61q-8 48 -33 73t-62 25
q-19 0 -32 -3q-19 -8 -38.5 -19.5t-39.5 -25.5z" />
    <glyph glyph-name="afii10096" unicode="&#x44e;" horiz-adv-x="692" 
d="M442 441q98 0 148.5 -61t50.5 -165q0 -50 -13.5 -91.5t-39.5 -71.5t-63 -46.5t-83 -16.5q-87 0 -135.5 48.5t-59.5 133.5l-68 3v-174h-108v335l-9 91l117 9v-177l69 5q12 80 62.5 129t131.5 49zM442 79q41 0 67 20q12 21 18 51t6 65q0 74 -24.5 104.5t-66.5 30.5
q-40 0 -67 -21q-13 -23 -19 -52.5t-6 -61.5q0 -74 25 -105t67 -31z" />
    <glyph glyph-name="afii10097" unicode="&#x44f;" horiz-adv-x="486" 
d="M414 0h-108v153q-36 -14 -73 -20q-13 -60 -46.5 -100.5t-86.5 -40.5q-21 0 -38.5 2.5t-32.5 7.5l19 88q9 -3 19 -5t19 -2q17 0 30 4q9 11 17 23.5t15 29.5q-45 16 -70 51t-25 83q0 31 11.5 59.5t34 50t55.5 34t76 12.5h184v-430zM236 344q-15 0 -29 -1.5t-25 -6.5
q-21 -20 -21 -61q0 -62 69 -62q45 0 76 20v111h-70z" />
    <glyph glyph-name="afii10072.1" horiz-adv-x="711" 
d="M412 0h-108v184h-57q-19 -54 -46.5 -100.5t-60.5 -87.5l-116 4l-3 10q51 54 87 104.5t62 106.5q-29 20 -38 64q-3 13 -7.5 25.5t-9.5 21.5q-13 5 -29.5 6.5t-33.5 1.5l-5 87q12 5 27.5 7t31.5 2q44 0 72 -24.5t39 -83.5q6 -36 23 -49.5t44 -13.5h20v64l-8 98l116 9v-171
h18q29 0 48 10q13 22 19 52q11 58 41 83.5t75 25.5q34 0 58 -11l-9 -84q-17 0 -32.5 -1.5t-29.5 -6.5q-12 -19 -20 -50q-10 -43 -35 -63q26 -55 60 -105.5t85 -104.5l-3 -10l-116 -4q-67 81 -105 188h-54v-184z" />
    <glyph glyph-name="Q.1" horiz-adv-x="646" 
d="M323 643q60 0 108.5 -21.5t82 -63t52 -103t18.5 -140.5q0 -116 -40 -193t-111 -111q30 -21 63.5 -40.5t73.5 -39.5v-14l-88 -76q-84 65 -161 146q-120 1 -190 85t-70 243q0 75 18.5 135.5t53 103t83 66t107.5 23.5zM224 513q-23 -38 -35.5 -87.5t-12.5 -110.5
q0 -62 11 -106t31 -72t47 -41t60 -13q26 0 50.5 8t43.5 24q24 38 37.5 87.5t13.5 112.5q0 62 -11 106t-31 72t-47.5 41t-60.5 13q-26 0 -51 -8.5t-45 -25.5z" />
    <glyph glyph-name="afii10023" unicode="&#x401;" horiz-adv-x="555" 
d="M488 630l-12 -101l-191 9h-83v-170h68l165 9l-10 -101l-223 5v-189h85l209 11l-5 -103h-403v518l-10 112h410zM452 856v-124l-124 4l5 112zM235 857v-125l-124 4l4 110z" />
    <glyph glyph-name="afii10071" unicode="&#x451;" horiz-adv-x="500" 
d="M247 180l-85 3q1 -51 30 -78t77 -27q36 0 68 10t64 32l43 -79q-77 -52 -178 -52q-103 0 -159 60t-56 166q0 51 15.5 92.5t44 71.5t67 46t85.5 16q44 0 78.5 -15t58.5 -42.5t36.5 -66t12.5 -86.5v-41zM339 267q0 39 -22.5 62.5t-60.5 23.5q-45 0 -73 -24q-21 -30 -21 -73z
M411 652v-116l-117 4l4 105zM220 653v-117l-117 5l4 102z" />
    <glyph glyph-name="afii10024.1" horiz-adv-x="898" 
d="M508 634v-261h17q14 0 29 2t29 7q14 15 22.5 39t14.5 59q13 80 48.5 118t97.5 38q21 0 40 -2.5t33 -7.5l-8 -100q-21 0 -41 -2t-37 -7q-12 -15 -20 -36t-15 -56q-14 -73 -48 -103q19 -44 38 -82.5t41.5 -75.5t49 -73.5t59.5 -75.5v-15l-136 -6q-45 65 -80 135t-61 146
l-73 3v-278h-114v278l-88 -3q-22 -72 -54 -141.5t-79 -138.5l-133 5v14q33 42 59 80t47 75.5t39.5 76.5t37.5 83q-39 37 -46 99q-8 59 -33 89q-17 5 -38 7t-42 2l-6 100q29 10 71 10q63 0 98.5 -38.5t47.5 -118.5q8 -56 27 -81t63 -25h29v144l-10 108z" />
    <glyph glyph-name="zero.slash" horiz-adv-x="616" 
d="M308 643q118 0 182 -86t64 -242q0 -73 -17 -133.5t-49 -103.5t-77.5 -67t-102.5 -24q-118 0 -182.5 86t-64.5 242q0 73 17 133t49.5 103.5t78 67.5t102.5 24zM215 511q-21 -37 -31 -87.5t-10 -108.5q0 -37 3 -68l235 232q-34 68 -107 68q-54 0 -90 -36zM441 315
q0 31 -3 60l-237 -221q34 -71 109 -71q27 0 50 9t40 26q21 37 31 88t10 109z" />
    <glyph glyph-name="aogonek" unicode="&#x105;" horiz-adv-x="504" 
d="M58 380q86 61 199 61q82 0 123.5 -44.5t41.5 -125.5v-157l49 -75q-17 -5 -33 -12.5t-30 -17.5q-11 -18 -11 -46t19.5 -44.5t57.5 -16.5l5 -8l-32 -80q-31 0 -56.5 9.5t-44 26t-28.5 38t-10 46.5q0 56 43 96l-13 18q-21 -18 -45 -32t-50 -24q-18 -3 -44 -3
q-70 0 -109.5 33.5t-39.5 93.5q0 54 36.5 88.5t104.5 43.5l122 17l3 10v15q0 30 -19.5 46t-51.5 16q-14 0 -26.5 -1t-22.5 -3q-20 -10 -39.5 -22t-37.5 -28zM313 185l-93 -6q-28 -2 -49 -13q-11 -17 -11 -39q0 -24 15 -37.5t45 -13.5q59 0 93 47v62z" />
    <glyph glyph-name="circumi" horiz-adv-x="240" 
d="M135 705l62 -63l62 -52v-14l-70 -63l-74 80l-79 -76l-56 53v14l68 57l62 64h25z" />
    <glyph glyph-name="eogonek" unicode="&#x119;" horiz-adv-x="500" 
d="M247 180l-85 3q1 -51 30 -78t77 -27q36 0 68 10t64 32l43 -79q-31 -21 -65 -34q-14 -21 -14 -50q0 -27 19.5 -42.5t61.5 -15.5l5 -9l-32 -79q-68 0 -105 34t-37 83q0 37 14 62q-6 0 -12.5 -0.5t-12.5 -0.5q-103 0 -159 60t-56 166q0 51 15.5 92.5t44 71.5t67 46t85.5 16
q44 0 78.5 -15t58.5 -42.5t36.5 -66t12.5 -86.5v-41zM339 267q0 39 -22.5 62.5t-60.5 23.5q-45 0 -73 -24q-21 -30 -21 -73z" />
    <glyph glyph-name="Scedilla" unicode="&#x15e;" horiz-adv-x="557" 
d="M414 482q-18 19 -42 34t-52 29q-8 2 -18 3t-19 1q-49 0 -84 -19q-9 -11 -13.5 -27t-4.5 -33q0 -40 27 -63.5t90 -32.5q204 -30 204 -197q0 -80 -52.5 -129.5t-140.5 -58.5v-44q74 -24 74 -109q0 -63 -48.5 -108t-149.5 -56l-9 8l15 92q29 2 50 7t39 14q9 16 9 38
q0 43 -44 43q-8 0 -17 -2t-16 -4l-12 16l22 105q-49 5 -90 21t-81 46l62 98q30 -25 58.5 -41t57.5 -27q11 -2 21.5 -3t21.5 -1q59 0 94 20q14 14 20.5 32.5t6.5 38.5q0 41 -27 65.5t-94 32.5q-97 12 -148 61t-51 129q0 40 15 73.5t42 57.5t64.5 37.5t83.5 13.5
q62 0 114.5 -17.5t94.5 -50.5z" />
    <glyph glyph-name="Idieresis" unicode="&#xcf;" horiz-adv-x="291" 
d="M202 634v-634h-114v515l-10 110zM301 856v-124l-122 4l6 113zM112 858v-126l-121 4l4 110z" />
    <glyph glyph-name="Idotaccent" unicode="&#x130;" horiz-adv-x="291" 
d="M202 634v-634h-114v515l-10 110zM210 860v-131l-129 4l4 116z" />
    <glyph glyph-name="Amacron" unicode="&#x100;" horiz-adv-x="614" 
d="M375 636l205 -621v-15h-129l-16 96l-18 58l-223 4l-17 -58l-8 -100h-136v15l181 520l8 90zM220 245l169 7l-77 260h-13zM338 840l133 17l9 -8l-12 -102l-334 -8l-9 7l17 87z" />
    <glyph glyph-name="Emacron" unicode="&#x112;" horiz-adv-x="555" 
d="M488 630l-12 -101l-191 9h-83v-170h68l165 9l-10 -101l-223 5v-189h85l209 11l-5 -103h-403v518l-10 112h410zM325 840l133 17l9 -8l-12 -102l-334 -8l-9 7l17 87z" />
    <glyph glyph-name="Imacron" horiz-adv-x="291" 
d="M202 634v-634h-114v515l-10 110zM158 841l125 16l9 -8l-12 -103l-269 -7l-9 7l17 87z" />
    <glyph glyph-name="Aogonek" unicode="&#x104;" horiz-adv-x="614" 
d="M375 636l205 -621v-15q-34 0 -68 -13q-14 -22 -14 -50q0 -25 18 -42.5t69 -17.5l6 -10l-34 -87q-76 0 -117.5 38.5t-41.5 99.5q0 30 11.5 58.5t36.5 51.5l-11 68l-18 58l-223 4l-17 -58l-8 -100h-136v15l181 520l8 90zM220 245l169 7l-77 260h-13z" />
    <glyph glyph-name="Eogonek" unicode="&#x118;" horiz-adv-x="559" 
d="M488 630l-12 -101l-191 9h-83v-170h68l165 9l-10 -100l-223 5v-190h85l209 11l-5 -103h-9q-15 -1 -30.5 -4.5t-28.5 -9.5q-14 -22 -14 -50q0 -24 18 -42t69 -18l6 -9l-34 -87q-76 0 -118 38.5t-42 98.5q0 23 6 44t19 39h-245v518l-10 112h410z" />
    <glyph glyph-name="Aring" unicode="&#xc5;" horiz-adv-x="614" 
d="M375 636l205 -621v-15h-129l-16 96l-18 58l-223 4l-17 -58l-8 -100h-136v15l181 520l8 90zM220 245l169 7l-77 260h-13zM305 957q31 0 56 -10t42 -27.5t26 -40.5t9 -50q0 -25 -9.5 -47.5t-27 -40t-42 -28t-54.5 -10.5q-63 0 -98 36t-35 90q0 25 9.5 48t27 41t42 28.5
t54.5 10.5zM305 876q-23 0 -36 -9q-9 -15 -9 -37q0 -21 12.5 -34t32.5 -13q10 0 19.5 2.5t16.5 6.5q9 13 9 38q0 21 -12.5 33.5t-32.5 12.5z" />
    <glyph glyph-name="atilde" unicode="&#xe3;" horiz-adv-x="504" 
d="M58 380q86 61 199 61q82 0 123.5 -44.5t41.5 -125.5v-157l47 -74l-86 -55l-45 63q-21 -18 -45 -32t-50 -24q-18 -3 -44 -3q-70 0 -109.5 33.5t-39.5 93.5q0 54 36.5 88.5t104.5 43.5l122 17l3 10v15q0 30 -19.5 46t-51.5 16q-14 0 -26.5 -1t-22.5 -3q-20 -10 -39.5 -22
t-37.5 -28zM313 185l-93 -6q-28 -2 -49 -13q-11 -17 -11 -39q0 -24 15 -37.5t45 -13.5q59 0 93 47v62zM95 612q17 17 34.5 30.5t36.5 23.5q10 3 22 3q21 0 37.5 -6t31.5 -14.5t30.5 -17t35.5 -12.5q27 9 53 30l40 -68q-32 -34 -73 -54q-5 -1 -10.5 -2t-11.5 -1
q-21 0 -37.5 6.5t-31.5 14.5t-30.5 16.5t-35.5 12.5q-28 -10 -51 -30z" />
    <glyph glyph-name="itilde" unicode="&#x129;" horiz-adv-x="240" 
d="M175 435v-435h-110v332l-9 94zM-22 610q17 17 36 30.5t40 21.5q9 3 21 3q21 0 34 -6t24 -14.5t21 -17t25 -12.5q24 9 50 29l37 -65q-36 -34 -77 -52q-5 -1 -10.5 -2t-11.5 -1q-20 0 -33.5 6.5t-24 14.5t-20.5 16.5t-25 12.5q-24 -6 -48 -27z" />
    <glyph glyph-name="dotlessi" unicode="&#x131;" horiz-adv-x="240" 
d="M175 435v-435h-110v332l-9 94z" />
    <glyph glyph-name="AE" unicode="&#xc6;" horiz-adv-x="869" 
d="M802 630l-12 -101l-178 9h-83v-170h69l150 9l-9 -100l-210 5v-190h86l195 11l-6 -103h-388v160l-203 4l-26 -56l-25 -108h-141v15l256 503l24 117l129 -5h372zM252 249l164 7v278h-32z" />
    <glyph glyph-name="OE" unicode="&#x152;" horiz-adv-x="884" 
d="M304 643q45 0 79 -17t58 -45v49h376l-12 -101l-178 9h-83v-170h69l150 9l-9 -100l-210 5v-190h86l195 11l-6 -103h-378v51q-25 -31 -59.5 -47.5t-77.5 -16.5q-116 0 -179.5 82.5t-63.5 245.5q0 75 17 135.5t49 103t76.5 66t100.5 23.5zM218 515q-22 -38 -32 -87.5
t-10 -112.5q0 -124 35 -178t95 -54q26 0 48.5 8t39.5 24q22 37 32 85.5t10 114.5q0 126 -34.5 179t-95.5 53q-53 0 -88 -32z" />
    <glyph glyph-name="ae" unicode="&#xe6;" horiz-adv-x="758" 
d="M58 380q86 61 196 61q43 0 75.5 -15t51.5 -39q27 26 62.5 40t77.5 14q44 0 78.5 -15t58.5 -42.5t36.5 -66t12.5 -86.5v-41l-200 -10l-87 4q2 -55 31 -80.5t76 -25.5q36 0 68 10t64 32l43 -79q-77 -52 -178 -52q-108 0 -166 70q-54 -45 -115 -67q-21 -3 -44 -3
q-70 0 -109.5 33t-39.5 93q0 54 37.5 91t111.5 45l114 12l3 11v16q0 29 -19.5 45.5t-51.5 16.5q-14 0 -26 -1t-23 -3q-20 -10 -39.5 -22t-37.5 -28zM219 76q59 0 94 46v62l-88 -6q-16 -1 -30.5 -4.5t-23.5 -8.5q-11 -17 -11 -37q0 -52 59 -52zM597 267q0 39 -22.5 62.5
t-60.5 23.5q-45 0 -73 -24q-9 -13 -14 -31.5t-7 -40.5z" />
    <glyph glyph-name="oe" unicode="&#x153;" horiz-adv-x="807" 
d="M555 180l-86 3q2 -51 30.5 -78t77.5 -27q36 0 67.5 10t63.5 32l43 -79q-76 -52 -178 -52q-104 0 -158 66q-28 -32 -66.5 -49t-84.5 -17q-48 0 -87.5 16t-67.5 45t-43 71t-15 94q0 49 16 90.5t44 71.5t67 47t86 17q49 0 88.5 -17.5t65.5 -48.5q57 66 153 66q44 0 78.5 -15
t58 -42.5t36 -66t12.5 -86.5v-41zM264 79q20 0 38.5 5t35.5 18q15 24 21.5 52t6.5 61q0 37 -8.5 62.5t-23 41.5t-33 23.5t-37.5 7.5q-21 0 -39.5 -5t-35.5 -18q-15 -24 -21 -52t-6 -60q0 -37 8.5 -63t23 -42t32.5 -23.5t38 -7.5zM647 267q-1 39 -23 62.5t-60 23.5
q-46 0 -74 -24q-21 -30 -21 -73z" />
    <glyph glyph-name="afii10050" unicode="&#x490;" horiz-adv-x="527" 
d="M372 630l25 120l80 6l8 -8l-14 -222l-185 11h-84v-537h-114v518l-10 112h294z" />
    <glyph glyph-name="afii10060" unicode="&#x40b;" horiz-adv-x="709" 
d="M199 630h132l176 6l-6 -109l-150 8h-30v-154q45 26 92 38q7 1 15 1.5t16 0.5q102 0 150.5 -53t48.5 -152v-216h-114v210q0 117 -103 117q-61 0 -105 -39v-288h-113v535h-34l-146 -8l8 108z" />
    <glyph glyph-name="afii10051" unicode="&#x402;" horiz-adv-x="709" 
d="M196 630h133l178 6l-6 -109l-150 8h-30v-154q22 12 45.5 22t46.5 16q7 1 15 1.5t16 0.5q100 0 149.5 -53t49.5 -152v-106q0 -47 -13.5 -88t-41.5 -73t-69.5 -54t-98.5 -30l-25 108q29 5 57.5 13.5t50.5 17.5q14 19 20 46.5t6 59.5v100q0 117 -103 117q-32 0 -58 -10.5
t-47 -28.5v-288h-113v535h-31l-149 -8l8 108z" />
    <glyph glyph-name="afii10052" unicode="&#x403;" horiz-adv-x="531" 
d="M267 630l219 4l-15 -108l-182 11h-87v-537h-114v518l-10 112h189zM258 826l69 104h13l79 -77l-146 -136l-71 48z" />
    <glyph glyph-name="afii10054" unicode="&#x405;" horiz-adv-x="557" 
d="M414 482q-18 19 -42 34t-52 29q-8 2 -18 3t-19 1q-49 0 -84 -19q-9 -11 -13.5 -27t-4.5 -33q0 -40 27 -63.5t90 -32.5q204 -30 204 -197q0 -44 -17 -79t-47.5 -60t-73.5 -38t-95 -13q-66 0 -117.5 16t-100.5 53l62 98q30 -25 58.5 -41t57.5 -27q11 -2 21.5 -3t21.5 -1
q59 0 94 20q14 14 20.5 32.5t6.5 38.5q0 41 -27 65.5t-94 32.5q-97 12 -148 61t-51 129q0 40 15 73.5t42 57.5t64.5 37.5t83.5 13.5q62 0 114.5 -17.5t94.5 -50.5z" />
    <glyph glyph-name="afii10055" unicode="&#x406;" horiz-adv-x="291" 
d="M202 634v-634h-114v515l-10 110z" />
    <glyph glyph-name="afii10056" unicode="&#x407;" horiz-adv-x="291" 
d="M202 634v-634h-114v515l-10 110zM302 856v-124l-122 4l6 113zM113 858v-126l-121 4l4 110z" />
    <glyph glyph-name="afii10057" unicode="&#x408;" horiz-adv-x="291" 
d="M202 634v-570q0 -112 -52.5 -178.5t-155.5 -94.5l-36 102q29 6 57.5 15.5t43.5 17.5q16 18 24.5 47t8.5 73v23l-4 87v362l-11 107z" />
    <glyph glyph-name="afii10061" unicode="&#x40c;" horiz-adv-x="625" 
d="M202 634v-261h36q14 0 28 1.5t29 6.5q17 15 27 39.5t16 59.5q13 83 52.5 120t106.5 37q36 0 63 -9l-11 -97q-21 0 -41.5 -1.5t-37.5 -6.5q-11 -15 -20 -38.5t-15 -59.5q-7 -37 -22.5 -63.5t-38.5 -42.5q20 -42 41.5 -80.5t46 -75.5t52.5 -73.5t62 -74.5v-15l-134 -5
q-50 63 -88 133.5t-68 148.5l-84 3v-280h-114v518l-10 107zM293 826l69 104h13l79 -77l-146 -136l-71 48z" />
    <glyph glyph-name="afii10062" unicode="&#x40e;" horiz-adv-x="567" 
d="M166 634l36 -125l94 -235h10l79 224l25 132h126v-15l-47 -135l-126 -291l-23 -79q-17 -58 -54 -90.5t-97 -32.5q-20 0 -41 4t-36 11l15 94q27 -9 50 -9q24 0 46 8q14 22 24 60l-216 456v15zM233 878q3 -37 20 -58.5t45 -21.5q26 0 40 12q10 19 10 58l100 13
q0 -85 -44 -126.5t-113 -41.5q-63 0 -106.5 39.5t-51.5 106.5z" />
    <glyph glyph-name="afii10053" unicode="&#x404;" horiz-adv-x="587" 
d="M446 475q-40 40 -95 69q-14 3 -34 3q-23 0 -49 -8.5t-47 -24.5q-18 -31 -29 -67t-15 -81h79l123 10l8 -9l-12 -97l-128 10h-71q6 -101 47.5 -148.5t103.5 -47.5q42 0 79.5 18t66.5 51l63 -76q-42 -46 -97 -68t-118 -22q-65 0 -114 23.5t-81.5 66t-48.5 103t-16 135.5
q0 76 19 137t54 103.5t84 65t108 22.5t108.5 -18t84.5 -51z" />
    <glyph glyph-name="afii10058" unicode="&#x409;" horiz-adv-x="915" 
d="M563 630v-245q18 11 37.5 19.5t39.5 14.5q5 1 12 1.5t13 0.5q94 0 148 -52t54 -154q0 -50 -15.5 -89.5t-43.5 -67.5t-67 -43t-86 -15h-205v536h-160l-5 -124q-5 -132 -18.5 -215.5t-44.5 -135.5q-21 -35 -54 -52t-81 -17q-46 0 -77 15l23 95q21 -7 43 -7q19 0 34.5 6.5
t23.5 26.5q17 42 27.5 109.5t15.5 176.5l5 104l-7 112h388zM645 92q43 0 75 17q17 19 25 45t8 58q0 56 -24.5 86t-74.5 30q-26 0 -47.5 -7.5t-43.5 -21.5v-207h82z" />
    <glyph glyph-name="afii10059" unicode="&#x40a;" horiz-adv-x="894" 
d="M202 634v-268l227 7v145l-11 107l124 9v-249q19 11 38.5 19.5t39.5 14.5q5 1 11.5 1.5t12.5 0.5q94 0 148.5 -52t54.5 -154q0 -50 -15.5 -89.5t-43.5 -67.5t-67.5 -43t-86.5 -15h-205v272l-227 4v-276h-114v518l-10 107zM625 92q19 0 38.5 4.5t36.5 12.5q31 37 31 103
q0 56 -23.5 86t-73.5 30q-26 0 -47.5 -7.5t-44.5 -21.5v-207h83z" />
    <glyph glyph-name="afii10145" unicode="&#x40f;" horiz-adv-x="639" 
d="M202 634v-541h235v425l-11 107l124 9v-634h-177l-8 -149h-92l-8 149h-177v518l-10 107z" />
    <glyph glyph-name="afii10098" unicode="&#x491;" horiz-adv-x="418" 
d="M282 430l19 111l90 4l-11 -210l-126 10h-76v-345h-110v330l-8 100h222z" />
    <glyph glyph-name="afii10099" unicode="&#x452;" horiz-adv-x="525" 
d="M181 662v-89l126 19l8 -7l-11 -88l-123 -10v-101q17 14 36 27t39 23q22 5 42 5q43 0 74 -12t50.5 -34t28.5 -53t9 -68v-244q0 -94 -45 -152.5t-136 -87.5l-44 98q28 5 48.5 12t36.5 15q15 17 23.5 39.5t8.5 45.5v22l-3 53v196q0 76 -66 76q-27 0 -54.5 -16t-47.5 -47
v-284h-110v479l-57 -4l-8 8l15 77l48 3l-7 90z" />
    <glyph glyph-name="hbar" unicode="&#x127;" horiz-adv-x="525" 
d="M181 662v-89l126 19l8 -7l-11 -87l-123 -9v-103q17 14 36 27t39 23q22 5 42 5q43 0 74 -12t50.5 -34t28.5 -53t9 -68v-274h-111v271q0 76 -66 76q-27 0 -54.5 -16t-47.5 -47v-284h-110v481l-57 -4l-8 7l15 76l48 3l-7 90z" />
    <glyph glyph-name="afii10108" unicode="&#x45b;" horiz-adv-x="525" 
d="M181 662v-89l126 19l8 -7l-11 -87l-123 -9v-103q17 14 36 27t39 23q22 5 42 5q43 0 74 -12t50.5 -34t28.5 -53t9 -68v-274h-111v271q0 76 -66 76q-27 0 -54.5 -16t-47.5 -47v-284h-110v481l-57 -4l-8 7l15 76l48 3l-7 90z" />
    <glyph glyph-name="afii10100" unicode="&#x453;" horiz-adv-x="410" 
d="M277 430l104 4l-8 -99l-127 10h-68v-345h-110v329l-8 101h217zM215 609l70 124h13l73 -68l-128 -144l-69 34z" />
    <glyph glyph-name="afii10101" unicode="&#x454;" horiz-adv-x="473" 
d="M355 305q-30 28 -71 45q-14 3 -27 3q-40 0 -70 -24q-21 -32 -25 -75h65l82 6l5 -6l-9 -86l-141 11q8 -51 36.5 -76.5t70.5 -25.5q32 0 59 11t54 33l48 -77q-37 -29 -79 -42t-90 -13q-50 0 -89.5 16t-66.5 45t-41.5 70.5t-14.5 92.5q0 54 16.5 96.5t45.5 72t69 44.5t87 15
q95 0 158 -52z" />
    <glyph glyph-name="afii10102" unicode="&#x455;" horiz-adv-x="462" 
d="M95 127q22 -18 46 -30.5t47 -20.5q8 -1 16.5 -1.5t17.5 -0.5q26 0 45 3.5t33 10.5q12 13 12 34q0 10 -3 18t-13 14.5t-27.5 11t-45.5 7.5q-163 18 -163 133q0 59 44.5 97t132.5 38q50 0 92 -12t78 -33l-53 -84q-37 26 -80 41q-17 3 -37 3q-39 0 -66 -12q-5 -6 -7.5 -13.5
t-2.5 -15.5q0 -23 17 -35t62 -17q83 -10 127.5 -42t44.5 -94q0 -64 -47.5 -101t-137.5 -37q-55 0 -99 11t-85 37z" />
    <glyph glyph-name="afii10103" unicode="&#x456;" horiz-adv-x="240" 
d="M175 435v-435h-110v332l-9 94zM180 655v-119l-123 5l5 104z" />
    <glyph glyph-name="afii10104" unicode="&#x457;" horiz-adv-x="240" 
d="M175 435v-435h-110v332l-9 94zM263 651v-116l-113 4l4 105zM93 652v-117l-113 5l4 102z" />
    <glyph glyph-name="afii10105" unicode="&#x458;" horiz-adv-x="243" 
d="M178 435v-413q0 -93 -44 -151.5t-138 -88.5l-44 99q29 5 49 12t37 15q15 17 24 39t9 45v22l-3 53v265l-9 94zM183 655v-119l-123 5l5 104z" />
    <glyph glyph-name="afii10109" unicode="&#x45c;" horiz-adv-x="495" 
d="M179 435v-170h18q15 0 29 2t25 7q19 19 27 54q12 57 45.5 83t79.5 26q31 0 55 -11l-10 -87q-18 0 -33.5 -1.5t-29.5 -6.5q-14 -22 -21 -47q-18 -47 -48 -67q29 -54 66.5 -103.5t88.5 -103.5l-2 -10l-119 -4q-69 81 -116 188h-55v-184h-110v320l-8 106zM238 609l70 124h13
l73 -68l-128 -144l-69 34z" />
    <glyph glyph-name="afii10110" unicode="&#x45e;" horiz-adv-x="484" 
d="M143 435l114 -346h7l42 132q16 49 23 102.5t9 106.5h120v-12q-9 -53 -25 -107.5t-37 -108.5l-79 -202l-14 -52q-19 -76 -60.5 -119.5t-120.5 -54.5l-26 107q28 2 49 6.5t37 9.5q10 13 17 32t9 42l-182 444v11zM198 680q7 -77 56 -77q23 0 39 11q11 24 11 59l93 12
q0 -42 -11 -72.5t-30.5 -50.5t-47 -29.5t-59.5 -9.5q-59 0 -98 37t-47 103z" />
    <glyph glyph-name="afii10193" unicode="&#x45f;" horiz-adv-x="517" 
d="M180 435v-350h157v249l-9 92l118 9v-435h-140l-5 -110h-85l-6 110h-139v335l-9 91z" />
    <glyph glyph-name="afii10106" unicode="&#x459;" horiz-adv-x="744" 
d="M467 430v-154q27 19 58 29q6 1 12 1.5t12 0.5q75 0 117.5 -40.5t42.5 -107.5q0 -32 -11 -61t-32.5 -51t-53.5 -34.5t-74 -12.5h-180v344h-106l-3 -55q-7 -107 -21.5 -168.5t-43.5 -93.5q-32 -37 -92 -37q-45 0 -73 15l23 87q20 -7 40 -7q28 0 44.5 42.5t23.5 138.5l5 66
l-10 98h322zM533 85q22 0 46 8q11 10 16.5 27t5.5 37q0 31 -17 47t-48 16q-23 0 -39.5 -6.5t-29.5 -19.5v-109h66z" />
    <glyph glyph-name="afii10107" unicode="&#x45a;" horiz-adv-x="723" 
d="M180 435v-180l157 6v75l-8 90l117 9v-159q27 19 58 29q6 1 12 1.5t12 0.5q75 0 117.5 -40.5t42.5 -107.5q0 -32 -11 -61t-32.5 -51t-53.5 -34.5t-74 -12.5h-180v172l-157 3v-175h-109v336l-9 90zM512 85q22 0 46 8q11 10 16.5 27t5.5 37q0 31 -17 47t-48 16
q-23 0 -39.5 -7t-29.5 -20v-108h66z" />
    <glyph glyph-name="Oslash" unicode="&#xd8;" horiz-adv-x="646" 
d="M323 643q42 0 81 -11l32 89l118 -33l-53 -114q40 -42 62 -106.5t22 -152.5q0 -78 -18.5 -139t-53 -103t-82.5 -64t-108 -22q-24 0 -46 3.5t-42 9.5l-47 -102l-94 36l53 119q-42 41 -64 106t-22 156q0 75 18.5 136t53 103.5t83 65.5t107.5 23zM225 513
q-23 -38 -35.5 -86.5t-12.5 -111.5q0 -91 23 -146l167 370q-22 8 -46 8q-56 0 -96 -34zM470 315q0 88 -23 142l-170 -366q24 -8 48 -8q26 0 51 8.5t44 24.5q23 38 36.5 86.5t13.5 112.5z" />
    <glyph glyph-name="Hbar" unicode="&#x126;" horiz-adv-x="646" 
d="M202 634v-117l241 11l-10 97l125 9v-97l65 7l8 -8l-6 -95l-67 -2v-439h-114v252l-242 4v-256h-114v426l-65 -2l-8 8l17 78l56 2v6l-10 107zM444 353v83l-242 -7v-83z" />
    <glyph glyph-name="Ccedilla" unicode="&#xc7;" horiz-adv-x="587" 
d="M446 474q-20 20 -44.5 37.5t-51.5 31.5q-12 3 -33 3q-23 0 -48.5 -8.5t-45.5 -24.5q-23 -38 -35 -85.5t-12 -112.5q0 -60 11.5 -103.5t31.5 -72t47.5 -42t60.5 -13.5q42 0 79.5 18t66.5 52l63 -77q-38 -42 -88 -64t-107 -25v-43q75 -26 75 -110q0 -63 -48 -107.5
t-151 -56.5l-8 8l15 93q29 1 49.5 6.5t39.5 14.5q4 8 6.5 17t2.5 20q0 44 -45 44q-16 0 -32 -7l-12 16l23 111q-99 22 -147 106t-48 215q0 76 19 137t54 103.5t84 65t108 22.5t108.5 -18t84.5 -51z" />
    <glyph glyph-name="Dcroat" unicode="&#x110;" horiz-adv-x="632" 
d="M301 630q63 0 114 -20t86.5 -60t54.5 -98.5t19 -136.5q0 -73 -19 -131.5t-54.5 -99t-86 -62.5t-114.5 -22h-199v263l-60 -1l-7 8l17 79l50 2v170l-10 109h209zM299 94q33 0 63 8t50 25q23 32 35 78.5t12 109.5q0 59 -12 101t-33.5 68.5t-51 39t-64.5 12.5h-82v-179
l130 13l8 -8l-10 -94l-128 -3v-171h83z" />
    <glyph glyph-name="Tcedilla" unicode="&#x162;" horiz-adv-x="530" 
d="M198 630h134l169 6l-5 -110l-141 9h-35v-478q26 -14 40 -41t14 -62q0 -63 -49 -110t-150 -58l-9 8l15 94q29 2 49.5 7t37.5 14q11 17 11 42q0 45 -43 45q-17 0 -32 -6l-12 16l14 70v459h-34l-144 -8l8 108z" />
    <glyph glyph-name="iogonek" unicode="&#x12f;" horiz-adv-x="240" 
d="M175 435v-435q-32 -3 -53 -17q-11 -17 -11 -43q0 -25 18.5 -41t62.5 -16l5 -9l-33 -81q-34 0 -60.5 10.5t-44.5 27.5t-27 40t-9 49q0 64 42 100v312l-9 94zM180 655v-119l-123 5l5 104z" />
    <glyph glyph-name="Eth" unicode="&#xd0;" horiz-adv-x="632" 
d="M301 630q63 0 114 -20t86.5 -60t54.5 -98.5t19 -136.5q0 -73 -19 -131.5t-54.5 -99t-86 -62.5t-114.5 -22h-199v263l-60 -1l-7 8l17 79l50 2v170l-10 109h209zM299 94q33 0 63 8t50 25q23 32 35 78.5t12 109.5q0 59 -12 101t-33.5 68.5t-51 39t-64.5 12.5h-82v-179
l130 13l8 -8l-10 -94l-128 -3v-171h83z" />
    <glyph glyph-name="Thorn" unicode="&#xde;" horiz-adv-x="562" 
d="M202 634v-114q40 13 90 13q48 0 89 -13.5t70.5 -40.5t46.5 -67.5t17 -93.5q0 -51 -16.5 -93t-45.5 -72t-68.5 -46t-86.5 -16q-58 0 -96 17v-108h-114v517l-10 108zM202 201q20 -8 41.5 -12t44.5 -4q54 0 86 24q13 20 19.5 48t6.5 60q0 64 -31.5 94t-84.5 30q-24 0 -44 -3
t-38 -8v-229z" />
    <glyph glyph-name="thorn" unicode="&#xfe;" horiz-adv-x="535" 
d="M185 639v-250q20 17 41 28.5t45 20.5q21 3 40 3q79 0 125.5 -57.5t46.5 -164.5q0 -55 -15.5 -97.5t-43 -72t-64 -45t-78.5 -15.5q-52 0 -97 21v-120l10 -111h-120v755l-9 97zM185 106q20 -14 42.5 -21.5t48.5 -7.5q19 0 35.5 5.5t30.5 13.5q30 46 30 122q0 69 -22.5 101
t-63.5 32q-32 0 -58 -17.5t-43 -46.5v-181z" />
    <glyph glyph-name="oslash" unicode="&#xf8;" horiz-adv-x="528" 
d="M264 441q34 0 64 -9l30 66l102 -29l-47 -84q31 -30 47.5 -73t16.5 -97q0 -50 -16 -91.5t-44 -71.5t-67.5 -46.5t-85.5 -16.5q-18 0 -34.5 2.5t-32.5 6.5l-39 -71l-83 31l44 82q-68 60 -68 175q0 49 16 90.5t44 71.5t67 47t86 17zM162 215q0 -45 12 -73l110 206
q-5 1 -10 1.5t-10 0.5q-21 0 -39.5 -5t-35.5 -18q-15 -24 -21 -52t-6 -60zM264 79q20 0 38.5 5t35.5 18q15 24 21.5 52t6.5 61q0 20 -2.5 36.5t-7.5 30.5l-113 -201q5 -2 10.5 -2h10.5z" />
    <glyph glyph-name="longs" unicode="&#x17f;" horiz-adv-x="275" 
d="M90 431v64q0 36 13 68.5t38 58t61 40.5t83 15l15 -103q-26 0 -51 -4.5t-42 -12.5q-11 -19 -11 -41v-29l7 -476l-22 -192l-91 5v510l-60 15v73z" />
    <glyph glyph-name="germandbls" unicode="&#xdf;" horiz-adv-x="621" 
d="M90 431v52q0 42 12.5 78t36 61.5t57.5 40t78 14.5q40 0 71.5 -12.5t53 -34t32.5 -51.5t11 -65q0 -45 -18 -80t-52 -61q-5 -8 -7 -17.5t-2 -18.5q0 -22 14 -35t48 -18q72 -11 110 -47t38 -99q0 -68 -44.5 -108.5t-126.5 -40.5q-44 0 -82.5 10t-74.5 35l48 96
q21 -17 40.5 -28.5t36.5 -19.5q13 -3 32 -3q14 0 29.5 3.5t26.5 8.5q13 16 13 40q0 26 -15.5 41.5t-50.5 18.5q-73 6 -108.5 41t-35.5 89q0 75 59 118q16 27 16 69q0 35 -17 54t-52 19q-34 0 -58 -16q-7 -12 -10 -27.5t-3 -29.5v-27l7 -470l-22 -192l-91 5v510l-60 15v73z
" />
    <glyph glyph-name="Germandbls" unicode="&#x1e9e;" horiz-adv-x="629" 
d="M275 340l114 180q-33 30 -88 30q-24 0 -46.5 -7t-37.5 -20q-20 -50 -20 -141v-382h-114v389q0 57 14 104t42 80.5t69 51.5t95 18q53 0 96.5 -13t76.5 -39l56 -23l3 -13l-125 -171q78 -8 121.5 -62t43.5 -141q0 -40 -13.5 -75t-37.5 -61.5t-57 -41.5t-72 -15q-45 0 -84 12
t-74 39l57 90q34 -33 66 -47q12 -3 29 -3q34 2 53 15q11 16 16.5 39t5.5 49q0 112 -97 112q-18 0 -35.5 -2.5t-33.5 -7.5z" />
    <glyph glyph-name="kgreenlandic" unicode="&#x138;" horiz-adv-x="505" 
d="M181 434v-182q14 6 28 14.5t28 18.5q48 61 82 148l126 -5l3 -10q-32 -54 -64.5 -99t-73.5 -87q17 -29 34 -55.5t37 -52.5t43.5 -54t52.5 -59l-2 -11l-127 -5q-19 23 -35 44.5t-30 43.5t-27 46t-26 52q-12 -8 -25 -13.5t-24 -9.5v-158h-110v328l-9 98z" />
    <glyph glyph-name="Longs" horiz-adv-x="557" 
d="M414 482q-18 19 -42 34t-52 29q-8 2 -18 3t-19 1q-49 0 -84 -19q-9 -11 -13.5 -27t-4.5 -33q0 -40 27 -63.5t90 -32.5q204 -30 204 -197q0 -44 -17 -79t-47.5 -60t-73.5 -38t-95 -13q-66 0 -117.5 16t-100.5 53l62 98q30 -25 58.5 -41t57.5 -27q11 -2 21.5 -3t21.5 -1
q59 0 94 20q14 14 20.5 32.5t6.5 38.5q0 41 -27 65.5t-94 32.5q-97 12 -148 61t-51 129q0 40 15 73.5t42 57.5t64.5 37.5t83.5 13.5q62 0 114.5 -17.5t94.5 -50.5z" />
    <glyph glyph-name="ccedilla" unicode="&#xe7;" horiz-adv-x="473" 
d="M352 304q-15 14 -31.5 25t-36.5 20q-7 1 -13.5 1.5t-13.5 0.5q-39 0 -69 -24q-14 -23 -20 -49.5t-6 -60.5q0 -68 30.5 -102.5t79.5 -34.5q59 0 112 44l48 -80q-61 -48 -142 -54v-33q34 -11 53 -37.5t19 -68.5q0 -56 -45 -98.5t-141 -54.5l-7 8l14 87q29 2 49.5 6.5
t37.5 12.5q8 14 8 34t-10.5 31t-31.5 11q-8 0 -17 -2t-16 -4l-12 15l24 96q-78 14 -121 72t-43 148q0 54 16.5 96.5t45.5 72t69 44.5t87 15q95 0 158 -52z" />
    <glyph glyph-name="Lslash" unicode="&#x141;" horiz-adv-x="533" 
d="M205 634v-272l127 31l8 -8l6 -96l-141 -22v-176h64l211 14l10 -11l-10 -94h-389v243l-59 -13l-9 7l14 84l54 13v187l-11 104z" />
    <glyph glyph-name="Scommaaccent" unicode="&#x218;" horiz-adv-x="557" 
d="M414 482q-18 19 -42 34t-52 29q-8 2 -18 3t-19 1q-49 0 -84 -19q-9 -11 -13.5 -27t-4.5 -33q0 -40 27 -63.5t90 -32.5q204 -30 204 -197q0 -44 -17 -79t-47.5 -60t-73.5 -38t-95 -13q-66 0 -117.5 16t-100.5 53l62 98q30 -25 58.5 -41t57.5 -27q11 -2 21.5 -3t21.5 -1
q59 0 94 20q14 14 20.5 32.5t6.5 38.5q0 41 -27 65.5t-94 32.5q-97 12 -148 61t-51 129q0 40 15 73.5t42 57.5t64.5 37.5t83.5 13.5q62 0 114.5 -17.5t94.5 -50.5zM328 -70l6 -19l-56 -195l-80 18l16 108v83z" />
    <glyph glyph-name="Tcommaaccent" unicode="&#x21a;" horiz-adv-x="530" 
d="M198 630h134l169 6l-5 -110l-141 9h-35v-535h-114v535h-34l-144 -8l8 108zM319 -70l6 -19l-56 -195l-80 18l16 108v83z" />
    <glyph glyph-name="lslash" unicode="&#x142;" horiz-adv-x="285" 
d="M77 350v204l-8 97l119 8v-281l82 21l9 -8l-11 -93l-80 -11v-53l-4 -59v-37q0 -24 11 -36t30 -12q15 0 27 4l11 -90q-31 -11 -69 -11q-61 0 -89 37.5t-28 109.5v124l-61 -13l-9 8l15 77z" />
    <glyph glyph-name="afii10049.1" horiz-adv-x="604" 
d="M515 0h-113v242q-22 -9 -46 -16.5t-51 -12.5q-22 -54 -53.5 -109t-76.5 -109l-128 5v14q50 56 86 107t65 104q-57 20 -89.5 67.5t-32.5 122.5q0 51 17 91t47 67.5t71.5 42t89.5 14.5h214v-630zM310 537q-47 0 -87 -19q-17 -20 -24.5 -44t-7.5 -56q0 -56 28 -84t82 -28
q26 0 52 7.5t49 23.5v200h-92z" />
    <glyph glyph-name="afii10097.1" horiz-adv-x="486" 
d="M414 0h-108v153q-34 -14 -72 -20q-18 -38 -41 -72t-52 -66l-109 5l-2 10q33 34 60 67t48 67q-40 17 -62.5 51t-22.5 80q0 32 11.5 60t34 49t55.5 33.5t76 12.5h184v-430zM236 344q-15 0 -29 -1.5t-25 -6.5q-21 -20 -21 -61q0 -62 69 -62q45 0 76 20v111h-70z" />
    <glyph glyph-name="Aacute" unicode="&#xc1;" horiz-adv-x="614" 
d="M375 636l205 -621v-15h-129l-16 96l-18 58l-223 4l-17 -58l-8 -100h-136v15l181 520l8 90zM220 245l169 7l-77 260h-13zM300 826l69 104h13l79 -77l-146 -136l-71 48z" />
    <glyph glyph-name="Abreve" unicode="&#x102;" horiz-adv-x="614" 
d="M375 636l205 -621v-15h-129l-16 96l-18 58l-223 4l-17 -58l-8 -100h-136v15l181 520l8 90zM220 245l169 7l-77 260h-13zM245 878q3 -37 20 -58.5t45 -21.5q26 0 40 12q10 19 10 58l100 13q0 -85 -44 -126.5t-113 -41.5q-63 0 -106.5 39.5t-51.5 106.5z" />
    <glyph glyph-name="Acircumflex" unicode="&#xc2;" horiz-adv-x="614" 
d="M375 636l205 -621v-15h-129l-16 96l-18 58l-223 4l-17 -58l-8 -100h-136v15l181 520l8 90zM220 245l169 7l-77 260h-13zM313 897l76 -60l84 -52v-15l-77 -64l-99 83l-99 -80l-69 53v14l82 56l78 65h24z" />
    <glyph glyph-name="Agrave" unicode="&#xc0;" horiz-adv-x="614" 
d="M375 636l205 -621v-15h-129l-16 96l-18 58l-223 4l-17 -58l-8 -100h-136v15l181 520l8 90zM220 245l169 7l-77 260h-13zM226 930h14l69 -104l56 -61l-71 -48l-146 136z" />
    <glyph glyph-name="Adieresis" unicode="&#xc4;" horiz-adv-x="614" 
d="M375 636l205 -621v-15h-129l-16 96l-18 58l-223 4l-17 -58l-8 -100h-136v15l181 520l8 90zM220 245l169 7l-77 260h-13zM472 856v-124l-124 4l5 112zM255 857v-125l-124 4l4 110z" />
    <glyph glyph-name="Atilde" unicode="&#xc3;" horiz-adv-x="614" 
d="M375 636l205 -621v-15h-129l-16 96l-18 58l-223 4l-17 -58l-8 -100h-136v15l181 520l8 90zM220 245l169 7l-77 260h-13zM138 817q20 17 40.5 32t41.5 25q5 1 11.5 1.5t11.5 0.5q26 0 44 -8.5t33 -19t29.5 -19t32.5 -8.5q26 10 56 30l41 -68q-35 -35 -84 -57
q-5 -1 -11 -1.5t-12 -0.5q-26 0 -44 8.5t-33 19t-29 19t-32 8.5q-29 -11 -54 -28z" />
    <glyph glyph-name="Utilde" unicode="&#x168;" horiz-adv-x="645" 
d="M202 634v-379q0 -91 32 -133t88 -42q54 0 89 26q32 47 32 142v269l-10 108l123 9v-380q0 -123 -59.5 -195t-174.5 -72q-112 0 -173 66.5t-61 196.5v264l-10 111zM148 817q20 17 40.5 32t41.5 25q5 1 11.5 1.5t11.5 0.5q26 0 44 -8.5t33 -19t29.5 -19t32.5 -8.5
q26 10 56 30l41 -68q-35 -35 -84 -57q-5 -1 -11 -1.5t-12 -0.5q-26 0 -44 8.5t-33 19t-29 19t-32 8.5q-29 -11 -54 -28z" />
    <glyph glyph-name="Adblgrave" unicode="&#x200;" horiz-adv-x="614" 
d="M375 636l205 -621v-15h-129l-16 96l-18 58l-223 4l-17 -58l-8 -100h-136v15l181 520l8 90zM220 245l169 7l-77 260h-13zM342 927h13l35 -98l40 -78l-70 -36l-105 152zM138 904h13l123 -152l-62 -47l-64 58l-86 63z" />
    <glyph glyph-name="Acircum" unicode="&#x202;" horiz-adv-x="614" 
d="M375 636l205 -621v-15h-129l-16 96l-18 58l-223 4l-17 -58l-8 -100h-136v15l181 520l8 90zM220 245l169 7l-77 260h-13zM313 897l76 -60l84 -52v-15l-77 -64l-99 83l-99 -80l-69 53v14l82 56l78 65h24z" />
    <glyph glyph-name="Edblgrave" unicode="&#x204;" horiz-adv-x="555" 
d="M488 630l-12 -101l-191 9h-83v-170h68l165 9l-10 -101l-223 5v-189h85l209 11l-5 -103h-403v518l-10 112h410zM334 927h13l35 -98l40 -78l-70 -36l-105 152zM130 904h13l123 -152l-62 -47l-64 58l-86 63z" />
    <glyph glyph-name="Ecircum" unicode="&#x206;" horiz-adv-x="555" 
d="M488 630l-12 -101l-191 9h-83v-170h68l165 9l-10 -101l-223 5v-189h85l209 11l-5 -103h-403v518l-10 112h410zM299 897l76 -60l84 -52v-15l-77 -64l-99 83l-99 -80l-69 53v14l82 56l78 65h24z" />
    <glyph glyph-name="Idblgrave" unicode="&#x208;" horiz-adv-x="291" 
d="M202 634v-634h-114v515l-10 110zM191 927h13l35 -98l40 -78l-70 -36l-105 152zM-13 904h13l123 -152l-62 -47l-64 58l-86 63z" />
    <glyph glyph-name="idblgrave" unicode="&#x209;" horiz-adv-x="240" 
d="M175 435v-435h-110v332l-9 94zM180 739l14 -2l23 -104l25 -87l-68 -22l-79 168zM-1 731l15 -2l99 -173l-60 -37l-38 52l-90 97z" />
    <glyph glyph-name="dblgravei" horiz-adv-x="350" 
d="M271 739l14 -2l23 -104l25 -87l-68 -22l-79 168zM90 731l15 -2l99 -173l-60 -37l-38 52l-90 97z" />
    <glyph glyph-name="icircum" unicode="&#x20b;" horiz-adv-x="240" 
d="M175 435v-435h-110v332l-9 94zM135 705l62 -63l62 -52v-14l-70 -63l-74 80l-79 -76l-56 53v14l68 57l62 64h25z" />
    <glyph glyph-name="icircumflex" unicode="&#xee;" horiz-adv-x="240" 
d="M175 435v-435h-110v332l-9 94zM135 705l62 -63l62 -52v-14l-70 -63l-74 80l-79 -76l-56 53v14l68 57l62 64h25z" />
    <glyph glyph-name="iacute" unicode="&#xed;" horiz-adv-x="240" 
d="M175 435v-435h-110v332l-9 94zM98 609l70 124h13l73 -68l-128 -144l-69 34z" />
    <glyph glyph-name="Cacute" unicode="&#x106;" horiz-adv-x="587" 
d="M446 474q-20 20 -44.5 37.5t-51.5 31.5q-12 3 -33 3q-23 0 -48.5 -8.5t-45.5 -24.5q-23 -38 -35 -85.5t-12 -112.5q0 -60 11.5 -103.5t31.5 -72t47.5 -42t60.5 -13.5q42 0 79.5 18t66.5 52l63 -77q-42 -46 -97 -68t-118 -22q-65 0 -114 23.5t-81.5 66t-48.5 103
t-16 135.5q0 76 19 137t54 103.5t84 65t108 22.5t108.5 -18t84.5 -51zM299 826l69 104h13l79 -77l-146 -136l-71 48z" />
    <glyph glyph-name="Ccaron" unicode="&#x10c;" horiz-adv-x="587" 
d="M446 474q-20 20 -44.5 37.5t-51.5 31.5q-12 3 -33 3q-23 0 -48.5 -8.5t-45.5 -24.5q-23 -38 -35 -85.5t-12 -112.5q0 -60 11.5 -103.5t31.5 -72t47.5 -42t60.5 -13.5q42 0 79.5 18t66.5 52l63 -77q-42 -46 -97 -68t-118 -22q-65 0 -114 23.5t-81.5 66t-48.5 103
t-16 135.5q0 76 19 137t54 103.5t84 65t108 22.5t108.5 -18t84.5 -51zM327 809l98 79l69 -52v-15l-81 -55l-78 -66h-23l-76 61l-86 52v15l77 62z" />
    <glyph glyph-name="Ccircumflex" unicode="&#x108;" horiz-adv-x="587" 
d="M446 474q-20 20 -44.5 37.5t-51.5 31.5q-12 3 -33 3q-23 0 -48.5 -8.5t-45.5 -24.5q-23 -38 -35 -85.5t-12 -112.5q0 -60 11.5 -103.5t31.5 -72t47.5 -42t60.5 -13.5q42 0 79.5 18t66.5 52l63 -77q-42 -46 -97 -68t-118 -22q-65 0 -114 23.5t-81.5 66t-48.5 103
t-16 135.5q0 76 19 137t54 103.5t84 65t108 22.5t108.5 -18t84.5 -51zM340 897l76 -60l84 -52v-15l-77 -64l-99 83l-99 -80l-69 53v14l82 56l78 65h24z" />
    <glyph glyph-name="Cdotaccent" unicode="&#x10a;" horiz-adv-x="587" 
d="M446 474q-20 20 -44.5 37.5t-51.5 31.5q-12 3 -33 3q-23 0 -48.5 -8.5t-45.5 -24.5q-23 -38 -35 -85.5t-12 -112.5q0 -60 11.5 -103.5t31.5 -72t47.5 -42t60.5 -13.5q42 0 79.5 18t66.5 52l63 -77q-42 -46 -97 -68t-118 -22q-65 0 -114 23.5t-81.5 66t-48.5 103
t-16 135.5q0 76 19 137t54 103.5t84 65t108 22.5t108.5 -18t84.5 -51zM387 860v-131l-129 4l4 116z" />
    <glyph glyph-name="Dcaron" unicode="&#x10e;" horiz-adv-x="619" 
d="M287 630q128 0 201 -79.5t73 -235.5q0 -73 -19 -131.5t-54.5 -99t-86 -62.5t-114.5 -22h-199v521l-10 109h209zM285 94q33 0 63 8t50 25q23 32 35 78.5t12 109.5q0 59 -12 101t-33.5 68.5t-51 39t-64.5 12.5h-82v-442h83zM302 809l98 79l69 -52v-15l-81 -55l-78 -66h-23
l-76 61l-86 52v15l77 62z" />
    <glyph glyph-name="Eacute" unicode="&#xc9;" horiz-adv-x="555" 
d="M488 630l-12 -101l-191 9h-83v-170h68l165 9l-10 -101l-223 5v-189h85l209 11l-5 -103h-403v518l-10 112h410zM262 826l69 104h13l79 -77l-146 -136l-71 48z" />
    <glyph glyph-name="Ebreve" unicode="&#x114;" horiz-adv-x="555" 
d="M488 630l-12 -101l-191 9h-83v-170h68l165 9l-10 -101l-223 5v-189h85l209 11l-5 -103h-403v518l-10 112h410zM227 878q3 -37 20 -58.5t45 -21.5q26 0 40 12q10 19 10 58l100 13q0 -85 -44 -126.5t-113 -41.5q-63 0 -106.5 39.5t-51.5 106.5z" />
    <glyph glyph-name="Ecaron" unicode="&#x11a;" horiz-adv-x="555" 
d="M488 630l-12 -101l-191 9h-83v-170h68l165 9l-10 -101l-223 5v-189h85l209 11l-5 -103h-403v518l-10 112h410zM293 809l98 79l69 -52v-15l-81 -55l-78 -66h-23l-76 61l-86 52v15l77 62z" />
    <glyph glyph-name="Ecircumflex" unicode="&#xca;" horiz-adv-x="555" 
d="M488 630l-12 -101l-191 9h-83v-170h68l165 9l-10 -101l-223 5v-189h85l209 11l-5 -103h-403v518l-10 112h410zM303 897l76 -60l84 -52v-15l-77 -64l-99 83l-99 -80l-69 53v14l82 56l78 65h24z" />
    <glyph glyph-name="Edieresis" unicode="&#xcb;" horiz-adv-x="555" 
d="M488 630l-12 -101l-191 9h-83v-170h68l165 9l-10 -101l-223 5v-189h85l209 11l-5 -103h-403v518l-10 112h410zM459 856v-124l-124 4l5 112zM242 857v-125l-124 4l4 110z" />
    <glyph glyph-name="Edotaccent" unicode="&#x116;" horiz-adv-x="555" 
d="M488 630l-12 -101l-191 9h-83v-170h68l165 9l-10 -101l-223 5v-189h85l209 11l-5 -103h-403v518l-10 112h410zM354 860v-131l-129 4l4 116z" />
    <glyph glyph-name="Egrave" unicode="&#xc8;" horiz-adv-x="555" 
d="M488 630l-12 -101l-191 9h-83v-170h68l165 9l-10 -101l-223 5v-189h85l209 11l-5 -103h-403v518l-10 112h410zM239 930h14l69 -104l56 -61l-71 -48l-146 136z" />
    <glyph glyph-name="Gbreve" unicode="&#x11e;" horiz-adv-x="597" 
d="M453 476q-22 21 -46 37.5t-50 30.5q-7 2 -15.5 3t-19.5 1q-26 0 -52.5 -8.5t-46.5 -24.5q-23 -39 -35 -87t-12 -113q0 -121 41.5 -176.5t107.5 -55.5q24 0 48 6t47 19v154l-119 -6l11 95h228l3 -16l-15 -94v-241l-21 -5l-63 26q-56 -34 -129 -34q-65 0 -112.5 23.5
t-79 66t-47 103t-15.5 135.5q0 76 19.5 136.5t55.5 103t85.5 65.5t109.5 23q117 0 194 -66zM267 878q3 -37 20 -58.5t45 -21.5q26 0 40 12q10 19 10 58l100 13q0 -85 -44 -126.5t-113 -41.5q-63 0 -106.5 39.5t-51.5 106.5z" />
    <glyph glyph-name="Gcircumflex" unicode="&#x11c;" horiz-adv-x="597" 
d="M453 476q-22 21 -46 37.5t-50 30.5q-7 2 -15.5 3t-19.5 1q-26 0 -52.5 -8.5t-46.5 -24.5q-23 -39 -35 -87t-12 -113q0 -121 41.5 -176.5t107.5 -55.5q24 0 48 6t47 19v154l-119 -6l11 95h228l3 -16l-15 -94v-241l-21 -5l-63 26q-56 -34 -129 -34q-65 0 -112.5 23.5
t-79 66t-47 103t-15.5 135.5q0 76 19.5 136.5t55.5 103t85.5 65.5t109.5 23q117 0 194 -66zM342 897l76 -60l84 -52v-15l-77 -64l-99 83l-99 -80l-69 53v14l82 56l78 65h24z" />
    <glyph glyph-name="Gcommaaccent" unicode="&#x122;" horiz-adv-x="597" 
d="M453 476q-22 21 -46 37.5t-50 30.5q-7 2 -15.5 3t-19.5 1q-26 0 -52.5 -8.5t-46.5 -24.5q-23 -39 -35 -87t-12 -113q0 -121 41.5 -176.5t107.5 -55.5q24 0 48 6t47 19v154l-119 -6l11 95h228l3 -16l-15 -94v-241l-21 -5l-63 26q-56 -34 -129 -34q-65 0 -112.5 23.5
t-79 66t-47 103t-15.5 135.5q0 76 19.5 136.5t55.5 103t85.5 65.5t109.5 23q117 0 194 -66zM375 -70l6 -19l-56 -195l-80 18l16 108v83z" />
    <glyph glyph-name="Gdotaccent" unicode="&#x120;" horiz-adv-x="597" 
d="M453 476q-22 21 -46 37.5t-50 30.5q-7 2 -15.5 3t-19.5 1q-26 0 -52.5 -8.5t-46.5 -24.5q-23 -39 -35 -87t-12 -113q0 -121 41.5 -176.5t107.5 -55.5q24 0 48 6t47 19v154l-119 -6l11 95h228l3 -16l-15 -94v-241l-21 -5l-63 26q-56 -34 -129 -34q-65 0 -112.5 23.5
t-79 66t-47 103t-15.5 135.5q0 76 19.5 136.5t55.5 103t85.5 65.5t109.5 23q117 0 194 -66zM391 860v-131l-129 4l4 116z" />
    <glyph glyph-name="Hcircumflex" unicode="&#x124;" horiz-adv-x="646" 
d="M202 634v-269l242 8v145l-11 107l125 9v-634h-114v269l-242 5v-274h-114v518l-10 107zM336 897l76 -60l84 -52v-15l-77 -64l-99 83l-99 -80l-69 53v14l82 56l78 65h24z" />
    <glyph glyph-name="Dotlessi" horiz-adv-x="291" 
d="M202 634v-634h-114v515l-10 110z" />
    <glyph glyph-name="Iacute" unicode="&#xcd;" horiz-adv-x="291" 
d="M202 634v-634h-114v515l-10 110zM133 826l69 104h13l79 -77l-146 -136l-71 48z" />
    <glyph glyph-name="Ibreve" unicode="&#x12c;" horiz-adv-x="291" 
d="M202 634v-634h-114v515l-10 110zM89 878q3 -37 20 -58.5t45 -21.5q26 0 40 12q10 19 10 58l100 13q0 -85 -44 -126.5t-113 -41.5q-63 0 -106.5 39.5t-51.5 106.5z" />
    <glyph glyph-name="Icircumflex" unicode="&#xce;" horiz-adv-x="291" 
d="M202 634v-634h-114v515l-10 110zM158 897l76 -60l84 -52v-15l-77 -64l-99 83l-99 -80l-69 53v14l82 56l78 65h24z" />
    <glyph glyph-name="Igrave" unicode="&#xcc;" horiz-adv-x="291" 
d="M202 634v-634h-114v515l-10 110zM83 930h14l69 -104l56 -61l-71 -48l-146 136z" />
    <glyph glyph-name="Iogonek" unicode="&#x12e;" horiz-adv-x="291" 
d="M202 634v-634q-14 0 -29 -3.5t-29 -10.5q-14 -22 -14 -49q0 -25 19.5 -43t70.5 -18l6 -9l-34 -87q-78 0 -120 38.5t-42 98.5q0 34 14 65t44 55v481l-11 107z" />
    <glyph glyph-name="Itilde" unicode="&#x128;" horiz-adv-x="291" 
d="M202 634v-634h-114v515l-10 110zM-9 817q20 17 40.5 32t40.5 25q5 1 10.5 1.5t11.5 0.5q22 0 36 -6.5t25 -15.5t22.5 -17.5t28.5 -12.5q25 7 55 26l41 -67q-18 -18 -39 -32t-44 -25q-5 -1 -10.5 -1.5t-11.5 -0.5q-23 0 -37 6.5t-25.5 15.5t-23 17.5t-27.5 12.5
q-25 -7 -51 -25z" />
    <glyph glyph-name="Icircum" unicode="&#x20a;" horiz-adv-x="291" 
d="M202 634v-634h-114v515l-10 110zM158 897l76 -60l84 -52v-15l-77 -64l-99 83l-99 -80l-69 53v14l82 56l78 65h24z" />
    <glyph glyph-name="Dotlessj" horiz-adv-x="291" 
d="M202 634v-570q0 -112 -52.5 -178.5t-155.5 -94.5l-36 102q29 6 57.5 15.5t43.5 17.5q16 18 24.5 47t8.5 73v23l-4 87v362l-11 107z" />
    <glyph glyph-name="Jcircumflex" unicode="&#x134;" horiz-adv-x="291" 
d="M202 634v-570q0 -112 -52.5 -178.5t-155.5 -94.5l-36 102q29 6 57.5 15.5t43.5 17.5q16 18 24.5 47t8.5 73v23l-4 87v362l-11 107zM158 897l76 -60l84 -52v-15l-77 -64l-99 83l-99 -80l-69 53v14l82 56l78 65h24z" />
    <glyph glyph-name="Kcommaaccent" unicode="&#x136;" horiz-adv-x="625" 
d="M202 634v-294l77 43q36 38 62.5 79t43.5 89l27 80l126 -5v-15q-20 -59 -49 -112t-68 -98l-56 -62q43 -91 94 -168t121 -156v-15l-136 -6q-50 67 -89.5 136t-71.5 147l-81 -50v-227h-114v518l-10 107zM375 -70l6 -19l-56 -195l-80 18l16 108v83z" />
    <glyph glyph-name="Kgreenlandic" horiz-adv-x="625" 
d="M202 634v-294l77 43q36 38 62.5 79t43.5 89l27 80l126 -5v-15q-20 -59 -49 -112t-68 -98l-56 -62q43 -91 94 -168t121 -156v-15l-136 -6q-50 67 -89.5 136t-71.5 147l-81 -50v-227h-114v518l-10 107z" />
    <glyph glyph-name="Lacute" unicode="&#x139;" horiz-adv-x="530" 
d="M202 634v-543h64l211 14l11 -11l-10 -94h-390v521l-10 104zM179 826l69 104h13l79 -77l-146 -136l-71 48z" />
    <glyph glyph-name="Lcaron" unicode="&#x13d;" horiz-adv-x="530" 
d="M202 634v-543h64l211 14l11 -11l-10 -94h-390v521l-10 104zM474 635l6 -19l-56 -195l-80 18l16 108v83z" />
    <glyph glyph-name="Lcommaaccent" unicode="&#x13b;" horiz-adv-x="530" 
d="M202 634v-543h64l211 14l11 -11l-10 -94h-390v521l-10 104zM326 -70l6 -19l-56 -195l-80 18l16 108v83z" />
    <glyph glyph-name="Ldot" unicode="&#x13f;" horiz-adv-x="530" 
d="M202 634v-543h64l211 14l11 -11l-10 -94h-390v521l-10 104zM470 402v-131l-129 4l4 116z" />
    <glyph glyph-name="Nacute" unicode="&#x143;" horiz-adv-x="643" 
d="M193 634l254 -456h9l-8 204v125l-13 118l120 9v-631l-105 -9l-254 452h-9l8 -247v-199h-107v515l-10 110zM312 826l69 104h13l79 -77l-146 -136l-71 48z" />
    <glyph glyph-name="Napostrophe" horiz-adv-x="789" 
d="M339 634l254 -456h9l-8 204v125l-13 118l120 9v-631l-105 -9l-254 452h-9l8 -247v-199h-107v515l-10 110zM140 645l6 -19l-56 -195l-80 18l16 108v83z" />
    <glyph glyph-name="Ncaron" unicode="&#x147;" horiz-adv-x="643" 
d="M193 634l254 -456h9l-8 204v125l-13 118l120 9v-631l-105 -9l-254 452h-9l8 -247v-199h-107v515l-10 110zM326 809l98 79l69 -52v-15l-81 -55l-78 -66h-23l-76 61l-86 52v15l77 62z" />
    <glyph glyph-name="Ncommaaccent" unicode="&#x145;" horiz-adv-x="643" 
d="M193 634l254 -456h9l-8 204v125l-13 118l120 9v-631l-105 -9l-254 452h-9l8 -247v-199h-107v515l-10 110zM383 -70l6 -19l-56 -195l-80 18l16 108v83z" />
    <glyph glyph-name="Ntilde" unicode="&#xd1;" horiz-adv-x="643" 
d="M193 634l254 -456h9l-8 204v125l-13 118l120 9v-631l-105 -9l-254 452h-9l8 -247v-199h-107v515l-10 110zM148 817q20 17 40.5 32t41.5 25q5 1 11.5 1.5t11.5 0.5q26 0 44 -8.5t33 -19t29.5 -19t32.5 -8.5q26 10 56 30l41 -68q-35 -35 -84 -57q-5 -1 -11 -1.5t-12 -0.5
q-26 0 -44 8.5t-33 19t-29 19t-32 8.5q-29 -11 -54 -28z" />
    <glyph glyph-name="Oacute" unicode="&#xd3;" horiz-adv-x="646" 
d="M323 643q60 0 108.5 -21.5t82.5 -63t52.5 -103t18.5 -140.5q0 -78 -18.5 -139t-53 -103t-83 -64t-107.5 -22q-60 0 -108.5 21.5t-82.5 63t-52.5 102.5t-18.5 141q0 75 19 135.5t53.5 103t82.5 66t107 23.5zM225 513q-23 -38 -36 -87.5t-13 -110.5q0 -62 11 -106t31 -72
t47 -41t60 -13q26 0 51 8t44 24q24 38 37 87.5t13 112.5q0 62 -11 106t-31 72t-47 41t-60 13q-27 0 -51.5 -8.5t-44.5 -25.5zM325 826l69 104h13l79 -77l-146 -136l-71 48z" />
    <glyph glyph-name="Obreve" unicode="&#x14e;" horiz-adv-x="646" 
d="M323 643q60 0 108.5 -21.5t82.5 -63t52.5 -103t18.5 -140.5q0 -78 -18.5 -139t-53 -103t-83 -64t-107.5 -22q-60 0 -108.5 21.5t-82.5 63t-52.5 102.5t-18.5 141q0 75 19 135.5t53.5 103t82.5 66t107 23.5zM225 513q-23 -38 -36 -87.5t-13 -110.5q0 -62 11 -106t31 -72
t47 -41t60 -13q26 0 51 8t44 24q24 38 37 87.5t13 112.5q0 62 -11 106t-31 72t-47 41t-60 13q-27 0 -51.5 -8.5t-44.5 -25.5zM268 878q3 -37 20 -58.5t45 -21.5q26 0 40 12q10 19 10 58l100 13q0 -85 -44 -126.5t-113 -41.5q-63 0 -106.5 39.5t-51.5 106.5z" />
    <glyph glyph-name="Ocircumflex" unicode="&#xd4;" horiz-adv-x="646" 
d="M323 643q60 0 108.5 -21.5t82.5 -63t52.5 -103t18.5 -140.5q0 -78 -18.5 -139t-53 -103t-83 -64t-107.5 -22q-60 0 -108.5 21.5t-82.5 63t-52.5 102.5t-18.5 141q0 75 19 135.5t53.5 103t82.5 66t107 23.5zM225 513q-23 -38 -36 -87.5t-13 -110.5q0 -62 11 -106t31 -72
t47 -41t60 -13q26 0 51 8t44 24q24 38 37 87.5t13 112.5q0 62 -11 106t-31 72t-47 41t-60 13q-27 0 -51.5 -8.5t-44.5 -25.5zM337 897l76 -60l84 -52v-15l-77 -64l-99 83l-99 -80l-69 53v14l82 56l78 65h24z" />
    <glyph glyph-name="Odieresis" unicode="&#xd6;" horiz-adv-x="646" 
d="M323 643q60 0 108.5 -21.5t82.5 -63t52.5 -103t18.5 -140.5q0 -78 -18.5 -139t-53 -103t-83 -64t-107.5 -22q-60 0 -108.5 21.5t-82.5 63t-52.5 102.5t-18.5 141q0 75 19 135.5t53.5 103t82.5 66t107 23.5zM225 513q-23 -38 -36 -87.5t-13 -110.5q0 -62 11 -106t31 -72
t47 -41t60 -13q26 0 51 8t44 24q24 38 37 87.5t13 112.5q0 62 -11 106t-31 72t-47 41t-60 13q-27 0 -51.5 -8.5t-44.5 -25.5zM495 856v-124l-124 4l5 112zM278 857v-125l-124 4l4 110z" />
    </font>
</defs>
</svg>
