<svg xmlns="http://www.w3.org/2000/svg" width="150" height="154" viewBox="0 0 150 154"><path d="M3.347 135.94v-18.712l4.106-4.183c3.872-3.945 4.065-4.42 3.4-8.357-.51-3.02-1.091-4.016-2.105-3.604l-2.9 1.176c-1.272.514-1.5-.856-1.5-8.981 0-9.394-.051-9.601-2.5-10.216-3.137-.787-3.13-1.334.053-3.873 1.976-1.577 2.734-3.376 3.357-7.966.626-4.618 1.4-6.441 3.502-8.25 2.577-2.216 3.412-2.321 18.474-2.321 14.698 0 16.1-.165 20.549-2.418l4.774-2.417-.672 5.667c-1.02 8.604-2.413 13.03-4.443 14.117-1.525.816-2.059 3.21-3.133 14.056-.972 9.818-1.744 13.59-3.1 15.153-2.42 2.792-1.811 3.727 9.243 14.17l9.257 8.746 5.176-5.112 5.177-5.112 4.647 5.312c2.556 2.922 4.532 5.621 4.393 5.998-.14.377-4.455 4.32-9.589 8.763-10.123 8.76-12.448 9.577-17.008 5.98l-2.658-2.095-.295 6.596-.296 6.596H3.347V135.94zm11 2.713c0-8 .385-13 1-13 .616 0 1 5 1 13v13h14v-14.5c0-7.975-.38-14.5-.845-14.5-.464 0-1.66.9-2.655 2-.995 1.1-2.36 2-3.033 2s-3.112-2.449-5.42-5.44c-6.185-8.017-6.647-8.284-9.576-5.533-2.438 2.29-2.47 2.546-2.47 19.147v16.826h8v-13zm31.774-4.002c-.278-17.274-1.266-21.242-3.256-13.072-.592 2.435-1.665 4.623-2.384 4.862-.719.24-2.843-1.053-4.72-2.872l-3.414-3.309v31.393h14.048l-.274-17.002zm17.925 4.103a1814.84 1814.84 0 0 0 9.12-7.75l3.317-2.851-3.36-3.245-3.36-3.246-4.923 4.999-4.923 4.998-5.285-5.22-5.285-5.218.026 8.466.026 8.466 3.724 2.713c2.048 1.492 4.039 2.73 4.423 2.75.383.02 3.308-2.168 6.5-4.862zm-36.812-17.943l2.023-2.84-3.813-3.724c-3.325-3.247-4.332-3.683-7.867-3.409l-4.053.315 5.005 6.25c2.754 3.437 5.383 6.25 5.844 6.25.461 0 1.749-1.279 2.861-2.842zm13.677-2.734c.995-6.635-.81-7.976-4.608-3.424l-2.921 3.5 2.538 2.25c1.397 1.237 2.936 2.25 3.422 2.25.486 0 1.192-2.06 1.569-4.576zm-6.564-4.924l2.35-2.5H25.998l2.348 2.5c1.292 1.375 2.642 2.5 3 2.5.359 0 1.709-1.125 3-2.5zm3-6.5c0-.55-1.282-1-2.85-1s-4.156-.428-5.75-.952c-1.595-.523-4.812-1.44-7.15-2.038-2.396-.613-4.25-1.684-4.25-2.454 0-1.079 1.812-.869 8.589.996 7.734 2.128 14.406 2.393 14.414.573.006-1.215 2.038-18.664 2.49-21.375l.457-2.75h-8.775c-5.491 0-9.224.449-9.975 1.2-.66.66-1.2 3.585-1.2 6.5 0 5.196-.057 5.3-2.936 5.3-2.582 0-2.975-.393-3.25-3.25l-.314-3.25-1.812 2.669c-1.943 2.863-2.95 17.153-1.379 19.58 1.01 1.561 23.691 1.8 23.691.25zM29.48 98.31c-1.521-1.833-.287-2.812 2-1.588 1.256.672 2.504.66 3.808-.038 1.37-.733 2.141-.71 2.628.077 1.605 2.597-6.354 4.058-8.436 1.549zm8.015-13.269c-2.111-1.478-4.287-1.424-8.554.213-1.005.386-1.593.077-1.593-.837 0-.82 1.71-1.961 3.94-2.63 3.395-1.016 4.354-.928 6.934.641 1.84 1.119 2.71 2.278 2.26 3.007-.546.883-1.307.783-2.987-.394zm-26.9 7.109c.65-5.753 3.091-9.498 6.193-9.498 1.317 0 2.599.562 2.849 1.25.25.687.79-.449 1.2-2.525 1.122-5.695 3.376-6.725 14.71-6.725 11.202 0 12.032-.58 13.254-9.249l.67-4.748-2.627.998c-1.444.55-9.325.999-17.514.999-9.157 0-15.867.446-17.431 1.159-2.475 1.127-4.485 5.665-4.58 10.34-.023 1.1-.649 3.097-1.39 4.437-1.139 2.054-1.133 2.654.034 3.821.936.936 1.385 3.836 1.385 8.936 0 6.285.23 7.36 1.372 6.413.755-.626 1.599-3.15 1.876-5.608zm.2-21.248c.365-1.513 1.4-3.313 2.3-4 2.031-1.552 26.253-1.783 26.253-.25 0 .605-4.306 1-10.918 1-12.422 0-13.884.351-15.133 3.636-1.284 3.376-3.333 3.06-2.502-.386zm93.553 65.69v-18.06l5-5.287c6.047-6.393 6.438-8.593 1.53-8.593h-3.47l.622-14.411.622-14.41-2.402-.34c-2.163-.306-2.395-.813-2.338-5.101.079-5.893 2.475-9.432 8.457-12.488 3.91-1.999 5.885-2.25 17.636-2.25 12.542 0 13.378.125 16.038 2.41l2.805 2.412.311 18.47.31 18.47-2.86.997c-2.395.835-3.06 1.861-4.086 6.305l-1.225 5.308 4.025 4.102 4.025 4.101v36.425h-45v-18.06zm17 .157v-14.902l-2.925-1.02c-1.61-.56-3.699-2.198-4.642-3.639l-1.716-2.618-2.358 2.215c-2.291 2.152-2.359 2.682-2.359 18.54v16.327h14V136.75zm-4 8.403c0-.825.45-1.5 1-1.5s1 .675 1 1.5-.45 1.5-1 1.5-1-.675-1-1.5zm0-6.5c0-.55.45-1 1-1s1 .45 1 1-.45 1-1 1-1-.45-1-1zm0-7c0-.55.45-1 1-1s1 .45 1 1-.45 1-1 1-1-.45-1-1zm20 7c0-8 .385-13 1-13 .616 0 1 5 1 13v13h7v-32.405l-3.148-3.249-3.149-3.248-3.843 3.29c-2.115 1.81-5.648 3.83-7.852 4.491l-4.008 1.2v29.92h13v-13zm-7.717-21.362c1.77-.75 4.075-2.325 5.122-3.5l1.905-2.138h-10.655c-9.29 0-10.655.214-10.655 1.67 0 4.854 7.36 6.898 14.283 3.968zm10.49-12.638c.905-3.568.82-4-.796-4-.995 0-1.969-.477-2.163-1.06-.217-.651-3.555.12-8.652 2-4.564 1.683-9.167 3.06-10.23 3.06-2.131 0-2.202.13-1.325 2.418.502 1.307 2.48 1.582 11.379 1.582h10.771l1.015-4zm-10.957-6.05l7.986-3.05-.462-6.2c-.717-9.643-1.152-11.101-2.88-9.666-.812.673-1.46 2.902-1.46 5.023 0 5.888-1.578 9.142-4.25 8.762-1.796-.255-2.413-1.224-3.074-4.82a729.317 729.317 0 0 0-1.267-6.737c-.547-2.781-3.76-4.851-8.659-5.58-3.453-.513-3.75-.365-3.75 1.861 0 1.757.697 2.593 2.544 3.057 3.317.832 2.578 2.996-.88 2.578l-2.664-.322v14.518l2.89-2.77c1.59-1.522 3.16-2.334 3.487-1.804.792 1.281-3.134 6.2-4.95 6.2-.784 0-1.427.45-1.427 1 0 2.182 10.82 1.003 18.816-2.05zm14.62-1.926l2.564-.975V79.006c0-14.132-.254-16.977-1.655-18.525-1.452-1.605-3.36-1.828-15.595-1.828-15.21 0-18.06.8-20.978 5.885-2.267 3.952-3.152 8.408-1.565 7.88.711-.237 1.459-1.294 1.66-2.348.544-2.844 4.06-7.417 5.702-7.417 2 0 1.804.769-1.069 4.182-2.417 2.873-3.533 7.574-1.5 6.318.55-.34 1-1.197 1-1.904 0-.708.971-2.144 2.157-3.191 2.127-1.879 2.15-1.877 1.614.095-.299 1.1-.857 2.76-1.24 3.689-.555 1.344.027 1.825 2.855 2.355 6.116 1.147 9.614 6.27 9.614 14.08 0 4.677 1.732 2.267 2.295-3.194.656-6.356 1.956-8.43 5.28-8.43 2.961 0 4.412 4.679 4.42 14.25.006 7.047.252 7.367 4.44 5.774zm-27.096-45.823c-.617-.386-2.016-3.626-3.11-7.201l-1.987-6.5-11.871-.511c-7.058-.304-12.818-1.046-14.206-1.831-3.628-2.05-5.166-7.079-5.162-16.876.004-9.838 1.893-14.532 6.562-16.307 1.41-.537 12.683-.975 25.05-.975 30.56 0 30.384-.103 30.384 17.857 0 10.363-.147 11.164-2.588 14.066-1.424 1.692-3.28 3.077-4.123 3.077-.843 0-5.199 3.578-9.68 7.951-4.734 4.622-8.616 7.658-9.269 7.25zm16.98-17.201c.974 0 2.876-1.105 4.226-2.455 2.276-2.276 2.454-3.176 2.454-12.365 0-8.512-.292-10.283-2.072-12.546l-2.073-2.634H112.09c-30.179 0-28.742-.737-28.742 14.72 0 9.677.165 10.534 2.455 12.825 2.332 2.332 3.052 2.455 14.378 2.455 8.375 0 12.2.371 12.853 1.25.512.687 1.734 3.897 2.716 7.132l1.784 5.883 7.18-7.133c3.95-3.923 7.979-7.132 8.953-7.132zm-38.653-8.667c-1.94-1.941.806-2.333 16.333-2.333 14.445 0 17 .225 17 1.5 0 1.272-2.481 1.5-16.333 1.5-8.983 0-16.633-.3-17-.667zm-.418-11.583c.306-.919 4.839-1.323 17.084-1.525 14.386-.236 16.667-.065 16.667 1.25 0 1.306-2.444 1.525-17.083 1.525-13.222 0-16.99-.283-16.668-1.25zM26.824 43.55c-3.287-3.364-7.336-6.706-8.997-7.425-5.684-2.46-6.945-4.865-7.328-13.969-.397-9.446 1.272-14.464 5.444-16.365 1.61-.733 9.806-1.138 23.028-1.138h20.53l2.923 2.923c2.842 2.841 2.923 3.201 2.923 12.944 0 9.149-.21 10.265-2.41 12.827-2.329 2.708-2.791 2.817-13.335 3.14l-10.923.334-1.95 6.093c-1.072 3.352-2.394 6.243-2.939 6.424-.544.182-3.679-2.423-6.966-5.788zm8.203-3.647l1.82-5.75 11.203-.283c10.72-.27 11.291-.394 13.25-2.885 3.562-4.527 2.64-19.901-1.352-22.567-.605-.404-10.438-.742-21.85-.75-25.646-.02-24.75-.489-24.75 12.985 0 7.666.296 9.296 2 11 1.1 1.1 2.576 2 3.28 2 .705 0 3.954 2.7 7.22 6 3.265 3.3 6.257 6 6.648 6s1.53-2.588 2.531-5.75zm-11.68-14.75c0-1.267 2.334-1.5 15-1.5 12.667 0 15 .233 15 1.5 0 1.266-2.333 1.5-15 1.5-12.666 0-15-.234-15-1.5zm0-9c0-1.267 2.334-1.5 15-1.5 12.667 0 15 .233 15 1.5 0 1.266-2.333 1.5-15 1.5-12.666 0-15-.234-15-1.5z" fill="#686868"/></svg>