<?xml version="1.0" encoding="UTF-8" standalone="no"?>
<!-- Created with Inkscape (http://www.inkscape.org/) -->

<svg
   xmlns:dc="http://purl.org/dc/elements/1.1/"
   xmlns:cc="http://creativecommons.org/ns#"
   xmlns:rdf="http://www.w3.org/1999/02/22-rdf-syntax-ns#"
   xmlns:svg="http://www.w3.org/2000/svg"
   xmlns="http://www.w3.org/2000/svg"
   xmlns:sodipodi="http://sodipodi.sourceforge.net/DTD/sodipodi-0.dtd"
   xmlns:inkscape="http://www.inkscape.org/namespaces/inkscape"
   id="svg3372"
   version="1.1"
   inkscape:version="0.91 r13725"
   width="150"
   height="154"
   viewBox="0 0 150 154"
   sodipodi:docname="discuss.svg">
  <metadata
     id="metadata3378">
    <rdf:RDF>
      <cc:Work
         rdf:about="">
        <dc:format>image/svg+xml</dc:format>
        <dc:type
           rdf:resource="http://purl.org/dc/dcmitype/StillImage" />
        <dc:title></dc:title>
      </cc:Work>
    </rdf:RDF>
  </metadata>
  <defs
     id="defs3376" />
  <sodipodi:namedview
     pagecolor="#ffffff"
     bordercolor="#666666"
     borderopacity="1"
     objecttolerance="10"
     gridtolerance="10"
     guidetolerance="10"
     inkscape:pageopacity="0"
     inkscape:pageshadow="2"
     inkscape:window-width="1538"
     inkscape:window-height="877"
     id="namedview3374"
     showgrid="false"
     inkscape:zoom="1.5324675"
     inkscape:cx="75"
     inkscape:cy="77"
     inkscape:window-x="54"
     inkscape:window-y="-8"
     inkscape:window-maximized="1"
     inkscape:current-layer="svg3372" />
  <path
     style="fill:#686868"
     d="m 3.3474626,135.9404 0,-18.71215 4.10556,-4.18327 c 3.8718104,-3.94508 4.0654204,-4.42089 3.4004804,-8.35665 -0.51037,-3.02086 -1.0918401,-4.0163 -2.1055701,-3.60458 -0.7702603,0.31284 -2.0754703,0.84194 -2.9004703,1.17579 -1.27125,0.51442 -1.5,-0.85523 -1.5,-8.980957 0,-9.393143 -0.0508,-9.600685 -2.5,-10.215397 -3.1361501,-0.787122 -3.1286401,-1.333834 0.0532,-3.873079 1.97652,-1.577356 2.7347,-3.376586 3.35685,-7.966052 0.62606,-4.618436 1.40005,-6.441484 3.5025703,-8.25 2.5768501,-2.216513 3.4124001,-2.321513 18.4736801,-2.321513 14.6986,0 16.10047,-0.164895 20.5491,-2.417079 l 4.77434,-2.417079 -0.67186,5.667079 c -1.02003,8.60392 -2.41331,13.030054 -4.44371,14.116691 -1.52491,0.816108 -2.05842,3.209944 -3.13261,14.056059 -0.97233,9.817535 -1.74401,13.590507 -3.09924,15.153097 -2.42144,2.79194 -1.81184,3.72656 9.24206,14.16973 l 9.25739,8.74593 5.17622,-5.11192 5.17622,-5.11192 4.64705,5.31227 c 2.55587,2.92175 4.53268,5.62077 4.3929,5.99781 -0.13978,0.37704 -4.45453,4.32014 -9.58834,8.76244 -10.12334,8.75974 -12.44791,9.57719 -17.00808,5.98097 l -2.65772,-2.09593 -0.29569,6.59593 -0.29569,6.59593 -22.95431,0 -22.9543104,0 0,-18.71215 z m 11.0000004,2.71215 c 0,-8 0.38461,-13 1,-13 0.61538,0 1,5 1,13 l 0,13 7,0 7,0 0,-14.5 c 0,-7.975 -0.38026,-14.5 -0.84502,-14.5 -0.46475,0 -1.6595,0.9 -2.65498,2 -0.99549,1.1 -2.36051,2 -3.03338,2 -0.67287,0 -3.11209,-2.44808 -5.42047,-5.44018 -6.18426,-8.01595 -6.64709,-8.28335 -9.5754701,-5.53228 -2.4377203,2.29012 -2.4706803,2.54558 -2.4706803,19.14677 l 0,16.82569 4.0000004,0 4,0 0,-13 z m 31.77361,-4.00193 c -0.27799,-17.27381 -1.26638,-21.24204 -3.25576,-13.07141 -0.59279,2.43466 -1.66579,4.62265 -2.38445,4.86221 -0.71866,0.23955 -2.84267,-1.05322 -4.72003,-2.87283 l -3.41337,-3.30837 0,15.69616 0,15.69617 7.02361,0 7.02361,0 -0.27361,-17.00193 z m 17.92447,4.10359 c 3.19105,-2.69409 7.29484,-6.18159 9.11952,-7.75 l 3.3176,-2.85166 -3.36008,-3.24503 -3.36009,-3.24504 -4.92296,4.99811 -4.92295,4.99811 -5.28456,-5.21891 -5.28456,-5.21892 0.0256,8.46584 0.0256,8.46584 3.72438,2.71298 c 2.04842,1.49213 4.03853,2.72963 4.42248,2.75 0.38394,0.0204 3.30894,-2.16723 6.5,-4.86132 z m -36.81125,-17.94273 2.02301,-2.84106 -3.81306,-3.72337 c -3.32478,-3.24656 -4.33218,-3.68309 -7.86679,-3.40893 l -4.05372,0.31443 5.00575,6.25 c 2.75316,3.4375 5.38286,6.25 5.84377,6.25 0.46091,0 1.74838,-1.27848 2.86104,-2.84107 z m 13.67671,-2.73411 c 0.99505,-6.63544 -0.80949,-7.97654 -4.6083,-3.42482 l -2.92107,3.5 2.53868,2.25 c 1.39627,1.2375 2.93601,2.25 3.42164,2.25 0.48563,0 1.1917,-2.05883 1.56905,-4.57518 z m -6.56354,-4.92482 2.34862,-2.5 -5.34862,0 -5.34863,0 2.34863,2.5 c 1.29174,1.375 2.64174,2.5 3,2.5 0.35825,0 1.70825,-1.125 3,-2.5 z m 3,-6.5 c 0,-0.55 -1.28285,-1 -2.85078,-1 -1.56793,0 -4.15543,-0.428 -5.75,-0.9511 -1.59457,-0.52311 -4.81172,-1.44046 -7.14922,-2.03855 -2.3968,-0.61326 -4.25,-1.68347 -4.25,-2.45433 0,-1.078547 1.81167,-0.868447 8.58807,0.99593 7.73492,2.12809 14.40654,2.39332 14.41474,0.57305 0.006,-1.21461 2.03734,-18.663335 2.48907,-21.375008 l 0.45812,-2.75 -8.775,0 c -5.49167,0 -9.22401,0.449003 -9.975,1.2 -0.66,0.66 -1.2,3.585 -1.2,6.5 0,5.196811 -0.0572,5.3 -2.93665,5.3 -2.58218,0 -2.97446,-0.392275 -3.25,-3.25 l -0.31335,-3.25 -1.81201,2.66911 c -1.94366,2.863029 -2.95006,17.153448 -1.37898,19.580898 1.00993,1.56042 23.69099,1.79977 23.69099,0.25 z m -7.86888,-8.342017 c -1.52089,-1.832553 -0.28705,-2.811808 2.00036,-1.587623 1.25624,0.672322 2.50398,0.659907 3.80783,-0.03789 1.36998,-0.733192 2.14152,-0.710699 2.62811,0.07662 1.60522,2.597298 -6.35351,4.05851 -8.4363,1.548893 z m 8.01504,-13.268169 c -2.11106,-1.478641 -4.28627,-1.424497 -8.55326,0.212902 -1.00547,0.385833 -1.5929,0.077 -1.5929,-0.837448 0,-0.820043 1.70956,-1.960899 3.93958,-2.62903 3.39487,-1.017125 4.35355,-0.928584 6.93346,0.640356 1.83964,1.118752 2.7113,2.277906 2.26092,3.006632 -0.54608,0.88359 -1.30783,0.78329 -2.9878,-0.393412 z m -26.89888,7.108598 c 0.64843,-5.752829 3.09034,-9.49842 6.19244,-9.49842 1.31648,0 2.59845,0.5625 2.84882,1.25 0.25036,0.6875 0.79001,-0.448508 1.19921,-2.524461 1.12257,-5.695005 3.3768,-6.725539 14.7117,-6.725539 11.2015,0 12.03094,-0.57881 13.25319,-9.248457 l 0.66944,-4.748457 -2.62614,0.998457 c -1.44438,0.549151 -9.32568,0.998457 -17.51399,0.998457 -9.15787,0 -15.86697,0.446117 -17.43183,1.159116 -2.4743601,1.127393 -4.4841004,5.665076 -4.5799804,10.340884 -0.0226,1.1 -0.64831,3.096405 -1.39055,4.436456 -1.13762,2.053848 -1.13205,2.653946 0.0354,3.821429 0.93541,0.935409 1.38498,3.836038 1.38498,8.935988 0,6.284872 0.23001,7.360118 1.3717503,6.412563 0.75446,-0.626149 1.5984501,-3.149756 1.8755301,-5.608016 z m 0.19904,-21.24842 c 0.36473,-1.5125 1.39952,-3.3125 2.29954,-4 2.03175,-1.551999 26.25414,-1.782652 26.25414,-0.25 0,0.605607 -4.30608,1 -10.91822,1 -12.4219,0 -13.88472,0.351494 -15.13364,3.636385 -1.28348,3.375816 -3.3327301,3.059328 -2.50182,-0.386385 z m 93.553677,65.690148 0,-18.05986 5,-5.28676 c 6.0463,-6.39307 6.43792,-8.59352 1.52941,-8.59352 l -3.47059,0 0.6224,-14.410563 0.6224,-14.410556 -2.40181,-0.339444 c -2.16283,-0.30567 -2.39548,-0.81325 -2.33823,-5.101276 0.0787,-5.892722 2.47526,-9.431725 8.45685,-12.488169 3.91042,-1.998127 5.88462,-2.25 17.6357,-2.25 12.5423,0 13.37866,0.125744 16.03811,2.411299 l 2.80576,2.4113 0.31058,18.469757 0.31058,18.469756 -2.86074,0.997259 c -2.39501,0.83491 -3.06022,1.861417 -4.08597,6.305237 l -1.22523,5.30796 4.02539,4.10157 4.02539,4.10157 0,18.21215 0,18.21215 -22.5,0 -22.5,0 0,-18.05986 z m 17,0.15769 0,-14.90218 -2.92595,-1.01999 c -1.60927,-0.561 -3.69812,-2.19848 -4.64188,-3.63884 l -1.71594,-2.61886 -2.35812,2.21534 c -2.29072,2.15202 -2.35811,2.68187 -2.35811,18.54101 l 0,16.32569 7,0 7,0 0,-14.90217 z m -4,8.40217 c 0,-0.825 0.45,-1.5 1,-1.5 0.55,0 1,0.675 1,1.5 0,0.825 -0.45,1.5 -1,1.5 -0.55,0 -1,-0.675 -1,-1.5 z m 0,-6.5 c 0,-0.55 0.45,-1 1,-1 0.55,0 1,0.45 1,1 0,0.55 -0.45,1 -1,1 -0.55,0 -1,-0.45 -1,-1 z m 0,-7 c 0,-0.55 0.45,-1 1,-1 0.55,0 1,0.45 1,1 0,0.55 -0.45,1 -1,1 -0.55,0 -1,-0.45 -1,-1 z m 20,7 c 0,-8 0.38462,-13 1,-13 0.61538,0 1,5 1,13 l 0,13 3.5,0 3.5,0 0,-16.20239 0,-16.2024 -3.1485,-3.24842 -3.14849,-3.24842 -3.84393,3.29026 c -2.11416,1.80964 -5.64734,3.83057 -7.8515,4.49095 l -4.00758,1.2007 0,14.95986 0,14.95986 6.5,0 6.5,0 0,-13 z m -7.71788,-21.36198 c 1.76983,-0.7491 4.07512,-2.3241 5.12287,-3.5 l 1.90499,-2.13802 -10.65499,0 c -9.2897,0 -10.65499,0.21415 -10.65499,1.67126 0,4.85296 7.35918,6.89692 14.28212,3.96676 z m 10.48991,-12.63802 c 0.90554,-3.56754 0.81958,-4 -0.79503,-4 -0.99568,0 -1.96929,-0.47686 -2.16356,-1.059692 -0.21696,-0.650865 -3.55474,0.12074 -8.65156,2.000002 -4.56407,1.68283 -9.16762,3.05969 -10.2301,3.05969 -2.13124,0 -2.2027,0.13043 -1.32479,2.41821 0.50151,1.30692 2.47877,1.58179 11.37836,1.58179 l 10.77137,0 1.01531,-4 z m -10.95679,-6.049617 7.98611,-3.049606 -0.46136,-6.200392 c -0.71751,-9.642829 -1.15219,-11.101143 -2.88119,-9.666199 -0.8116,0.673565 -1.4588,2.902109 -1.4588,5.023151 0,5.88764 -1.57855,9.141681 -4.25048,8.761995 -1.79561,-0.25516 -2.41342,-1.22374 -3.07402,-4.81934 -0.45472,-2.475 -1.02488,-5.506808 -1.26701,-6.73735 -0.54731,-2.781448 -3.7598,-4.851611 -8.65849,-5.579614 -3.4531,-0.513172 -3.75,-0.365848 -3.75,1.860783 0,1.756334 0.69608,2.592782 2.54355,3.056468 3.31677,0.832456 2.57768,2.995809 -0.8808,2.578147 l -2.66275,-0.321565 0,7.258657 0,7.258656 2.89031,-2.769088 c 1.58966,-1.522999 3.15853,-2.335082 3.48637,-1.804629 0.79196,1.281417 -3.13431,6.199541 -4.94926,6.199541 -0.78508,0 -1.42742,0.450002 -1.42742,1.000002 0,2.18222 10.81971,1.00359 18.81524,-2.049617 z m 14.61966,-1.92564 2.5651,-0.975249 0,-16.69601 c 0,-14.132489 -0.25411,-16.976797 -1.65499,-18.524751 -1.45255,-1.605057 -3.36015,-1.828741 -15.59571,-1.828741 -15.21064,0 -18.06056,0.799571 -20.97787,5.885541 -2.26679,3.951876 -3.15185,8.407825 -1.56505,7.879465 0.71149,-0.236906 1.45866,-1.293449 1.66038,-2.347872 0.544,-2.84359 4.05955,-7.417134 5.70133,-7.417134 2.00037,0 1.80395,0.769149 -1.06809,4.182369 -2.41726,2.872747 -3.53359,7.574457 -1.5,6.317631 0.55,-0.339919 1,-1.196732 1,-1.904029 0,-0.707298 0.97065,-2.14324 2.15699,-3.190983 2.12665,-1.878186 2.14935,-1.876849 1.61346,0.09501 -0.29895,1.1 -0.85721,2.760053 -1.24058,3.689007 -0.55482,1.3444 0.0278,1.82499 2.85568,2.355501 6.11642,1.147447 9.61445,6.270368 9.61445,14.080494 0,4.676112 1.7314,2.266404 2.29497,-3.194067 0.65605,-6.356477 1.95532,-8.430933 5.28047,-8.430933 2.9601,0 4.41108,4.678986 4.41898,14.25 0.006,7.047348 0.25183,7.367271 4.44048,5.774751 z M 116.68749,50.854374 c -0.61718,-0.386008 -2.01666,-3.626832 -3.10997,-7.201832 l -1.98783,-6.5 -11.871117,-0.511015 c -7.05781,-0.303817 -12.81773,-1.046015 -14.20577,-1.830492 -3.62781,-2.050322 -5.16578,-7.078867 -5.16161,-16.876374 0.004,-9.8379151 1.89304,-14.5319765 6.56182,-16.3070443 1.41056,-0.5362908 12.6827,-0.97507427 25.049207,-0.97507427 30.56012,0 30.38524,-0.102779 30.38524,17.85753257 0,10.363282 -0.14742,11.164211 -2.58889,14.065742 -1.4239,1.692199 -3.27888,3.076725 -4.12219,3.076725 -0.84331,0 -5.19932,3.578324 -9.68003,7.951832 -4.7344,4.621134 -8.61675,7.657863 -9.26886,7.25 z m 16.97894,-17.201832 c 0.97457,0 2.87648,-1.104545 4.22648,-2.454545 2.27584,-2.275836 2.45455,-3.176114 2.45455,-12.365142 0,-8.512086 -0.29247,-10.2824071 -2.07258,-12.5454539 l -2.07258,-2.6348587 -24.11297,0 c -30.179187,0 -28.741867,-0.7361001 -28.741867,14.7197686 0,9.678001 0.16404,10.535186 2.45454,12.825686 2.33157,2.331572 3.05189,2.454545 14.377557,2.454545 8.37544,0 12.19989,0.371925 12.85358,1.25 0.51181,0.6875 1.73373,3.897202 2.71536,7.132672 l 1.7848,5.882671 7.1806,-7.132671 c 3.94932,-3.92297 7.97796,-7.132672 8.95253,-7.132672 z M 95.014123,24.985875 c -1.94098,-1.940979 0.8055,-2.333333 16.333337,-2.333333 14.44444,0 17,0.22549 17,1.5 0,1.272109 -2.48148,1.5 -16.33333,1.5 -8.98334,0 -16.633337,-0.3 -17.000007,-0.666667 z m -0.41766,-11.583333 c 0.30537,-0.918317 4.83837,-1.322752 17.083327,-1.524179 14.38648,-0.236654 16.66767,-0.06558 16.66767,1.25 0,1.306092 -2.44437,1.524179 -17.08333,1.524179 -13.221697,0 -16.989377,-0.282559 -16.667667,-1.25 z m -67.77254,30.147883 c -3.28706,-3.364796 -7.3356,-6.706177 -8.99677,-7.425293 -5.68431,-2.460727 -6.94539,-4.86468 -7.32787,-13.968838 -0.39688,-9.446779 1.27218,-14.4646477 5.44342,-16.3651942 1.6094,-0.7332919 9.8064,-1.1385574 23.02873,-1.1385574 l 20.52987,0 2.92308,2.9230769 c 2.84185,2.8418487 2.92308,3.2015507 2.92308,12.9442357 0,9.14866 -0.20995,10.265446 -2.41138,12.826923 -2.3277,2.708398 -2.79043,2.817357 -13.33436,3.139843 l -10.92297,0.334079 -1.94925,6.093787 c -1.07208,3.351584 -2.39472,6.242279 -2.93918,6.423768 -0.54447,0.181489 -3.67935,-2.423035 -6.9664,-5.78783 z m 8.20347,-3.647883 1.82007,-5.75 11.20283,-0.28231 c 10.72044,-0.270154 11.29099,-0.394376 13.25,-2.884859 3.56144,-4.527632 2.64003,-19.901611 -1.35254,-22.5675181 -0.60516,-0.4040777 -10.43779,-0.7415777 -21.85029,-0.7499997 -25.64557,-0.018926 -24.75,-0.4887693 -24.75,12.9846868 0,7.666667 0.29629,9.296296 2,11 1.1,1.1 2.57658,2 3.2813,2 0.70472,0 3.95313,2.7 7.2187,6 3.26556,3.3 6.25745,6 6.64863,6 0.39118,0 1.53026,-2.5875 2.5313,-5.75 z m -11.67993,-14.75 c 0,-1.266667 2.33333,-1.5 15,-1.5 12.66666,0 15,0.233333 15,1.5 0,1.266667 -2.33334,1.5 -15,1.5 -12.66667,0 -15,-0.233333 -15,-1.5 z m 0,-9 c 0,-1.266667 2.33333,-1.5 15,-1.5 12.66666,0 15,0.233333 15,1.5 0,1.266667 -2.33334,1.5 -15,1.5 -12.66667,0 -15,-0.233333 -15,-1.5 z"
     id="path3388"
     inkscape:connector-curvature="0" />
</svg>
